<svg id="visual" viewBox="0 0 900 600" width="900" height="600" xmlns="http://www.w3.org/2000/svg" xmlns:xlink="http://www.w3.org/1999/xlink" version="1.1"><rect x="0" y="0" width="900" height="600" fill="#191919"></rect><defs><linearGradient id="grad1_0" x1="33.3%" y1="0%" x2="100%" y2="100%"><stop offset="20%" stop-color="#191919" stop-opacity="1"></stop><stop offset="80%" stop-color="#191919" stop-opacity="1"></stop></linearGradient></defs><defs><linearGradient id="grad2_0" x1="0%" y1="0%" x2="66.7%" y2="100%"><stop offset="20%" stop-color="#191919" stop-opacity="1"></stop><stop offset="80%" stop-color="#191919" stop-opacity="1"></stop></linearGradient></defs><g transform="translate(900, 0)"><path d="M0 432.7C-85.3 426.9 -170.5 421.1 -216.3 374.7C-262.1 328.3 -268.4 241.2 -297.9 172C-327.4 102.8 -380 51.4 -432.7 0L0 0Z" fill="#004e70"></path></g><g transform="translate(0, 600)"><path d="M0 -432.7C87.3 -428.1 174.7 -423.5 216.3 -374.7C258 -325.9 253.9 -232.8 282.3 -163C310.8 -93.2 371.7 -46.6 432.7 0L0 0Z" fill="#004e70"></path></g></svg>