<svg id="visual" viewBox="0 0 900 600" width="900" height="600" xmlns="http://www.w3.org/2000/svg" xmlns:xlink="http://www.w3.org/1999/xlink" version="1.1"><rect x="0" y="0" width="900" height="600" fill="#191919"></rect><defs><linearGradient id="grad1_0" x1="33.3%" y1="0%" x2="100%" y2="100%"><stop offset="20%" stop-color="#191919" stop-opacity="1"></stop><stop offset="80%" stop-color="#191919" stop-opacity="1"></stop></linearGradient></defs><defs><linearGradient id="grad2_0" x1="0%" y1="0%" x2="66.7%" y2="100%"><stop offset="20%" stop-color="#191919" stop-opacity="1"></stop><stop offset="80%" stop-color="#191919" stop-opacity="1"></stop></linearGradient></defs><g transform="translate(900, 0)"><path d="M0 459.7C-91.2 453.9 -182.5 448.2 -229.9 398.1C-277.2 348.1 -280.8 253.7 -311.8 180C-342.8 106.3 -401.2 53.1 -459.7 0L0 0Z" fill="#004e70"></path></g><g transform="translate(0, 600)"><path d="M0 -459.7C79 -446 158 -432.4 228.5 -395.8C299 -359.2 361 -299.6 398.1 -229.9C435.2 -160.1 447.5 -80 459.7 0L0 0Z" fill="#004e70"></path></g></svg>