<svg id="visual" viewBox="0 0 900 600" width="900" height="600" xmlns="http://www.w3.org/2000/svg" xmlns:xlink="http://www.w3.org/1999/xlink" version="1.1"><rect x="0" y="0" width="900" height="600" fill="#191919"></rect><defs><linearGradient id="grad1_0" x1="33.3%" y1="0%" x2="100%" y2="100%"><stop offset="20%" stop-color="#0073a5" stop-opacity="1"></stop><stop offset="80%" stop-color="#0073a5" stop-opacity="1"></stop></linearGradient></defs><defs><linearGradient id="grad1_1" x1="33.3%" y1="0%" x2="100%" y2="100%"><stop offset="20%" stop-color="#0073a5" stop-opacity="1"></stop><stop offset="80%" stop-color="#191919" stop-opacity="1"></stop></linearGradient></defs><defs><linearGradient id="grad2_0" x1="0%" y1="0%" x2="66.7%" y2="100%"><stop offset="20%" stop-color="#0073a5" stop-opacity="1"></stop><stop offset="80%" stop-color="#0073a5" stop-opacity="1"></stop></linearGradient></defs><defs><linearGradient id="grad2_1" x1="0%" y1="0%" x2="66.7%" y2="100%"><stop offset="20%" stop-color="#191919" stop-opacity="1"></stop><stop offset="80%" stop-color="#0073a5" stop-opacity="1"></stop></linearGradient></defs><g transform="translate(900, 0)"><path d="M0 432.7C-57.5 390.7 -115 348.6 -183.5 317.8C-252 287 -331.3 267.4 -374.7 216.3C-418.1 165.2 -425.4 82.6 -432.7 0L0 0Z" fill="#23435a"></path><path d="M0 216.3C-28.8 195.3 -57.5 174.3 -91.7 158.9C-126 143.5 -165.7 133.7 -187.3 108.2C-209 82.6 -212.7 41.3 -216.3 0L0 0Z" fill="#0073a5"></path></g><g transform="translate(0, 600)"><path d="M0 -432.7C81.3 -424.6 162.7 -416.6 216.3 -374.7C270 -332.8 295.9 -257.1 327.4 -189C358.8 -120.9 395.7 -60.5 432.7 0L0 0Z" fill="#23435a"></path><path d="M0 -216.3C40.7 -212.3 81.3 -208.3 108.2 -187.3C135 -166.4 148 -128.5 163.7 -94.5C179.4 -60.5 197.9 -30.2 216.3 0L0 0Z" fill="#0073a5"></path></g></svg>