<svg id="visual" viewBox="0 0 900 600" width="900" height="600" xmlns="http://www.w3.org/2000/svg" xmlns:xlink="http://www.w3.org/1999/xlink" version="1.1"><rect x="0" y="0" width="900" height="600" fill="#191919"></rect><defs><linearGradient id="grad1_0" x1="33.3%" y1="0%" x2="100%" y2="100%"><stop offset="20%" stop-color="#191919" stop-opacity="1"></stop><stop offset="80%" stop-color="#191919" stop-opacity="1"></stop></linearGradient></defs><defs><linearGradient id="grad2_0" x1="0%" y1="0%" x2="66.7%" y2="100%"><stop offset="20%" stop-color="#191919" stop-opacity="1"></stop><stop offset="80%" stop-color="#191919" stop-opacity="1"></stop></linearGradient></defs><g transform="translate(900, 0)"><path d="M0 486.7C-68 485.5 -136 484.3 -186.3 449.7C-236.5 415.1 -269 347 -292 292C-315 237.1 -328.5 195.3 -359.4 148.9C-390.3 102.4 -438.5 51.2 -486.7 0L0 0Z" fill="#3cc0fa"></path></g><g transform="translate(0, 600)"><path d="M0 -486.7C45.2 -441.1 90.5 -395.5 157.7 -380.6C224.9 -365.8 314 -381.8 344.2 -344.2C374.3 -306.5 345.5 -215.2 359.4 -148.9C373.3 -82.6 430 -41.3 486.7 0L0 0Z" fill="#3cc0fa"></path></g></svg>