<svg id="visual" viewBox="0 0 900 600" width="900" height="600" xmlns="http://www.w3.org/2000/svg" xmlns:xlink="http://www.w3.org/1999/xlink" version="1.1"><rect x="0" y="0" width="900" height="600" fill="#161616"></rect><path d="M0 349L21.5 353.7C43 358.3 86 367.7 128.8 368.2C171.7 368.7 214.3 360.3 257.2 361.5C300 362.7 343 373.3 385.8 379.3C428.7 385.3 471.3 386.7 514.2 387.5C557 388.3 600 388.7 642.8 374.2C685.7 359.7 728.3 330.3 771.2 316.5C814 302.7 857 304.3 878.5 305.2L900 306L900 601L878.5 601C857 601 814 601 771.2 601C728.3 601 685.7 601 642.8 601C600 601 557 601 514.2 601C471.3 601 428.7 601 385.8 601C343 601 300 601 257.2 601C214.3 601 171.7 601 128.8 601C86 601 43 601 21.5 601L0 601Z" fill="#fa7268"></path><path d="M0 381L21.5 385.3C43 389.7 86 398.3 128.8 392.8C171.7 387.3 214.3 367.7 257.2 355.7C300 343.7 343 339.3 385.8 342.3C428.7 345.3 471.3 355.7 514.2 367.5C557 379.3 600 392.7 642.8 395.8C685.7 399 728.3 392 771.2 378C814 364 857 343 878.5 332.5L900 322L900 601L878.5 601C857 601 814 601 771.2 601C728.3 601 685.7 601 642.8 601C600 601 557 601 514.2 601C471.3 601 428.7 601 385.8 601C343 601 300 601 257.2 601C214.3 601 171.7 601 128.8 601C86 601 43 601 21.5 601L0 601Z" fill="#ef5f67"></path><path d="M0 393L21.5 394.3C43 395.7 86 398.3 128.8 396.7C171.7 395 214.3 389 257.2 398C300 407 343 431 385.8 443.8C428.7 456.7 471.3 458.3 514.2 458.7C557 459 600 458 642.8 445C685.7 432 728.3 407 771.2 402.2C814 397.3 857 412.7 878.5 420.3L900 428L900 601L878.5 601C857 601 814 601 771.2 601C728.3 601 685.7 601 642.8 601C600 601 557 601 514.2 601C471.3 601 428.7 601 385.8 601C343 601 300 601 257.2 601C214.3 601 171.7 601 128.8 601C86 601 43 601 21.5 601L0 601Z" fill="#e34c67"></path><path d="M0 480L21.5 485.2C43 490.3 86 500.7 128.8 494.7C171.7 488.7 214.3 466.3 257.2 461.7C300 457 343 470 385.8 471.3C428.7 472.7 471.3 462.3 514.2 465.7C557 469 600 486 642.8 484.2C685.7 482.3 728.3 461.7 771.2 455.7C814 449.7 857 458.3 878.5 462.7L900 467L900 601L878.5 601C857 601 814 601 771.2 601C728.3 601 685.7 601 642.8 601C600 601 557 601 514.2 601C471.3 601 428.7 601 385.8 601C343 601 300 601 257.2 601C214.3 601 171.7 601 128.8 601C86 601 43 601 21.5 601L0 601Z" fill="#d53867"></path><path d="M0 549L21.5 547.2C43 545.3 86 541.7 128.8 532.7C171.7 523.7 214.3 509.3 257.2 503C300 496.7 343 498.3 385.8 503.5C428.7 508.7 471.3 517.3 514.2 517.2C557 517 600 508 642.8 511C685.7 514 728.3 529 771.2 533.3C814 537.7 857 531.3 878.5 528.2L900 525L900 601L878.5 601C857 601 814 601 771.2 601C728.3 601 685.7 601 642.8 601C600 601 557 601 514.2 601C471.3 601 428.7 601 385.8 601C343 601 300 601 257.2 601C214.3 601 171.7 601 128.8 601C86 601 43 601 21.5 601L0 601Z" fill="#c62368"></path></svg>