<svg id="visual" viewBox="0 0 900 600" width="900" height="600" xmlns="http://www.w3.org/2000/svg" xmlns:xlink="http://www.w3.org/1999/xlink" version="1.1"><rect x="0" y="0" width="900" height="600" fill="#191919"></rect><defs><linearGradient id="grad1_0" x1="33.3%" y1="0%" x2="100%" y2="100%"><stop offset="20%" stop-color="#3cc0fa" stop-opacity="1"></stop><stop offset="80%" stop-color="#3cc0fa" stop-opacity="1"></stop></linearGradient></defs><defs><linearGradient id="grad1_1" x1="33.3%" y1="0%" x2="100%" y2="100%"><stop offset="20%" stop-color="#3cc0fa" stop-opacity="1"></stop><stop offset="80%" stop-color="#366680" stop-opacity="1"></stop></linearGradient></defs><defs><linearGradient id="grad1_2" x1="33.3%" y1="0%" x2="100%" y2="100%"><stop offset="20%" stop-color="#191919" stop-opacity="1"></stop><stop offset="80%" stop-color="#366680" stop-opacity="1"></stop></linearGradient></defs><defs><linearGradient id="grad2_0" x1="0%" y1="0%" x2="66.7%" y2="100%"><stop offset="20%" stop-color="#3cc0fa" stop-opacity="1"></stop><stop offset="80%" stop-color="#3cc0fa" stop-opacity="1"></stop></linearGradient></defs><defs><linearGradient id="grad2_1" x1="0%" y1="0%" x2="66.7%" y2="100%"><stop offset="20%" stop-color="#366680" stop-opacity="1"></stop><stop offset="80%" stop-color="#3cc0fa" stop-opacity="1"></stop></linearGradient></defs><defs><linearGradient id="grad2_2" x1="0%" y1="0%" x2="66.7%" y2="100%"><stop offset="20%" stop-color="#366680" stop-opacity="1"></stop><stop offset="80%" stop-color="#191919" stop-opacity="1"></stop></linearGradient></defs><g transform="translate(900, 0)"><path d="M0 432.7C-57.5 390.7 -115 348.6 -183.5 317.8C-252 287 -331.3 267.4 -374.7 216.3C-418.1 165.2 -425.4 82.6 -432.7 0L0 0Z" fill="#2a3e49"></path><path d="M0 288.4C-38.3 260.4 -76.7 232.4 -122.3 211.9C-168 191.4 -220.9 178.3 -249.8 144.2C-278.7 110.2 -283.6 55.1 -288.4 0L0 0Z" fill="#3d92bb"></path><path d="M0 144.2C-19.2 130.2 -38.3 116.2 -61.2 105.9C-84 95.7 -110.4 89.1 -124.9 72.1C-139.4 55.1 -141.8 27.5 -144.2 0L0 0Z" fill="#3cc0fa"></path></g><g transform="translate(0, 600)"><path d="M0 -432.7C59.9 -394.8 119.8 -356.9 188 -325.6C256.2 -294.3 332.5 -269.5 374.7 -216.3C416.9 -163.2 424.8 -81.6 432.7 0L0 0Z" fill="#2a3e49"></path><path d="M0 -288.4C39.9 -263.2 79.9 -238 125.3 -217.1C170.8 -196.2 221.7 -179.7 249.8 -144.2C277.9 -108.8 283.2 -54.4 288.4 0L0 0Z" fill="#3d92bb"></path><path d="M0 -144.2C20 -131.6 39.9 -119 62.7 -108.5C85.4 -98.1 110.8 -89.8 124.9 -72.1C139 -54.4 141.6 -27.2 144.2 0L0 0Z" fill="#3cc0fa"></path></g></svg>