<svg id="visual" viewBox="0 0 900 675" width="900" height="675" xmlns="http://www.w3.org/2000/svg" xmlns:xlink="http://www.w3.org/1999/xlink" version="1.1"><rect x="0" y="0" width="900" height="675" fill="#191919"></rect><defs><linearGradient id="grad1_0" x1="25%" y1="0%" x2="100%" y2="100%"><stop offset="23.333333333333336%" stop-color="#191919" stop-opacity="1"></stop><stop offset="76.66666666666666%" stop-color="#191919" stop-opacity="1"></stop></linearGradient></defs><defs><linearGradient id="grad2_0" x1="0%" y1="0%" x2="75%" y2="100%"><stop offset="23.333333333333336%" stop-color="#191919" stop-opacity="1"></stop><stop offset="76.66666666666666%" stop-color="#191919" stop-opacity="1"></stop></linearGradient></defs><g transform="translate(900, 0)"><path d="M0 506.3C-92.9 495.5 -185.8 484.8 -253.1 438.4C-320.4 392 -362.2 310 -400.1 231C-438 152 -472.1 76 -506.2 0L0 0Z" fill="#004e70"></path></g><g transform="translate(0, 675)"><path d="M0 -506.2C89.2 -493.4 178.4 -480.5 253.1 -438.4C327.8 -396.3 388 -324.9 427.8 -247C467.6 -169.1 486.9 -84.5 506.3 0L0 0Z" fill="#004e70"></path></g></svg>