<svg id="visual" viewBox="0 0 900 675" width="900" height="675" xmlns="http://www.w3.org/2000/svg" xmlns:xlink="http://www.w3.org/1999/xlink" version="1.1"><rect x="0" y="0" width="900" height="675" fill="#191919"></rect><defs><linearGradient id="grad1_0" x1="25%" y1="0%" x2="100%" y2="100%"><stop offset="23.333333333333336%" stop-color="#004e70" stop-opacity="1"></stop><stop offset="76.66666666666666%" stop-color="#004e70" stop-opacity="1"></stop></linearGradient></defs><defs><linearGradient id="grad1_1" x1="25%" y1="0%" x2="100%" y2="100%"><stop offset="23.333333333333336%" stop-color="#004e70" stop-opacity="1"></stop><stop offset="76.66666666666666%" stop-color="#191919" stop-opacity="1"></stop></linearGradient></defs><defs><linearGradient id="grad2_0" x1="0%" y1="0%" x2="75%" y2="100%"><stop offset="23.333333333333336%" stop-color="#004e70" stop-opacity="1"></stop><stop offset="76.66666666666666%" stop-color="#004e70" stop-opacity="1"></stop></linearGradient></defs><defs><linearGradient id="grad2_1" x1="0%" y1="0%" x2="75%" y2="100%"><stop offset="23.333333333333336%" stop-color="#191919" stop-opacity="1"></stop><stop offset="76.66666666666666%" stop-color="#004e70" stop-opacity="1"></stop></linearGradient></defs><g transform="translate(900, 0)"><path d="M0 562.5C-103.3 550.6 -206.5 538.7 -281.2 487.1C-356 435.6 -402.2 344.3 -444.3 256.5C-486.4 168.7 -524.4 84.3 -562.5 0L0 0Z" fill="#1c3242"></path><path d="M0 281.3C-51.6 275.3 -103.3 269.4 -140.6 243.6C-178 217.8 -201.1 172.2 -222.1 128.3C-243.2 84.3 -262.2 42.2 -281.2 0L0 0Z" fill="#004e70"></path></g><g transform="translate(0, 675)"><path d="M0 -562.5C99.3 -548.3 198.7 -534.2 281.2 -487.1C363.8 -440.1 429.6 -360.2 473.7 -273.5C517.8 -186.8 540.1 -93.4 562.5 0L0 0Z" fill="#1c3242"></path><path d="M0 -281.2C49.7 -274.2 99.3 -267.1 140.6 -243.6C181.9 -220 214.8 -180.1 236.9 -136.8C258.9 -93.4 270.1 -46.7 281.3 0L0 0Z" fill="#004e70"></path></g></svg>