<?xml version="1.0"?>
<svg width="900" height="600" xmlns="http://www.w3.org/2000/svg" xmlns:svg="http://www.w3.org/2000/svg" version="1.1">






 <g class="layer">
  <title>Layer 1</title>
  <rect fill="#0f0f0f" fill-opacity="0.01" height="600" id="svg_1" width="900" x="0" y="0"/>
  <g id="svg_2" transform="translate(900, 0)">
   <path d="m0,432.7c-57.5,-42 -115,-84.1 -183.5,-114.9c-68.5,-30.8 -147.8,-50.4 -191.2,-101.5c-43.4,-51.1 -50.7,-133.7 -58,-216.3l432.7,0l0,432.7z" fill="#2a3e49" id="svg_3"/>
   <path d="m0,288.4c-38.3,-28 -76.7,-56 -122.3,-76.5c-45.7,-20.5 -98.6,-33.6 -127.5,-67.7c-28.9,-34 -33.8,-89.1 -38.6,-144.2l288.4,0l0,288.4z" fill="#3d92bb" id="svg_4"/>
   <path d="m0,144.2c-19.2,-14 -38.3,-28 -61.2,-38.3c-22.8,-10.2 -49.2,-16.8 -63.7,-33.8c-14.5,-17 -16.9,-44.6 -19.3,-72.1l144.2,0l0,144.2z" fill="#3cc0fa" id="svg_5"/>
  </g>
  <g id="svg_6" transform="translate(0, 600)">
   <path d="m0,-432.7c59.9,37.9 119.8,75.8 188,107.1c68.2,31.3 144.5,56.1 186.7,109.3c42.2,53.1 50.1,134.7 58,216.3l-432.7,0l0,-432.7z" fill="#2a3e49" id="svg_7"/>
   <path d="m0,-288.4c39.9,25.2 79.9,50.4 125.3,71.3c45.5,20.9 96.4,37.4 124.5,72.9c28.1,35.4 33.4,89.8 38.6,144.2l-288.4,0l0,-288.4z" fill="#3d92bb" id="svg_8"/>
   <path d="m0,-144.2c20,12.6 39.9,25.2 62.7,35.7c22.7,10.4 48.1,18.7 62.2,36.4c14.1,17.7 16.7,44.9 19.3,72.1l-144.2,0l0,-144.2z" fill="#3cc0fa" id="svg_9"/>
  </g>
 </g>
</svg>