<svg version="1.2" xmlns="http://www.w3.org/2000/svg" viewBox="0 0 800 800" width="800" height="800">
	<title>image</title>
	<style>
		.s0 { fill: #f0db4f } 
		.s1 { opacity: 1;fill: #000000 } 
	</style>
	<g id="Background">
		<path id="Path 0" class="s0" d="m0 1l1-1h799v800h-53-7-22-151-400l-167-1z"/>
		<path id="Path 1" class="s1" d="m0 0h1v1h-1zm0 800v-1l167 1z"/>
		<path id="Path 2" fill-rule="evenodd" class="s0" d="m429 276v-1h2zm14 51v-1h2zm-99 22l3 5 2-1 1-18 2 8 3-2v11 1 6l-2-2-1 6-2-1h-2l-3-5v-1-1zm42-5h1v1h-1zm72 5h-3l3-1zm-117 3l-1-2h3zm106-2h1v1h-1zm136 5l1-1 2 2zm-239 0h1v1h-1zm-2 2l2-1v1zm-1 0h1v1h-1zm265 2h1v1h-1zm2 0h1v1h-1zm-1 1h1v1h-1zm-269 3l6-2v2l-1 1zm6 1v2l-1-2zm205 10h1v1h-1zm-200 9l3-1-1 5h-2v-1zm182 3v-1l2 1zm159 0h1v1h-1zm-342 3v-2h1zm175 5v-2l2 1zm189 9h1v1h-1zm34 15l1-2 1 2zm-2 3h-3l1-3 2 2zm-5 2h1v1h-1zm-25 6h1v1h-1zm-376 1h1v1h-1zm1 1h1v1h-1zm243 3l1-1v4zm14 2l3-1-3 4v-2zm36 3l1-2v2zm-40 0v-1l4 1v1h-3zm78 24h-2l2-2zm-89 5h1v1h-1zm-233 1h1v1h-1zm143 6h1v1h-1zm0 3v-1l2 1zm-140 12l2-2v2zm259 8l1-1h1v2h-2zm-260 5l1-1h1zm305 21l-2 2-1-2zm19 5h1v1h-1zm-155 3v-1l1 2zm80 15v-2h1zm102 4h-2l2-1zm-110 26l1-2v2zm3 2l2-2v2zm-237 18v-3l2 3zm80 14l-1-2h1zm-83 8l1-2h3l-1 4-4 1zm182 4v-1l2 1zm-184 2h1v1h-1zm161 5h4l1 3-5-2zm-268 14v-2l2 2zm46-2h1v1h-1zm57 3v-1l2 1zm145 0l3-1 2 3-4 1zm-245 3l1-2v2zm-7 4l-1-3 3 2zm104 1h1v1h-1zm2 0h1v1h-1zm-156 3l-1-2 2 1zm125 2h1v1h-1zm5 1h1v1h-1zm247 3h1v1h-1zm-369 4l1-2 3 3-1 2h-1l-2 1-2-3v-1zm3 5l-1-2h1zm5 2v-2h1 1l-1 3zm0 3v-2h1zm223-2h1v1h-1zm298 7h1v1h-1zm-296 1h1v1h-1zm293 7l1-2 1 2zm-292 7h1v1h-1zm-25 4l4-3 2 3-4 2-2-1zm-3 0l3-2v2zm-1 6v-1l2 1zm2 0h1v1h-1zm-182 2h3v1zm173 0l3 2h-2zm10-1h1v1h-1zm-9 5l-2-1 2-1zm34 6l1-3v3zm255 3l2-1v1zm-425 5l2-2-1 3zm-1 0h1v1h-1zm1 1h1v1h-1zm-60 1h1v1h-1zm61 1v-1l2 1zm-2 1h1v1h-1zm1 1h1v1h-1zm12 6l-1-5 6 4h-3v-2l-1 2zm260-4v-1l2 1zm131 1l1-2v2zm-244 4l2-1-1 2zm209 0l2-1-1 2zm-100 1l1-1 1 2zm98 0l2-1 1 1zm-201 4h1v1h-1zm100 0h1v1h-1zm-186 10v-1l2 2zm201 0l-2 1 2-2zm-215 3l3-1-1 3-1 1-1-2z"/>
		<path id="Path 3" fill-rule="evenodd" class="s1" d="m457 239h1v1h-1zm1 1h1v1h-1zm-36 2h1v1h-1zm-1 6l2-5 2 2-2 2-1 1zm3-2h1v1h-1zm-2 2l1-1h1l1 18-3 3-1-2 1-2-2-1 2-3zm-2 0h1v1h-1zm-1 5h1v1h-1zm2 6h1v1h-1zm-67 1h1v1h-1zm2 19v-8h-3l2-10 3 1h1 1l4 6 4-2 1 8-6 7zm3-18h1v1h-1zm61 5h1v1h-1zm1 11l2-8 2 10 4-3 2-1 2 6 8 3-8 59 11-3 2-4-3-3-1-1-1-7 2 1v1l2-1h-2l5-5-2-3 6 1 1 3-5 3 5 2 1 4-6 1 2 3-2 3-3 4 3 1 3 1-2 2-1 4h-1v1l-1 1h1v-1l1-1 7-9v5l2 1 2-4v3l-1 2-3 1h3l-1 2v7l5 1-1 3-3-1v4l3-1 1 3-6 5v6l-6 8-3 6 3 2-5 4 1 11 3 1-3 1 1 3-2 1-1 5 3 1 12-14 3 4-1 8-1 2v1l1 2-1 8v1l-16 20 2 10v2l-1 5v6 6h-3l-1 4 2 11-4 14 2 3v1l-1 5-1 9 2 4-3 3 2 9-2 1v1l2 4-2-2v4h2l44-3 12 2v1l-3 1-1 6v1l2 6-5 2-52 4-1 33v3l1 2-1 2 1 7-4 2v1l1 1 1 1-1-1-1-1v-1l5 3v1l-1 5-2 2 2 3-5 1 4 5-7 4 2 2-2 3h-3-1 1 3l1 4v1l-3 4 1 5 6 1-1 3 4 1-5 4h-1-1v1l1-1h1l1 5-1 1v2l1 1 2 2-3 3 1 7v1l1 1 1 6-3 1v4l2-1 1 8-2 3v-3l-1 3-2 1v2l-1 2 5 2-1 5-1 1h-1l-5 1 4 2v3l-3-1 1 7h-1-1l-4-1v-3l1-2-2 1-2-12h1-1v-3-2l-1-7-2 2-2-8 3-6-3-2-2-3-4 3v-2l-3 2h3v1l-1 1v2 2h-1l-2-1v1l-1 1 1-1h2l1 1 1 1-5 4v-1l-3-1-3-2 1 2-2 1 2 1 1 3h-3l-1 2h-1l-1 3-7 1-1 5-4 2h-1 1l-7 5-1 3-2 1-1 1h-2v-1l1-1-1 1v1l5 1-5 3h-1v1l-2 1-1-3 1 3-4 1v1l-2 4-2-2-1 4-2-1 1 3-3-4-1 2-8 2-2-2v1l2 1-1 3h-4v-1-1h-1l-8 3 1-3-3 1-1-2 11-9h-5v-10h-7l-2 3-2-3v5l-2-1-3 1-2-1 2 1-5 1v-4l-6-1-4 1-7-3-5 2-4-1v-1l-4-1-2 3-6-4 1 5-2 1-2-6h-4l-1 4-5-2-2-2 3-1h1l1 1v-1-1-1h2l-2-1v-1l1-3-2 2h-1l1 1 1 1v1l-1 1h-1l-1-1 1 1v1l-3 1-5-2 3-2h-10l-2-3 4 6-7-1-3 6-3-1v4l-4-1-1-5h-6l-7 4-4-3-5 2-1-5-2 1 1-6 15-5 5 2 1-4 4-1-9-6-1-6 3 2 3 1v-1h-3l1-4 4-4-1-4h-1l-5-5-1-1-1-1-1-1-3-5-2 1 1 3-7-6 3-5-2 2-2-2 1-2 1-3h-1-1v2 1 2l-1 3-4-1 2-2-2-4v-1-2l1-2-3-3-1 2h-2v-1l-5 4 1-8-4 1 2-3h2l2 3 2-8 2 4 2-2 3 2 3-4v4l5 1 2 4 1 2 3-4 1-3 5 1v-1h3l1 1-1-1 1-4 8-1h1-1l-1-2 4 1 1-3 1 3 2-1-3-2-2-2 3-1 1-1 5 3h1 1v-2l-1 2h-1l-2-4h2l-2-2 5 1v-4h3 1v-1l-1-1 2-3 5 3-1-3 5-1 2-6v-1l-1-2 6-1-3 7h-1 1l15-5 2 1 7 8-3 1 3 3-5 3 1 4h3v-3l1 1 1 2-1 1v1-1l1-1 4 3v3l-2-2-1 2 6 5-1 3 8 3h1 5l1-2 2-1 1-1 4 1v1h1l4 4 3-1 1 2 3-5h8v-3l2-2-2-2h4l1 1h1l1-1 2-2h1l2-2-3-1-1-1-1-1v-1h2l-2-1 1-14 2-4h1 1v-1l-2-7 4-1-1 2-1 3 4-1 1-4h-3v-2h3l-2-1 2-3 1 1-1-1-4-1 4-2v-1l-1-3 2-3-3-1 1-3h2l-2-3-1-4v-9l11-3h1l2-8v-1l-5-2 2-1-2-4h-6-2-1-3l3-5-2-9 1-2 1 1-1-1v-1l3-1-2-3h-3v-4l2 1 1-6 1-2-3-2 1-3 2-3-6-12 1-2h-3l1-5 2-1h-1l-3-2 3-2v-8h2v-2l-2 2 1-5-3-2-1-4-2-5-2-4-1-5-2-1 2-5 1 4h3l-2 3 4-1-1 3v1 1l1-1h1l1-2-3-6 4-1-4-1 4-4-1-4-2 1 1-4-3-1 2-5 5 10 2 1v-3l-3-9-1-5 3-2h-3l-1-4v-1-3l2-2-2-2 2-6-4-1 2-3-1-4 3-2-3-4-2-7 3-1h-3v-5l1-2h2l1-5-3 1v3l-1-1-2-3-3-2v-5l3 4 2-3h5l-4-2 1-3-5 2h-3l-2 1 2-6-4-4v-1l5 1 1 2v-2-1-2l-6 2-2-4 5-1 1-1h2 1l3 5h2l2 1 1-6 2 2v-6-1-11l-3 2-2-8-1 18-2 1-3-5-1-1-1-8 3-2 1 1-1-1 3-5-4-10 6 1v-15l4 2h2l1-4h-2l2-6v-1l-1-1-1-9 2-2 1-1-1 1-1-5 4 1 6 7 3-1-1 25 6-1 6 6-2 6 3 9v23l6 2-1-12v-3l1-1 2 1 3-5-8-2 1-6 6-11 3 2 2-2 1 15 4-18 3 2h1v-1-1l1-11v-1-4l5 2v-3l4 3v-3l2 1h4l-2-3 2-12 2-6v-5zm12-8h1v1h-1zm-4 6l3-5 2 4-3 1zm-76-1h1v1h-1zm75 1h1v1h-1zm-73 4h1v1h-1zm78 1h1v1h-1zm-12 2h1v1h-1zm-1 4h1v1h-1zm-66 3h1v1h-1zm24 23v3l-3-3-1-11 5-3v9l-1 4zm-3-14h1v1h-1zm-20 1h1v1h-1zm96 1l-1 3-2-3zm0-1h1v1h-1zm-98 1h1v1h-1zm3 0h1v1h-1zm-1 1h1v1h-1zm50 5h1v1h-1zm-55 1h1v1h-1zm2 0h1v1h-1zm92 3h1v1h-1zm-66 1h1v1h-1zm66 1h1v1h-1zm-40 2h1v1h-1zm45 0h1v1h-1zm-70 4h1v1h-1zm74 0h1v1h-1zm-49 1h1v1h-1zm49 7h1v1h-1zm-109 1h1v1h-1zm39 1h1v1h-1zm59 5h-2l2-1zm-60 0h1v1h-1zm61 0v2l-1-2zm10 0h1v1h-1zm7 0h1v1h-1zm-18 5h1v1h-1zm7 1h1v1h-1zm9 0h1v1h-1zm-121 4h1v1h-1zm49 0h1v1h-1zm-1 1h1v1h-1zm-45 6l-2-3 2-2 3 3 1 1 1 6h-1l-3-3 2-2zm119-4h1v1h-1zm-1 3v-1l2 1zm-117 3l-2 1 1-3zm243 2l5-2v3l-1 2h3l4-2 4 8 6-1 1-3 1 1 1 1 2 4 8-2 5 2 5-4 1 5 2 1h1l7-1v-3l2 1v1l3-2 1 4 3-1h1 3l7 2 3 1h4l5 1h2l4-2 2 3 7 3-1 3 3-3 2 3-1 2 4 3 2 3-3 1h-1-1v1 1l2 3 3-4v3l6 1-1 4 5 3 2 2v1-1l5 3v1-1l6 1 1 6v1l7 7 17-6h3l1 4-1 2-1 1-1 1-2-2 2-1-2 1-1 3h3l-4 1-1-2-10 7-1-2-1 4-2-3-5 4-4-1h-1-1l1 1-7 1-3 5-1-3-3 2-2 4h-1-2l-5 4 2 2-2 2-3-1 1 3-2-1-3 3 1 4-3-3-2 3-2-4-2 6-1 5-5 1v-2l-2 2h2l-3 1 3 1-1 3-6-1 2 3-2 3-8 4-5 4-6-2-3-3 1-6-2 2v-3l4-1-2-3 1-7 1-1-1 1-3-1 2-4h1l-2-4-3-1-4-6 2-1v-3l-3 1v-2l-1 2v1l-7-2h-2l-6-1h-1v-2l-2 2-3-2-1 5-5-2-2 3-7-1v-1l3-4-3 1v1 2l-4-1-4-3v-1l-1-1v1l-1 2-3 1v-4h-1l-1 1h1l1 3-3 3v-3h-4l3 5h1l1 2 1 3-5-2v3l5 3-2 2 4 7-2 3v1 1l-1 2v1l1 1 1 1-2 9h2l2 3h6l-1 4 5 4 2 1 4 3 4 1v3l2-1 2 2h1 2 1l10 11 2-1-2-2h3l-2 5 5-3v4l7 4 4-1v3l8-2-1 5 5 2 1 2 2-2 3 3h1l4 5 3-1-3-1 1-3 10 2 1 1-2 2h-1 1l64-9 10 3-2 5 2-1-1 3 10 7-49 6-6 4-2 1h2l3 4-3 1h4l4 8 2-2 15 17 3 5h4l5 7 2 2-2 3 5-2 1 2-4 15 3 3 2-2-1 5h4l-2 4-4 5 1 5 1 5-4-1-1 3-1 1h-1l-2 21 1 6-2 6-4 2v7h-1-1v1 3l1 2-2 2-1-2-1 2h2v2 1 2h-1l-1-1 1 1h1l4 3-4 4-4-2h-1l-7 3v1 1h-4l-2 5h-4l2 2-7 2-1-1 1 1v1l2 2-8-1-5 5-2 1v1l-5 3 26 33-4 4-9 6-3-3-26-31v-2l-1 2-4 2-4 1h-4l-4 3-3-3-1 2-4-3-7 1v5h-8l2-3h3l1-2-2 1-2 1-10-2h-2-1l-2 1-1-1h-1-5l1-1-1 1h-4l-4-2-6 3v-3l-3 1v2l-5-2-3 2-2-1h-1-3v4l-3-2-1 2-1-4-2 3-3-1-7 14-4 2-11 1-1-3v-1l-2 2 2-1-5 7-2 3-1 2-1 1h-1l-2 5-2-1h-1-1l5-11 1-1-1 1-7-1 1-4v-5-1-1-1l2-2 1-1v-1l2-3 2 1-1-2 3-5h2l-2-1 3-3-4-6h5l-2-4v-1l-8-4 1-2-5-2v-1l-4-5h-6v-3l-8-3-39-28-1-6 3-3-2-4h-1l-3 1-1-4 4-1h2 1l3-1-2-5 5 4 6-3 1 2 5 1v1-1l4-3 1 3-2-6h3l1 3 4-1-2-3-3 1-1-4 4-2 5 1v-5l3 1v5l2-1 2-4v-1l-2-4 3-1 1 3 3-2 5 2-1-3 1-1-1 1h-4v-3l6-2 1 2 3-3 1-2 10 2h1 1v-1h2l-2-1-1-4 3-3 1 3 3 4 11-2-1 3 5 3 1 5v1l-1 6v1l1 2 1 1 11 10v1l-3 8 4 3 1-3 1 4 4-1 2 3 2-3 4 1 3-7 6 3 5-1 4 2v-2l10 3 24 31 2 1 3-1 3 3 2-2-1-2 4 1h1l8 1 1 1-1-1-23-30 4-5 1 3h4v-4l3 1 1-3-3-1 3-3h1l1-1-1 1h-1l-7-1 5-5 1-8 4 1-4-6 4-1-1-8 2 1 2-4-3-5h-1-4l-1 2-2-3 3-2-7-1h-1v-3l-4-1 2-5h-4l-2-2-6-5-7-4-7-5h-1-1l-3-2h-1l-3-2v-1l-6-4v-2l-2 2h-1l-1-2v-2l-1 2-4-1h-1l-1-1-12-6-8-4-5-3 64-7 2-1h1l-1-1v1l-2 1-8-5-1-2-8-3 1 8h-3l-6-6 1-2h-1v2h-5l1-4-8 1v-3l-59 5-6-4-2-9-1-2-5-3-2-7-1 5-4-5-2-1 2-3v-1l-3-2-3-6-2-10-3 1v-5l-2 1-1-6-2-1 2-1-4-3 2-6h2l-2-1v-1l1-1 1-1h2 1-1l-3-5 1-3-1-3v-1l-3-2 7-9-3-4 6-7v-1l1-5v-1-2l5-20v-1-1l3-7v3l3-1-1-5 3-3 5 1v-1l3-1 2-1 2-1-2-1v-4l5-3h3v1h2l-2-1 3-2 7-1v-5l8 1v-3l1-1 6-3h3v-3h1 4l6-6 7-7 5 2 1-2 3 1zm9-1h1v1h-1zm3 0h1v1h-1zm3 0h1v1h-1zm-16 1h1v1h-1zm7 0h1v1h-1zm-255 1h1v1h-1zm4 0h1v1h-1zm2 2l3-2v1l-2 1zm248-2h1v1h-1zm-255 1h1v1h-1zm10 0h1v1h-1zm-7 1h1v1h-1zm3 0h1v1h-1zm266 1h1v1h-1zm2 0h1v1h-1zm-1 1h1v1h-1zm2 0h1v1h-1zm-41 1h1v1h-1zm40 0h1v1h-1zm9 1h1v1h-1zm-157 2h1v1h-1zm169 3l2-3v4zm16-3h1v1h-1zm-308 1h1v1h-1zm304 0h1v1h-1zm-78 1h1v1h-1zm85 0h1v1h-1zm4 0h1v1h-1zm9 1h1v1h-1zm7 0h1v1h-1zm-110 1h1v1h-1zm101 0h1v1h-1zm6 1h1v1h-1zm17 1h1v1h-1zm-344 1h1v1h-1zm217 0h1v1h-1zm-6 4l1-2v2zm-201-1h1v1h-1zm341 0h1v1h-1zm-349 1h1v1h-1zm209 1l-2 2 2-3zm-202 0h1v1h-1zm180 2h1v1h-1zm163 0h1v1h-1zm-164 1h1v1h-1zm11 0h1v1h-1zm2 0h1v1h-1zm-15 1h1v1h-1zm7 0h1v1h-1zm3 0h1v1h-1zm-6 6h-3v-5zm2-3l2-2h2v3zm6-2h1v1h-1zm-7 1h1v1h-1zm-6 3h1v1h-1zm-176 1h1v1h-1zm1 1h1v1h-1zm102 0h1v1h-1zm241 0h1v1h-1zm-169 1h1v1h-1zm168 0h1v1h-1zm-170 1h1v1h-1zm-4 5h1v1h-1zm-66 1h1v1h-1zm68 2h-3l2-2zm2-2h1v1h-1zm184 1h1v1h-1zm1 2h1v1h-1zm6 3h1v1h-1zm-362 1h1v1h-1zm159 0h1v1h-1zm-160 1h1v1h-1zm112 3h1v1h-1zm-111 1h1v1h-1zm110 0h1v1h-1zm45 0h1v1h-1zm252 1h1v1h-1zm-294 1h1v1h-1zm292 6l2-6 3 4v1l-2 1-2 1zm9-6h1v1h-1zm-259 1h1v1h-1zm257 0h1v1h-1zm-42 1h1v1h-1zm29 1h1v1h-1zm11 1h1v1h-1zm-412 1h1v1h-1zm100 0h1v1h-1zm313 0h1v1h-1zm-9 1h1v1h-1zm4 1l-2 2 1-3zm-5 0h1v1h-1zm-2 3l-1-2 3 1zm-2 1v-1h2zm-2 1l1-1h1l1 2h-3zm-282 0h1v1h-1zm-2 1h1v1h-1zm3 0h1v1h-1zm-115 1h1v1h-1zm391 0h1v1h-1zm-278 1h1v1h-1zm40 0h1v1h-1zm237 0h1v1h-1zm2 0h1v1h-1zm-2 3l1-2h1zm-388-1h1v1h-1zm391 0h1v1h-1zm-13 2h1v1h-1zm-390 3l2 1h-1zm12-1h1v1h-1zm365 0h1v1h-1zm-378 1h1v1h-1zm162 0h1v1h-1zm228 0h1v1h-1zm-390 3l1-2h1l1 1zm3-2h1v1h-1zm120 1h1v1h-1zm40 2h-2l2-1zm-177-1h1v1h-1zm2 0h1v1h-1zm11 0h1v1h-1zm246 0h1v1h-1zm129 0h1v1h-1zm5 0h1v1h-1zm-129 1h1v1h-1zm123 0h1v1h-1zm-387 1h1v1h-1zm4 0h1v1h-1zm13 0h1v1h-1zm369 0h1v1h-1zm-370 1h1v1h-1zm371 0h1v1h-1zm5 0h1v1h-1zm-125 1h1v1h-1zm112 0h1v1h-1zm-111 1h1v1h-1zm19 2l4-2-1 2-2 2zm15-1l-2-1h2zm-298 0h1v1h-1zm172 1h-2l2-1zm126-1h1v1h-1zm2 0h1v1h-1zm5 0h1v1h-1zm67 0v2l-1-2zm2 0h1v1h-1zm-88 1h1v1h-1zm3 0h1v1h-1zm91 0h1v1h-1zm-355 1h1v1h-1zm251 0h1v1h-1zm23 0h1v1h-1zm-32 1h1v1h-1zm-13 1h1v1h-1zm-89 3h1v1h-1zm-146 1h1v1h-1zm291 1h1v1h-1zm-305 1h1v1h-1zm306 0h1v1h-1zm-304 1h1v1h-1zm303 0h1v1h-1zm2 0h1v1h-1zm-304 1h1v1h-1zm-1 1h1v1h-1zm157 0h1v1h-1zm150 0h1v1h-1zm-306 2h1v1h-1zm14 1h1v1h-1zm96 0h1v1h-1zm192 1l2 2-3 3zm44 2h1v1h-1zm-43 3h1v1h-1zm-147 1h1v1h-1zm148 0h1v1h-1zm36 0h1v1h-1zm2 0h1v1h-1zm-37 1h1v1h-1zm-58 2v-1l2 1zm54-1h1v1h-1zm40 0h1v1h-1zm-190 1h1v1h-1zm3 0l2 3-2 1zm152 0h1v1h-1zm-59 3l4-1-3 3-1-1zm-1-1h1v1h-1zm-233 1h1v1h-1zm320 0h1v1h-1zm-178 4h1v1h-1zm1 4l-3-1 1-2 2 2zm0-1v-2l2 1-1 1zm175-1h1v1h-1zm-83 2h1v1h-1zm80 0h1v1h-1zm-173 1h1v1h-1zm94 0h1v1h-1zm77 0h1v1h-1zm-78 1h1v1h-1zm3 0h1v1h-1zm74 0h1v1h-1zm-313 1h1v1h-1zm238 0h1v1h-1zm74 0h1v1h-1zm-2 1h1v1h-1zm-72 1h1v1h-1zm-237 2h1v1h-1zm245 2h1v1h-1zm62 0h1v1h-1zm-56 5l2-3v3zm-109-2h1v1h-1zm-143 1h1v1h-1zm248 0h1v1h-1zm-246 2h1v1h-1zm-1 2h1v1h-1zm257 1h1v1h-1zm5 0h1v1h-1zm-4 2h1v1h-1zm5 0h1v1h-1zm-1 1h1v1h-1zm2 2v-2l1 2zm-3-1h1v1h-1zm7 0h1v1h-1zm-266 4h1v1h-1zm150 5h1v1h-1zm-150 2h1v1h-1zm151 4h1v1h-1zm-60 1h1v1h-1zm62 3h1v1h-1zm-151 3h1v1h-1zm299 1h1v1h-1zm1 3v-2l3 2zm-298 1h1v1h-1zm152 0h1v1h-1zm164 1h1v1h-1zm3 1h1v1h-1zm-162 1h1v1h-1zm163 0h1v1h-1zm1 1h1v1h-1zm72 0h1v1h-1zm-393 1h1v1h-1zm87 0h1v1h-1zm73 0h1v1h-1zm1 1h1v1h-1zm4 1h-2l2-1zm144-1h1v1h-1zm-145 2h1v1h-1zm-166 1h1v1h-1zm89 1h1v1h-1zm77 0h1v1h-1zm240 3h1v1h-1zm2 0h1v1h-1zm-405 3h1v1h-1zm-1 3h1v1h-1zm-1 4h1v1h-1zm261 0h1v1h-1zm1 2h1v1h-1zm86 0h1v1h-1zm-261 2h1v1h-1zm56 0h1v1h-1zm108 1h1v1h-1zm4 0h1v1h-1zm9 0h1v1h-1zm-7 2h1v1h-1zm1 1h1v1h-1zm-119 4h1v1h-1zm218 1h1v1h-1zm-354 1h1v1h-1zm210 4h1v1h-1zm-197 3h1v1h-1zm203 0h1v1h-1zm12 6h1v1h-1zm-1 1h1v1h-1zm2 0h1v1h-1zm8 3l-2 1v-3h1zm3 0l-1 2-1-2zm130 0h1v1h-1zm-371 1h1v1h-1zm378 3h1v1h-1zm-129 3h1v1h-1zm6 2h1v1h-1zm-255 2h1v1h-1zm383 0h1v1h-1zm3 1h1v1h-1zm-1 1h1v1h-1zm-387 1h1v1h-1zm264 0h1v1h-1zm-263 1h1v1h-1zm1 1l2-1v3h-1zm0 2h1v1h-1zm270 3h1v1h-1zm2 1h1v1h-1zm116 0h1v1h-1zm-388 1h1v1h-1zm275 0h1v1h-1zm-272 6l-3-1 2-3 1 3zm78-2h1v1h-1zm-83 1h1v1h-1zm83 1h1v1h-1zm307 2h1v1h-1zm-388 1h1v1h-1zm281 0h1v1h-1zm3 2h1v1h-1zm107 0h1v1h-1zm-392 1h1v1h-1zm190 1h1v1h-1zm-12 1h1v1h-1zm11 0h1v1h-1zm205 0h1v1h-1zm-214 1h1v1h-1zm118 0v3l-1-3zm-122 2h1v1h-1zm-255 2h1v1h-1zm249 0h1v1h-1zm3 0h1v1h-1zm5 0h1v1h-1zm1 1h3v1l-1 1h-1zm-267 0h1v1h-1zm260 0h1v1h-1zm33 0h1v1h-1zm-45 1h1v1h-1zm47 0h1v1h-1zm-278 1h1v1h-1zm69 0h1v1h-1zm205 2l1-2 2 2zm-272-1h1v1h-1zm2 0h1v1h-1zm64 0h1v1h-1zm87 0h1v1h-1zm306 0h1v1h-1zm-479 1h1v1h-1zm174 1h1v1h-1zm-176 1h1v1h-1zm81 0h1v1h-1zm2 0h1v1h-1zm91 3l2-2 2 4zm-94-1h1v1h-1zm5 0h1v1h-1zm164 0h1v1h-1zm-168 1h1v1h-1zm214 0h1v1h-1zm-56 1h1v1h-1zm-154 1h1v1h-1zm153 0h1v1h-1zm-1 1h1v1h-1zm-207 2h1v1h-1zm51 0h1v1h-1zm161 0h1v1h-1zm2 0h1v1h-1zm-261 1h1v1h-1zm4 0h1v1h-1zm2 0h1v1h-1zm90 0h1v1h-1zm3 0h1v1h-1zm-95 2l-4 1 1-2h3zm3-1h1v1h-1zm93 0h1v1h-1zm149 0h1v1h-1zm62 0h1v1h-1zm182 0h1v1h-1zm-1 1h1v1h-1zm5 0h1v1h-1zm-185 2l2-1-1 2zm-267 0h1v1h-1zm1 2v-1l2 1zm195-1h1v1h-1zm-307 8l-6-4 3-3 4 2zm61-4l-2-1 4-2-1 2zm106-2h1v1h-1zm1 6l-2-2 2-2 1 1 1 1zm137-4h1v1h-1zm82 0h1v1h-1zm-82 2h1v1h-1zm-305 2h1v1h-1zm5 0h1v1h-1zm156 3l-3 4-4-1v-4l7-2zm6-3h1v1h-1zm3 0h1v1h-1zm81 0h1v1h-1zm2 0h1v1h-1zm35 3l1-3v3zm103-3h1v1h-1zm-387 3l2-2 7 2 1 3-2-1-2-1 1 2h-7l2-2zm280-2h1v1h-1zm-285 1h1v1h-1zm166 0h1v1h-1zm2 0h1v1h-1zm85 0h1v1h-1zm33 0h1v1h-1zm105 0h1v1h-1zm-398 1h1v1h-1zm11 0h1v1h-1zm163 0h1v1h-1zm114 0h1v1h-1zm-287 1h1v1h-1zm288 2v-2h1zm-260-1h1v1h-1zm123 0l2 3h-3zm15 0h1v1h-1zm91 0h1v1h-1zm26 0h1v1h-1zm185 0h1v1h-1zm96 0h1v1h-1zm-418 1h1v1h-1zm136 0h1v1h-1zm-232 1h1v1h-1zm93 0h1v1h-1zm24 0h1v1h-1zm114 0h1v1h-1zm186 0h1v1h-1zm-450 1h1v1h-1zm3 0h1v1h-1zm121 2l-1-2h3v1zm7-2h1v1h-1zm14 0h1v1h-1zm4 0h1v1h-1zm-17 1h1v1h-1zm5 0h1v1h-1zm137 0h1v1h-1zm106 0h1v1h-1zm28 0h1v1h-1zm4 0h1v1h-1zm133 1h1v1h-1zm2 0h1v1h-1zm-430 1h1v1h-1zm21 0h1v1h-1zm-145 1h1v1h-1zm146 0h1v1h-1zm306 0h1v1h-1zm101 0h1v1h-1zm2 0h1v1h-1zm-161 1h1v1h-1zm-389 1h1v1h-1zm2 0h1v1h-1zm243 0h1v1h-1zm1 1h1v1h-1zm-238 1h1v1h-1zm540 0h1v1h-1zm-539 4v-3l2 3zm2 0l2-1 1 2v1l-3-1zm-3 0h1v1h-1zm2 1h1v1h-1zm-1 7h1v1h-1zm9 1h1v1h-1zm226 1l1-1h1l-1 3h-1zm-228 1h1v1h-1zm524 1l1-1h1zm-295 0h1v1h-1zm-230 1h1v1h-1zm0 2h1v1h-1zm6 0h1v1h-1zm520 2l-1-2 3 1zm-521-1h1v1h-1zm10 2h1v1h-1zm-2 1h1v1h-1zm3 0h1v1h-1zm1 3v-2h1l1 1 1 4zm215-2h1v1h-1zm293 0h1v1h-1zm-81 1h1v1h-1zm80 0h1v1h-1zm-510 1h1v1h-1zm2 0h1v1h-1zm423 1h1v1h-1zm8 0h1v1h-1zm-7 1h1v1h-1zm-210 1h1v1h-1zm-207 1h1v1h-1zm208 0h1v1h-1zm-212 2h1v1h-1zm4 0h1v1h-1zm496 1h1v1h-1zm-312 3l4-2v3zm-3 0l1-1 2 1 1 3-4-1zm103-1h1v1h-1zm205 2v-1l2 1zm3-1h1v1h-1zm9 0h1v1h-1zm-1 1h1v1h-1zm-292 1h1v1h-1zm79 0h1v1h-1zm202 0h1v1h-1zm-308 2h1v1h-1zm27 0h1v1h-1zm-26 1h1v1h-1zm107 0h1v1h-1zm8 2h1v1h-1zm-125 3v-2h2zm122-2h1v1h-1zm6 2h1v1h-1zm-91 2h1v1h-1zm-20 2h1v1h-1zm-21 1h1v1h-1zm134 0h1v1h-1zm170 0h1v1h-1zm-303 1h1v1h-1zm37 0h1v1h-1zm103 0h1v1h-1zm-142 1h1v1h-1zm3 1h1v1h-1zm293 0h1v1h-1zm-294 1h1v1h-1zm35 0h1v1h-1zm257 1v-1h2zm-298 2l5-2-1 2zm143-1h1v1h-1zm-144 1h1v1h-1zm5 0h1v1h-1zm-188 1h1v1h-1zm-2 1h1v1h-1zm-1 1h1v1h-1zm182 0h1v1h-1zm-182 2l1-1 2 4 1 3-5-2-1-1zm-1-1h1v1h-1zm233 1h1v1h-1zm-172 1h1v1h-1zm171 0h1v1h-1zm-191 1h1v1h-1zm190 0h1v1h-1zm-233 1h1v1h-1zm47 0h1v1h-1zm3 0h1v1h-1zm6 0h1v1h-1zm127 0h1v1h-1zm151 0h1v1h-1zm-332 1l1 2-2-2zm178 0h1v1h-1zm-104 3l1-2v2zm390-2h1v1h-1zm-436 1h1v1h-1zm29 0h1v1h-1zm8 0h1v1h-1zm15 2l1-2v2zm3-2h1v1h-1zm44 0h1v1h-1zm-125 1h1v1h-1zm62 0h1v1h-1zm13 5l-2-5h3zm5-5h1v1h-1zm5 0h1v1h-1zm39 0h1v1h-1zm338 0h1v1h-1zm-445 1h1v1h-1zm44 0h1v1h-1zm16 0h1v1h-1zm2 2v-2h1zm9-2h1v1h-1zm10 1h-2l2-1zm29-1h1v1h-1zm41 0h1v1h-1zm207 0h1v1h-1zm24 0h1v1h-1zm11 1l-2-1h1zm2-1h1v1h-1zm42 0h1v1h-1zm-430 1h1v1h-1zm3 0h1v1h-1zm40 0h1v1h-1zm58 0h1v1h-1zm42 0h1v1h-1zm3 0h1v1h-1zm61 0h1v1h-1zm96 0h1v1h-1zm61 0h1v1h-1zm25 0h1v1h-1zm20 0h1v1h-1zm2 0h1v1h-1zm18 0h1v1h-1zm-375 1h1v1h-1zm3 0h1v1h-1zm3 0h1v1h-1zm5 0h1v1h-1zm30 0h1v1h-1zm5 0h1v1h-1zm48 0h1v1h-1zm58 0h1v1h-1zm174 0h1v1h-1zm-335 1h1v1h-1zm57 0h1v1h-1zm45 0h1v1h-1zm230 0h1v1h-1zm6 0h1v1h-1zm-332 1h1v1h-1zm346 0h1v1h-1zm-335 1h1v1h-1zm78 0h1v1h-1zm160 0h1v1h-1zm-242 1h1v1h-1zm83 0h1v1h-1zm58 0h1v1h-1zm2 0h1v1h-1zm4 0h1v1h-1zm94 0h1v1h-1zm95 0h1v1h-1zm-297 1h1v1h-1zm103 0h1v1h-1zm-104 1h1v1h-1zm4 0h1v1h-1zm5 0h1v1h-1zm29 0h1v1h-1zm63 0h1v1h-1zm-61 1h1v1h-1zm161 0h1v1h-1zm-201 1h1v1h-1zm201 1h1v1h-1zm-166 2h1v1h-1zm-7 2h1v1h-1zm172 0h1v1h-1zm-186 3h1v1h-1zm-13 1h1v1h-1zm4 8l-5-3 4-4 1 2zm-5-7h1v1h-1zm14 0h1v1h-1zm5 0h1v1h-1zm207 0h1v1h-1zm2 0h1v1h-1zm-229 1h1v1h-1zm-2 2h1v1h-1zm-1 1h1v1h-1zm2 0h1v1h-1zm10 0h1v1h-1zm-1 1h1v1h-1zm374 0h1v1h-1zm-384 1h1v1h-1zm4 0h1v1h-1zm382 0h1v1h-1zm2 0h1v1h-1zm-175 3l1-1 1 2zm-8 4h1v1h-1zm3 0v2l-1-2zm-3 7h1v1h-1zm192 11l-2 3-4-2v-6l4-5 5-1 1 5 2-2 1 2zm-195-10l-2 4-2-2zm-6 4h1v1h-1zm208 0h1v1h-1zm-206 1h1v1h-1zm205 3h1v1h-1z"/>
		<path id="Path 4" fill-rule="evenodd" class="s0" d="m422 247h1v1h-1zm-65 15h1v1h-1zm2 0h1v1h-1zm63 1h1v1h-1zm-66 1h1v1h-1zm0 2h1v1h-1zm1 2h1v1h-1zm5 0h1v1h-1zm61 12h1v1h-1zm-65 6h1v1h-1zm-1 1h1v1h-1zm0 4h1v1h-1zm-1 8h1v1h-1zm1 1h1v1h-1zm18 2h1v1h-1zm44 1h1v1h-1zm-62 3h1v1h-1zm49 0h1v1h-1zm9 4h1v1h-1zm-59 1h1v1h-1zm21 0h1v1h-1zm40 0h1v1h-1zm0 2h-2l2-1zm-1 3h1v1h-1zm-11 1h1v1h-1zm0 2h1v1h-1zm-1 1h1v1h-1zm44 1h1v1h-1zm-1 3h1v1h-1zm-2 1h1v1h-1zm-3 2h1v1h-1zm8 1h1v1h-1zm-8 4h1v1h-1zm4 1h1v1h-1zm-75 3h1v1h-1zm26 0h1v1h-1zm-25 1h1v1h-1zm75 0h1v1h-1zm-102 1h1v1h-1zm93 4h1v1h-1zm-1 1h1v1h-1zm9 1h1v1h-1zm2 1h1v1h-1zm-3 2h1v1h-1zm-102 1h1v1h-1zm43 0h1v1h-1zm2 0h1v1h-1zm58 1h1v1h-1zm-2 1h1v1h-1zm12 0h1v1h-1zm-10 1h1v1h-1zm-91 1h1v1h-1zm90 0h1v1h-1zm8 0h1v1h-1zm2 1h1v1h-1zm123 3h1v1h-1zm8 0h1v1h-1zm-242 1h1v1h-1zm249 0h1v1h-1zm-139 1h1v1h-1zm139 1h-4l4-1zm-251 0h1v1h-1zm13 0h1v1h-1zm103 0h1v1h-1zm135 0h1v1h-1zm2 1h1v1h-1zm-251 3h1v1h-1zm-4 1h1v1h-1zm9 0l3 1v5zm291 0h1v1h-1zm-287 1h1v1h-1zm256 0h1v1h-1zm16 0h1v1h-1zm-5 1h1v1h-1zm19 0h1v1h-1zm9 0h1v1h-1zm-16 1h1v1h-1zm-279 1h1v1h-1zm291 0h1v1h-1zm-300 1h1v1h-1zm113 0h1v1h-1zm174 0h1v1h-1zm3 0h1v1h-1zm-73 2h1v1h-1zm106 0h1v1h-1zm11 0h1v1h-1zm-336 1h1v1h-1zm2 0h1v1h-1zm212 1h1v1h-1zm-1 1h1v1h-1zm122 0h1v1h-1zm3 0h1v1h-1zm3 1h1v1h-1zm-5 1h1v1h-1zm2 1h1v1h-1zm-327 1h1v1h-1zm329 0h1v1h-1zm3 0h1v1h-1zm-4 1h1v1h-1zm-330 1h1v1h-1zm5 0h1v1h-1zm329 1h1v1h-1zm3 0h1v1h-1zm-340 1h1v1h-1zm339 0h1v1h-1zm-161 1h1v1h-1zm162 0h1v1h-1zm-340 2h1v1h-1zm341 0h1v1h-1zm2 0h1v1h-1zm-161 1h1v1h-1zm159 1h1v1h-1zm-339 3h1v1h-1zm5 0h1v1h-1zm-4 1h1v1h-1zm-2 1h1v1h-1zm3 0h1v1h-1zm93 1h1v1h-1zm80 1h1v1h-1zm-174 3h1v1h-1zm2 0h1v1h-1zm165 0h1v1h-1zm4 0h1v1h-1zm-170 2h1v1h-1zm354 1h1v1h-1zm5 4h1v1h-1zm-267 4h1v1h-1zm61 1h1v1h-1zm-60 1h1v1h-1zm271 0h1v1h-1zm2 0h1v1h-1zm-365 1h1v1h-1zm152 0h1v1h-1zm-154 1h1v1h-1zm93 0h1v1h-1zm314 0h1v1h-1zm-314 2h1v1h-1zm276 0h1v1h-1zm34 0h1v1h-1zm-10 2h1v1h-1zm-20 1h1v1h-1zm-264 1h1v1h-1zm285 0h1v1h-1zm-6 1h1v1h-1zm5 0h1v1h-1zm-392 1h1v1h-1zm364 0h1v1h-1zm-257 1h1v1h-1zm258 0h1v1h-1zm-3 1h1v1h-1zm2 0h1v1h-1zm-94 6h1v1h-1zm91 0h1v1h-1zm2 0h1v1h-1zm-364 1h1v1h-1zm224 1h1v1h-1zm-222 2h1v1h-1zm106 0h1v1h-1zm123 0h1v1h-1zm4 0h1v1h-1zm-86 1h1v1h-1zm81 0h1v1h-1zm6 0h1v1h-1zm-7 1h1v1h-1zm8 0h1v1h-1zm28 0h1v1h-1zm-21 2h1v1h-1zm12 0h1v1h-1zm10 0h1v1h-1zm-263 2h1v1h-1zm344 0h1v1h-1zm-199 1h1v1h-1zm132 0h1v1h-1zm60 0h1v1h-1zm-55 2h1v1h-1zm-58 1h1v1h-1zm63 0h1v1h-1zm-143 1h1v1h-1zm144 0h1v1h-1zm-1 1h1v1h-1zm-291 3h1v1h-1zm333 0h1v1h-1zm3 0h1v1h-1zm-45 1h1v1h-1zm-63 2h1v1h-1zm66 1h1v1h-1zm-291 1h1v1h-1zm90 0h1v1h-1zm201 4h1v1h-1zm-1 1h1v1h-1zm23 0h1v1h-1zm3 0h1v1h-1zm-91 1h1v1h-1zm68 1h1v1h-1zm-67 1h1v1h-1zm-87 2h1v1h-1zm154 0h1v1h-1zm-65 2h1v1h-1zm-236 3h1v1h-1zm6 0h1v1h-1zm227 0h1v1h-1zm2 0h1v1h-1zm-233 1h1v1h-1zm-3 1h1v1h-1zm6 0h1v1h-1zm229 2l1-2 1 2zm3-2h1v1h-1zm-235 1h1v1h-1zm97 0h1v1h-1zm51 1h1v1h-1zm83 0h1v1h-1zm-135 1h1v1h-1zm136 0h1v1h-1zm79 0h1v1h-1zm-162 1h1v1h-1zm81 4l2-4 1 4zm68-4h1v1h-1zm-153 1h1v1h-1zm3 0h1v1h-1zm151 0h1v1h-1zm-202 1h1v1h-1zm211 1h1v1h-1zm-302 1h1v1h-1zm235 8h1v1h-1zm-147 4h1v1h-1zm52 0h1v1h-1zm-140 1h1v1h-1zm239 0h1v1h-1zm-97 3h1v1h-1zm100 0h1v1h-1zm5 1h1v1h-1zm-246 3h1v1h-1zm144 0h1v1h-1zm-147 1h1v1h-1zm258 1h1v1h-1zm3 0h1v1h-1zm-260 2h1v1h-1zm260 0h1v1h-1zm-111 1h1v1h-1zm-63 9h1v1h-1zm0 2h1v1h-1zm2 1h1v1h-1zm67 1h1v1h-1zm0 2h1v1h-1zm2 2h1v1h-1zm136 1h1v1h-1zm-209 9h1v1h-1zm-79 1h1v1h-1zm310 0h1v1h-1zm-311 2h1v1h-1zm316 0h1v1h-1zm0 3h1v1h-1zm-3 10l2-3-3-1v-4l4-1-1 2 4-1 6 5 2 1v1l-1 1 1-1 3 1v1l-2 1-1 2-6-2-2 3-4-4-1 3-4-4h1 1zm80-9h1v1h-1zm-394 2h1v1h-1zm324 0h1v1h-1zm-243 3h1v1h-1zm230 4v-4l2 4h-1zm15-4h1v1h-1zm-72 1h1v1h-1zm-1 1h1v1h-1zm5 0h1v1h-1zm-255 1h1v1h-1zm240 0h1v1h-1zm2 0h1v1h-1zm14 0h1v1h-1zm75 1l3 1h-3zm-78 0h1v1h-1zm81 0h1v1h-1zm-337 1h1v1h-1zm331 0h1v1h-1zm2 0h1v1h-1zm-332 1h1v1h-1zm81 0h1v1h-1zm249 0l-1 2-1-2zm-68 1h1v1h-1zm9 0h1v1h-1zm51 0h1v1h-1zm17 1v-1l3 1-2 1zm3-1h1v1h-1zm-28 1h1v1h-1zm3 0h1v1h-1zm23 1h-4l3-1zm-260 1h1v1h-1zm59 1h1v1h-1zm131 1h1v1h-1zm1 1l3-1 2 3zm-136 0h1v1h-1zm-74 4l4-1 1 5 5 3-3 5-1 2h-1l-1 3-34 2-6-6v-6l6-6zm74-1h1v1h-1zm0 3h1v1h-1zm-135 1h1v1h-1zm352 3h1v1h-1zm-338 5h1v1h-1zm342 0h1v1h-1zm2 2h1v1h-1zm-291 1h1v1h-1zm162 3h1v1h-1zm2 0h1v1h-1zm-219 3h1v1h-1zm234 4h1v1h-1zm4 3h1v1h-1zm125 0h1v1h-1zm-121 2h1v1h-1zm15 9h1v1h-1zm2 1h1v1h-1zm2 0h1v1h-1zm-270 3h1v1h-1zm-1 7h1v1h-1zm287 2h1v1h-1zm-1 1h1v1h-1zm2 0h1v1h-1zm-288 1h1v1h-1zm284 0h1v1h-1zm3 0h1v1h-1zm-286 1h1v1h-1zm76 0h1v1h-1zm204 0h1v1h-1zm-281 4h1v1h-1zm288 0h1v1h-1zm5 0h1v1h-1zm92 1h1v1h-1zm-2 1h1v1h-1zm-309 4h1v1h-1zm109 0h1v1h-1zm-108 1h1v1h-1zm102 0h1v1h-1zm-178 1h1v1h-1zm77 0h1v1h-1zm89 0h1v1h-1zm11 0h1v1h-1zm15 0h1v1h-1zm-114 1h1v1h-1zm2 0h1v1h-1zm115 1l-4 1 1-2h1zm103-1h1v1h-1zm86 0h1v1h-1zm-475 1h1v1h-1zm85 0h1v1h-1zm2 0h1v1h-1zm172 0h1v1h-1zm129 0h1v1h-1zm-131 1h1v1h-1zm31 0h1v1h-1zm186 0h1v1h-1zm-385 1h1v1h-1zm-89 1h1v1h-1zm86 2l4-1-2 5h-2zm4-2h1v1h-1zm161 0h1v1h-1zm-250 1h1v1h-1zm290 1h1v1h-1zm185 0h1v1h-1zm-387 3h1v1h-1zm79 0h1v1h-1zm74 0h1v1h-1zm-157 1h1v1h-1zm3 4v-4h1l1 1zm2-4h1v1h-1zm77 0h1v1h-1zm123 0h1v1h-1zm182 0h1v1h-1zm-485 2h1v1h-1zm3 0h1v1h-1zm-2 1h1v1h-1zm302 0h1v1h-1zm182 0h1v1h-1zm-485 1h1v1h-1zm179 0h1v1h-1zm77 0h1v1h-1zm-253 1h1v1h-1zm-3 1h1v1h-1zm305 0h1v1h-1zm-208 1h1v1h-1zm299 0h1v1h-1zm-365 1h1v1h-1zm-43 2h1v1h-1zm44 0h1v1h-1zm7 0h1v1h-1zm-115 1h1v1h-1zm114 0h1v1h-1zm57 0h1v1h-1zm213 0h1v1h-1zm89 0h1v1h-1zm-358 1h1v1h-1zm57 0h1v1h-1zm149 0h1v1h-1zm151 0h1v1h-1zm-402 1h1v1h-1zm249 0h1v1h-1zm-71 2h1v1h-1zm56 0h1v1h-1zm-238 1h1v1h-1zm107 0h1v1h-1zm74 0h1v1h-1zm63 0h1v1h-1zm164 0h1v1h-1zm-415 1h1v1h-1zm4 0h1v1h-1zm246 0h1v1h-1zm83 0h1v1h-1zm81 0h1v1h-1zm-413 1h1v1h-1zm231 0h1v1h-1zm181 0h1v1h-1zm-303 1h1v1h-1zm83 1h1v1h-1zm220 0h1v1h-1zm-354 1h1v1h-1zm50 0h1v1h-1zm-1 1h1v1h-1zm-139 1h1v1h-1zm22 0h1v1h-1zm1 1h1v1h-1zm67 0h1v1h-1zm-73 1h1v1h-1zm98 0h1v1h-1zm21 0h1v1h-1zm83 0h1v1h-1zm46 0h1v1h-1zm178 0h1v1h-1zm-424 1h1v1h-1zm94 0h1v1h-1zm20 0h1v1h-1zm253 0h1v1h-1zm2 0h1v1h-1zm11 0h1v1h-1zm-297 1h1v1h-1zm3 0h1v1h-1zm3 0h1v1h-1zm21 0h1v1h-1zm5 0h1v1h-1zm308 0h1v1h-1zm-453 1h1v1h-1zm5 0h1v1h-1zm533 0h1v1h-1zm-535 1h1v1h-1zm8 0l3 2-3 1zm101 0h1v1h-1zm5 0h1v1h-1zm114 0h1v1h-1zm-93 1h1v1h-1zm-23 1h1v1h-1zm423 2h1v1h-1zm-528 1h1v1h-1zm2 1h1v1h-1zm2 0h1v1h-1zm-6 1h1v1h-1zm2 1h1v1h-1zm2 1h1v1h-1zm223 0h1v1h-1zm2 0h1v1h-1zm-2 2h1v1h-1zm3 4h1v1h-1zm295 1h1v1h-1zm2 0h1v1h-1zm-516 4h1v1h-1zm6 4h1v1h-1zm3 0h1v1h-1zm-2 1h1v1h-1zm3 0h1v1h-1zm501 0h1v1h-1zm-503 1h1v1h-1zm505 1h1v1h-1zm-2 1h1v1h-1zm1 1h1v1h-1zm-89 1h1v1h-1zm11 0h1v1h-1zm3 0h1v1h-1zm76 0h1v1h-1zm-498 1h1v1h-1zm204 0h1v1h-1zm207 0h1v1h-1zm20 0h1v1h-1zm-245 1h1v1h-1zm246 0h1v1h-1zm-154 1h1v1h-1zm221 0h1v1h-1zm-495 4h-2v-3l2 2zm490-3h1v1h-1zm-317 2v3l-3-2zm109 0h1v1h-1zm-282 1h1v1h-1zm175 0h1v1h-1zm307 1h1v1h-1zm-311 2h1v1h-1zm-163 1h1v1h-1zm160 0h1v1h-1zm26 0h1v1h-1zm-23 1h1v1h-1zm25 0h1v1h-1zm2 0h1v1h-1zm278 0h1v1h-1zm-469 1h1v1h-1zm340 0h1v1h-1zm125 0h1v1h-1zm-477 1h1v1h-1zm169 0h1v1h-1zm-152 1h1v1h-1zm6 0h1v1h-1zm274 0h1v1h-1zm171 1h1v1h-1zm-469 1h1v1h-1zm303 0h1v1h-1zm50 0h1v1h-1zm-352 1h1v1h-1zm2 0h1v1h-1zm14 0h1v1h-1zm148 0h1v1h-1zm41 0h1v1h-1zm267 0h1v1h-1zm-458 1h1v1h-1zm154 1h1v1h-1zm304 0h1v1h-1zm-316 2h1v1h-1zm7 0h1v1h-1zm4 0h1v1h-1zm-12 1h1v1h-1zm-151 1h1v1h-1zm198 0h1v1h-1zm107 0h1v1h-1zm-147 1h1v1h-1zm-161 1h1v1h-1zm193 0h1v1h-1zm4 1h1v1h-1zm259 0h1v1h-1zm2 0h1v1h-1zm-148 2h1v1h-1zm-116 1h1v1h-1zm-166 1h1v1h-1zm4 0h1v1h-1zm160 0h1v1h-1zm-163 1h1v1h-1zm162 0h1v1h-1zm-211 1h1v1h-1zm6 0h1v1h-1zm166 0h1v1h-1zm-137 1h1v1h-1zm16 0h1v1h-1zm115 0h1v1h-1zm5 0h1v1h-1zm50 0h1v1h-1zm-169 1h1v1h-1zm2 0h1v1h-1zm-39 1h1v1h-1zm40 0h1v1h-1zm167 0h1v1h-1zm2 0h1v1h-1zm-230 1h1v1h-1zm18 0h1v1h-1zm108 0h1v1h-1zm46 2l-1-2 3 1zm-174-1h1v1h-1zm63 0h1v1h-1zm-27 1h1v1h-1zm24 0h1v1h-1zm25 0h1v1h-1zm25 0h1v1h-1zm6 0h1v1h-1zm104 0h1v1h-1zm-158 1h1v1h-1zm59 0h1v1h-1zm290 0h1v1h-1zm41 0h1v1h-1zm4 0h1v1h-1zm-423 1h1v1h-1zm71 0h1v1h-1zm65 0h1v1h-1zm214 0h1v1h-1zm5 0h1v1h-1zm19 0h1v1h-1zm-390 1h1v1h-1zm94 0h1v1h-1zm23 0h1v1h-1zm2 0h1v1h-1zm32 0h1v1h-1zm55 0h1v1h-1zm155 0h1v1h-1zm28 0h1v1h-1zm5 0h1v1h-1zm4 0h1v1h-1zm3 0h1v1h-1zm14 0h1v1h-1zm20 0h1v1h-1zm-285 1h1v1h-1zm3 0h1v1h-1zm242 0h1v1h-1zm37 0h1v1h-1zm-330 1h1v1h-1zm105 0h1v1h-1zm-61 2h1v1h-1zm4 1h1v1h-1zm-1 1h1v1h-1zm60 0h1v1h-1zm102 0h1v1h-1zm-179 3h1v1h-1zm11 0h1v1h-1zm-3 1h1v1h-1zm168 0h1v1h-1zm-177 1h1v1h-1zm7 1h1v1h-1zm170 0h1v1h-1zm32 1h1v1h-1zm-214 1h1v1h-1zm2 0h1v1h-1zm194 0h1v1h-1zm-199 1h1v1h-1zm7 0h1v1h-1zm195 0h1v1h-1zm-202 2h1v1h-1zm211 0h1v1h-1zm-221 1h1v1h-1zm7 0h1v1h-1zm1 1h1v1h-1zm192 1h1v1h-1zm2 1h1v1h-1zm-1 1h1v1h-1zm5 1h1v1h-1zm-2 3h1v1h-1zm158 0h1v1h-1zm-161 3h1v1h-1zm2 0h1v1h-1zm162 0h1v1h-1zm-168 4h1v1h-1z"/>
		<path id="Path 5" class="s1" d="m354 352h1v1h-1zm-4 1h1v1h-1zm-1 1h1v1h-1zm-4 1h1v1h-1zm7 1h1v1h-1zm-2 5h1v1h-1zm-7 2h1v1h-1zm380 64h1v1h-1zm-127 9h1v1h-1zm-4 3h1v1h-1zm-10 23h1v1h-1zm-63 70h1v1h-1zm165 15l2-1v1zm-261 25l1-2v2zm222 38h1v1h-1zm-291 9h1v1h-1zm1 16h1v1h-1zm-164 20h1v1h-1zm10 13h1v1h-1zm7 3h1v1h-1zm-1 2h1v1h-1zm19 35h1v1h-1zm36 18h1v1h-1zm12 10h1v1h-1zm147 2h1v1h-1zm209 0h1v1h-1zm-58 1h1v1h-1zm-245 17h1v1h-1zm1 2h1v1h-1zm349-216h1v1h-1zm-11 2h1v1h-1zm13 0h1v1h-1zm3 0h1v1h-1zm-15 1h1v1h-1zm2 0h1v1h-1zm12 0h1v1h-1zm-7 1h1v1h-1zm21 3h1v1h-1zm-274 13h1v1h-1zm128 63h1v1h-1zm-197 6h1v1h-1z"/>
	</g>
</svg>