<svg version="1.2" xmlns="http://www.w3.org/2000/svg" viewBox="0 0 800 800" width="800" height="800">
	<title>image</title>
	<style>
		.s0 { fill: #000000 } 
		.s1 { fill: #ff5d01 } 
	</style>
	<g id="Background">
		<path id="Path 0" fill-rule="evenodd" class="s0" d="m0 800v-800h800v800zm380-673h1v-1h-1zm-5 159l-2 1h2zm-7 235h1v-1h-1zm115 15l-2 2 3 2zm4 4v-1l-2 1z"/>
		<path id="Path 1" fill-rule="evenodd" class="s1" d="m343 25l-5-1v-6l-3-2h449v768h-768v-768h313l-9 9 11 5v4l-10-5-6 18-6 1 2-4h-4l1 3-7 9-4-1-1 6 3 2-3 2-3-1v-1l1-3-4-2v5l-2-1-2 4 6 2-1 7-5 1v4l-4 6-5 5 2 1-3 7-5 1 4 3h-5v3l-2 1-2-4-1 6-3 1 2 5-5 7 2 3-7 2 2 2h-3v5l-3-2 2 11-5 1v9l-6 6-4-2-3 8-2-2-3 2-3-1v4h-3l3 8-6 4-2 10-1-2-4 2-1 9-3 4 3 3-4 3-4-3 1 3-6 3 2 3-3 3h6l2 4-1 7-2-2-4 2-4 18-4 1-3 4-10 5-2-4 2-4-4-1 1 6-5 3 2 4-5 6 1 4 4 6h-4l-1 3-6 4 1 5 8-2-2 7-12-1-3 4 7 5-6 14 3-3 5 1-3-2 5-1-2-2h3v-3l-2 1 2-5 4 4-2-5 5 1v-3l-2 1 2-11h4l-3 8 5-5h10l-1 5-3-3 2 6-3 3-5-1-1 3 3 1 2 3-4 1 2 1-1 5-4-1 4 7-3 1 2 8h-4l-3 9v5l-1 5-3 1 4 5-1 4-4 4 2 3-6 27-1 3 3-1-3 14-1 4-2 4 3 4-3 1-3 13 6 2-2 2-1-2-3 2 2 5-4 5 3 1 1-3h1l2 3-3 3-3-2 1 4-4 1v5l5-3v7l-7-1 2 9-5 8 1 4-4 3 3 2 3-2 1 2-2 6-8 1-1 2 5-1h3v5l-4 7-1 2-1 4h-3l1 4-4-1 3 6-4 1v-3l-3 2 4 4-4 2-1 6-5 1 3 9-4-1-2 3 1 6-4 7-2-1 3 2-3 2 3 3-4 3 4 1h-3v5l4-4 3 6 2-8 3-1 2-1 4-1-5-8 5-1 2 1 2 4-1-3 4-4 4 1 1 4v10l-3 2 2 5 3-8 4-1-4-6 8-5 6 2 1-3 1 3-2 3 3 2-2 5 3 18 4-1-2 6 8 2v4l5 7 4-2 4 4 5-2 27 20-5-10 17 9-13-15 3-4 3 3 2 3 6 6 2 2-3 2 4-1-1 5 12 1 3 2-1 3h5v4l4 2-2 3 4 2 3 2-1 3h4v4l8 3-1 2 5 3-2 1 6 5 3 5 4-2 4 7 3-2 1 2-4 2 7 3 1 3h4l6 2 1 2-1 2 6 4 4 5 3-1-2 3 7 3 4 6 13 12-2 4 3 5 6-3 2 5-2 1h3l-1 2 4-1 4 7-1 4h4l-2-3 6-3 1 4 5 5 4-2 1 3 3 6 2 5 2-1 2 1-1 3 6 2v4l6 1 2-3 6 4 5 2 1-3 3 1-3-6 4 1 2-5-4-2-1-3-2-3-1-5-3 5-4-9-3-5-11-5 1-4-3-3 8 4-3-2v-7l7 7 2-3 27-7 13-8 12-2 17-12 2 6 9-4 1 4 2-2 3 2 4-4-1 3 5 1v-4l-3 2 1-6 2 2 4-2 1 2 5-7 5-1-1-2 4-6 5-5 9-3 3-7 3-5 1 4 3-1-1-3 5-1-2-4 8-7h4l1-5 8-3 1-4h5l1 3 1-3 2 4 1-2 4-2-4-4 9-2 2 2-2-5 5 3-2-6 4 3v-3l6-1v-4l3 1-1-3 7-4v-3l7-2 2-7 8-3v-3l4 1-3-3 3 1-1-3 4-3 3 4 2-5 8-6 16-22 1-7h-3l2-5h-3l2-4-3-1 4-3-2-10 4-1 1 3 4-4 3 1 2-3-2-27-3-5-3 1 2-5-4 4-2-1v3l2 3-3-2-1 3-2-1 2-4v-12l3-1-3-4 3-4-7-2 2-8-2-3-1-3-5 2-2-5 2-5h-4l-1-5-4 2-2-2 4-2-4-3 2-2-5-10 4-3-10-5 3-3v-4h-3l2-1-2-9v-1l-6-5 4-5-4 1-3-8-2 4-5-4 3-8-2-2 1-3-5-11-1-1 1-6-2-5-4-1 2-4-7-7-2-8-4-12 2-6h-4l1-5v-3l3 1-6-33 4-3-3-6 2-14-4-2h3l1-4-7-3 5-3-3 1 1-6-4-1 1-6-7-4 1-5 3-4-1-5-1 2-2-2 3-2-4-1 4-2-5-3 2-9-4-4-5-2 2 4-3 1v5l-3-1 1-2-4-1 3-5 3 3-1-6 1-3-4-2 3-3-3-2 1-2-6-2 2-5-6-10 5-11-4-12-2-3 1-4-4-1 2-3-2-1-2-11-3-2-1 3-3-2 2-4-3-1 6-3-2-4-2 1-1-4 3-2-2 1-1-4-3 3v-3l4-3-6-10h-3-1-5v-3l-3 3-4-4-3 2-3-6-1-4-5 1-2-1 2-2-10 2-6-5-5 7-3-1-2-3-2 2 2 2-6-3 2-1-2-3 1 6-3 2-3-1v-4l-2 3-2-1-1 4-1-4-2 4-2-4-1 4-4-1 1-2-4 2-3-4-3 1-6-3-4-2-2 5-3-1-2-5 3-4-6 4-2-1-1-2-3-2v4l-7 1 1-4-3-1-3-1h-5l1 2-5 2-4-5-5-1 1 4-3-2-1-4-4 1v-3l-1 2-2-2-8-7-5 1-3-1v-4l-3 1-9-6-3-3-5 2zm-15-5h1v1h-1zm14 5h1v1h-1zm1 3h1v1h-1zm10 3h-2l2-2zm0 0h1v1h-1zm27 14h1v1h-1zm-72 3h1v1h-1zm80 3h1v1h-1zm23 1h1v1h-1zm-16 1h1v1h-1zm0 2h1v1h-1zm-94 1h1v1h-1zm119 1h1v1h-1zm6 0h1v1h-1zm14 3h1v1h-1zm-148 2h1v1h-1zm197 1h1v1h-1zm-21 1h1v1h-1zm15 0h1v1h-1zm5 0h1v1h-1zm-192 1h1v1h-1zm148 0h1v1h-1zm-3 1h1v1h-1zm14 0h1v1h-1zm19 0h1v1h-1zm29 0h1v1h-1zm5 0h1v1h-1zm-65 1h1v1h-1zm17 0h1v1h-1zm53 0h1v1h-1zm-5 1h1v1h-1zm-217 6h1v1h-1zm241 1h1v1h-1zm-250 11h1v1h-1zm255 1h1v1h-1zm0 6h1v1h-1zm2 1h1v1h-1zm-262 2h1v1h-1zm263 0h1v1h-1zm1 1h1v1h-1zm-2 5h1v1h-1zm-269 4h1v1h-1zm273 4h1v1h-1zm0 3h1v1h-1zm1 3h1v1h-1zm0 2h1v1h-1zm5 2h1v1h-1zm-180 4h1v1h-1zm-8 7l3 4h5l-3-4 3 2 1-7 7 2 4-2 2-1 1 8-1 4 5-4 1 12 4-2 2 3 3-4 3 2 5-4 6 2-2-3h35l4 7 11-1 8 3-6 6 8-1 1 5 5-1 3 3v-2l10 4-2 3 3 4 12 3 2 4 2 6-3 2h3l1 9-7-1v-3l-2 2-2-2-1 4 6 5-1 2-4 2v1 3l6-1-3 2 3 1-6 3 4 1-1 8h7l-4 3 1 6v4h4l2 4 2 6 3 3-4 3 5 1-4 6 4 1-5 4 7 3-1 8-2-3-1 5 4 3-1 6 3 2-1 10 4 2-3 4 2 3 1 5-2 7 5 2v1h1l3 16-1 4 2-1 2 12v1l2 4-2 1 1 10h1l2 3-2 5 2-2 1 4h4l3 2 2-2-2 5 2 4-3 3 6 1 2 2-3 3 4 2v5l-4-1 1 3 2-1-1 3 3 1-3 4 4-1 1 3 4-4-1 3v1 1h2l2 10 2-2-2 4 9 8-1 12 5 2-4 3 3 1v4l-1 2-2 1h-1 1l6 1-5 2 1 3 4-1v5l-3-1 2 5-6-4-1 8-2-2-5 1 4 1 1 11-5 4 3 4-8 3-4-6 1-3-4-1v-7l-5-1-3-13-39-13-19-46 1-3-4-2 3-4-8-5 3-2-5-5-2-8v-6h-8l2-1-2-5-3-2 2-3h-3l-1-9 1-1 1-3-6-1-2-4 6-3-6-4-2-6-4-1-5 7 3 9h-3l1-3h-3l1-3-3 2-1-7h1l-4-3 2-6h-4l2-6h-1l-2-6h-4v-1l3-1-1-4h-4l1-6-3-1v-4l-1-2v-3l-2-1v-2h1-1l-4-4 1-3-1-14-1 2h-3l1-2v-1l-3-6 2-3-5-4 4-6-7-1v4l-5-1 1 18-4-1-7-16-3 6v3l-3 3 2 4-3 1-1-8h-3l2 10h-3l4 3-7 6 3 3-2 4-2 1h2v4l-3 1 2 4h-4l1 2 3 3-4 2 3 3-4 6 3 6-4 12h-3l2 6-3 1 1 3-1 3-2 5h-3l1 3-4 1 1 5-5 1v9l-3 1v4l-2-4v6l-1 9-5 1 2 2-5 4 1 10-5 1-3-1 3 6-4 6-1-3-3 1 1 3-2 2 2 2h-5l2 3-3 1-1 8h-4l1 7-5 1v3l4 1v1 8l-6 1-3 9-3 1v-8l-1 4-2-1-2 5-5-3-10 1-5 2 1 2-10-2-1 4-1-1h-1l-15 4 1 2-6 2-4-1 1 5-5-2 1-1-1 1-4 2 1-3-2-1-1-2-2 4-3-2-1 2-4 1v-4l1-6 5-1-2-2 2-10 3-2 3-17 4-6 1-10 4-5 5-23 19-59 3-20 1-2 3-6h3l-3-4 1-4h5l-2-5 3-1-3-2 4-2-1-5 2-5 3 1-2-5 8-17-5-5 2-1 2 1 1-5 3 1-2-5 4-9 1-2 2-6-2-1v-1l4-3-3-2 4-1-2-5 5-1-3-1v-6h4l-1-5 4-2v-6l4-5-3-3 4-2v-12h3l2-5v-8l12-17 6-1-2 7 19-3zm-23-2h1v1h-1zm214 0h1v1h-1zm-213 1h1v1h-1zm22 0h1v1h-1zm-23 1h1v1h-1zm26 0h1v1h-1zm188 0h1v1h-1zm-218 1h1v1h-1zm50 0h1v1h-1zm4 0h1v1h-1zm166 0h1v1h-1zm-221 1h1v1h-1zm2 0h1v1h-1zm54 0h1v1h-1zm166 5h1v1h-1zm-226 1h1v1h-1zm225 4h1v1h-1zm1 1h1v1h-1zm-86 4h1v1h-1zm-221 1h1v1h-1zm2 0h1v1h-1zm-3 1h1v1h-1zm227 0h1v1h-1zm-153 3h-3l3-1zm0-2h1v1h-1zm154 0h1v1h-1zm78 1h1v1h-1zm-75 5h1v1h-1zm-238 2h1v1h-1zm7 0h1v1h-1zm-6 4h1v1h-1zm76 0h1v1h-1zm-83 2h1v1h-1zm4 0h1v1h-1zm-7 3h1v1h-1zm259 0h1v1h-1zm11 1h1v1h-1zm61 4h1v1h-1zm-58 2h1v1h-1zm61 8h1v1h-1zm-256 2h1v1h-1zm1 2h1v1h-1zm262 1h1v1h-1zm-264 2h1v1h-1zm266 1h1v1h-1zm-77 1h1v1h-1zm63 0h1v1h-1zm9 0h1v1h-1zm3 0h1v1h-1zm-2 2h1v1h-1zm-7 1h1v1h-1zm8 0h1v1h-1zm-355 2h1v1h-1zm285 0h1v1h-1zm-286 1h1v1h-1zm-3 1h1v1h-1zm357 0h1v1h-1zm-69 1h1v1h-1zm-289 2h1v1h-1zm285 0h1v1h-1zm2 1h1v1h-1zm-285 1h1v1h-1zm-8 4h1v1h-1zm371 1h1v1h-1zm-373 2h1v1h-1zm2 0h1v1h-1zm-4 4l1-2v2zm4-1h1v1h-1zm94 0h1v1h-1zm278 0h1v1h-1zm-375 1h1v1h-1zm96 4h1v1h-1zm-92 2h1v1h-1zm92 0h1v1h-1zm-82 2h1v1h-1zm288 2h1v1h-1zm-1 3h1v1h-1zm-299 1h1v1h-1zm93 0h1v1h-1zm207 0h1v1h-1zm-304 5h1v1h-1zm94 3h1v1h-1zm215 0h1v1h-1zm-308 1h1v1h-1zm92 0h1v1h-1zm-93 4h1v1h-1zm311 0h1v1h-1zm-221 4h1v1h-1zm-99 2h1v1h-1zm2 2h1v1h-1zm392 0h1v1h-1zm-397 2h1v1h-1zm326 1h1v1h-1zm-108 2h1v1h-1zm-217 2h1v1h-1zm-15 1h1v1h-1zm9 0h1v1h-1zm4 0h1v1h-1zm100 0h1v1h-1zm-98 1h1v1h-1zm191 1h1v1h-1zm-198 1h1v1h-1zm204 2h1v1h-1zm-202 1h1v1h-1zm1 1l4 1-4 1zm-3 0h1v1h-1zm2 2h1v1h-1zm228 0h1v1h-1zm-244 4v-3h3v4zm115-1l2-2v2zm98-2h1v1h-1zm206 0h1v1h-1zm-402 1h1v1h-1zm97 1h1v1h-1zm-100 2h1v1h-1zm200 0h1v1h-1zm-202 1h1v1h-1zm232 0h1v1h-1zm103 0h1v1h-1zm-335 2h1v1h-1zm-1 2l3 3-3 1zm102 2h1v1h-1zm-114 1h1v1h-1zm-1 2h1v1h-1zm12 3l-2 1 1-4h3zm0 0h1v1h-1zm197 1l3 1h-3zm-211 0h1v1h-1zm10 0h1v1h-1zm3 5h1v1h-1zm97 6h1v1h-1zm-88 2h1v1h-1zm-27 1h1v1h-1zm115 0h1v1h-1zm245 1h1v1h-1zm-358 1h1v1h-1zm112 1h1v1h-1zm248 0h1v1h-1zm-337 1h1v1h-1zm88 0h1v1h-1zm320 0h1v1h-1zm-321 3h1v1h-1zm251 1h1v1h-1zm68 0h1v1h-1zm-320 1h1v1h-1zm156 3h1v1h-1zm0 2h1v1h-1zm97 0h1v1h-1zm-149 4h1v1h-1zm151 0h1v1h-1zm-92 2h1v1h-1zm-61 4h1v1h-1zm59 2h1v1h-1zm2 1h1v1h-1zm162 4h1v1h-1zm-420 1h1v1h-1zm272 0h1v1h-1zm-11 2h1v1h-1zm-261 2h1v1h-1zm275 0h1v1h-1zm2 1h1v1h-1zm78 0h1v1h-1zm65 0h1v1h-1zm-144 1h1v1h-1zm80 0h1v1h-1zm-166 1h1v1h-1zm87 3h1v1h-1zm147 1h1v1h-1zm-428 1h1v1h-1zm426 0h1v1h-1zm-425 1h1v1h-1zm279 0h1v1h-1zm147 2h1v1h-1zm-428 3l2-2 1 5zm362 0h1v1h-1zm-73 3l-1-2 2 1zm-3-1h1v1h-1zm-97 1h1v1h-1zm245 0h1v1h-1zm-148 1h1v1h-1zm-101 4h1v1h-1zm-185 2h1v1h-1zm288 0h1v1h-1zm-289 2h1v1h-1zm438 1h1v1h-1zm-147 1h1v1h-1zm148 0h1v1h-1zm-74 1h1v1h-1zm-366 2h1v1h-1zm184 0h1v1h-1zm189 4h1v1h-1zm-193 1h1v1h-1zm194 1h1v1h-1zm-195 1h1v1h-1zm191 0h1v1h-1zm-69 1h1v1h-1zm143 3h1v1h-1zm-141 1h1v1h-1zm0 5h1v1h-1zm-1 1h1v1h-1zm2 1h1v1h-1zm75 0h1v1h-1zm-74 1h1v1h-1zm78 0h1v1h-1zm-2 1h1v1h-1zm6 3h1v1h-1zm-81 1h1v1h-1zm-312 2h1v1h-1zm177 0h1v1h-1zm218 1h1v1h-1zm64 1h1v1h-1zm-65 1h1v1h-1zm-222 4h1v1h-1zm-90 1h1v1h-1zm383 3h1v1h-1zm-1 2h1v1h-1zm-465 3h1v1h-1zm171 0h1v1h-1zm226 1h1v1h-1zm-231 2h1v1h-1zm-167 1h1v1h-1zm2 1l1 4-2-4zm166 1h1v1h-1zm300 1h1v1h-1zm-303 1h1v1h-1zm240 2h1v1h-1zm-243 6h1v1h-1zm312 5l-2-2 1-3zm-311-4h1v1h-1zm-164 1h1v1h-1zm2 4h1v1h-1zm20 3h1v1h-1zm392 0h1v1h-1zm-415 5h1v1h-1zm415 0h1v1h-1zm-257 1h1v1h-1zm2 1h1v1h-1zm255 0h1v1h-1zm-413 2h1v1h-1zm18 0h1v1h-1zm-21 1h1v1h-1zm4 0h1v1h-1zm476 0h1v1h-1zm-477 1h1v1h-1zm415 0h1v1h-1zm-419 1h1v1h-1zm2 0h1v1h-1zm70 2h1v1h-1zm411 1h1v1h-1zm-411 2h1v1h-1zm413 1h1v1h-1zm-3 1h1v1h-1zm4 0h1v1h-1zm-68 1h1v1h-1zm66 0h1v1h-1zm-482 1h1v1h-1zm415 1h1v1h-1zm-416 2h1v1h-1zm135 1h1v1h-1zm354 1h1v1h-1zm-72 1h1v1h-1zm-348 1h1v1h-1zm426 2l-1-2 2 1zm-383 0l-2-1h1zm25-1h1v1h-1zm6 0h1v1h-1zm352 1l1-1h1zm-356 0h1v1h-1zm-145 5h1v1h-1zm21 0h1v1h-1zm50 0h1v1h-1zm-48 1h1v1h-1zm59 1h1v1h-1zm339 1h1v1h-1zm-345 1h1v1h-1zm-5 1h1v1h-1zm-73 3h1v1h-1zm431 0h1v1h-1zm-429 1h1v1h-1zm18 0h1v1h-1zm-19 1h1v1h-1zm20 0h1v1h-1zm406 0h1v1h-1zm81 0h1v1h-1zm-511 2h1v1h-1zm19 1h1v1h-1zm494 0h1v1h-1zm-509 1h1v1h-1zm17 6l-2 1v-4zm0-1h1v1h-1zm140 16l2-5h3l-4-4 8 2-1-9 7 9h-3l4 3v9h5v3h7l1-5 6 2 6 2 9 3 4 2 2-1 1 4 2-2v4l3-2 5 1 9-1 6 3v-2h4l-2 3 15-2 3 3 3-4 10 2 1-2 2 2 25-8 1-3h4l8-4 1-4 4 3 9-7 7 5 1-4 2 4v1l1 2-1 3-3-3 2 6 2 6 3 2-3 2h-1l-2 8 2 7-2 1h-1l-1-4-2 2 3 2-3 4 1 6-5 2-1 7-4-1-3 4 3 4-8 2 1 3-2-1v8l-5-1 2 3-3 5-3-4v3l-4-2-4 5 4-14-6 3h-1l-1 3h-4l-2 13-16 12-5 8-3 27h4l1 8-2 2 2 3-8-5-5 2v-4l-3 3v-3l-6-2 2-2 1-4h-4l-1-3-1-6h-6l-1-5h-2l2-5-4-1 1-6-5-4 3-4 2-1-4-3 3-1-2-1 2-3 2 1v-8l-5-17-2-3-3 3-3-10-4 1h-5l-2 7h2l2 2-3 3-5-5-8 3-1 4-6-3-2-16-6 3h-1 1l1 9-2 2v6h3v2l-6 2-1-4-4-1h-5l-2-9 1-2 1-2-4 2 2-3-2-2 2-3-3 1 1-5-3-3 2-1-2-20-2-3 2-2-2-6-2-6 3-2zm259-16h1v1h-1zm-416 1h1v1h-1zm400 0h1v1h-1zm16 1h1v1h-1zm-405 1h1v1h-1zm1 1h6l-5 3zm390-1h1v1h-1zm13 0h1v1h-1zm-255 1h1v1h-1zm0 2h1v1h-1zm-149 3l2-2 1 3zm152-2h1v1h-1zm-153 1h1v1h-1zm163 0h1v1h-1zm339 0h1v1h-1zm-522 1h1v1h-1zm3 0h1v1h-1zm179 0h1v1h-1zm2 0h1v1h-1zm233 1v-1l2 1zm-408 0h1v1h-1zm331 0h1v1h-1zm3 0h1v1h-1zm73 0h1v1h-1zm-402 1h1v1h-1zm2 0h1v1h-1zm10 0h1v1h-1zm316 0h1v1h-1zm181 0h1v1h-1zm-515 1h1v1h-1zm518 0h1v1h-1zm-514 1h1v1h-1zm2 0h1v1h-1zm4 0h1v1h-1zm2 0h1v1h-1zm309 0h1v1h-1zm195 0h1v1h-1zm-511 1h1v1h-1zm171 0h1v1h-1zm333 0h1v1h-1zm8 0h1v1h-1zm-513 1h1v1h-1zm5 0h1v1h-1zm168 0h1v1h-1zm162 1h1v1h-1zm-163 1h1v1h-1zm1 1h1v1h-1zm132 0h1v1h-1zm-131 1h1v1h-1zm-177 2l3-1-1 6-3-1zm-1-1h1v1h-1zm6 0h1v1h-1zm188 0h1v1h-1zm-189 1h1v1h-1zm2 0h1v1h-1zm150 0h1v1h-1zm-162 1h1v1h-1zm205 0h1v1h-1zm106 0h1v1h-1zm-308 1h1v1h-1zm-4 1h1v1h-1zm2 0h1v1h-1zm213 1h1v1h-1zm88 0h1v1h-1zm-302 1h1v1h-1zm8 0l2 3h-4zm411 2h1v1h-1zm-192 1h1v1h-1zm4 0h1v1h-1zm18 1h1v1h-1zm99 0h1v1h-1zm-339 1h1v1h-1zm222 0h1v1h-1zm49 0h1v1h-1zm71 0h1v1h-1zm-350 1h1v1h-1zm275 0h1v1h-1zm-274 5v-4l4 2zm346-3h1v1h-1zm-341 1h1v1h-1zm342 0h1v1h-1zm-348 8l-2-6h3l3 4-3 2zm-6-5h1v1h-1zm352 0h1v1h-1zm1 1h1v1h-1zm-183 1h1v1h-1zm-173 2h1v1h-1zm9 1h1v1h-1zm3 0h1v1h-1zm-16 5h1v1h-1zm-1 1h1v1h-1zm526 0h1v1h-1zm-509 1h1v1h-1zm3 0h1v1h-1zm159 0h1v1h-1zm178 0h1v1h-1zm-342 1l2 4h-4zm342 0v2l-2-2zm2 0h1v1h-1zm166 0h1v1h-1zm-346 1h1v1h-1zm179 0h1v1h-1zm-4 2h1v1h-1zm-336 1h1v1h-1zm2 0h1v1h-1zm2 1h1v1h-1zm-5 3l1-2v2zm-9 0h1v1h-1zm8 0h1v1h-1zm2 0h1v1h-1zm-11 1h1v1h-1zm1 1h1v1h-1zm8 0h1v1h-1zm-7 4h-5l4-3zm3-3h1v1h-1zm335 1h1v1h-1zm-333 2h4v4l-2 1zm7-1h1v1h-1zm1 1h1v1h-1zm-25 1h1v1h-1zm6 2h1v1h-1zm6 0h1v1h-1zm19 0h1v1h-1zm-31 1h1v1h-1zm21 0h1v1h-1zm-13 1h1v1h-1zm4 0h1v1h-1zm18 0h1v1h-1zm156 0h1v1h-1zm-185 1h1v1h-1zm9 0h1v1h-1zm-10 1h1v1h-1zm2 0h1v1h-1zm19 0h1v1h-1zm-1 1h1v1h-1zm3 0h1v1h-1zm219 0h1v1h-1zm105 0h1v1h-1zm-354 1h1v1h-1zm28 0h1v1h-1zm168 0h1v1h-1zm52 0h1v1h-1zm-53 2h1v1h-1zm46 0h1v1h-1zm1 1l2-1-2 2zm-1 1h1v1h-1zm-230 2h1v1h-1zm184 0h1v1h-1zm-166 1h1v1h-1zm182 0h1v1h-1zm135 0h1v1h-1zm-342 2h1v1h-1zm226 0h1v1h-1zm12 4l-1-3 3 2zm102-3h1v1h-1zm2 0h1v1h-1zm-344 1h1v1h-1zm219 0h1v1h-1zm-7 1h1v1h-1zm2 1h1v1h-1zm10 0h1v1h-1zm16 0h1v1h-1zm81 0h1v1h-1zm-276 2h1v1h-1zm167 0l1 2h-4zm126 4h1v1h-1zm-292 2h1v1h-1zm162 2l4-2 1 2zm114-2h1v1h-1zm199 0h1v1h-1zm-187 1h1v1h-1zm-288 1h1v1h-1zm471 1h1v1h-1zm-309 2l5 2-4 3zm50 0h1v1h-1zm255 1h1v1h-1zm-2 1h1v1h-1zm-254 1h1v1h-1zm2 1h1v1h-1zm247 0h1v1h-1zm-453 1h1v1h-1zm448 4h1v1h-1zm-446 2h1v1h-1zm202 2h1v1h-1zm-165 1h1v1h-1zm-23 2h1v1h-1zm1 1h1v1h-1zm28 0l2 3-4-1zm-21 3h1v1h-1zm34 8h1v1h-1zm2 2h1v1h-1zm4 4h1v1h-1zm5 2l2 1-3 1zm350 0h1v1h-1zm-211 1h1v1h-1zm-134 2h1v1h-1zm142 7l-1-2 3 1zm-1 0h1v1h-1zm-1 1h1v1h-1zm180 0l2 1-3 2zm-176 1h1v1h-1zm24 0h1v1h-1zm-23 2h1v1h-1zm172 0h1v1h-1zm5 0h1v1h-1zm-175 1h1v1h-1zm179 1h1v1h-1zm-175 7h1v1h-1zm3 1h1v1h-1zm14 0h1v1h-1zm-141 8h1v1h-1zm4 5h1v1h-1zm260 1h1v1h-1zm-256 5h1v1h-1zm250 0h1v1h-1zm-241 3h1v1h-1zm236 2h1v1h-1zm-7 5h1v1h-1zm-221 1h1v1h-1zm216 1h1v1h-1zm-214 1h1v1h-1zm-1 1h1v1h-1zm2 0h1v1h-1zm213 1h1v1h-1zm-5 2h1v1h-1zm-198 5h1v1h-1zm195 0h1v1h-1zm-3 2h1v1h-1zm3 0h1v1h-1zm-190 3h1v1h-1zm174 2h1v1h-1zm-6 1l2 2-3 1zm4 1h1v1h-1zm2 1h1v1h-1zm-6 2h1v1h-1zm4 0h1v1h-1zm-156 9h1v1h-1zm2 2h1v1h-1zm3 0h1v1h-1zm-1 1h1v1h-1zm4 3h1v1h-1zm47 4h1v1h-1zm-40 6h1v1h-1zm42 0h1v1h-1zm3 0h1v1h-1zm-1 1h1v1h-1zm1 1h1v1h-1zm-37 4h1v1h-1zm0 2h1v1h-1zm14 7h1v1h-1zm31 2h1v1h-1zm-1 1h1v1h-1zm2 1h1v1h-1zm3 1h1v1h-1zm-25 1h1v1h-1zm35 11h1v1h-1zm-1 1h1v1h-1zm-26 1h1v1h-1zm2 1h1v1h-1zm26 0h1v1h-1zm-23 3h1v1h-1zm20 2h1v1h-1zm0 2h1v1h-1zm-15 1h1v1h-1zm2 0h1v1h-1zm13 2h1v1h-1zm-4 1h1v1h-1z"/>
		<path id="Path 2" fill-rule="evenodd" class="s0" d="m532 74h1v1h-1zm-196 63h1v1h-1zm-13 20h1v1h-1zm158 7h1v1h-1zm15 8h1v1h-1zm1 7h1v1h-1zm1 3h1v1h-1zm2 6h1v1h-1zm-191 10h1v1h-1zm186 4h1v1h-1zm-196 25h1v1h-1zm101 1h1v1h-1zm2 3l2-2v3zm-1-1h1v1h-1zm3 3h1v1h-1zm-4 4l-2-2h4zm4-1h1v1h-1zm2 0h1v1h-1zm-11 1h1v1h-1zm5 0h1v1h-1zm6 1h1v1h-1zm-1 3h1v1h-1zm-2 3h1v1h-1zm-110 4h1v1h-1zm216 0h1v1h-1zm-124 8h1v1h-1zm-94 2h1v1h-1zm108 5h1v1h-1zm111 1h1v1h-1zm2 1h1v1h-1zm-224 2h1v1h-1zm125 0h1v1h-1zm99 0h1v1h-1zm1 10h1v1h-1zm-228 1h1v1h-1zm-1 1h1v1h-1zm1 1h1v1h-1zm132 1h1v1h-1zm3 7h1v1h-1zm1 1h1v1h-1zm94 2h1v1h-1zm-93 1h1v1h-1zm0 2h1v1h-1zm1 3h1v1h-1zm3 5h1v1h-1zm4 8h1v1h-1zm1 3h1v1h-1zm93 5h1v1h-1zm-91 1h1v1h-1zm92 0h1v1h-1zm-87 16h1v1h-1zm-75 8h1v1h-1zm242 1h1v1h-1zm-74 6h1v1h-1zm-72 2h1v1h-1zm70 7h1v1h-1zm79 4h1v1h-1zm-76 3h1v1h-1zm82 8h1v1h-1zm-69 21h1v1h-1zm1 6h1v1h-1zm2 2h1v1h-1zm0 2h1v1h-1zm80 0h1v1h-1zm-81 1h1v1h-1zm-63 2h1v1h-1zm64 1h1v1h-1zm9 2h1v1h-1zm-313 1h1v1h-1zm304 3h1v1h-1zm-4 1h1v1h-1zm2 0h1v1h-1zm10 0h1v1h-1zm1 2h1v1h-1zm1 1h1v1h-1zm-319 7h1v1h-1zm319 0h1v1h-1zm10 8h1v1h-1zm-333 7h1v1h-1zm80 0h1v1h-1zm252 1h1v1h-1zm-1 1h1v1h-1zm1 1h1v1h-1zm0 2h1v1h-1zm-262 5h1v1h-1zm264 1h1v1h-1zm-269 3h1v1h-1zm269 2h1v1h-1zm1 1h1v1h-1zm-340 4h1v1h-1zm35 0h1v1h-1zm305 0h1v1h-1zm-336 1h1v1h-1zm27 0h1v1h-1zm6 0h1v1h-1zm304 0h1v1h-1zm-332 1v2l-4-2zm29 0h1v1h-1zm384 0h1v1h-1zm-421 3h1v1h-1zm20 0h1v1h-1zm317 0h1v1h-1zm-330 1h1v1h-1zm328 0h1v1h-1zm0 3h1v1h-1zm-330 1h1v1h-1zm4 0h1v1h-1zm-1 1h1v1h-1zm328 0h1v1h-1zm-91 30h1v1h-1zm-3 1h1v1h-1zm5 0h1v1h-1zm-1 1h1v1h-1zm9 0h1v1h-1zm-15 1h1v1h-1zm5 1h1v1h-1zm-149 6h1v1h-1zm10 1h1v1h-1zm12 0h1v1h-1zm2 1h1v1h-1zm2 0h1v1h-1zm97 0h1v1h-1zm-141 1h1v1h-1zm51 1h1v1h-1zm124 0h1v1h-1zm-126 1h1v1h-1zm4 2h1v1h-1zm50 3h1v1h-1zm13 0h1v1h-1zm-11 1h1v1h-1zm-11 1h1v1h-1zm-92 2h1v1h-1zm-167 4h1v1h-1zm339 0h1v1h-1zm0 2h1v1h-1zm0 2h1v1h-1zm-9 16h1v1h-1zm-143 7h1v1h-1zm-1 1h1v1h-1zm29 0h1v1h-1zm-29 2h1v1h-1zm44 4h1v1h-1zm89 2h1v1h-1zm-1 2h1v1h-1zm-134 4h1v1h-1zm115 2h1v1h-1zm-115 1h1v1h-1zm128 3h1v1h-1zm-72 13h1v1h-1zm0 4h1v1h-1zm-3 3h1v1h-1zm-1 9h1v1h-1zm4 7h1v1h-1zm115 85h1v1h-1zm-87 76h1v1h-1z"/>
		<path id="Path 3" class="s1" d="m409 51h1v1h-1zm-86 524h1v1h-1z"/>
	</g>
</svg>