<svg version="1.2" xmlns="http://www.w3.org/2000/svg" viewBox="0 0 800 800" width="800" height="800">
	<title>image</title>
	<style>
		.s0 { fill: #010202 } 
		.s1 { fill: #5382a1 } 
	</style>
	<g id="Background">
		<path id="Path 0" class="s0" d="m0 800v-800h800v800z"/>
		<path id="Path 1" class="s1" d="m16 16h768v768h-768z"/>
		<path id="Path 2" fill-rule="evenodd" class="s0" d="m440 101l-1 2-2-3 6-1-1-4h5l2 5-3 1 6 9 1 5 1 3h5l-3 2 1 3 1 10-1 1v1l3 1-2 8-1 1 1-1 3 2-2 2-1 2v1l-1 2-2 4 1 4-3-1v4l5 1-7 3 5 4h-3l-4 7-5 1-1 2v1 1l1-1 2 1-3 3 1 4-4 1 1 5-2 3-3-2v4l3 2-4 2-2-2-2-1 1 2v3l-3-1-1 3-6 2 1-4h-3l2 11-4 3-4 6v-3 3l-3 3v3l-3-1v-1 1l-2 3-3 1v7l-3-2v-2l-5 2 4 2-4 3-1-4-3 3h-1-1v1 2-2l1-1h1l4 1-3 6-7 3-4 2h5l-7 3v4h-1l-2 1-1-1 1 1-6 5v-1 1l-5 9-4 1-1 4-6 12-2 2 1 7-7 5-1 7 6 5-2 3 3 7v1l1 2 3-4v5l4 2-1 2 3 5 2-1v6l30 6 9 4-2 4 3-1-1 4v1l-2 3-2 4-23-5-4 2h-2l1 6h1l3 1v3l2-1h5l-1 3 4 1-1 5h-1 1l1 2 1 2v2l3 8 2 3-2 3-5-7v-2 2l-3-3v4l-3-2h1l1-3h-3l2-2 2-1v-2l-2-3 1-2-5-2 1 4-3-1v-3h-5v-4h-8l2-4-2 2-4-2-2-1v-3l-2 1-4-3-1-1-4-6-7-1 7-2 24 5-2-3-2 1-2-9v-1l1-3-3-1v-1-1h-1-3v-1l-34-8-3-3-3-9v-1h-1l-5-10 22 1-4-6 1-2h-3l2-4h-1l-2 1-4-3 2-2-7-1-14-3 2-9-1-10h3l-2-3 5 1-4-4h2l-2-1h4l-2-3 4-4v-2l3-5v1l1-1 3 1v-4-2l3-2v-1-2l3-1h1l1-2v-1 1l-1 2h-1l-2-2 3-5 5 2v-2l5-2 2-6 3 2v-2h-3l1-2 2-1-2-5 3-1 2-3 1-4 2 3h2l1-1 5 1 2-3 7 1-1-4 1-1h-1l-1-3 4 1 2-2-2-2 6-2 1 2 1-2h-2l4-5 4-3 1-5 4 3 2 3 3-2-2-1 1-2h5v-3l-3 2 1-4v-1-1-1-3h4l-1 3h4l3-6 3 1h2l1-2h-1l1-3-3-1 4-1h3l7-9h1l1-2-2-1 2-2 2-1-2-2 5 1 4-5v-1l-1-4 2-3 2 2h3l-2-4h4l-1-5v-1-5l4 2 2-9 2-2-2-3h2v-2l1-4v-1l2-4h-5l1-3 1-4zm3 12h1v1h-1zm10 1h1v1h-1zm4 0l2 2h-4zm-17 1h1v1h-1zm2 2h1v1h-1zm-1 1h1v1h-1zm-1 1h1v1h-1zm17 4h1v1h-1zm2 9h1v1h-1zm-2 2l1-1h1l1 1-3 1zm3-1h1v1h-1zm-29 2h1v1h-1zm3 2h1v1h-1zm26 5h1v1h-1zm-29 4h1v1h-1zm27 4h1v1h-1zm-32 1h1v1h-1zm1 1h1v1h-1zm30 1h1v1h-1zm2 5h1v1h-1zm-41 1h1v1h-1zm40 0h1v1h-1zm-45 2h1v1h-1zm1 1h1v1h-1zm3 2h1v1h-1zm-12 3h1v1h-1zm2 0h1v1h-1zm-2 2h1v1h-1zm4 0h1v1h-1zm-2 3h1v1h-1zm0 2h-2l2-1zm-6 1h1v1h-1zm-1 1h1v1h-1zm-1 1h1v1h-1zm2 0h1v1h-1zm48 2l3-2 1 3zm-54 0h1v1h-1zm8 2l2-2v2zm40 1h1v1h-1zm8 2h1v1h-1zm2 0h1v1h-1zm-64 2h1v1h-1zm58 1h1v1h-1zm-58 1h1v1h-1zm58 1h1v1h-1zm-60 5l-2-4 3 1zm-5-1h1v1h-1zm-6 1h1v1h-1zm7 2v-2l1 2zm145 1h1v1h-1zm-15 6l5 4 1-3 6-1 1-4 3 3v-4h3v5l-5 3-1 2h2l-6 3 5 2v3l-4-3-5 5 1-3 1-2-2 1-3-3-6 2 3 3-4-1-2 10-4 3-1-3-4 4-4 6h-1l-2 2 2 1h-6l-2 4-4-2-3 4v-1l1-1-1 1h-1l1 1v1 1l-5-1 1 4-1 3-3-2-1 3-4-1h-1l-4 6-2 2h-1 1l4 5h-4v4l-4 1-3 1v1l-4 8 2 4-4 2 2 10 4 5-3 5h3v1l-3 1 3 2v1 1l1 2-26-1-2 4 5 2-1 2h3l-1 3 2 4-5 1 2 2 35 4 3 4-1-5 5-4 1 3-3 2-2 1h2v1l2 1-2 2h-1v1l1 3v4l6-2-3 5v1l2 1v1l1 2 1 2-2 1-3-2-1 6 8 2-1 9-9 4-1 8 6 5h-6-1l-2 1h2v1l-5 1v3l2 2-2 1v5l-2-1-1-4-2-2-3 5-2 7-2 4-5-2-6 3-3 2 3 1-10 2-1-2h-1l-1-1 1-6 4-7h1l1-1h-1l-1-1v-1l5-1v-5l2 1 1-2-1-4 3 1v-3h-4l12-1 2-2 2 2 2-4-1-4-3 2 3-5-4-1v-1-2-2h-1l-18-4-1-8-4-1-2-7-3-1h-1l-3-2 1-4 1 2v-2h-1l-1-4h2l-2-1v1l-3 1-1-8v-1l-2-1v4l-2-2v-1l-2-1-13-3 2-2 6 2v-3-1l1-2-4-2v-5-1 1h-3l-3-1 1-3 10 1-3-2 3-1-3-5 3-1v-3l-3 2 3-10-1-6h5l-1-2v-1l1-2v-1l1-7-4-2 1-2 2-1 2-2v-1l2-6 4 2 1-4v-1l2-6 5 1v-4h3l-4-2 2-4 5 2v-5l8-4 1-5 4 2 3-5 2 1-1 3 2-2 3-3 6-3v-1l4-1 1 2 1-2 2-1 1 1-1-1 6-5 4 2 9-6 1 3 3-2 2-3 9-2-2 4 3-2 4-3v3l-1 1-1 1 1-1 1-1 6-5 2-2 1 3v1zm9-5h1v1h-1zm-2 0h1v1h-1zm-1 1h1v1h-1zm-150 1h1v1h-1zm4 0h1v1h-1zm146 1h-2l2-1zm-11 0h1v1h-1zm4 2l2-2-1 2zm7-2h1v1h-1zm-152 2h1v1h-1zm166 0h1v1h-1zm2 0h1v1h-1zm-1 1h1v1h-1zm-18 1h1v1h-1zm-28 1h1v1h-1zm40 1h1v1h-1zm-97 1h1v1h-1zm100 1h1v1h-1zm-1 1h1v1h-1zm-109 2h1v1h-1zm5 1h1v1h-1zm-65 2h-2l2-1zm156 4l-5 1 3-6zm-171-4h1v1h-1zm-1 1h1v1h-1zm9 1h1v1h-1zm3 0h1v1h-1zm70 0h1v1h-1zm-75 1h1v1h-1zm72 0h1v1h-1zm86 0h1v1h-1zm7 0h1v1h-1zm-172 3l3-1-1 1zm77-1h1v1h-1zm33 0h1v1h-1zm-34 1h1v1h-1zm-3 1h1v1h-1zm31 1h1v1h-1zm-31 1h1v1h-1zm28 2h1v1h-1zm55 2h1v1h-1zm-1 1h1v1h-1zm-165 1h1v1h-1zm-1 2h1v1h-1zm164 1h1v1h-1zm-166 1h1v1h-1zm160 1h1v1h-1zm-86 1h1v1h-1zm-1 1h1v1h-1zm-78 3h1v1h-1zm-3 1h1v1h-1zm4 0h1v1h-1zm149 4h1v1h-1zm-60 2h1v1h-1zm-98 2h1v1h-1zm1 4h-4l4-1zm143-1h1v1h-1zm1 1h1v1h-1zm-1 1h1v1h-1zm-49 1h1v1h-1zm50 0h1v1h-1zm-54 1h1v1h-1zm55 0h1v1h-1zm2 0h1v1h-1zm-156 2h1v1h-1zm148 0h1v1h-1zm1 1l3 1-1 2zm-147 0h1v1h-1zm150 1h1v1h-1zm-155 1h1v1h-1zm99 3h1v1h-1zm-28 1v2l-1-2zm24 2h1v1h-1zm47 5h1v1h-1zm2 0h1v1h-1zm2 0h1v1h-1zm-54 1h1v1h-1zm-97 1h1v1h-1zm98 1h1v1h-1zm2 2l1-2v2zm46-1l3 2-3 1zm4 0h1v1h-1zm-51 1h1v1h-1zm2 0h1v1h-1zm50 0h1v1h-1zm-49 1h1v1h-1zm-3 1h1v1h-1zm-37 1h1v1h-1zm38 0h1v1h-1zm43 0h1v1h-1zm-48 1h1v1h-1zm6 1h1v1h-1zm-41 1h1v1h-1zm-62 1h1v1h-1zm97 9h1v1h-1zm-44 4h1v1h-1zm94 1h1v1h-1zm-50 4h1v1h-1zm53 0h1v1h-1zm-137 1h1v1h-1zm1 1h1v1h-1zm135 1h1v1h-1zm0 5v-3l4 2zm-127-1h1v1h-1zm131 0h1v1h-1zm-4 2h1v1h-1zm-127 2h1v1h-1zm128 0h1v1h-1zm-125 1h1v1h-1zm67 0h1v1h-1zm36 0h1v1h-1zm-1 1h1v1h-1zm2 4l-1-3 4 1zm42 1l2-1-2-3h8l35 3 9 2 1 3 3 3v1 1l1 1 2 3v1h1v-1l2 3-2 3-50-5-6 1 3-4-1 2-4-2-3-4 6-3-4 1zm-76-1h1v1h-1zm33 0h1v1h-1zm42 0h1v1h-1zm-41 1h1v1h-1zm101 1h1v1h-1zm-132 2h1v1h-1zm-19 1l6 1-5 2zm12 3h-5l1-3zm6-3h1v1h-1zm67 0h1v1h-1zm65 0l3 3h-3zm-64 2h1v1h-1zm62 0h1v1h-1zm-61 1h1v1h-1zm-108 1h1v1h-1zm169 0h1v1h-1zm-214 1h1v1h-1zm156 0h1v1h-1zm59 0h1v1h-1zm-174 1h1v1h-1zm175 0h1v1h-1zm-124 1h1v1h-1zm4 0h1v1h-1zm121 1h1v1h-1zm-179 1h1v1h-1zm111 1h1v1h-1zm5 1h1v1h-1zm67 1h1v1h-1zm-65 1h1v1h-1zm64 0h1v1h-1zm-217 1h1v1h-1zm156 0h1v1h-1zm62 0l2 2h-4zm-63 1h1v1h-1zm66 0h1v1h-1zm-172 1h1v1h-1zm101 0h1v1h-1zm4 0h1v1h-1zm-104 2h1v1h-1zm1 2h1v1h-1zm-1 1h1v1h-1zm52 4v3l-1-3zm57 1h1v1h-1zm-118 1h1v1h-1zm-1 1h1v1h-1zm-1 1h1v1h-1zm1 1l1-1h1zm116-1h1v1h-1zm1 3v-2l3 2zm-113 2h-2l2-1zm114-1h1v1h-1zm0 5h1v1h-1zm-71 1h1v1h-1zm1 2h1v1h-1zm2 7l2 1-2 3-2-2 1-8 4 3zm-3-5h1v1h-1zm-1 1h1v1h-1zm44 4v-2h1v2zm30-2h1v1h-1zm-136 2h1v1h-1zm103 0h1v1h-1zm2 0h1v1h-1zm-98 2l-3 1 2-2zm24-1l4 2-2 2zm73 0h1v1h-1zm-64 1h1v1h-1zm66 0h1v1h-1zm-100 2h1v1h-1zm144 0h1v1h-1zm-139 1h1v1h-1zm146 3v-3h3l20 3 6 1 3 4 1 1-4 8h-1 1l-2 4-29-3-1-2 6-3 3 2-5-12zm-149-2h1v1h-1zm22 0h1v1h-1zm10 0h1v1h-1zm-28 1h1v1h-1zm22 1h1v1h-1zm6 0h1v1h-1zm60 0h1v1h-1zm54 0h1v1h-1zm-119 1h1v1h-1zm154 4l1-3v3zm-147-2h1v1h-1zm63 0h1v1h-1zm-125 1h1v1h-1zm174 0h1v1h-1zm-172 4l-3 2-2-3 1-2zm1 0v-3h3zm31 1v-4h3l-1 3 4 2v1l2 3-2 3h-1l1 1-1 2 1 2-3 1h-6l-2 5h-1l-2-2-3 2-1-3-1-2-1 2-2-2 1-4 4 1v1l1 2 2-2h1l2 2v-2l7-2-1-6h-3l2-2h1v-1zm176-4h1v1h-1zm-166 1h2l-1 4zm125 0h1v1h-1zm-167 2h1v1h-1zm5 0h1v1h-1zm8 0h1v1h-1zm3 0l4 2-4 1zm14 0h1v1h-1zm80 2l2-2 1 2zm58-2h1v1h-1zm-137 1h1v1h-1zm145 0h1v1h-1zm-144 1h1v1h-1zm6 1v-1l2 1zm9-1h1v1h-1zm63 0l-1 4-2-1zm-60 2l-2-1h2zm3 0h3l-1 4-2 2zm89-1h1v1h-1zm21 0h1v1h-1zm11 0h1v1h-1zm-128 1l4 3-5-1zm4 0h1v1h-1zm112 0h1v1h-1zm2 0h1v1h-1zm-143 1h1v1h-1zm4 0h1v1h-1zm4 0h1v1h-1zm113 0h1v1h-1zm65 0h1v1h-1zm-232 1h1v1h-1zm16 0h1v1h-1zm29 0h1v1h-1zm5 0l-1 3h-3l1-3zm5 0h1v1h-1zm-50 1h1v1h-1zm20 0h1v1h-1zm14 0h1v1h-1zm4 0h1v1h-1zm33 0h1v1h-1zm154 0h1v1h-1zm-228 1h1v1h-1zm4 0l2 2h-3zm8 3l4-3-1 2 4 2v2zm13-3h1v1h-1zm16 0l1 2h-3zm12 0h1v1h-1zm109 0h1v1h-1zm68 0h1v1h-1zm-252 1h1v1h-1zm5 0h1v1h-1zm40 0h1v1h-1zm25 0h1v1h-1zm13 0h1v1h-1zm70 0h1v1h-1zm32 0h1v1h-1zm-201 4l7-2 2 1h2l5-2 3 1 1 1v1l-5-1 2 2v1-1l3-1v-1-1l3 2v-3l2 1h2l1 1v1l-1 1h-3l3 1v1l-3 1 5 2 4-3 1 2-1 1 1-1 3-1 2 2 4-1 2 3-3 2-11 2v1l-10 4h-1l-1 1h-5l1 2-4 5 2 5 26 5h112l85-8 6-7h4l3-6 5 1 1-5 5 3 6-2-2 5 2-1-2 3-5 1-2 5h-1l-2 4-6-1v-1-1l-2 1h-1l1 1 1 1 1 2-4 2h-2l-1 2-12 10h-1l-6 3-1 4v3l-11-1 1 4-5-2-1 2-1 1h-1l-2 1-3-6-3 3-2 1h-1v2l-7-2h-1-1-1l-6 2-1 3-1-3-10 1-2-2-5 4-5-1v-1 1h-7l-5 3-3-4-1 4-2-1-3-2-1 2h-2l-7 3-1-2-4 1h-1l-2-2-3 3 1-3-3 2v-2l-5 2-8 2-1-2-4 1-6 2v-3l-9 3 1-2-1 2-4-1-3 2-5-2h-7l-1-3-1 4 3 1-2 1h-3l1-4-7 1-3-1-2 3v-4l-4 3 1-2-7 3v-2h1-1l-4 1-2-4h-4l-2 2-5-2h-9-1l-5 1-2-4-2 3-3-1v-1l1-2-4-1-4 2-4-2h-1-7v-1-1 1l-1 1-3-2-1-2h-4l-1-3-2-1-2 4v-4l-3 1-2-1 1-3-10-3 1-3-3-2-2-2 3-2-2-1 4-10 19-13 6 1 2-1 1 1-1-1 1-4 8 2 3-3 1 1h1l8-3 3 1v-1l2-4h2zm7-2l4 1h-2zm12-1h1v1h-1zm8 0h1v1h-1zm2 0h1v1h-1zm19 0h1v1h-1zm11 4l2 2 2-6 6 3-4 2h-1 1v2l-1 2h3l-4 2-2 2-2-2 2-2-2-1-1-1-1-1v-2zm0-4h1v1h-1zm11 0h1v1h-1zm13 2l3-2 2 2v1h-2-1zm6-2h1v1h-1zm113 0h1v1h-1zm-174 1h1v1h-1zm12 1v-1l3 1zm9-1h1v1h-1zm8 0h1v1h-1zm31 0h1v1h-1zm3 0h1v1h-1zm22 0h1v1h-1zm88 0h1v1h-1zm-162 1h1v1h-1zm30 0h1v1h-1zm13 0h1v1h-1zm30 0h1v1h-1zm2 0h1v1h-1zm52 0h1v1h-1zm32 0h1v1h-1zm-203 1h1v1h-1zm4 0h1v1h-1zm28 1l1-1 1 3h-1l-1-1zm3-1h1v1h-1zm12 0l2 1-3 2zm57 0h1v1h-1zm17 2h-3l2-2zm-126-1h1v1h-1zm176 0h1v1h-1zm33 0h1v1h-1zm-166 1h1v1h-1zm13 0h1v1h-1zm9 0h1v1h-1zm12 0h1v1h-1zm9 0h1v1h-1zm91 0h1v1h-1zm-140 1h1v1h-1zm2 0h1v1h-1zm7 0h1v1h-1zm8 0h1v1h-1zm10 0h1v1h-1zm2 0h1v1h-1zm220 7l16-7h8l19 3 2 8 4 1 2 3 1-2 2 1h3l5 3-1-10 5 2 9 15 4 16-3 28-14 24-2 22-10 11-5-3-2-14-15 10-17 6v4l-5-3-3 2h-1l-1 2-2-2v3l-5 1-3 1v-3l-4-1 1-3 30-26 15-20 10-28-1-19-12-13-14-7-21-1 1-2zm7-7h1v1h-1zm-295 1h1v1h-1zm7 0h1v1h-1zm2 0h1v1h-1zm45 0h1v1h-1zm8 5l-4-5h3v3l1-3h4l-2 4 2 1h-3zm6-5v2l-1-2zm3 1l-2-1h1zm-73 0h1v1h-1zm81 1v-1l3 1zm126-1h1v1h-1zm-208 1h1v1h-1zm144 0h1v1h-1zm151 0h1v1h-1zm-304 1h1v1h-1zm10 0h1v1h-1zm100 0h1v1h-1zm2 1v-1l3 1zm42-1h1v1h-1zm147 0h1v1h-1zm72 2l10-1h1 5 4v5l-22-2-3-2zm10-2h1v1h-1zm10 0h1v1h-1zm-306 1h2l-1 3zm24 0h1v1h-1zm6 0h1v1h-1zm-43 1h1v1h-1zm4 0h1v1h-1zm2 0h1v1h-1zm27 0h1v1h-1zm8 0h1v1h-1zm39 0h1v1h-1zm124 0h1v1h-1zm21 0h1v1h-1zm67 0h1v1h-1zm-282 1h1v1h-1zm30 0h1v1h-1zm102 0h1v1h-1zm74 0h1v1h-1zm-302 1h1v1h-1zm82 0h1v1h-1zm21 0h1v1h-1zm204 0h1v1h-1zm-236 1h1v1h-1zm2 0h1v1h-1zm29 3l2-3 2 6-1-3-3 1zm-35-2h1v1h-1zm5 0h1v1h-1zm29 1h1v1h-1zm110 0h1v1h-1zm5 0h1v1h-1zm90 0h1v1h-1zm-209 2l2-1v3 1l6 4-2 4-8-2-3-1h-1l4-7zm96-1h1v1h-1zm3 2l2-1 1 1v2zm22-2h1v1h-1zm4 0h1v1h-1zm141 0h1v1h-1zm60 0h1v1h-1zm-324 3l3-2 2 3h-5zm122-2h1v1h-1zm148 0h1v1h-1zm-313 1h1v1h-1zm51 0h1v1h-1zm88 0h1v1h-1zm16 0h1v1h-1zm-156 1h1v1h-1zm33 0h1v1h-1zm20 0h1v1h-1zm86 0h1v1h-1zm-143 1h1v1h-1zm55 1l2-1v4h-3zm87-1h1v1h-1zm5 6l-1-2-3 2 1-6h4 2l2 3-1 2-4-2 2 3zm-112-5h1v1h-1zm2 0h1v1h-1zm115 1h1v1h-1zm-118 1h1v1h-1zm103 0l2 1-2 2zm-97 2h1v1h-1zm201 0h1v1h-1zm-203 1h1v1h-1zm6 1l-3-1h3zm102-1h1v1h-1zm-102 1h1v1h-1zm92 0h1v1h-1zm9 0h1v1h-1zm2 0h1v1h-1zm84 0h1v1h-1zm-85 1h1v1h-1zm86 0h1v1h-1zm-3 6v-1l2 1zm-1 0h1v1h-1zm-2 1h1v1h-1zm-306 1h1v1h-1zm2 0h1v1h-1zm4 0h1v1h-1zm301 0h1v1h-1zm-306 1h1v1h-1zm4 4v-2h1v2zm2 3l-4-2 2-1h1 2zm287 1v2l-1-2zm3 0h1v1h-1zm-288 1h1v1h-1zm4 3h1v1h-1zm275 0h1v1h-1zm-270 3h1v1h-1zm3 1h1v1h-1zm3 3h1v1h-1zm2 0h1v1h-1zm252 0h1v1h-1zm-18 1h1v1h-1zm-11 1v2l-1-2zm9 0h1v1h-1zm12 1v-1l2 1zm6-1h1v1h-1zm-7 1h1v1h-1zm-232 1h1v1h-1zm8 0h1v1h-1zm183 1h1v1h-1zm-186 1h1v1h-1zm9 0h1v1h-1zm5 0h1v1h-1zm174 0h1v1h-1zm11 0h1v1h-1zm-19 1h1v1h-1zm14 0h1v1h-1zm-196 1h1v1h-1zm11 0h1v1h-1zm5 0h1v1h-1zm13 1h1v1h-1zm17 0h1v1h-1zm137 0h1v1h-1zm-160 1h1v1h-1zm109 0h1v1h-1zm8 0h1v1h-1zm-132 1h1v1h-1zm5 0h1v1h-1zm23 0h1v1h-1zm98 0h1v1h-1zm11 0h1v1h-1zm-108 1h1v1h-1zm33 0h1v1h-1zm49 0h1v1h-1zm14 0h1v1h-1zm3 0h1v1h-1zm5 0h1v1h-1zm7 0h1v1h-1zm-108 1h1v1h-1zm21 0h1v1h-1zm7 0h1v1h-1zm17 0h1v1h-1zm47 0h1v1h-1zm15 0h1v1h-1zm-109 1h1v1h-1zm14 0h1v1h-1zm3 0h1v1h-1zm39 0h1v1h-1zm-52 4l10-3 2 1-1 2-1 7h3l3 8 17 7 24 4 71-1 58-12 22 14 1 5 3-3-1 4 7 3-1 3-3-1-2 3-1-1v-2l-1 2v1 2h-1-1l-1 1-2-2 2-2h-3l-1-2v2l-6 1-1 4-3-2-7 2 1 2h-3v4l-5-4-1 3-3-1h-1l-4 3h-14l-5 2 1 3-3-1v-1 1h-7-1-1l-2-2-1 3-1-2-9 3-12-1v-2l-1 2h-5v-3l-3 5-6-2v-1l-6 3-33-3-5 2-4-2v-1-2l-1 2h-1-1l-3 2h-4l-2-3-1-2-6 2-1-1v1l-1 2-4-5-4-2-2 2v-4l-2 4-10-3v-1l1-1-1 1v1l-1 4-2-4-2 2h-1l-2-4-3 2-6-2-4-6-2 2-7-4 2 1-2-4v3h-3l2-4-2-1 2-4h1v-2-1l-4-4 2-1-2-2 6-1-3-6 9-3 1-5 3 2 2-2v3l2-1v-1l-2-1-1-2 6 1zm12-3h1v1h-1zm43 0h1v1h-1zm2 0h1v1h-1zm-57 1h1v1h-1zm0 2h-2l2-1zm-25 25h1v1h-1zm3 4l1-2v2zm-4 2h1v1h-1zm242 1h1v1h-1zm-241 1h1v1h-1zm244 3h1v1h-1zm-14 6l-2-2h1zm5-2h1v1h-1zm1 3v-2h1l2 3zm-228-1h1v1h-1zm215 0h1v1h-1zm10 1h1v1h-1zm2 0h1v1h-1zm-3 1h1v1h-1zm7 0h1v1h-1zm105 0h1v1h-1zm-130 1h1v1h-1zm2 1h1v1h-1zm-200 1h1v1h-1zm6 1h1v1h-1zm188 0h1v1h-1zm-11 1h1v1h-1zm-305 1h1v1h-1zm133 0h1v1h-1zm2 0h1v1h-1zm221 9l3-2-2-4 5-3-1 5 4 1 2 5-5-4-5 6zm-354-8h1v1h-1zm307 0h1v1h-1zm6 0h1v1h-1zm-5 1h1v1h-1zm41 0h1v1h-1zm2 0h1v1h-1zm92 0h1v1h-1zm-443 10l2-4h-5v-3l3 1-2-3h3l1 2 3 2v4l-2-2v4l2 1h-3zm6-9h1v1h-1zm49 0h1v1h-1zm88 0h1v1h-1zm149 0h1v1h-1zm56 0h1v1h-1zm-343 1h1v1h-1zm51 0h1v1h-1zm99 0h1v1h-1zm6 2v-2h1zm127-2h1v1h-1zm5 0h1v1h-1zm147 0h1v1h-1zm-435 3l1-2 1 3zm5-2h1v1h-1zm62 0h1v1h-1zm106 0h1v1h-1zm2 0h1v1h-1zm103 0h1v1h-1zm4 0h1v1h-1zm-273 1h1v1h-1zm146 0h1v1h-1zm8 0h1v1h-1zm100 0h1v1h-1zm2 0h1v1h-1zm-262 1h1v1h-1zm14 0h1v1h-1zm32 2l3-2v2zm9-2h1v1h-1zm7 0h1v1h-1zm2 0h1v1h-1zm90 0h1v1h-1zm26 0h1v1h-1zm5 0h1v1h-1zm35 0h1v1h-1zm15 0h1v1h-1zm16 0h1v1h-1zm91 4l-3-2 5-2 2 2zm22-4h1v1h-1zm18 0h1v1h-1zm-371 1h1v1h-1zm40 5l-1-2h4l1-3h1l5 3 3-2v4h-6v1l-5 3h-1l-1 1-3 2 1-3h-5v-1l1-1 1-1h3zm-41-4h1v1h-1zm39 0h1v1h-1zm316 1h1v1h-1zm-368 1h1v1h-1zm8 0h1v1h-1zm43 0h1v1h-1zm294 0l2 5h-4l-2-4zm-344 1h1v1h-1zm1 1h3l-2 2-1-1zm5 3l2-4 1 4zm126 7l3 2-2-5 6-4 21-4-3 10 3 5 9 4 55 2 27-2 47-12 36 24-8 6h-4l-1 2-2-2-1 5-2-2-6 2-8 2-6 1-7 1 4 2-6 3h-1l-1-2-4 1-7 3-4-2-2 3-1 1-5 1 1-2-5 2h-1l-8-2-4 4-6-1v-2l-1 2-4 2-3-1-5-2-2-1v1l-2 4-5-1h-7l-10-2-2 2h-2-1l-1-1h-1-1v1l-9-1-1-1-1-1v-2l-1 2-1 1-3 1h-3v-3l-1 3-3-3-2-1-1 4-1-2-6-4v-1 1l-1 2-3-1-3 2-3-3h-1-2-1l-2 1-1-4-4 3-3-5 1-1-1 1h-1l-11-7h-1v-4l-7-5 5-6-2-4 3-1 1 2 1-2v-1 1h-2l-3-3 2-3 4-1v5h3l-1-6 2 2 1-2h1 1zm236-11h1v1h-1zm-321 1h1v1h-1zm3 0h1v1h-1zm16 0h1v1h-1zm285 0h1v1h-1zm40 0h1v1h-1zm-396 1h1v1h-1zm6 1l-2-1h2zm43-1h1v1h-1zm2 0h1v1h-1zm14 0h1v1h-1zm288 0h1v1h-1zm19 0h1v1h-1zm17 0h1v1h-1zm-389 2l1-1 1 2v4l-6-1 1-3h1 1zm-1-1h1v1h-1zm7 0h1v1h-1zm44 0h1v1h-1zm19 2l-2 1v-3l2 1zm0-2h1v1h-1zm304 0h1v1h-1zm18 2l2-1-1 2zm-395-1h1v1h-1zm2 0h1v1h-1zm13 0v2h-4zm38 0h1v1h-1zm304 7l1-4 4 1 3-4-1 3 1 3-3 1h3l2 2-2 4-3-1h-3l-1-1-1-2zm18-2l10-4 1 3 12 2-1 3-6 3-3 1-2-4v-3l-3 2-4 5-3-6-5-1 3-1zm13-5h1v1h-1zm3 0h1v1h-1zm2 0h1v1h-1zm-361 1h5l1 3h-5zm22 0h1v1h-1zm9 0h1v1h-1zm4 0h1v1h-1zm307 0h1v1h-1zm22 2l-3 2 1-4h1l1 1zm-334-1h1v1h-1zm9 1h1v1h-1zm67 4l3-4v4l-1 1h-1zm235-4h1v1h-1zm13 0h1v1h-1zm10 0h1v1h-1zm-397 1h1v1h-1zm27 0h1v1h-1zm30 0h1v1h-1zm318 0h1v1h-1zm21 0h1v1h-1zm-339 1v2h-3zm342 0h1v1h-1zm8 0h1v1h-1zm-409 1h1v1h-1zm139 0h1v1h-1zm217 1h4v2zm12-1h1v1h-1zm-365 1h1v1h-1zm5 0h1v1h-1zm39 0h1v1h-1zm91 0h1v1h-1zm2 0h1v1h-1zm233 0h1v1h-1zm29 0h1v1h-1zm-361 1h1v1h-1zm17 0h1v1h-1zm314 0h1v1h-1zm1 4l2-4 1 2-3 5zm-334-3h1v1h-1zm4 0h1v1h-1zm345 0h1v1h-1zm-349 3l1-2 2 1-1 5-4-3zm6-2h1v1h-1zm13 0h1v1h-1zm295 0h1v1h-1zm18 2l2-2v2zm-326-1l1 3-4-3zm316 3l-2-2 2-1 1 1zm-325-2h1v1h-1zm11 0h1v1h-1zm9 0h1v1h-1zm299 0h1v1h-1zm2 0h1v1h-1zm7 0h1v1h-1zm3 3l4-3-2 4zm-11-2h1v1h-1zm26 0h1v1h-1zm-335 1h1v1h-1zm337 0h1v1h-1zm13 0h1v1h-1zm5 0h1v1h-1zm-30 1h1v1h-1zm10 0h1v1h-1zm3 0h1v1h-1zm-341 9l-4-2 2-6h7l3 3h-4v4h4l-1 2-5-3zm310-8h1v1h-1zm26 0h1v1h-1zm10 0h1v1h-1zm-28 2h1v1h-1zm27 0h1v1h-1zm-351 1h1v1h-1zm91 0h1v1h-1zm230 0h1v1h-1zm-309 1h1v1h-1zm-6 4h1v1h-1zm7 1h1v1h-1zm-20 1h1v1h-1zm-2 1h1v1h-1zm5 13h4l-3-1 2-2 6 1 18-6 30-2 15 2 18 11h-21l-25 9-5 7v6l7 9 38 14 92 10 92-2 80-13 30-13 12-10 5-10-1-15 15 7 6 9v7h-1v1l1-1 2 2-1 4-1 3v1l-3 1h-1v1l1 3-3 1 3 1 2-3v3l-8 4-5 3v5l-5-1-2 3-5 2-9 4h-1l-1 1-10 1-2 8-2-1-3 2h-1l-1 1h1l-6 2-4-3-3 5h-9l-1-5-4 1 2 3 1 2-9-2-2 1-1 2h-1l-3 1-11 1-14 4-7 2-8-2 2 3-4 2-8-3-3-3-2 2 2 3-2-1-2 1-7 1v-1l-10 1-31 3-22-2-5-1-2 3-1-2h-2l1-2-2-1 1 3v3l-2-2h-4v-1l-1 1-1 1h-1v1l-7-2v-1h-7l-2-1-2-2-3 2 2 1-4 3-4-2v-1-1-1h-2l-1 1 1-1h2v1 1 1l-3 3-3-3-3 2-1-3 3-1-3 1-3 2v-4h-3l-1-1 1 1v2h-1l-3-2 1-2-3 2h-1-1l-5-1v3h-3v-2l-7 1v-2l-1 2-2-1v-1-1h-1l1 1v1l-4-1h-1l-2-1 1-1h-1v1h-4v-1-1 1 1l-5 1 3-1-3-2v-1-1-1 1 1 1l-3-1h-13l-7-2-5-1v-4l-4 2-4-4-1 4-5-2-5-1-1 2-4-4 1-3-2 1-2 1-4-2v-1l-1 1-5-1h-1v1 3l-5-4-1 2-4-3-5 1h-1l-2-1 3-1-1-3-5-1 1-2 2-1-2 1-2-1-4-3h1-1l-3-8-3 1v-4l1-3 2-1-2-5h-2l-2-4h2l-1-2v-5l-3 2v-3h1v-1h-4l2-4 2 1h1 3l-2-1-2-2 1-2-6-2 4-2 1 2 3-5 1 1 2 2 1 2v-2h-1l-1-5 3 1 1-2h-4l-1-2 4-1 3 3 2 1zm-5-10h1v1h-1zm-2 0h1v1h-1zm0 3h4l-1-2 1 5zm22-2h1v1h-1zm-23 1h1v1h-1zm20 1h1v1h-1zm-4 1h1v1h-1zm-9 6l-2-4 3 4zm101-4h1v1h-1zm-102 4h1v1h-1zm-7 1h1v1h-1zm117 0h1v1h-1zm166 0h1v1h-1zm6 1h1v1h-1zm-300 1h1v1h-1zm10 0h1v1h-1zm121 0h1v1h-1zm161 0h1v1h-1zm5 0h1v1h-1zm-286 1h1v1h-1zm283 0l2 2-3-2zm-14 3h1v1h-1zm4 0h1v1h-1zm-141 1h1v1h-1zm3 0h1v1h-1zm135 0h1v1h-1zm-14 1h1v1h-1zm-111 1h1v1h-1zm109 1l1-1h1v3zm9 0h1v1h-1zm-269 4l-1-2h3l-1 2zm148-3h1v1h-1zm24 1l1-1h1l1 1v1zm79-1h1v1h-1zm-20 1h1v1h-1zm11 0h1v1h-1zm12 0h1v1h-1zm-264 1h1v1h-1zm6 0h1v1h-1zm165 0h1v1h-1zm4 0h1v1h-1zm4 0h1v1h-1zm6 0h1v1h-1zm10 1l1-1h1l1 1v1zm33-1h1v1h-1zm-48 1h1v1h-1zm19 1v-1h2l1 2zm38-1h1v1h-1zm-39 1h1v1h-1zm28 0h1v1h-1zm307 0h1v1h-1zm-530 1h1v1h-1zm219 0h1v1h-1zm309 0l3 5-6 2zm4 0h1v1h-1zm-536 1h1v1h-1zm3 0h1v1h-1zm9 1h1v1h-1zm433 3l-2 1v-3h3zm-442 0h1v1h-1zm9 3h-3l3-2zm430-1h1v1h-1zm81 2l1-2v2zm3-2h1v1h-1zm7 1h5v3h-5l2-1zm-521 3h-3l3-2zm503-1l5-1v1l2-1h1l1 1h1v3l-6 1 1 3-5-6zm9-1h1v1h-1zm-83 2v-1l2 2zm70 1l3-1-1 3-3 3-3-3 2-2h1zm3-2h1v1h-1zm-502 1h1v1h-1zm497 0h1v1h-1zm-72 1h1v1h-1zm-429 2h1v1h-1zm505 0h1v1h-1zm9 0h1v1h-1zm-509 1h1v1h-1zm4 2l-1-2h2zm481-2l1 2h-3zm7 0h1v1h-1zm-1 1h1v1h-1zm23 0l2 2h-4zm-22 1h1v1h-1zm2 0h1v1h-1zm13 0h1v1h-1zm-17 9l-6-1 1-7 2 3 3-1 2 3zm0-6l1-2v2zm3-2h1v1h-1zm16 0l5 1v3h-5zm-504 3h-2l2-2zm502-2h1v1h-1zm-16 1h1v1h-1zm-8 3l-2 2v-4zm-481-1h1v1h-1zm476 0h1v1h-1zm5 0h1v1h-1zm10 0h1v1h-1zm-490 1h1v1h-1zm507 0h1v1h-1zm-1 2h1v1h-1zm-27 1h1v1h-1zm2 0h1v1h-1zm3 0h1v1h-1zm3 0l3 4-5 2zm-7 1h1v1h-1zm5 0h1v1h-1zm-11 1h1v1h-1zm2 0h1v1h-1zm5 0h1v1h-1zm2 0h1v1h-1zm8 0h1v1h-1zm-9 1h1v1h-1zm-3 2h1v1h-1zm-75 1h1v1h-1zm68 6l-2-6 4 4-1 1zm6-6h1v1h-1zm16 0h1v1h-1zm-89 1h1v1h-1zm69 4l5 2 1-4 3 1-1 3-2 4-8 1-7 8v5l-5 2v6l-5-1-2 2 2 1-13 8v-1 1l-24 14-36 13-50 9-47 4-58-1-80-11-71-23 103 16 100 1 56-7 49-11 36-15h7l2-1-2-3 5-1 4 1 2-6h4 2l1-3 5-1 2 1 1-4h2v1l9-11 8 1 1-1zm-10-2h1v1h-1zm-3 0h1v1h-1zm22 0h1v1h-1zm-21 1h1v1h-1zm12 0h1v1h-1zm12 0h1v1h-1zm-97 2h1v1h-1zm-380 1h1v1h-1zm379 0h1v1h-1zm-5 3h1v1h-1zm97 1h1v1h-1zm-1 1h1v1h-1zm-6 1h1v1h-1zm-18 1h1v1h-1zm-439 4l1-3h1zm17-3h1v1h-1zm344 0h1v1h-1zm-342 1h1v1h-1zm4 0h1v1h-1zm339 0h1v1h-1zm-342 1h1v1h-1zm8 1l2-1 1 2zm326-1h1v1h-1zm79 0h1v1h-1zm-434 1h1v1h-1zm14 0h1v1h-1zm415 0h1v1h-1zm-411 1h1v1h-1zm328 0h1v1h-1zm81 3l1-2 1 2zm-409-1h1v1h-1zm301 3l1-2 2 3zm13-2h1v1h-1zm89 1h1v1h-1zm-367 1h1v1h-1zm-1 1h1v1h-1zm1 1h1v1h-1zm362 0h1v1h-1zm-6 1h1v1h-1zm5 0h1v1h-1zm-151 5h1v1h-1zm-169 1h1v1h-1zm24 1l-1 3v-3zm3 0l-1 2-1-2zm136 0h1v1h-1zm-156 1h1v1h-1zm13 0h1v1h-1zm35 1l3-1v1zm100-1h1v1h-1zm190 0h1v1h-1zm-331 1h1v1h-1zm15 0h1v1h-1zm2 0h1v1h-1zm-20 1h1v1h-1zm55 0h1v1h-1zm10 0h1v1h-1zm4 0h1v1h-1zm11 0h1v1h-1zm-28 1h1v1h-1zm2 0h1v1h-1zm10 0h1v1h-1zm11 0h1v1h-1zm-40 1h1v1h-1zm6 0h1v1h-1zm22 0h1v1h-1zm6 1h1v1h-1z"/>
		<path id="Path 3" fill-rule="evenodd" class="s1" d="m441 119l1-1h1v2h-2zm18 14h1v1h-1zm-54 48v-2h1zm38 2h1v1h-1zm-57 13l2 1-3 2-2-3h1zm46 9l-1-2 2 1zm80-2h1v1h-1zm-141 5l-1-2h2zm147 6l2-1-1 2zm-157 0h1v1h-1zm101 5l-1 2-1-2zm-115 1h1v1h-1zm98 9l1-3 1 1zm-106 5v2l-3-2zm60 10l-4-2 5-2v2zm-8 2l3-3 1 4zm85-3h1v1h-1zm-87 3h1v1h-1zm-8 12l4-2 1 2zm-68 2h1v1h-1zm-3 4h1v1h-1zm-6 11v-1l2 1zm146 35l-3-2 3-1zm78 19h1v1h-1zm3 4h1v1h-1zm-63 3h-2l2-1zm-53 3v-1l2 1zm53 5l-1-3h1zm-51-1v2l-1-2zm-59 9h1v1h-1zm-1 1h1v1h-1zm117 3l-1-2h1zm-97 26l-2 1v-3l1 1zm153 3h1v1h-1zm-154 7l-1-4 5 2-1 2zm60-2l-1-2h4v3zm29 2h-2l2-1zm-87 4l1-4 2 3v2l-2 1zm-17 1l2-3-1 3zm-1 0h1v1h-1zm-79 2h1v1h-1zm8 0h1v1h-1zm-10 3l-2-2 5 1zm65-1l1-1 2 1-2 2zm33 0v-1h3l-1 3h-1zm-115 1v-1l2 1zm24 0h3v1zm64-1v2l-2-2zm80 2h1v1h-1zm-113 1h1v1h-1zm12 3h-3l1-2 2 1zm-82 1h1v1h-1zm102 0h1v1h-1zm72 11l1-1 3 2h-4zm4 1v-2h1l1 2zm-108 4h1v1h-1zm1 1l3 1h-3zm190 2l2-1-1 1zm-85 0h1v1h-1zm84 0h1v1h-1zm2 0h1v1h-1zm-1 1h1v1h-1zm-305 13v-2l2 2zm71 39l-2 1v-3l2 1zm-16 32v-3l2 4zm224 2v-2l1 2zm7 0l1-2v2zm-5 2l-1-2h3zm5 1v-2h1v2zm-159 12l1-2v2zm-20 1l1-2v2zm83 1l1-2v2zm-238 7l-2-1v-4l2 2 1 1 1 1v1zm48 0h1v1h-1zm-52 1h1v1h-1zm51 0h1v1h-1zm-52 1h1v1h-1zm51 0h1v1h-1zm311 7h-3l3-1zm18 1l3-2v3h-1zm-248 0l1-1h1l1 1-1 2zm-99 4v-2h1zm96 4l-1 2-1-2zm-109 25h4l-1 2-3-1zm6 0l1-1h1v2zm-8 3h1v1h-1zm4 3v2l-1-2zm164 5l1-2v2zm-8 2l1-3v3zm52-2v-1l2 1zm14 1l1-2v2zm-230 2l1-2 2 2-1 1h-1zm184-1h1v1h-1zm-183 2l-2-1h1zm1 0l1-1 2 1zm185-1h1v1h-1zm241 3h1v1h-1zm-428 5l3-2v5l-1 1-1 1h-1v-2-1zm2 4l1-1 1 2h-2zm506 0v-1h2zm3-1h1v1h-1zm-506 8l1-2 2 5-2 1v-2zm45 32l2-1-1 3zm62 14h1v1h-1zm6 1h1v1h-1zm21 2l3-2-1 2zm-18 1l1-2v2zm48 1l-2-1 3-2 2 2zm28 0l-1-3 2 1zm-25 0v-1l2 1zm16 2h1v1h-1z"/>
		<path id="Path 4" class="s0" d="m457 130h1v1h-1zm-25 74h1v1h-1zm-5 6h1v1h-1zm91 4h1v1h-1zm-9 212h1v1h-1zm-184 42h1v1h-1zm-52 11h1v1h-1zm66 51h1v1h-1zm129 47h1v1h-1zm-42 10h1v1h-1zm-262 8h1v1h-1zm2 0h1v1h-1zm-2 10h1v1h-1zm2 1h1v1h-1zm-1 1h1v1h-1z"/>
		<path id="Path 5" fill-rule="evenodd" class="s1" d="m439 100h1v1h-1zm6 4h1v1h-1zm6 6h1v1h-1zm-7 3h1v1h-1zm9 5h1v1h-1zm-10 2h1v1h-1zm-2 5h1v1h-1zm16 8h1v1h-1zm-1 1h1v1h-1zm-21 3h1v1h-1zm20 6h1v1h-1zm2 1h1v1h-1zm-1 1h1v1h-1zm2 2h1v1h-1zm-5 1h1v1h-1zm2 2h1v1h-1zm2 0h1v1h-1zm-29 2h1v1h-1zm26 4h1v1h-1zm-35 6h1v1h-1zm3 0h1v1h-1zm-5 3h1v1h-1zm35 0h1v1h-1zm-41 8h1v1h-1zm37 2h1v1h-1zm-3 2h1v1h-1zm-39 1h1v1h-1zm38 1h1v1h-1zm8 0h1v1h-1zm-10 3h1v1h-1zm-43 1h1v1h-1zm43 1h1v1h-1zm-45 1h1v1h-1zm2 0h1v1h-1zm-9 1h1v1h-1zm0 2h1v1h-1zm52 1h1v1h-1zm-3 2h1v1h-1zm-1 3h1v1h-1zm-60 4h1v1h-1zm2 0h1v1h-1zm54 1h1v1h-1zm-55 1h1v1h-1zm-3 1h1v1h-1zm59 1h1v1h-1zm93 1h1v1h-1zm-20 1h1v1h-1zm3 0h1v1h-1zm-90 2h1v1h-1zm90 0h1v1h-1zm9 0h1v1h-1zm3 0h1v1h-1zm-100 1h1v1h-1zm5 0h1v1h-1zm71 0h1v1h-1zm3 0h1v1h-1zm21 0v2l-2-2zm-33 1h1v1h-1zm11 0h1v1h-1zm3 0h1v1h-1zm21 0h1v1h-1zm-29 1v3l-4-1zm4 0h1v1h-1zm-82 3h1v1h-1zm-56 1h1v1h-1zm146 0h1v1h-1zm-10 1h1v1h-1zm-24 1h1v1h-1zm-10 3h1v1h-1zm50 0h1v1h-1zm-49 1h1v1h-1zm-9 1h1v1h-1zm47 0h1v1h-1zm-154 1h1v1h-1zm5 0h1v1h-1zm150 0h1v1h-1zm-152 2h1v1h-1zm103 0h1v1h-1zm-41 1h1v1h-1zm86 0h1v1h-1zm-160 1h2v4zm68 3h1v1h-1zm88 0h1v1h-1zm-52 1h1v1h-1zm-34 2h1v1h-1zm-73 1h1v1h-1zm71 0h1v1h-1zm30 0h1v1h-1zm-99 1h1v1h-1zm97 0h1v1h-1zm3 1h1v1h-1zm53 0h1v1h-1zm-91 2h1v1h-1zm32 0h1v1h-1zm6 0h1v1h-1zm45 2h1v1h-1zm-90 2h1v1h-1zm84 1h1v1h-1zm-3 1h1v1h-1zm2 0h1v1h-1zm-151 2h1v1h-1zm-2 1h1v1h-1zm64 0h1v1h-1zm2 0h1v1h-1zm86 0h1v1h-1zm-151 1h1v1h-1zm-2 3h1v1h-1zm66 0h1v1h-1zm77 0h1v1h-1zm2 0h1v1h-1zm-5 2h1v1h-1zm-143 1h1v1h-1zm140 0h1v1h-1zm-77 1h1v1h-1zm77 1h1v1h-1zm-45 1h1v1h-1zm-37 2h1v1h-1zm2 1h1v1h-1zm75 1h1v1h-1zm-77 1h1v1h-1zm78 0h1v1h-1zm-144 1h1v1h-1zm62 3h1v1h-1zm4 0h1v1h-1zm30 0h1v1h-1zm-33 1h1v1h-1zm80 1h1v1h-1zm-49 1h1v1h-1zm-36 2h1v1h-1zm82 0h1v1h-1zm-83 1h1v1h-1zm80 0h1v1h-1zm-3 3h1v1h-1zm-139 2h1v1h-1zm57 1h1v1h-1zm42 4h1v1h-1zm-1 2h1v1h-1zm-99 1h1v1h-1zm53 1h1v1h-1zm47 1h1v1h-1zm37 0h1v1h-1zm-88 4h1v1h-1zm-52 1h1v1h-1zm141 1h1v1h-1zm-91 2h1v1h-1zm-48 1h1v1h-1zm140 2h1v1h-1zm-140 1h1v1h-1zm-1 1h1v1h-1zm47 0h1v1h-1zm51 3h1v1h-1zm-77 2h1v1h-1zm79 0h1v1h-1zm2 1h1v1h-1zm-81 3h1v1h-1zm2 0h1v1h-1zm76 3h1v1h-1zm46 1h1v1h-1zm-52 1h1v1h-1zm-1 1h1v1h-1zm30 8h1v1h-1zm-26 2h1v1h-1zm124 1h1v1h-1zm-123 1h1v1h-1zm-87 1h1v1h-1zm0 2h1v1h-1zm213 0h1v1h-1zm-212 1h1v1h-1zm106 0h1v1h-1zm55 1h1v1h-1zm-69 1h1v1h-1zm4 0h1v1h-1zm-60 2h1v1h-1zm131 0h1v1h-1zm50 1h1v1h-1zm-118 3h1v1h-1zm53 0h1v1h-1zm-112 2h1v1h-1zm112 0h1v1h-1zm-1 1h1v1h-1zm-108 1h1v1h-1zm1 2h1v1h-1zm-2 2h1v1h-1zm3 1h1v1h-1zm58 2h1v1h-1zm49 0h1v1h-1zm-112 1h1v1h-1zm3 1h1v1h-1zm1 1h1v1h-1zm113 2h1v1h-1zm-4 4h-2l2-1zm-107 0h1v1h-1zm107 0h1v1h-1zm-125 9h1v1h-1zm130 0h1v1h-1zm-73 1h1v1h-1zm2 1h1v1h-1zm-2 1h1v1h-1zm47 0h1v1h-1zm26 1l-1 3-2-2zm-73 1h1v1h-1zm-51 1h1v1h-1zm20 0h1v1h-1zm37 0h1v1h-1zm62 0h1v1h-1zm-121 1h1v1h-1zm101 1h1v1h-1zm-91 2h1v1h-1zm14 3h1v1h-1zm128 0h1v1h-1zm-130 5h6l-2 2 2 1zm12 2h1v1h-1zm66 1h1v1h-1zm57 0h1v1h-1zm21 1h1v1h-1zm-170 1h1v1h-1zm1 1h1v1h-1zm4 0h1v1h-1zm23 0h1v1h-1zm82 0h1v1h-1zm-110 1h1v1h-1zm27 0h1v1h-1zm144 0h1v1h-1zm-169 2h1v1h-1zm80 0h1v1h-1zm2 0h1v1h-1zm62 0h1v1h-1zm25 0h1v1h-1zm-1 1h1v1h-1zm-86 2h1v1h-1zm-58 1h1v1h-1zm72 0h1v1h-1zm-167 2h1v1h-1zm-20 1l4 2-3 1zm16 0h1v1h-1zm43 0h1v1h-1zm18 0h1v1h-1zm4 0h1v1h-1zm-73 1h1v1h-1zm15 0h1v1h-1zm144 0h1v1h-1zm2 0h1v1h-1zm-171 1h1v1h-1zm14 0h1v1h-1zm48 0h1v1h-1zm16 0h1v1h-1zm16 0h1v1h-1zm28 0h1v1h-1zm43 0h1v1h-1zm2 0h1v1h-1zm-142 1h1v1h-1zm36 0h1v1h-1zm54 0h1v1h-1zm8 0h1v1h-1zm46 0h1v1h-1zm-169 1h1v1h-1zm3 0h1v1h-1zm52 0h1v1h-1zm110 0h1v1h-1zm-158 1h1v1h-1zm49 0h1v1h-1zm112 0h1v1h-1zm-167 1h1v1h-1zm21 0h1v1h-1zm9 0h1v1h-1zm-35 1h1v1h-1zm28 0h1v1h-1zm12 0h1v1h-1zm23 0h1v1h-1zm108 0h1v1h-1zm17 0h1v1h-1zm-170 1h1v1h-1zm8 0h1v1h-1zm4 0h1v1h-1zm140 0h1v1h-1zm-182 1h1v1h-1zm40 0h1v1h-1zm24 0h1v1h-1zm309 0h1v1h-1zm5 0h1v1h-1zm-15 1h1v1h-1zm-321 1h1v1h-1zm135 0h1v1h-1zm-133 1h1v1h-1zm135 0l2 1-2 2-3-1zm3 0h1v1h-1zm11 0h1v1h-1zm-206 1h1v1h-1zm-7 1h1v1h-1zm5 0h1v1h-1zm3 0h1v1h-1zm-9 1h1v1h-1zm2 1h1v1h-1zm2 0h1v1h-1zm355 0h1v1h-1zm-304 1h1v1h-1zm41 0h1v1h-1zm101 0h1v1h-1zm2 0h1v1h-1zm-145 1h1v1h-1zm40 0h1v1h-1zm3 1h1v1h-1zm8 2h1v1h-1zm180 0h1v1h-1zm4 1h1v1h-1zm83 0h1v1h-1zm-85 2h1v1h-1zm4 0h1v1h-1zm-12 2h1v1h-1zm4 0h1v1h-1zm4 0h1v1h-1zm-8 4h1v1h-1zm-3 2h1v1h-1zm-297 4h1v1h-1zm-4 5h1v1h-1zm288 3h1v1h-1zm-8 7h1v1h-1zm-253 4h1v1h-1zm3 1h1v1h-1zm218 0h1v1h-1zm-216 1h1v1h-1zm209 0h1v1h-1zm2 0h1v1h-1zm2 0h1v1h-1zm6 0h1v1h-1zm-218 1h1v1h-1zm2 0h1v1h-1zm227 0h1v1h-1zm2 0h1v1h-1zm-232 1h1v1h-1zm8 0h1v1h-1zm8 0h1v1h-1zm187 0h1v1h-1zm-24 1h1v1h-1zm-21 1h1v1h-1zm14 0h1v1h-1zm8 0h1v1h-1zm-140 2h1v1h-1zm109 0h1v1h-1zm-117 1h1v1h-1zm20 0h1v1h-1zm95 0h1v1h-1zm-26 1h1v1h-1zm22 0h1v1h-1zm7 0h1v1h-1zm-84 1h1v1h-1zm38 0h1v1h-1zm11 0h1v1h-1zm2 0h1v1h-1zm-58 1h1v1h-1zm1 1h1v1h-1zm-17 9h1v1h-1zm-3 2h1v1h-1zm-4 2h1v1h-1zm17 0h1v1h-1zm-18 1h1v1h-1zm-3 1h1v1h-1zm-1 3h1v1h-1zm-6 9h1v1h-1zm-2 1h1v1h-1zm1 3h1v1h-1zm-1 4h1v1h-1zm1 5h1v1h-1zm231 0h1v1h-1zm-4 2h1v1h-1zm-1 2h1v1h-1zm-221 1h1v1h-1zm212 1h1v1h-1zm13 0h1v1h-1zm2 0h1v1h-1zm-24 2h1v1h-1zm6 0h1v1h-1zm15 0h1v1h-1zm-29 5l-1-4 4 3zm28-4h1v1h-1zm-214 1h1v1h-1zm14 0h1v1h-1zm-10 1h1v1h-1zm5 0h1v1h-1zm3 0h1v1h-1zm5 0h1v1h-1zm-6 1h1v1h-1zm5 0h1v1h-1zm164 0h1v1h-1zm10 0h1v1h-1zm-177 1h1v1h-1zm2 0h1v1h-1zm9 1h1v1h-1zm157 0h1v1h-1zm-150 1h1v1h-1zm137 0h1v1h-1zm-1 1h1v1h-1zm-121 1h1v1h-1zm265 0h1v1h-1zm-273 1h1v1h-1zm1 1h1v1h-1zm8 0h1v1h-1zm9 1h1v1h-1zm66 0h1v1h-1zm28 0h1v1h-1zm6 0h1v1h-1zm-97 1h1v1h-1zm33 0h1v1h-1zm15 0h1v1h-1zm25 0h1v1h-1zm16 0h1v1h-1zm7 0h1v1h-1zm81 0h1v1h-1zm-187 1h1v1h-1zm3 0h1v1h-1zm39 0h1v1h-1zm33 0h1v1h-1zm140 0h1v1h-1zm4 0h1v1h-1zm-6 1h1v1h-1zm-321 1h1v1h-1zm316 0h1v1h-1zm-316 2h1v1h-1zm318 0h1v1h-1zm-312 1h1v1h-1zm-10 1h1v1h-1zm-52 2h1v1h-1zm55 0h1v1h-1zm-2 2h1v1h-1zm-61 1h1v1h-1zm3 0h1v1h-1zm57 0h1v1h-1zm333 0h1v1h-1zm-32 2h1v1h-1zm20 1h1v1h-1zm-9 1h1v1h-1zm-14 1h1v1h-1zm-222 1h1v1h-1zm2 0h1v1h-1zm252 0h1v1h-1zm-253 1h1v1h-1zm254 0h1v1h-1zm-32 1h1v1h-1zm-3 2h1v1h-1zm32 0h1v1h-1zm-259 3h1v1h-1zm5 0h1v1h-1zm-4 1h1v1h-1zm-92 6h1v1h-1zm294 11h1v1h-1zm-203 3h1v1h-1zm187 2h1v1h-1zm-7 2h1v1h-1zm-280 3h1v1h-1zm113 0h1v1h-1zm154 0l1 3-3-1zm-146 1h1v1h-1zm-121 1h1v1h-1zm122 0h1v1h-1zm141 0h1v1h-1zm-142 1h1v1h-1zm-127 1h1v1h-1zm6 0h1v1h-1zm131 0h1v1h-1zm6 0h1v1h-1zm127 0h1v1h-1zm-141 1h1v1h-1zm3 0h1v1h-1zm10 0h1v1h-1zm-3 1h1v1h-1zm12 0h1v1h-1zm265 0h1v1h-1zm-423 1h1v1h-1zm160 1h1v1h-1zm54 0h1v1h-1zm5 0h1v1h-1zm18 0h1v1h-1zm21 0h1v1h-1zm170 1l-1 3-2-4zm-425 0h1v1h-1zm153 0h1v1h-1zm67 0h1v1h-1zm-53 1h1v1h-1zm2 0h1v1h-1zm30 0h1v1h-1zm6 0h1v1h-1zm16 0h1v1h-1zm9 0h1v1h-1zm-230 1h1v1h-1zm170 0h1v1h-1zm7 0h1v1h-1zm2 0h1v1h-1zm2 0h1v1h-1zm22 0h1v1h-1zm16 0h1v1h-1zm-37 1h1v1h-1zm23 0h1v1h-1zm217 1h1v1h-1zm-421 1h1v1h-1zm422 1h1v1h-1zm-426 2h1v1h-1zm-1 1h1v1h-1zm6 4h1v1h-1zm-1 1h1v1h-1zm420 0h1v1h-1zm2 0h1v1h-1zm-420 2h1v1h-1zm421 0h1v1h-1zm75 0h1v1h-1zm4 0h1v1h-1zm5 0h1v1h-1zm-87 1h1v1h-1zm-1 1h1v1h-1zm73 0h1v1h-1zm2 0h1v1h-1zm-78 2h1v1h-1zm1 3h1v1h-1zm-414 3h1v1h-1zm503 0h1v1h-1zm-23 2h1v1h-1zm-75 3h1v1h-1zm-405 1h1v1h-1zm2 5h1v1h-1zm1 1h1v1h-1zm0 2h1v1h-1zm1 1h1v1h-1zm465 1h1v1h-1zm-462 1h1v1h-1zm378 0h1v1h-1zm83 0h1v1h-1zm-457 1h1v1h-1zm373 0h1v1h-1zm79 0h1v1h-1zm-446 1h1v1h-1zm-2 1h1v1h-1zm447 0h1v1h-1zm-449 1h1v1h-1zm6 2h1v1h-1zm438 0h1v1h-1zm-431 2h1v1h-1zm-13 1h1v1h-1zm11 0h1v1h-1zm5 0h1v1h-1zm7 0h1v1h-1zm331 0h1v1h-1zm3 0h1v1h-1zm-344 1h1v1h-1zm2 0h1v1h-1zm7 0h1v1h-1zm331 1h1v1h-1zm84 0h1v1h-1zm-105 1h1v1h-1zm20 0h1v1h-1zm-1 1h1v1h-1zm-317 2h1v1h-1zm286 0h1v1h-1zm109 1h1v1h-1zm-114 2h1v1h-1zm-244 1h1v1h-1zm241 0h1v1h-1zm-10 1h1v1h-1zm142 0h1v1h-1zm-366 1h1v1h-1zm4 0h1v1h-1zm-1 1h1v1h-1zm207 0h1v1h-1zm-222 1h1v1h-1zm13 0h1v1h-1zm3 0h1v1h-1zm202 0h1v1h-1zm7 0h1v1h-1zm-210 1h1v1h-1zm5 0h1v1h-1zm201 0h1v1h-1zm-200 1h1v1h-1zm5 0h1v1h-1zm11 0h1v1h-1zm56 0h1v1h-1zm97 0h1v1h-1zm-170 1h1v1h-1zm10 0h1v1h-1zm2 0h1v1h-1zm3 0h1v1h-1zm-8 1h1v1h-1zm9 0h1v1h-1zm20 0h1v1h-1zm22 0h1v1h-1zm35 0h1v1h-1zm2 0h1v1h-1zm77 0h1v1h-1zm-160 1h1v1h-1zm18 0h1v1h-1zm7 0h1v1h-1zm22 0h1v1h-1zm7 0h1v1h-1zm9 0h1v1h-1zm16 0h1v1h-1zm14 0h1v1h-1zm-58 1h1v1h-1zm4 0h1v1h-1zm3 0h1v1h-1zm2 0h1v1h-1zm2 0h1v1h-1zm46 0h1v1h-1zm49 0h1v1h-1zm-100 1h1v1h-1zm4 0h1v1h-1zm17 0h1v1h-1zm10 0h1v1h-1zm-30 1h1v1h-1zm22 0h1v1h-1zm7 0h1v1h-1zm-3 1h1v1h-1zm2 0h1v1h-1zm257 4h1v1h-1zm-1 1h1v1h-1z"/>
	</g>
</svg>