<svg version="1.2" xmlns="http://www.w3.org/2000/svg" viewBox="0 0 800 800" width="800" height="800">
	<title>image</title>
	<style>
		.s0 { fill: #000000 } 
		.s1 { opacity: 1;fill: #f0db4f } 
	</style>
	<g id="Background">
		<path id="Path 0" class="s0" d="m0 800v-800h800v800z"/>
		<path id="Path 1" fill-rule="evenodd" class="s1" d="m17 16h767v768h-768zm411 265v-1h2zm13 49v-1h2zm-95 21l3 5 2-1 1-17 3 3-1 4 3-2v11 1 6l-2-2-1 5h-4l-3-5v-1-1zm110 0h-3l3-1zm-113 3l-1-2h3zm102-2h1v1h-1zm131 5l1-1 2 2zm-230 0h1v1h-1zm-2 2l2-1v1zm-1 0h1v1h-1zm255 2h1v1h-1zm2 0h1v1h-1zm-1 1h1v1h-1zm-143 2l3 1-3 1zm87 11h1v1h-1zm-192 9l3-1-1 5-3 1v-1l1-1zm175 3v-1l2 1zm-8 7v-2l2 1zm214 23l1-2 1 2zm-2 3h-3l1-3 2 2zm-6 2l1-3 1 2-1 1zm1 0h1v1h-1zm-24 6h1v1h-1zm-360 2h1v1h-1zm234 3l1-1v4zm4 2l2-2-1 2zm9 0l3-1-3 3v-1zm99 1v-3l2 1-1 2zm-85 2l1-4 1 3zm-18-1v-1l4 1v1h-3zm-10 28h1v1h-1zm-224 1h1v1h-1zm137 6h1v1h-1zm0 3v-1l2 1zm-134 11l1-2 1 2zm86-1h1v1h-1zm-87 14l1-1h1zm293 20l-2 2-1-2zm18 5h1v1h-1zm-149 3v-1l1 2zm77 14v-2h1zm98 4h-2l2-1zm-106 25l1-2v2zm3 2l2-2v2zm-227 17v-3l2 3zm276 14h1v1h-1zm-279 7l1-2h3l-1 4-4 1zm-2 6h1v1h-1zm-103 18v-2l2 2zm44-2h1v1h-1zm55 3v-1l2 1zm139 0l3-1 2 3-4 1zm-235 3l1-2v2zm-7 4l-1-3 3 2zm100 1h1v1h-1zm2 0h1v1h-1zm-150 3l-1-2 2 1zm120 2h1v1h-1zm5 1h1v1h-1zm-117 6l1-2 3 3-1 2h-1l-2 1-2-3v-1zm3 5l-1-2h1zm5 2v-2h1 1l-1 3zm0 3v-2h1zm214-2h1v1h-1zm286 7h1v1h-1zm-284 1h1v1h-1zm281 6l2-1v1zm-280 7h1v1h-1zm-24 4l4-3 1 3-3 2-2-1zm-3 0l3-2v2zm-1 6v-1l2 1zm2 0h1v1h-1zm-175 2h3v1zm166 0l3 2h-2zm10-1h1v1h-1zm24 10l1-3v3zm-221 10h1v1h-1zm57 3v-1l2 1zm262 2v-1l2 1zm125 1l1-2v2zm-280 4l-4 1v-3l2 2 2-2zm-11 6l1-2v2zm63-2h1v1h-1zm96 0h1v1h-1zm-179 10v-1l2 2zm193 0l-2 1 2-2zm-206 3l3-1-1 3-1 1-1-2zm-7 5h1v1h-1z"/>
		<path id="Path 2" fill-rule="evenodd" class="s0" d="m455 245h1v1h-1zm1 1h1v1h-1zm-35 2h1v1h-1zm-1 6l2-5 2 2-2 2-1 1zm3-2h1v1h-1zm-2 2l1-1h1l1 17-3 3-1-2 1-2-2-1 2-2zm-2 0h1v1h-1zm-1 5h1v1h-1zm2 6h1v1h-1zm-64 1h1v1h-1zm2 18v-8h-3l2-9 7 1 1 5 4-2 1 6-4 8zm61-13h1v1h-1zm1 11l2-8 2 10 4-3 2-1 2 6 7 3-7 56 10-3 2-3-3-3-1-1-1-7 2 1v1l2-1h-2l5-5-2-3 6 1 1 3-5 3 5 2 1 4-6 1 2 3-5 4 3 3 3 1-2 2-1 4h-1v1l-1 1h1v-1l1-1 7-9v5l2 1 2-4v3l-1 2-3 1h3l-1 2v7l5 1-1 4-3-1v2l3-1 1 3-6 5v6l-6 8-3 5 3 2-5 4 1 11 3 1-3 1 1 2-2 1-1 5 3 1 12-13 3 3-1 8-1 2v1l1 2-1 8v1l-16 19 2 11-1 5v6 6h-3l-1 4 2 10-4 14 2 2v1l-1 5 1 7-3 2h1l2 4-4 7 3 3-2 2 2 5-2-2-1 3 3 1 43-3 11 2v1l-3 1-1 6v1l2 5-5 2-49 4-1 32v3l1 10-4 2v1l1 1 1 1-1-1-1-1v-1l4 1-1 6 4 4-5-1 1 9-7 4 2 2-2 3h-3-1 1 3l1 4v1l-2 8 6 1-1 3 4 1-5 4h-1-1v1l1-1h1l1 5-1 1v2l1 1 2 2-3 2 1 7v1l1 1 1 6-3 1v4l2-1 1 7-2 3v-3l-1 3-2 1v2l-1 2 5 2-1 5-1 1h-1l-5 1 4 2-2 8h-1-1l-4-1v-3l1-1h1-1l-1 1-3-1v-11h1-1v-3-2l-1-7-2 2-2-7 3-6-3-2-1-3-4 3v-2l-3 2h3v1l-1 1v2 2h-1l-2-1v1l-1 1 1-1h2l1 1 1 1-5 4v-1l-3-1-3-2 1 2h2l-1 4h-3l-1 2h-1l-1 3-6 1-1 5-4 2h-1 1l-7 5-1 3-2 2-2-2v3l4-1-5 3h-1v1l-2 1-1-3 1 3-2 1v-2l-1 2v1l-2 4-2-2-1 4-2-1 1 3-3-4-1 2-8 2-2-2v1l2 1-1 3-9-2-3 3 1-3-3 1-1-2 11-9h-5v-9h-7l-1 2-3-2-1 2-1 1-3 1-2-1-1-1h-1l-6-1-2 2-2-3-12 1-3-1v-1l-4-1-2 3-5-4-1 5-3-5h-4l-1 4-4-2-2-2 3-1h2l-2-1-1-1 1 1v1l-3 1-5-2 3-2h-10l-2-3 4 6-7-1-3 6-6 1-1-4h-6l-10 4-8-5 1-6 14-5 5 2 1-4 4-1-5-5h-4l-1-6 3 2 3 1v-1h-3l1-4 4-4-1-4h-1l-5-5-1-1-1-1h-1l-3-5-2 1-5-3 3-5-2 2-2-2 1-2 1-3h-1-1v2 1 2l-1 3-4-1 2-2-2-4v-1-2l1-2-3-3-1 2h-2v-1l-5 4 1-7-4 1 2-3h2l2 4 2-9 2 4 2-2 3 2 3-4v4l6 4 1 2 3-3 1-3 5 1v-1h3l1 1-1-1 1-4 8-1 1-1 2-3 1 3 2-1-3-2-2-2 3-1 1-1 5 3h1 1v-2l-1 2h-1l-2-4h2l-2-2 5 1v-4h3 1-1l2-4 4 4 6-11v-1l-1-2 6-1-3 7h-1 1l15-5 2 1 4 3-2 3 4 2-3 1 2 4-3 1v4h3v-3l1 1 1 2-1 1v1-1l1-1 4 3v3l-2-2-1 2 6 5-1 3 3-1 3 4 8-2 2-1 1-1 4 1v1h1l1 2 6-1 1 3 3-4h7v-3l2-2-2-2h4l1 1h1l1-1 2-2h1l2-2-3-1-1-1-1-1v-1h2l-2-1 1-13 2-4h1 1v-1l-2-7 4-1-1 2-1 3 4-1 1-4h-3v-2h3l-2-2 2-1-4-1 4-2v-1l-1-3 2-3-3-1 1-3h2l-2-3-1-4v-8l10-3h1l2-8v-1l-5-2 2-2-4-3-9 1 3-5-2-9 1-2 1 1-1-1v-1l3-1-2-3h-3l2-3 1-5 1-2-3-2 1-3 2-3-6-11 1-2h-3l1-5 2-1h-1l-3-2 3-2v-8h2l-1-2-3-4-1-4-2-5-2-4-1-5v-5l4 3-2 3 4-1-1 3v1 1l1-1h1l1-2v-4l-3-1 4-1-4-1 4-4-1-4-2 1 1-4-3-1 2-5 5 10 2 1v-3l-3-9-1-4 3-2h-3l-1-4v-1-3l2-10-4-2 4-7-3-4-2-7 3-1h-3v-5l3-1 1-5-3 1v3l-1-1-2-3-3-2v-5l3 4 2-3h5l-4-2 1-3-5 2h-3l-2 1 2-6-5-8 4-1 1-1h2 1l3 5h4l1-5 2 2v-6-1-11l-3 2 1-4-3-3-1 17-2 1-3-5-1-1-1-8 4-1 2-5-4-10 6 1v-14l4 2h2l1-4h-2l2-6v-1l-1-1-1-9 2-6 8 7 3-1-1 24 6-1 6 6-2 6 3 9v22l6 2-1-12v-3l5-5-7-2 1-5 5-11 3 2 2-2 1 15 4-18 3 2h1v-1-1l1-10v-1-4l5 2v-3l3 3v-3l2 1h4l-2-3 2-11 2-6v-5zm12-8h1v1h-1zm-4 6l3-5 2 4-3 1zm-73-1h1v1h-1zm72 1h1v1h-1zm-70 4h1v1h-1zm75 1h1v1h-1zm-12 2h1v1h-1zm-1 4h1v1h-1zm-63 2h1v1h-1zm20 9h1v1h-1zm-19 1h1v1h-1zm92 1l-1 3-2-3zm0-1h1v1h-1zm-94 1h1v1h-1zm3 0h1v1h-1zm-1 1h1v1h-1zm48 5h1v1h-1zm-53 1h1v1h-1zm2 0h1v1h-1zm88 3h1v1h-1zm-63 1h1v1h-1zm66 1h1v1h-1zm-41 1h1v1h-1zm43 0h1v1h-1zm-67 4h1v1h-1zm71 0h1v1h-1zm-47 1h1v1h-1zm47 7h1v1h-1zm-105 1h1v1h-1zm38 1h1v1h-1zm56 5h-2l2-1zm-57 0h1v1h-1zm58 0v2l-1-2zm10 0h1v1h-1zm7 0h1v1h-1zm-18 4h1v1h-1zm7 1h1v1h-1zm9 0h1v1h-1zm-69 4h1v1h-1zm-1 1h1v1h-1zm-44 6l-2-3 2-2 3 3 1 1 1 6h-1l-3-3 2-2zm115-4h1v1h-1zm-1 3v-1l2 1zm-113 3l-2 1 1-3zm234 2l4-2v3l-2 1zm8-1h1v1h-1zm3 0h1v1h-1zm3 0h1v1h-1zm-15 1h1v1h-1zm6 0h1v1h-1zm-244 1h1v1h-1zm3 0h1v1h-1zm2 2l3-2v1l-2 1zm211 10l11-6v-3l3 1 2-4 5 2 1-2 3 1 8-1 3 7h7l1-3 1 1 1 1 2 3 7-3v3h5l5-3 1 4 2 1h1l6-1v-3l2 1v1l3-2 1 4 3-1h1 3l7 2 3 1h3l5 1h2l4-2 2 3 7 3-1 3 5-2-1 2-1 2 4 3 2 3-3 1h-1-1l2 4 3-3 6 3-1 4 5 3 2 2v1-1l7 5 3-1 1 6v1l7 6 14-5h5l1 3-1 2-1 1-1 1-2-2 2-1-2 1-1 3h3l-4 1-1-2-1 3-2-2-1 4-5 2-1-2-1 4-2-3-5 4-4-1h-1-1l1 1-6 1-3 5-1-3-3 2-2-1v3l-1 1h-2l-5 4 2 2-2 2h-3l-2 8-3-3-2 3-2-4-2 6-1 5h-5v-1 1l-3 1 3 1-1 3-6-1 2 3-4 1 5 1-1 3-5-1-2 4-2-1-5 4-6-2-3-3 1-6-2 2v-3l4-1-2-3 1-6 1-1-1 1-3-1 2-4h1l-2-4-3-1v-5l-3-1 2-1v-3l-3 1h-1v1l-7-1-9-1v-2l-3 3-1-3-1 4-5-2-2 3-7-1v-1l3-3-3 1v1 1l-4-1-4-1 1-2-2 2-3 1v-4h-1l-1 1h1l1 3-3 2-2-2 1 4h1l1 2 1 3-5-2v3l5 3-2 2 4 7-2 3v1l-1 2v1l1 1 1 1-2 9h2l2 3h5l-1 4 5 3 2 1 4 3 4 1v3l2-1 2 2h1l5 1-1 4 2-2v3l3-1 3 6 2-1-2-2h3l-2 5 5-3 4 6 11 5 2 1 5 2 1 2 2-2 3 3h1l3 6 3-2-3-1 1-3 10 2 1 1-2 2h-1 1l63-9h3l-1 3h6l-2 5 2-1 1 5 8 4-47 6-6 4-2 1h2l3 4-3 1h4l6 12 2-2 12 12 3 5h4l6 8-2 3 5-2 1 2-4 15 5 1-1 4h4l-2 4-4 5 1 5 1 5-4-1-1 3-4 13 3 1-3 3 1 4 1 5-2 6-4 2v7h-1-1v1 3l-1 2-2 1h2v2 1 2h-1l-1-1 1 1h1l4 3-4 4-4-2h-1l-7 3v1 1l-2 1-7 4 2 2-7 2 2 2-8-1-5 5-1 1v1l-5 3 25 32-5 6-8 3-3-3-25-29v-2l-1 2-3 2-8 1h-1l-3 2-1-4-3 3-11-1h-1l-1 1h-3l-15-1h-1l-4-1-15 1-3-1h-4l-2 3-3-3-4 1v3l-3-2-1 2-2-3-4 1-2 8-8 8-11 1-1-3v-1l-2 2 2-1-7 11-1 1h-1l-2 5-2-1h-1-1l5-10 1-1-1 1-7-1 1-4v-5-1-1-1l2-2 1-1v-1l2-3 4-5h2l-2-1 3-3-4-6h4l-1-4v-1l-12-7v-1l-4-5h-6v-3l-7-3-38-27-1-6 3-2-2-4h-1l-4-1v-2l4-1h2 1l3-1-2-5 5 4 6-3 1 2 7 1 1-3 1 3-2-6h3l1 3 4-1-2-3-3 1-1-4 4-2 5 1v-4l3 1v4l2-1 2-2v-1-1l-2-4 11 2-1-3 1-1-1 1h-4v-3l6-2 1 2 3-3 1-2 10 2h1 1v-1-1l-1-4 2-3 1 3 3 4 11-2-1 3 5 3 1 5v1l-1 6 1 2 1 1 10 10v1l-3 8 10 2 2 3 2-3 4 1 2-6 6 3 5-1 4 2v-2l9 2 25 31 3-1 3 3 2-2-1-2 4 1h1l8 1 1 1-1-1-22-29 3-4 6 2-1-3 3 1 1-3-3-1 3-3h1l1-1-1 1h-1l-7-1 5-5 1-8 4 1-4-5 4-1-1-8 2 1 2-4-3-5h-1-4l-2 1-1-3h3l-2-2 1-1v-1h-1v1 1h-3-5l1-8h-4l-2-2-6-5-7-4-3-4-8-2h-1l-3-2v-1l-6-4v-2l-2 2h-1l-1-2v-2l-1 2-4-1-1-1-12-6-8-4-3-2 6-1 43-4 11-2 2-1h1l-1-1v1l-2 1-8-5-1-2-2-2-5-1 1 8h-3l-6-6 1-2h-1v2h-5l2-3-8-3-57 5-6-4-2-8-1-2-5-3-1-7-1 5-4-5-2-1 2-3v-1l-3-2-2-1-1-4-2-10-3 1v-5l-2 1-1-6-4-4 2-6h2l-2-1v-1l1-1 1-1h2 1-1l-3-5 1-3-1-4h-3l7-10-3-4 6-7v-1l1-4v-1-2l5-19v-1-1l3-7v3l3-1-1-5 2-3 5 1v-1l3-1 2-1 2-1-2-1v-4l6 1-1-3h3v1h2l-2-1 3-2 3 1v-3l3 1v-5l8 1v-3l1-1 6-3h3v-3zm27-12h1v1h-1zm-244 1h1v1h-1zm9 0h1v1h-1zm-4 1h1v1h-1zm256 1h1v1h-1zm2 0h1v1h-1zm-1 1h1v1h-1zm2 0h1v1h-1zm-40 1h1v1h-1zm39 0h1v1h-1zm20 5l2-3v4zm15-3h1v1h-1zm-4 1h1v1h-1zm-75 1h1v1h-1zm82 0h1v1h-1zm4 0h1v1h-1zm9 1h1v1h-1zm6 0h1v1h-1zm-105 1h1v1h-1zm97 0h1v1h-1zm3 1h1v1h-1zm2 0h1v1h-1zm17 1h1v1h-1zm-331 1h1v1h-1zm209 0h1v1h-1zm-6 4l1-2v2zm-193-1h1v1h-1zm327 0h1v1h-1zm-335 1h1v1h-1zm201 1l-2 2 2-3zm-194 0h1v1h-1zm173 2h1v1h-1zm156 0h1v1h-1zm-157 1h1v1h-1zm12 0h1v1h-1zm-14 1h1v1h-1zm7 0h1v1h-1zm3 0h1v1h-1zm-6 6h-3v-5zm2-3l2-2h2v3zm6-2h1v1h-1zm-7 1h1v1h-1zm-6 3h1v1h-1zm-169 1h1v1h-1zm1 1h1v1h-1zm98 0h1v1h-1zm231 0h1v1h-1zm-330 1h1v1h-1zm166 0h1v1h-1zm-4 5h1v1h-1zm-63 1h1v1h-1zm65 2h-3l2-2zm2-2h1v1h-1zm177 1h1v1h-1zm1 2h1v1h-1zm6 3h1v1h-1zm-348 1h1v1h-1zm153 0h1v1h-1zm-154 1h1v1h-1zm109 2h1v1h-1zm-1 1h1v1h-1zm-107 1h1v1h-1zm106 0h1v1h-1zm43 0h1v1h-1zm242 1h1v1h-1zm-2 6l2-5 1 3 2-2-2 4-2 1zm8-5h1v1h-1zm-248 1h1v1h-1zm247 0h1v1h-1zm-41 1h1v1h-1zm28 1h1v1h-1zm-289 1h1v1h-1zm292 1h1v1h-1zm4 1l-2 2 1-3zm-5 0h1v1h-1zm-2 3l-1-2 3 1zm-2 1v-1h2zm-2 1l1-1h1l1 2h-3zm-272 1h1v1h-1zm2 0h1v1h-1zm-110 1h1v1h-1zm109 1h1v1h-1zm38 0h1v1h-1zm227 0h1v1h-1zm2 0h1v1h-1zm-2 3l1-2h1zm-372-1h1v1h-1zm375 0h1v1h-1zm-4 1h1v1h-1zm-8 1h1v1h-1zm-374 4l1-2v2zm11-2h1v1h-1zm350 0h1v1h-1zm-207 1h1v1h-1zm219 0h1v1h-1zm-374 3l1-2 1 1zm2-2h1v1h-1zm116 1h1v1h-1zm38 2h-2l2-1zm-170-1h1v1h-1zm2 0h1v1h-1zm11 0h1v1h-1zm236 0h1v1h-1zm124 0h1v1h-1zm4 0h1v1h-1zm-5 1h1v1h-1zm-372 1h1v1h-1zm4 0h1v1h-1zm12 0h1v1h-1zm355 0h1v1h-1zm-356 1h1v1h-1zm238 0h1v1h-1zm119 0h1v1h-1zm4 0h1v1h-1zm-119 1h1v1h-1zm23 0h1v1h-1zm81 0h1v1h-1zm-357 1h1v1h-1zm165 1h-2l2-1zm107 0l2-1-1 3zm21-1h1v1h-1zm64 0v2l-1-2zm2 0h1v1h-1zm-82 1h1v1h-1zm88 0h1v1h-1zm-341 1h1v1h-1zm241 0h1v1h-1zm22 0h1v1h-1zm-31 1h1v1h-1zm18 0h1v1h-1zm-30 1h1v1h-1zm-86 3h1v1h-1zm-140 1h1v1h-1zm-13 2h1v1h-1zm293 0h1v1h-1zm-291 1h1v1h-1zm292 0h1v1h-1zm-291 1h1v1h-1zm-1 1h1v1h-1zm150 0h1v1h-1zm144 0h1v1h-1zm-293 2h1v1h-1zm13 1h1v1h-1zm92 0h1v1h-1zm185 6l-2-3 3-1zm42-3h1v1h-1zm-327 4h1v1h-1zm141 2l1-2v2zm146-2h1v1h-1zm-55 2v-1l2 1zm90-1h1v1h-1zm-182 1h1v1h-1zm2 0l2 2-2 2zm146 0h1v1h-1zm-56 3l4-1-3 3-1-1zm-1-1h1v1h-1zm-224 1h1v1h-1zm307 0h1v1h-1zm-171 4h1v1h-1zm1 4l-3-1 1-2 2 2zm0-1v-2l2 1-1 1zm168-1h1v1h-1zm-79 2h1v1h-1zm76 0h1v1h-1zm-166 1h1v1h-1zm91 0h1v1h-1zm74 0h1v1h-1zm-75 1h1v1h-1zm3 0h1v1h-1zm71 0h1v1h-1zm-301 1h1v1h-1zm229 0h1v1h-1zm71 0h1v1h-1zm-2 1h1v1h-1zm-69 1h1v1h-1zm-228 2h1v1h-1zm235 2h1v1h-1zm6 4l3-4-1 4zm54-4h1v1h-1zm-159 2h1v1h-1zm-137 1h1v1h-1zm238 0h1v1h-1zm-236 2h1v1h-1zm-1 2h1v1h-1zm247 1h1v1h-1zm5 0h1v1h-1zm-4 2h1v1h-1zm5 0h1v1h-1zm-1 1h1v1h-1zm-1 1h1v1h-1zm6 0h1v1h-1zm-255 4h1v1h-1zm144 5h1v1h-1zm-144 2h1v1h-1zm145 3h1v1h-1zm-58 1h1v1h-1zm60 3h1v1h-1zm137 2h1v1h-1zm-282 1h1v1h-1zm287 1h1v1h-1zm1 3v-2l3 2zm-286 1h1v1h-1zm146 0h1v1h-1zm157 1h1v1h-1zm3 1h1v1h-1zm-155 1h1v1h-1zm156 0h1v1h-1zm1 1h1v1h-1zm69 0h1v1h-1zm-377 1h1v1h-1zm83 0h1v1h-1zm70 0h1v1h-1zm1 1h1v1h-1zm4 1h-2l2-1zm-1 1h1v1h-1zm-159 1h1v1h-1zm85 1h1v1h-1zm74 0h1v1h-1zm231 2h1v1h-1zm2 0h1v1h-1zm-389 3h1v1h-1zm-1 3h1v1h-1zm-1 4h1v1h-1zm250 0h1v1h-1zm1 2h1v1h-1zm83 0h1v1h-1zm-251 2h1v1h-1zm54 0h1v1h-1zm104 1h1v1h-1zm4 0h1v1h-1zm8 0h1v1h-1zm-6 2h1v1h-1zm1 1h1v1h-1zm-115 4h1v1h-1zm71 5h1v1h-1zm141 0h1v1h-1zm-330 3h1v1h-1zm195 0h1v1h-1zm12 6h1v1h-1zm-1 1h1v1h-1zm2 0h1v1h-1zm7 3l-2 1v-3h1zm3 0l-1 2-1-2zm125 0h1v1h-1zm-356 1h1v1h-1zm363 3h1v1h-1zm-124 3h1v1h-1zm-239 3h1v1h-1zm370 1h1v1h-1zm-1 1h1v1h-1zm-371 1h1v1h-1zm253 0h1v1h-1zm-252 1h1v1h-1zm1 1l2-1v3h-1zm0 2h1v1h-1zm259 3h1v1h-1zm2 1h1v1h-1zm111 0h1v1h-1zm-372 1h1v1h-1zm264 0h1v1h-1zm-261 6l-3-1 2-3 1 3zm75-2h1v1h-1zm-80 1h1v1h-1zm80 1h1v1h-1zm200 2h1v1h-1zm94 0h1v1h-1zm-372 1h1v1h-1zm375 1h1v1h-1zm-376 1h1v1h-1zm182 1h1v1h-1zm-11 1h1v1h-1zm10 0h1v1h-1zm197 0h1v1h-1zm-205 1h1v1h-1zm113 0v3l-1-3zm-117 2h1v1h-1zm-245 2h1v1h-1zm239 0h1v1h-1zm3 0h1v1h-1zm5 0h1v1h-1zm1 1h3v1l-1 1h-1zm27-1h1v1h-1zm-284 1h1v1h-1zm250 0h1v1h-1zm32 0h1v1h-1zm3 0h1v1h-1zm-47 1h1v1h-1zm46 0h1v1h-1zm-267 1h1v1h-1zm66 0h1v1h-1zm-64 1h1v1h-1zm63 0h1v1h-1zm377 0h1v1h-1zm-460 1h1v1h-1zm167 1h1v1h-1zm-169 1h1v1h-1zm78 0h1v1h-1zm2 0h1v1h-1zm-3 2h1v1h-1zm5 0h1v1h-1zm-4 1h1v1h-1zm206 0h1v1h-1zm-54 1h1v1h-1zm-148 1h1v1h-1zm147 0h1v1h-1zm-1 1h1v1h-1zm-199 2h1v1h-1zm49 0h1v1h-1zm157 0h1v1h-1zm-155 1h1v1h-1zm143 0h1v1h-1zm238 1h1v1h-1zm-177 2l2-1-1 2zm-257 0h1v1h-1zm1 2v-1l2 1zm-107 7l-6-4 3-3 4 2zm58-4l-2-1 4-2-1 2zm102-2h1v1h-1zm134 0h1v1h-1zm-133 6l-2-2 2-2 1 1 1 1zm132-4h1v1h-1zm78 0h1v1h-1zm-78 2h1v1h-1zm-293 2h1v1h-1zm5 0h1v1h-1zm149 3l-4 1 1 3-3-1v-4l6-2zm6-3h1v1h-1zm3 0h1v1h-1zm78 0h1v1h-1zm2 0h1v1h-1zm33 3l1-3v3zm99-3h1v1h-1zm-371 3l2-2 6 2 1 3-2-1-2-1 1 2h-6l2-2zm50 0l-1-2 2 1zm218-2h1v1h-1zm-273 1h1v1h-1zm159 0h1v1h-1zm2 0h1v1h-1zm82 0h1v1h-1zm31 0h1v1h-1zm101 0h1v1h-1zm-382 1h1v1h-1zm11 0h1v1h-1zm156 0h1v1h-1zm110 0h1v1h-1zm-276 1h1v1h-1zm27 1h1v1h-1zm132 0h1v1h-1zm88 0h1v1h-1zm25 0h1v1h-1zm177 0h1v1h-1zm-309 1h1v1h-1zm131 0h1v1h-1zm-223 1h1v1h-1zm89 0h1v1h-1zm23 0h1v1h-1zm110 0h1v1h-1zm178 0h1v1h-1zm-432 1h1v1h-1zm3 0h1v1h-1zm116 2l-1-2h3v1zm7-2h1v1h-1zm14 0h1v1h-1zm3 0h1v1h-1zm-16 1h1v1h-1zm5 0h1v1h-1zm131 0h1v1h-1zm102 0h1v1h-1zm27 0h1v1h-1zm4 0h1v1h-1zm128 1h1v1h-1zm-501 1h1v1h-1zm349 1h1v1h-1zm-374 1h1v1h-1zm2 0h1v1h-1zm234 0h1v1h-1zm1 1h1v1h-1zm-229 1h1v1h-1zm519 0h1v1h-1zm-518 4v-3l2 3zm2 0l2-1 1 2v1l-3-1zm-3 0h1v1h-1zm2 1h1v1h-1zm-1 7h1v1h-1zm9 1h1v1h-1zm217 1l1-1h1l-1 3h-1zm-219 1h1v1h-1zm503 1l1-1h1zm-283 0h1v1h-1zm-221 1h1v1h-1zm0 2h1v1h-1zm6 0h1v1h-1zm-1 1h1v1h-1zm498 1h1v1h-1zm-491 1h1v1h-1zm3 0h1v1h-1zm1 3v-2h1l1 1 1 4zm207-2h1v1h-1zm281 0h1v1h-1zm-78 1h1v1h-1zm77 0h1v1h-1zm-490 1h1v1h-1zm2 0h1v1h-1zm406 1h1v1h-1zm8 0h1v1h-1zm-7 1h1v1h-1zm-201 1h1v1h-1zm-199 1h1v1h-1zm200 0h1v1h-1zm-204 2h1v1h-1zm4 0h1v1h-1zm476 1h1v1h-1zm-299 3l3-2v3zm-3 0l1-1 2 1 1 3-4-1zm99-1h1v1h-1zm196 2v-1l2 1zm3-1h1v1h-1zm9 0h1v1h-1zm-1 1h1v1h-1zm-280 1h1v1h-1zm75 0h1v1h-1zm194 0h1v1h-1zm-295 2h1v1h-1zm26 0h1v1h-1zm-25 1h1v1h-1zm110 2h1v1h-1zm-116 3h1v1h-1zm32 1h1v1h-1zm-20 2h1v1h-1zm-20 1h1v1h-1zm129 0h1v1h-1zm163 0h1v1h-1zm-291 1h1v1h-1zm36 0h1v1h-1zm99 0h1v1h-1zm-137 1h1v1h-1zm3 1h1v1h-1zm281 0h1v1h-1zm-282 1h1v1h-1zm34 0h1v1h-1zm247 0h1v1h-1zm-287 3l5-2-1 2zm138-1h1v1h-1zm-139 1h1v1h-1zm5 0h1v1h-1zm-180 1h1v1h-1zm-2 1h1v1h-1zm-1 1h1v1h-1zm175 0h1v1h-1zm-175 2l1-1 2 4 1 3-5-2-1-1zm-1-1h1v1h-1zm224 1h1v1h-1zm-1 1h1v1h-1zm-184 1h1v1h-1zm183 0h1v1h-1zm-224 1h1v1h-1zm45 0h1v1h-1zm3 0h1v1h-1zm6 0h1v1h-1zm122 0h1v1h-1zm145 0h1v1h-1zm-319 1l1 2-2-2zm171 0h1v1h-1zm-100 3l1-2v2zm374-2h1v1h-1zm-418 1h1v1h-1zm28 0h1v1h-1zm7 0h1v1h-1zm18 0h1v1h-1zm42 0h1v1h-1zm-120 1h1v1h-1zm59 0h1v1h-1zm9 0h1v1h-1zm4 4l-2-4h3zm5-4h1v1h-1zm4 0h1v1h-1zm38 0h1v1h-1zm44 2v-2l2 1zm280-2h1v1h-1zm-420 1h1v1h-1zm3 0h1v1h-1zm38 0h1v1h-1zm12 0h1v1h-1zm32 2l-4 1v-3h1l1 1zm3-1l1-1 1 2zm9-1h1v1h-1zm102 0h1v1h-1zm150 0h1v1h-1zm20 0h1v1h-1zm19 1l1-1h1l1 4h-8l2-3zm20-1h1v1h-1zm-356 1h1v1h-1zm3 0h1v1h-1zm7 0h1v1h-1zm29 0h1v1h-1zm5 0h1v1h-1zm46 0h1v1h-1zm56 0h1v1h-1zm167 0h1v1h-1zm-322 1h1v1h-1zm55 0h1v1h-1zm43 0h1v1h-1zm221 0h1v1h-1zm6 0h1v1h-1zm-319 1h1v1h-1zm332 0h1v1h-1zm-322 1h1v1h-1zm75 0h1v1h-1zm154 0h1v1h-1zm-232 1h1v1h-1zm79 0h1v1h-1zm56 0h1v1h-1zm2 0h1v1h-1zm4 0h1v1h-1zm90 0h1v1h-1zm91 0h1v1h-1zm-285 1h1v1h-1zm99 0h1v1h-1zm-100 1h1v1h-1zm4 0h1v1h-1zm5 0h1v1h-1zm28 0h1v1h-1zm60 0h1v1h-1zm-59 1h1v1h-1zm155 0h1v1h-1zm-193 1h1v1h-1zm193 1h1v1h-1zm-159 2h1v1h-1zm-7 2h1v1h-1zm165 0h1v1h-1zm-191 4h1v1h-1zm4 7l-5-2 4-4 1 2zm-5-6h1v1h-1zm18 0h1v1h-1zm199 0h1v1h-1zm2 0h1v1h-1zm-220 1h1v1h-1zm-2 2h1v1h-1zm-1 1h1v1h-1zm2 0h1v1h-1zm10 0h1v1h-1zm-11 1h1v1h-1zm371 0h1v1h-1zm2 0h1v1h-1zm-168 3l1-1 1 2zm-8 4h1v1h-1zm3 0v2l-1-2zm-3 7h1v1h-1zm191 5l-6 4 2 2h-8v-5l5-6 5 1-1 4zm-194-4l-2 4-2-2zm-6 4h1v1h-1zm200 0h1v1h-1zm-198 1h1v1h-1zm197 3h1v1h-1z"/>
		<path id="Path 3" fill-rule="evenodd" class="s1" d="m421 253h1v1h-1zm0 15h1v1h-1zm-63 1h1v1h-1zm0 2h1v1h-1zm1 2h1v1h-1zm63 12h1v1h-1zm-62 6h1v1h-1zm-1 4h1v1h-1zm-1 8h1v1h-1zm1 1h1v1h-1zm59 3h1v1h-1zm-59 3h1v1h-1zm47 0h1v1h-1zm8 4h1v1h-1zm-56 1h1v1h-1zm57 4h1v1h-1zm-10 1h1v1h-1zm0 2h1v1h-1zm-1 1h1v1h-1zm42 1h1v1h-1zm-1 3h1v1h-1zm-2 1h1v1h-1zm-3 2h1v1h-1zm8 1h1v1h-1zm-8 4h1v1h-1zm4 1h1v1h-1zm-72 3h1v1h-1zm25 0h1v1h-1zm39 5h1v1h-1zm8 2h1v1h-1zm2 1h1v1h-1zm-3 2h1v1h-1zm-98 1h1v1h-1zm99 1h1v1h-1zm-2 1h1v1h-1zm12 0h1v1h-1zm-10 1h1v1h-1zm-87 1h1v1h-1zm86 0h1v1h-1zm8 0h1v1h-1zm2 1h1v1h-1zm118 3h1v1h-1zm-225 1h1v1h-1zm239 0h1v1h-1zm-133 1h1v1h-1zm133 1h-4l4-1zm-241 0h1v1h-1zm13 0h1v1h-1zm99 0h1v1h-1zm129 0h1v1h-1zm2 1h1v1h-1zm-242 1h1v1h-1zm-1 1h1v1h-1zm2 0h1v1h-1zm3 0h1v1h-1zm-7 1h1v1h-1zm4 0v2l-1-2zm5 0l3 1v5zm279 0h1v1h-1zm-275 1h1v1h-1zm246 0h1v1h-1zm15 0h1v1h-1zm-5 1h1v1h-1zm18 0h1v1h-1zm9 0h1v1h-1zm-15 1h1v1h-1zm-268 1h1v1h-1zm279 0h1v1h-1zm-288 1h1v1h-1zm109 0h1v1h-1zm167 0h1v1h-1zm3 0h1v1h-1zm-70 2h1v1h-1zm101 0h1v1h-1zm11 0h1v1h-1zm-323 1h1v1h-1zm2 0h1v1h-1zm204 1h1v1h-1zm-1 1h1v1h-1zm117 0h1v1h-1zm3 0h1v1h-1zm3 1h1v1h-1zm-5 1h1v1h-1zm2 1h1v1h-1zm-314 1h1v1h-1zm316 0h1v1h-1zm3 0h1v1h-1zm-4 1h1v1h-1zm6 0h1v1h-1zm-323 1h1v1h-1zm5 0h1v1h-1zm316 1h1v1h-1zm2 0h1v1h-1zm-326 1h1v1h-1zm171 1h1v1h-1zm155 0h1v1h-1zm-326 2h1v1h-1zm327 0h1v1h-1zm2 0h1v1h-1zm-154 1h1v1h-1zm-172 1h1v1h-1zm-1 2h1v1h-1zm5 0h1v1h-1zm-4 1h1v1h-1zm-2 1h1v1h-1zm3 0h1v1h-1zm89 1h1v1h-1zm77 1h1v1h-1zm-167 3h1v1h-1zm2 0h1v1h-1zm158 0h1v1h-1zm4 0h1v1h-1zm-163 2h1v1h-1zm340 1h1v1h-1zm5 4h1v1h-1zm-257 4h1v1h-1zm59 1h1v1h-1zm-58 1h1v1h-1zm260 0h1v1h-1zm2 0h1v1h-1zm-350 1h1v1h-1zm146 0h1v1h-1zm241 1h1v1h-1zm-300 1h1v1h-1zm265 0h1v1h-1zm33 0h1v1h-1zm-10 2h1v1h-1zm-19 1h1v1h-1zm-253 1h1v1h-1zm273 0h1v1h-1zm-6 1h1v1h-1zm5 0h1v1h-1zm-376 1h1v1h-1zm349 0h1v1h-1zm-246 1h1v1h-1zm247 0h1v1h-1zm-3 1h1v1h-1zm2 0h1v1h-1zm-90 6h1v1h-1zm87 0h1v1h-1zm2 0h1v1h-1zm-349 1h1v1h-1zm215 1h1v1h-1zm-213 2h1v1h-1zm102 0h1v1h-1zm118 0h1v1h-1zm4 0h1v1h-1zm-83 1h1v1h-1zm78 0h1v1h-1zm-1 1h1v1h-1zm34 0h1v1h-1zm-20 2h1v1h-1zm12 0h1v1h-1zm-243 1h1v1h-1zm213 0h1v1h-1zm54 0h1v1h-1zm63 0h1v1h-1zm-191 1h1v1h-1zm127 0h1v1h-1zm57 0h1v1h-1zm-52 2h1v1h-1zm-56 1h1v1h-1zm60 0h1v1h-1zm-137 1h1v1h-1zm138 0h1v1h-1zm-1 1h1v1h-1zm-279 3h1v1h-1zm320 0h1v1h-1zm3 0h1v1h-1zm-44 1h1v1h-1zm-60 2h1v1h-1zm63 1h1v1h-1zm-279 1h1v1h-1zm86 0h1v1h-1zm193 4h1v1h-1zm-1 1h1v1h-1zm22 0h1v1h-1zm3 0h1v1h-1zm-87 1h1v1h-1zm65 1h1v1h-1zm-64 1h1v1h-1zm86 1h1v1h-1zm-84 2h1v1h-1zm-227 3h1v1h-1zm6 0h1v1h-1zm218 0h1v1h-1zm2 0h1v1h-1zm-224 1h1v1h-1zm-3 1h1v1h-1zm6 0h1v1h-1zm220 2l1-2 1 2zm3-2h1v1h-1zm-226 1h1v1h-1zm93 0h1v1h-1zm49 1h1v1h-1zm80 0h1v1h-1zm-130 1h1v1h-1zm131 0h1v1h-1zm76 0h1v1h-1zm-156 1h1v1h-1zm78 4l2-4 1 4zm65-4h1v1h-1zm-147 1h1v1h-1zm3 0h1v1h-1zm145 0h1v1h-1zm-194 1h1v1h-1zm203 1h1v1h-1zm-290 1h1v1h-1zm225 8h1v1h-1zm-91 3h1v1h-1zm-134 1h1v1h-1zm229 0h1v1h-1zm-93 3h1v1h-1zm96 0h1v1h-1zm5 1h1v1h-1zm-236 3h1v1h-1zm138 0h1v1h-1zm-141 1h1v1h-1zm248 1h1v1h-1zm-247 2h1v1h-1zm143 1h1v1h-1zm-59 11h1v1h-1zm65 1h1v1h-1zm0 2h1v1h-1zm2 2h1v1h-1zm131 3h1v1h-1zm-200 2h1v1h-1zm-1 5h1v1h-1zm-76 1h1v1h-1zm297 0h1v1h-1zm-298 2h1v1h-1zm303 0h1v1h-1zm0 3h1v1h-1zm-3 9l2-3-3-2 4-3 9 5 2 1v1l-1 1 1-1 3 1v1l-2 1-1 2-6-2-2 3-4-4-1 3-4-4h1 1zm77-8h1v1h-1zm-378 1h1v1h-1zm311 0h1v1h-1zm-13 7v-4l2 4h-1zm15-4h1v1h-1zm-69 1h1v1h-1zm-1 1h1v1h-1zm4 0h1v1h-1zm-244 1h1v1h-1zm230 0h1v1h-1zm2 0h1v1h-1zm13 0h1v1h-1zm72 1l3 1h-3zm-242 0h1v1h-1zm168 0h1v1h-1zm77 0h1v1h-1zm-323 1h1v1h-1zm318 1v-1h2zm-317 0h1v1h-1zm317 0l-1 2-1-2zm-66 1h1v1h-1zm9 0h1v1h-1zm49 0h1v1h-1zm16 1v-1l3 1-2 1zm3-1h1v1h-1zm-27 1h1v1h-1zm3 0h1v1h-1zm22 1h-4l3-1zm-193 2h1v1h-1zm126 1h1v1h-1zm1 1l3-1 2 3zm-131 0h1v1h-1zm-71 4l4-1 1 5 5 2-3 5-1 2h-1l-1 3-32 2-6-6 1-8 5-3zm71-1h1v1h-1zm0 3h1v1h-1zm210 6h1v1h-1zm-326 2h1v1h-1zm325 0h1v1h-1zm5 2h1v1h-1zm-279 1h1v1h-1zm280 0l5 6-2 1zm-124 3h1v1h-1zm-209 3h1v1h-1zm225 4h1v1h-1zm4 3h1v1h-1zm120 0h1v1h-1zm-102 10h1v1h-1zm2 1h1v1h-1zm2 0h1v1h-1zm-259 3h1v1h-1zm-1 7h1v1h-1zm275 2h1v1h-1zm-1 1h1v1h-1zm2 0h1v1h-1zm-276 1h1v1h-1zm272 0h1v1h-1zm-272 4h1v1h-1zm276 0h1v1h-1zm5 0h1v1h-1zm88 1h1v1h-1zm-2 1h1v1h-1zm-296 4h1v1h-1zm100 0h1v1h-1zm4 0h1v1h-1zm-103 1h1v1h-1zm98 0h1v1h-1zm-171 1h1v1h-1zm74 0h1v1h-1zm85 0h1v1h-1zm11 0h1v1h-1zm14 0h1v1h-1zm-109 1h1v1h-1zm112 1l-4 1 1-2h1zm99-1h1v1h-1zm82 0h1v1h-1zm-456 1h1v1h-1zm82 0h1v1h-1zm2 0h1v1h-1zm165 0h1v1h-1zm124 0h1v1h-1zm-126 1h1v1h-1zm30 0h1v1h-1zm178 0h1v1h-1zm-369 1h1v1h-1zm-86 1h1v1h-1zm83 2l4-1-2 5h-2zm4-2h1v1h-1zm154 0h1v1h-1zm-240 1h1v1h-1zm279 1h1v1h-1zm177 0h1v1h-1zm-371 3h1v1h-1zm76 0h1v1h-1zm71 0h1v1h-1zm-151 1h1v1h-1zm3 3v-3h1l1 1zm2-3h1v1h-1zm74 0h1v1h-1zm118 0h1v1h-1zm174 0h1v1h-1zm-220 1h1v1h-1zm-244 1h1v1h-1zm290 0h1v1h-1zm-291 1h1v1h-1zm172 0h1v1h-1zm74 0h1v1h-1zm-243 1h1v1h-1zm-3 1h1v1h-1zm293 0h1v1h-1zm-200 1h1v1h-1zm287 0h1v1h-1zm-350 1h1v1h-1zm-42 2h1v1h-1zm43 0h1v1h-1zm6 0h1v1h-1zm-110 1h1v1h-1zm109 0h1v1h-1zm55 0h1v1h-1zm205 0h1v1h-1zm85 0h1v1h-1zm-344 1h1v1h-1zm55 0h1v1h-1zm143 0h1v1h-1zm145 0h1v1h-1zm-386 1h1v1h-1zm239 0h1v1h-1zm-68 2h1v1h-1zm54 0h1v1h-1zm-229 1h1v1h-1zm103 0h1v1h-1zm71 0h1v1h-1zm218 0h1v1h-1zm-398 1h1v1h-1zm3 0h1v1h-1zm237 0h1v1h-1zm79 0h1v1h-1zm78 0h1v1h-1zm-175 1h1v1h-1zm174 0h1v1h-1zm-291 1h1v1h-1zm80 1h1v1h-1zm211 0h1v1h-1zm-340 1h1v1h-1zm48 0h1v1h-1zm-1 1h1v1h-1zm-133 1h1v1h-1zm21 0h1v1h-1zm1 1h1v1h-1zm64 0h1v1h-1zm-70 1h1v1h-1zm94 0h1v1h-1zm20 0h1v1h-1zm80 0h1v1h-1zm44 0h1v1h-1zm171 0h1v1h-1zm-407 1h1v1h-1zm90 0h1v1h-1zm19 0h1v1h-1zm243 0h1v1h-1zm2 0h1v1h-1zm11 0h1v1h-1zm-389 1h1v1h-1zm512 0h1v1h-1zm-514 1h1v1h-1zm8 0l3 2-3 1zm97 0h1v1h-1zm5 0h1v1h-1zm109 0h1v1h-1zm-89 1h1v1h-1zm-22 1h1v1h-1zm406 2h1v1h-1zm-507 1h1v1h-1zm2 1h1v1h-1zm2 0h1v1h-1zm-6 1h1v1h-1zm2 1h1v1h-1zm2 1h1v1h-1zm214 0h1v1h-1zm2 0h1v1h-1zm-2 2h1v1h-1zm3 4h1v1h-1zm283 1h1v1h-1zm2 0h1v1h-1zm-486 6h1v1h-1zm-4 1h1v1h-1zm3 0h1v1h-1zm-2 1h1v1h-1zm3 0h1v1h-1zm481 0h1v1h-1zm-483 1h1v1h-1zm485 1h1v1h-1zm-2 1h1v1h-1zm1 1h1v1h-1zm-75 1h1v1h-1zm3 0h1v1h-1zm73 0h1v1h-1zm-478 1h1v1h-1zm196 0h1v1h-1zm198 0h1v1h-1zm20 0h1v1h-1zm-236 1h1v1h-1zm237 0h1v1h-1zm-148 1h1v1h-1zm212 0h1v1h-1zm-475 4h-2v-3l2 2zm470-3h1v1h-1zm-304 2v3l-3-2zm104 0h1v1h-1zm-270 1h1v1h-1zm168 0h1v1h-1zm294 1h1v1h-1zm-298 2h1v1h-1zm296 0h1v1h-1zm-453 1h1v1h-1zm154 0h1v1h-1zm25 0h1v1h-1zm-22 1h1v1h-1zm24 0h1v1h-1zm2 0h1v1h-1zm267 0h1v1h-1zm-451 1h1v1h-1zm327 0h1v1h-1zm120 0h1v1h-1zm-458 1h1v1h-1zm162 0h1v1h-1zm-146 1h1v1h-1zm6 0h1v1h-1zm263 0h1v1h-1zm164 1h1v1h-1zm-450 1h1v1h-1zm291 0h1v1h-1zm48 0h1v1h-1zm-177 2h1v1h-1zm292 0h1v1h-1zm-303 2h1v1h-1zm6 0h1v1h-1zm4 0h1v1h-1zm-11 1h1v1h-1zm-145 1h1v1h-1zm190 0h1v1h-1zm103 0h1v1h-1zm-142 1h1v1h-1zm-154 1h1v1h-1zm185 0h1v1h-1zm256 0h1v1h-1zm-252 1h1v1h-1zm249 0h1v1h-1zm2 0h1v1h-1zm-143 2h1v1h-1zm-111 1h1v1h-1zm-159 1h1v1h-1zm4 0h1v1h-1zm153 0h1v1h-1zm-199 1h1v1h-1zm43 0h1v1h-1zm155 0h1v1h-1zm-202 1h1v1h-1zm5 0h1v1h-1zm160 0h1v1h-1zm-132 1h1v1h-1zm16 0h1v1h-1zm110 0h1v1h-1zm5 0h1v1h-1zm48 0h1v1h-1zm-162 1h1v1h-1zm-36 1h1v1h-1zm199 0h1v1h-1zm2 0h1v1h-1zm-221 1h1v1h-1zm17 0h1v1h-1zm104 0h1v1h-1zm-123 1h1v1h-1zm60 0h1v1h-1zm-25 1h1v1h-1zm23 0h1v1h-1zm24 0h1v1h-1zm24 0h1v1h-1zm5 0h1v1h-1zm100 0h1v1h-1zm-95 1h1v1h-1zm279 0h1v1h-1zm39 0h1v1h-1zm4 0h1v1h-1zm-406 1h1v1h-1zm68 0h1v1h-1zm62 0h1v1h-1zm206 0h1v1h-1zm4 0h1v1h-1zm19 0h1v1h-1zm-284 1h1v1h-1zm22 0h1v1h-1zm2 0h1v1h-1zm83 0h1v1h-1zm4 0h1v1h-1zm177 0h1v1h-1zm20 0h1v1h-1zm19 0h1v1h-1zm-326 1h1v1h-1zm6 0h1v1h-1zm99 0h1v1h-1zm2 0h1v1h-1zm199 0h1v1h-1zm-258 2h1v1h-1zm4 1h1v1h-1zm-1 1h1v1h-1zm58 0h1v1h-1zm98 0h1v1h-1zm-172 3h1v1h-1zm11 0h1v1h-1zm-3 1h1v1h-1zm161 0h1v1h-1zm-170 1h1v1h-1zm-11 1h1v1h-1zm2 0h1v1h-1zm16 0h1v1h-1zm163 0h1v1h-1zm31 1h1v1h-1zm-206 1h1v1h-1zm2 0h1v1h-1zm186 0h1v1h-1zm-198 1h1v1h-1zm7 0h1v1h-1zm7 0h1v1h-1zm187 0h1v1h-1zm-194 2h1v1h-1zm203 0h1v1h-1zm-212 1h1v1h-1zm192 2h1v1h-1zm2 1h1v1h-1zm-1 1h1v1h-1zm0 6h1v1h-1zm2 0h1v1h-1zm155 0h1v1h-1zm-161 4h1v1h-1z"/>
		<path id="Path 4" class="s0" d="m379 316v2l-3-2-1-11 5-3v9l-1 4zm-23 38h1v1h-1zm-4 1h1v1h-1zm-1 1h1v1h-1zm-4 1h1v1h-1zm7 1h1v1h-1zm-9 6h1v1h-1zm380 57h1v1h-1zm-15 5h1v1h-1zm-122 9h1v1h-1zm-4 2h1v1h-1zm32 0h1v1h-1zm2 0h1v1h-1zm-104 90h1v1h-1zm161 13v-1h2v1zm-2 1l2-1v1zm-251 24l1-2v2zm-66 45h1v1h-1zm1 16h1v1h-1zm-158 19h1v1h-1zm10 12h1v1h-1zm7 3h1v1h-1zm-1 2h1v1h-1zm18 34h1v1h-1zm10 27h1v1h-1zm407 0h1v1h-1zm-85 2h1v1h-1zm-235 17h1v1h-1zm1 2h1v1h-1z"/>
		<path id="Path 5" class="s1" d="m376 306h1v1h-1zm2 9h1v1h-1z"/>
		<path id="Path 6" class="s0" d="m666 536h1v1h-1zm-11 2h1v1h-1zm13 0h1v1h-1zm3 0h1v1h-1zm-15 1h1v1h-1zm2 0h1v1h-1zm12 0h1v1h-1zm-7 1h1v1h-1zm20 3h1v1h-1zm-140 73h1v1h-1zm-189 6h1v1h-1z"/>
	</g>
</svg>