<svg version="1.2" xmlns="http://www.w3.org/2000/svg" viewBox="0 0 800 800" width="800" height="800">
	<title>image</title>
	<style>
		.s0 { opacity: 1;fill: #000000 } 
		.s1 { opacity: 1;fill: #13aa52 } 
		.s2 { fill: #fdfefe } 
	</style>
	<g id="Background">
		<path id="Path 0" class="s0" d="m0 800v-800h800v800z"/>
		<path id="Path 1" fill-rule="evenodd" class="s1" d="m16 16h768v768h-768zm366 157l1 1 2 1 1-6h-1v-1h-2l-2 2zm-26 31h1v-1h-1zm108 37h1v-1h-1zm-121 8l-2-3v3zm142 19l1 2v-2zm26 35h1v-1h-1zm-13 2l-11 3 11-2zm-203 2l-2-1v1zm236 98h1v-1h-1zm-22 22v-2l-1 2zm-230 41h1v-1h-1zm66 29l-2-1v1zm0 6h1v-1h-1z"/>
		<path id="Path 2" fill-rule="evenodd" class="s2" d="m371 161h1v1h-1zm5 0h1v1h-1zm-6 2h1v1h-1zm20 0h1v1h-1zm-25 17l-5-4 5-2 1 2 1-8h7l-3-1 1-3 6 1 3 5 1 3v1h1l2 1 1-6h1 1l5 3-1-4 5 1v3l2-1 2 4 3 1v4l-6 8 5 9 11 11 10-4h1 6v7l3-1-5 6v3h-1v2l2 7-10 4 3 5 3 4 3-1 5-4 4-10 6-2 3 7-5 8 1 5 4 2 11-5 6-1 1 1v-1l3 1v6l23-5 2 6 3 4-5 3-1 2-2-2-2 2-5-1v4l-2 3-4-3-9 2 2 9-7 4 21-7 2 2 1-2 1 2v-2l1 3 3-1-2 4 3-1-2 3 4 2 2 3 8-1h1l3 2-9 2-1-1v1l-1 4 4 1v-3l6-1h1l4 5-2 2v5l-4 3-7 5-11 3 11-2h1l5 2-10 4v5l18-5v9l3 3v2l2 4-3-1-5 2-1 6-2-2-3 4-13 3v8l11-1h1l-1 5h-6l1 4-9 4-1 6 1 8-9 3-4 2h-1l-1 13 16-7-1 9 13-3 2 3-2 1h3l4-5 9-2v8l2 5 5 1h2l4-1v-3l2 3v1 1h1l2 2-2 1h-1l-18 6v3l1 1 1 5-4 2-2 2v-2l-1 2-12 1-8 4v3h-7l-4 12 16-4 2 4-1-4 6-1 4 3-2 2h-3l1 4-2 3-2-2-1-4-3 2 2 4-4 1-6 10-3 1 2 2-2 2-15 4-6 15-18 26-19 20h-3v3l-3-1-2 6-11 6-8 57h-10l-6-52-23-19-11-15-11-9v-3l15-3-7-6v-2h2l-2-1-1-1h-1l-2-5-3 2-5-6-11 2-2-5h-5l-4 5-5-7v-1l-1-1 2-2-4-1-10 11-5-3 1-2-1-2 1-1 5-2v-1l2-2 2 2-1-4-6-2 1-4-5 3 3 1-7 2 3 2-4 1-2 2-3-3v-3l4 1v-4l1-1h1l4-6 3-8-4-3 1-2v-1l6-1-1-5 6-7-1-7 12-3 4-6v-1l-4-17-17 4-1-10-7 4h-1l-8 3-1-1 1-4h1v-1-1l-3-2 4-7-3-3v-5l2 2 3-2 3-6 2 1 5-2-3-3h3l2-5 16-4 1-5v-1l1-2v-13l1-1-1 1-8 7-2-1-8 2 1 10-5-1-2 1-4 2v1 1h-3v-5l-2-3-4 2-2-5 3-1 7-7 3-7 1-4-3-3v-3l2-1v-1l2-2 1-3-3 1 2-5 1-2h1v3l6-1-3-4 3-1h2 2l-2-1 2-8 10-6 3-13 17-7-3-2h4v-4l9-1 5-2-3-2 4-3h-2l2-9h2l-2-3 1-8h-5-1l-3 1 2-2-2-9 5-2-1-2 5-2 4-3-2-3 4-2v-1-1l5-1-3-2h3l-1-3 5 1-1-3 1-1-2-3 5 1v-4l4 2 1-6h1l2 2h1l-3-12v-1zm25-13h1v1h-1zm-5 1h1v1h-1zm2 0h1v1h-1zm-23 4h1v1h-1zm-5 2h1v1h-1zm-1 1h1v1h-1zm46 0h1v1h-1zm0 4h1v1h-1zm-39 3h1v1h-1zm0 10h1v1h-1zm72 12l3 4-5 1v-8l2 2zm-83 0l3-1-1 1zm74-2h1v1h-1zm9 0h1v1h-1zm-13 1h1v1h-1zm-71 1h1v1h-1zm1 1h1v1h-1zm-10 6h1v1h-1zm3 0h1v1h-1zm-2 2h1v1h-1zm2 0h1v1h-1zm-8 4l2 3h-4zm94 1h1v1h-1zm-4 1h1v1h-1zm2 0h1v1h-1zm3 1h1v1h-1zm-4 2h1v1h-1zm-96 3h1v1h-1zm-4 11h2l-1 4zm93 0h1v1h-1zm-87 2h1v1h-1zm128 1h1v1h-1zm-132 1h1v1h-1zm158 0h1v1h-1zm3 0h1v1h-1zm-160 1h1v1h-1zm159 0h1v1h-1zm-154 7h1v1h-1zm1 2h1v1h-1zm-1 4h1v1h-1zm148 3h1v1h-1zm3 0h1v1h-1zm-153 3h1v1h-1zm145 0h1v1h-1zm14 1h1v1h-1zm-16 2h1v1h-1zm2 0h1v1h-1zm-156 2h1v1h-1zm156 0h1v1h-1zm2 1h1v1h-1zm-2 1h1v1h-1zm4 0h1v1h-1zm4 1h1v1h-1zm1 1h1v1h-1zm1 3h1v1h-1zm2 2h1v1h-1zm1 1h1v1h-1zm14 1h1v1h-1zm-15 1h1v1h-1zm12 0h1v1h-1zm2 0h1v1h-1zm-4 3l1-2v2zm5 3h1v1h-1zm-11 1h1v1h-1zm9 0h1v1h-1zm20 8h1v1h-1zm1 1h1v1h-1zm-22 7h1v1h-1zm6 2l1-2v2zm3-1h1v1h-1zm-4 1h1v1h-1zm1 1l1-1h2l1 3zm-13 2h1v1h-1zm-207 2l2-1v1zm-7 2h1v1h-1zm4 0h1v1h-1zm221 2h1v1h-1zm4 3h1v1h-1zm1 5h1v1h-1zm-234 2h1v1h-1zm-2 1h1v1h-1zm0 4h1v1h-1zm-1 4h1v1h-1zm3 3h1v1h-1zm230 2h1v1h-1zm5 7h1v1h-1zm-221 2h1v1h-1zm4 0h1v1h-1zm1 1h1v1h-1zm-2 1h1v1h-1zm195 0h1v1h-1zm8 1h1v1h-1zm1 1h1v1h-1zm-234 3h1v1h-1zm38 1h1v1h-1zm-26 6v-1h3l-2 2zm0 1h1v1h-1zm-1 1h1v1h-1zm209 6h1v1h-1zm-211 8h1v1h-1zm202 5h1v1h-1zm-5 2h1v1h-1zm-202 1h1v1h-1zm202 1h1v1h-1zm-201 2h1v1h-1zm-2 1h1v1h-1zm-1 7h1v1h-1zm4 2h1v1h-1zm8 3h1v1h-1zm-10 2h1v1h-1zm254 0h1v1h-1zm-252 1l1 2-2-2zm248 0h1v1h-1zm10 2h1v1h-1zm1 1h1v1h-1zm-1 4h1v1h-1zm-18 9l2-1-1 2zm-203 0h1v1h-1zm206 4h1v1h-1zm-1 2h1v1h-1zm-1 1h1v1h-1zm-2 2h1v1h-1zm-4 1h1v1h-1zm-18 7h1v1h-1zm14 6h1v1h-1zm-4 1h1v1h-1zm1 1h1v1h-1zm2 1h1v1h-1zm-216 1h1v1h-1zm-3 3h1v1h-1zm-1 2h1v1h-1zm217 2h1v1h-1zm2 0h1v1h-1zm-217 3h1v1h-1zm-1 6h1v1h-1zm-5 6h1v1h-1zm-1 1h1v1h-1zm16 5h1v1h-1zm-3 3h1v1h-1zm-15 1h1v1h-1zm11 0h1v1h-1zm-1 4l1-3v2zm3-3h1v1h-1zm13 2h1v1h-1zm1 1h1v1h-1zm-16 6h1v1h-1zm-3 1h1v1h-1zm59 10l-2-2h1l1 1zm-1 2h1v1h-1zm2 3h1v1h-1zm1 1l1-1 1 2z"/>
		<path id="Path 3" class="s0" d="m279 31h1v1h-1zm-240 226h1v1h-1zm-8 22h1v1h-1zm-3 16h1v1h-1zm-5 21h1v1h-1zm-3 16h1v1h-1zm760 122h1v1h-1z"/>
		<path id="Path 4" fill-rule="evenodd" class="s1" d="m375 166h1v1h-1zm12 3h1v1h-1zm-16 2h1v1h-1zm25 1h1v1h-1zm-15 1h1v1h-1zm1 1h1v1h-1zm18 1h1v1h-1zm-35 4h1v1h-1zm1 3h1v1h-1zm-1 11h1v1h-1zm2 2h1v1h-1zm57 9h1v1h-1zm12 0h1v1h-1zm-88 9h1v1h-1zm3 0h1v1h-1zm77 2h1v1h-1zm-82 3h1v1h-1zm-4 4h1v1h-1zm-4 4h1v1h-1zm6 0h1v1h-1zm5 2h1v1h-1zm-14 2h1v1h-1zm1 5h1v1h-1zm0 2h1v1h-1zm7 0h1v1h-1zm1 4h1v1h-1zm114 0h1v1h-1zm7 0h1v1h-1zm24 2h1v1h-1zm3 5h1v1h-1zm-2 1h1v1h-1zm-146 1h1v1h-1zm148 0h1v1h-1zm-147 1h1v1h-1zm145 3h1v1h-1zm-149 3h1v1h-1zm137 1h1v1h-1zm-151 10h1v1h-1zm144 5h1v1h-1zm9 5l-2 1v-3zm-4-1h1v1h-1zm11 0h1v1h-1zm-7 1h1v1h-1zm11 1h1v1h-1zm12 1h1v1h-1zm-21 1h1v1h-1zm-5 2h1v1h-1zm2 0h1v1h-1zm18 0h1v1h-1zm-7 1l4 4-3 1zm16 1h1v1h-1zm-5 2h1v1h-1zm-114 1l8 7 2 11-21 37 1-31zm108 0h1v1h-1zm-6 1h1v1h-1zm-14 3l-1-2h3zm18-2h1v1h-1zm15 1h1v1h-1zm-32 4l-3 2 2-5zm12-2h1v1h-1zm-16 1h1v1h-1zm4 1h1v1h-1zm-6 1h1v1h-1zm2 2h1v1h-1zm26 8h1v1h-1zm-214 4h1v1h-1zm-1 2h1v1h-1zm7 1h1v1h-1zm-7 1h1v1h-1zm0 5h1v1h-1zm116 1l5 23-32 53 2-29zm-118 1h1v1h-1zm0 3h1v1h-1zm233 2h1v1h-1zm-1 2h1v1h-1zm-205 7h1v1h-1zm131 0h1v1h-1zm-156 1h1v1h-1zm24 0h1v1h-1zm-26 1h1v1h-1zm156 0h1v1h-1zm-136 3h1v1h-1zm-30 7h1v1h-1zm0 2h1v1h-1zm6 0h1v1h-1zm30 0h1v1h-1zm194 0h1v1h-1zm-226 1h1v1h-1zm31 2h1v1h-1zm-24 2h1v1h-1zm124 2l1 22-33 71-3-5 2-3-3-17 8-23 18-24zm-128 1h1v1h-1zm1 1h1v1h-1zm21 2h1v1h-1zm-3 2h1v1h-1zm187 3h1v1h-1zm1 3h1v1h-1zm-203 4h1v1h-1zm-5 5h1v1h-1zm196 3h1v1h-1zm-16 11h3l2-5 4 1v10l-9 4v-3l-2 1 2-4zm13-5h1v1h-1zm-11 1h1v1h-1zm-186 3h1v1h-1zm183 0h1v1h-1zm-182 3h1v1h-1zm0 2h1v1h-1zm-1 1h1v1h-1zm8 1h1v1h-1zm234 0h1v1h-1zm-15 1h1v1h-1zm-228 2h1v1h-1zm134 0v20l-18 46-8 16-5-12zm94 1h1v1h-1zm17 2h1v1h-1zm13 0h1v1h-1zm-8 1h1v1h-1zm-21 1h1v1h-1zm29 0h1v1h-1zm1 2h1v1h-1zm-220 10h1v1h-1zm202 0h1v1h-1zm-3 7h1v1h-1zm-210 6h1v1h-1zm-9 12h1v1h-1zm0 3h1v1h-1zm-6 2h1v1h-1zm7 0h1v1h-1zm142 7h1v1h-1zm4 0h1v1h-1zm-4 3l2-1-1 5v1 1l-4 1-2-4 4-3zm-1-1h1v1h-1zm5 0h1v1h-1zm0 2h1v1h-1zm-1 1h1v1h-1zm1 1h1v1h-1zm-139 1h1v1h-1zm136 1v-1l2 1zm-134 0h1v1h-1zm-7 2l3-1 5 1-3 5h3l-4 1zm137 0h1v1h-1zm52 0h1v1h-1zm-191 2h1v1h-1zm144 0h1v1h-1zm-155 1h1v1h-1zm149 0h1v1h-1zm-137 1h1v1h-1zm9 0h1v1h-1zm-18 1h1v1h-1zm10 0h1v1h-1zm-2 8h1v1h-1zm-6 2h1v1h-1zm17 0h1v1h-1zm1 1h1v1h-1zm-17 2h1v1h-1zm46 4h1v1h-1zm14 12l-1-11 6 1v5h4v3h-1 1l4 1-1 3h-1l-1-1 1 1-6 3zm6-10h1v1h-1zm-12 2h1v1h-1zm0 4h1v1h-1zm16 0h1v1h-1zm2 0h1v1h-1zm-17 1h1v1h-1zm78 1h1v1h-1zm-74 2h1v1h-1zm14 1h1v1h-1zm58 0h1v1h-1zm-58 1l1 2-2-2zm-3 2h1v1h-1zm58 31h1v1h-1zm5 0h1v1h-1zm-10 9h1v1h-1z"/>
		<path id="Path 5" class="s2" d="m384 169h1v1h-1zm-2 4h1v1h-1zm-86 170h1v1h-1zm-21 10h1v1h-1zm10 1h1v1h-1zm60 147h1v1h-1zm112-107h1v1h-1zm-24 63h1v1h-1zm1 4h1v1h-1zm-80 34h1v1h-1zm1 1h1v1h-1zm2 3h1v1h-1z"/>
	</g>
</svg>