<svg version="1.2" xmlns="http://www.w3.org/2000/svg" viewBox="0 0 800 800" width="800" height="800">
	<title>image</title>
	<style>
		.s0 { fill: #010100 } 
		.s1 { fill: #f0db4f } 
	</style>
	<g id="Background">
		<path id="Path 0" class="s0" d="m0 800v-800h800v800z"/>
		<path id="Path 1" fill-rule="evenodd" class="s1" d="m367 759v-4l3 1-2 2 7-1 13 8-11 9 32 7 2 3h-395v-768h358l-3 2-14 8 2 3-2 3 3-1v3l-9 2h-4v-1l-1 1-3 2 3 1 1 2v-2l1 4-6 2-2-14-3-1 2-5-4-6-2 1v3l-6-2 1 2-2 1h-1v1l-4 2 3 3 1 2-1 1v2l2 3h-1-1 1l-2 16-2-1h-1v2l-2 1v3l-2-2h-1l-1 1 1-1h1l-7 6-9 7-1-2-11 9-10 5v1l-4 1v-1l-53 30-9 9-27 16-3 1 2-7v-5l1 1-1-1v-2l7-1-2-2 7-4-1-4v-1-3l-5 3h-1l-1 1h-1l-2 8-5-1-1 3-3 2-18 21-1 3-6-2-4 8-4 1-3 3-5 5 2 2-2 3-3-1 1 3-17 11h-1l-4 6 1 4-1 1 1-1 2 1-3 3-6 5h-1l-2-1-2 1v-9l8-7 15-14 1-1 2-1 1-1-1 1-2 1-1 1-22 11-1 6-3-1 3 5-4-1 1 4h-4l-7 3-1 2 1 2-3 4 3 2-2 1-1 3 2-1 2 1-1 1 1-1h4 1l1-1 10-7 1 4-4-1-1 3-11 8-13 10h-1l-1-2h3l-1-4-2 2v2l1 2-1 3v1l-1 8-9 6 2 3-3 4 4 5-4 3 3 2-2 5 2 4-2 5h1l1 3-3 1 4 1h-3l1 25v5 1 9l1 19-3 1 2 3-2 5 1 25-8-39-1 17v15 7 44 3 1 7 1l8 64-1 2 2 5 3 1-3 4 2 4v1l1 4 1 2-2 1h-1-1 1l1 3-4 2h4l-1 6 1 2v1l-1 2v1l2 6 2 9 1 5h-5l-5-3-7-4 2-4-6-5-7-18v-9l-1 2-5-2-2 4-2-1v3l-1 3 10 1-1 28v3l12 5 1 6 3 1-2 1 2 1-1 10 5 1 2 2 1-2v4l5-1-2 2 4 1-1 2v6l5 12 2 1 1-10 3-1-2-8 5 3 11 6v15l64 38 14 3-18-16-1-3 5 3h1l18 3 6-1 24 22 21-1-22-14 25-5 20 13v1l-4 1h-1l-3 4-2 9 48 32 4 23 10 10 38 21-11 8-17-9 10 13 8 4-2 1h2l1 1v-1h4 1l2-1 1-1 3-2v1h2l-2-1 3-2 4 6 13 3 1 2v-2h2v-1l2-1-14-4-3-2 2-1 5-3 6 1 4-4zm67-735v-5l-4-3h354v768h-367l-16-12 9-7h4l2-2h1l14 8 5-1v-3l4 1v-3l2 2 2-3 4-3 2 1-4 3 2 2 6-5 1 2v-2h1 1l3-2v-1-3h3l1 2v-2h-1l2-3h1l-1-1-1-2h3l7-2h1l10-6-2-3 6-1 10-4v-4l7-1-1-3 4-1 3-2 3 2 6-5 6-2-2-3 4 1 1-4 5-1 3-1 4-3 2 2v-4l7-4 7-6 4 2-1-3 9-6 3-2 5 1-2-2 4-4 11-5h1 1-1-1l5-1v-3l2 1h1l3-1h1 1v-7l5 2 1-4 7 2 2-6 2 3v-3l4-1-1-3 2-1 1-2 2 3v-3l2 2 2-3 4-2 3 3 1-5 5-1 2-3 3 1-1-4 6-2v-6l5-4 2-2 1 2v-3l4 1-2-4 3 1 2 1v-3l-2-2h5 1v-3l5-6 4 2v3-3l3-2 1 8 1-3 4 2 2-2-2-2-3 1-3-4-2-1 1-4h1l5 3 1-3-1-5 5 2v-4h-1l-1-2h4l2 2-2-5 3 1v-3l5 2-2 3 2 2 2 2v-2l3 2-2 1-1 1h-5l-1-1-1-2h-4l2 2h3l1 1-3 2 4 2 1-2v3l-3 1 1 2 2-3h1l1 1v1l-3 4-2-2 1 9-3 1 2 2-1 3v1-1h4l1-3 3 1-1-4 2-1 2-3 2-8 1-4 2-2 2-1 5-3-1 3h3l-1 2h3l1-2h1l1 1v1-1l-1-1h-1-3v-3l5 1 1-5-2 2-4-5-4 1 2-6 3-3-4-4h1v-1l2-1v-1l-2-3h-2-2l2-3 3-3 4 4 2 1v-2-1-1l1-1 3-1h-3v-2l-4-2 2 3-2 1-1-7-3 4h-1v-2l-1 2 1-6-3-2 3-1-2-3 2-5-2-11-1-3 2 1-1-3 3-2v-1l-1-1v-13l9-31-2-2 3-1-2-1 2-4-2-3 2-4v-1l-1-2-2-2h3l1-5 2-7-6 1 3-4v-3l-1-5-1-3 3-2-3 1 1-6h-3l4-6-2-2v-5l1-5v-1l1-2-1 2-3-12 2-5-2-1 3-1-2-4 3 1-2-7 2-1-2-5v-3l1 1-1-1v-1-1-1l1-1v-1-1l-1-27v-31l3-12-2-3 3-2-3-3 2-7-1-5h2l-2-1 1-3h1-1l-2-6-1-22 8 6 3-8-1 2-2-2v-1l3-4-2 1h-5v-4-1-4-2l-2-1h-1l-7-4-4-5 1-7-7-2v-3l-5 1-2-1-1 4h3v5l-2-4h-5l-4-9-1 3 3 2-4-1-4-5h-4l3-2h1 1l3 3 2-3-3-1h3l-1-4 2 1 3 2 4 2 2-3 2-1 2 2v-4-1h-4v-5h-4-1-1l-2 1-3 2v-3l-4-1h-1l-6-4h-1l-3 1 1 3-1 1h-1-1l-2 2h2l-3 2-2-3v-5l-2 3-3-12v-1l-2-1 2-2-5 2-4-3 1-3h1l3-2 6 1 1 5 3-1-2-3-2-1-6-1-3 1h-1l-2-1v-1h-1l-2 1 2 2-3-1-1-2 1-1-1 1-6-2 1-4h-7l-1-1-1-2-5-4-3 2-4-2-1-5 2-7 3 1 1-7-5-1 1 4-6-3 1-2-4-2 3-2-4 1-2 1 1-4h-5l-3-1-2-2 1 3-5-1h-1l-5 5-8-3 6-6-1-3h-1l1-4-8 1-1-4v-3l-4 1-7 8-7-3 2-4-2-1 2-2v-3l-4-1 3-3-3-1v-2l-1 2-9-1-5 6 1-6 3-1-2-4 3 1-5-7v-1l-4 1h-1-1-1l-4 2-1 1-2 3-4-2h2l-2-2-1-1-1-1v-1h-3l1-5-7-1h-4-8l-8-7 4-12-3-6-3 1-1-4h-4l1-2-2 1-1 2-3 5-2-1h-6l-2 4-2-1 2-2-6 1 3-2-2-2-1 2-6-2 2-4-5-3-5-2 2-3-8 1-3-5-5-4 1-1h1l-1-5-3 3-10-7-2 7zm-15-8h1v1h-1zm2 1h1v1h-1zm-2 4h1v1h-1zm2 0h1v1h-1zm0 1v2l-1-2zm-93 1l4 3-4 1zm-3 2l1-1 1 4h-2zm94 1h1v1h-1zm-92 2h1v1h-1zm39 0h1v1h-1zm55 0h1v1h-1zm-1 1h1v1h-1zm29 3l-2-3 3 2zm-89-2h1v1h-1zm75 1h1v1h-1zm-110 1h1v1h-1zm-1 3v-2h1zm4-2l4 1-4 2zm-2 1h1v1h-1zm42 1h1v1h-1zm-22 4v-3h1v3zm5-3h1v1h-1zm15 0h1v1h-1zm79 1h1v1h-1zm5 0h1v1h-1zm-5 5v-3l2 1 1 2-2 1zm2-3h1v1h-1zm-96 2l-1 2-1-3zm93 3l-1-3 2 1 1 1zm7-3h1v1h-1zm4 3h-2v-3l2 2zm-12 0h1v1h-1zm12 0l3 2-4 1zm12 3l1-2 1 2zm-27-1h1v1h-1zm26 1h1v1h-1zm3 0h1v1h-1zm-17 1h1v1h-1zm5 6l-3-5 4 2 1 1zm2-5h1v1h-1zm-1 1h1v1h-1zm11 0h1v1h-1zm27 0h1v1h-1zm-37 1h1v1h-1zm1 1l6 4v3l-4-1v-1 1l-4-1zm-140 3v-2h1l2 1v1zm182-2h1v1h-1zm-44 4l-3-1 2-2zm36-3h1v1h-1zm-171 1h1v1h-1zm146 0h1v1h-1zm-148 1h1v1h-1zm165 0h1v1h-1zm0 2h1v1h-1zm17 2l1-2 1 3zm-40-1h1v1h-1zm4 0h1v1h-1zm14 0h1v1h-1zm4 0h1v1h-1zm-20 1h1v1h-1zm7 0h1v1h-1zm30 0h1v1h-1zm-35 1h1v1h-1zm1 1h5l-1 2 1 2-3 1-2-3v-1zm18-1h1v1h-1zm-177 2h1v1h-1zm158 0h1v1h-1zm14 0h1v1h-1zm5 0h1v1h-1zm-21 1h1v1h-1zm14 0h1v1h-1zm-5 1h1v1h-1zm-1 4v-3h1zm3-3l3 3h-3zm-169 1h1v1h-1zm71 0h1v1h-1zm-20 5l8-3-6 7h-1-1-1 1 1 1l1 3-6 3-3-2v-6l3 2 3-3 2 1zm113-4h1v1h-1zm1 1h1v1h-1zm-171 1h1v1h-1zm70 0h1v1h-1zm103 0h1v1h-1zm-176 2h1v1h-1zm59 0h1v1h-1zm143 0h1v1h-1zm-203 1h1v1h-1zm175 0h1v1h-1zm-106 1l4 2h-6zm-73 2h1v1h-1zm-5 1h1v1h-1zm233 0h1v1h-1zm3 0h1v1h-1zm-239 2h1v1h-1zm241 1h1v1h-1zm-176 2h1v1h-1zm7 0h1v1h-1zm13 0h1v1h-1zm37 0h1v1h-1zm104 4h-2l2-4zm-233-3h1v1h-1zm66 0h1v1h-1zm74 0h1v1h-1zm-136 1h1v1h-1zm68 0h1v1h-1zm56 0h1v1h-1zm125 0h1v1h-1zm2 0h1v1h-1zm14 0h1v1h-1zm2 0h1v1h-1zm-74 1h1v1h-1zm-1 4l5-3v1l1 3 6-1-1 2 1 6-1 1h-1l3 3 5-1 3 4 1 1-1 6h-4v-1-1l-2-3v3l-3 3 2 2-5 1 2 3-4-1 1 2 3 1-3 4 4 2v10l-2 2 2 1-1 6 1-4 2 2 9-2v1l-1 1 1-1 3 2 2-2 8 2-7 9 5 5 8-9 3 2 3-1 4-5 3 3 4-2v7l3 1v4l2-4h4v-3l6 2v3l3-1h1l2-3 1 4 2 4-4 4v1l-1 3 4 3-3 2v-3h-3l-1-2 1-2-1 2h-2l3 2 3 3 3 1v5l6-7h4v3l6-2 4-8 7 1 1 1v1l-3-1 2 3 1 5-3 2-1-1 1-2-1 2 1 1 1 5-3 2 2 2h1l-4 9h12l9 2v5l3-2-2 12 23 13 5-9h3v4l5-2 5 2 2 4-3 7v4l3 1v-9l6-1v-1l1-1 6 1 5 5-4 7v7l3 2v52l4-3-1 12 7-8v2l2 2 5-14v-1l5-1-2 2 3 3-6 4 2 3-2 1v1l-1 1v1l1 4-4 5 2 4-2 3v1l-2 3 2 2h-3l2 2 1 6v1 1l1 5h-3l-1 6h-1l2 3-3 2-3 1h3l-1 8-4-1 3 4-2 1 1 8h-3l2 2-3 4v1l1 9-1 5-1 16 7-15 4-2 1-1 3-1-2 4 2 1 3 6-1 9-1 10h-3l1 2-14 40v46l6-4-1 4h3l5-6h4l3 1-1 6-1 3-2 6-2-1-3 12-11 9v16l-33 20 6-11-10 7-9 5-15 8-1-1 1 1-2 1-1-1 1 1-2 3-3-1-2 1 2-1-4 4-7 4-5 10-3-1-1 2h-1l-4 1-2 2h-1-1l-2 4-9 4 2 2-4 2-2-1v3l-5-1-2 3-2-2-4 1h-1l-2 1h2v1l-31 20-4 2-1 5-8 1h-1l-2 1v1l-4 4-1-1v1l-3 3-3 1h-2v1l-6 3-6 3-2 3-2-3-4 8-8 2-1 3h-4l-13 6v2l-9 2h-1l-12-5 3-1-3-2-1 3-6-1 2 9-3 3v-3l-6-3v-2l-1 2-3 1-1-5-13 4-26-17-17-7-21 2-18 13-17-10-3-5h-4l-3-4 2-5h-9l1-2-2-3-6 2-1-2v-1l5-1h1l4 2 1-4v-1h3l-2 4 6 1v-3l-4 1 2-3h-2l-1-2 5-2 3-2 2 2v-3l2 2 3-2 7-1 6-5 6-4 7-6 1-2h2l5-5 4-2 2-11 2-3 7-11 4-3-2-5 4-9 1 12v4l1-4 3-5v-1l2-4 4 1 1-7-5 2v-7l-2 1-1-1v-1 1l1 1-1 2-5-2h-1-3l3-5v-3h4l-2 5h3l2-6-7-3 1-5h3v5l3-3v-3h2l-2-1 1-5-1-6h1 1l-1-1-1-4v-1l3-1v-16l-1-5 3-5v-1l-2-3 2-4-2-3 2-2-2-3h2l-1-4 2-2-4-3 3-1-3-5 4-8-4-4 2-3h1v-8-2l-1-2v-1l1-12-2-11v-1l2-1-1-3v-1 1l-2 2v-13l4 3-2-3 2-2h-3v-61l-1-14 1-1v-1l-1-5 1-2v-1l-1-12 2-2-2-48 1-1h-1v-10l2 1-2-2v-4l1-2-8-1-1-4h-1l-1 8-20-11-21 3-14 10-11 23 5 6 1 4-5 1h5l-1 5h-2l1 9 3-2-2 5 2 3h-3l-1 9-2 1 2 3-4-1 2 5-3 2 3-1 1 1-1 2h-5v3 1l1 1 1 3h-1v1l1-1h2l2-2-2 5h-2v1 3l4-2-1 7 3-2 4 2-3 5h-4l3 1-1 6-2 2v1l-5 6 3-2 2 2 2 1 1-5 1 8h4l1 2-4 1-1 7v1l-7 10 1 3-4 1 6 1-2-2h4l1 11 3 3-2 10 3 1-5 1 1 8-5 3 2 2h1l4-1 1 5 3 2-4 1 1 3-3 2-3-2-1 3 1 2 3-3 3 2-3 1 2 3-2 2h3l-1 6v1l1 3v1h8l-7 4 5 9-1 6-2-2-2 4h-6l-3 4 3 2h-4l6 2v10h-2l-1-1v1 1 5l-1 1 1 4-3 2-1 1-2 1h2l8 8-4 33-3-2v4l-2-2 2 8-5 4-1 8 1 2-6 2-4-4-3 2 2 2h-3l-5 5 4-1 2 3h-4l-3 5-3-4-2 3-3-3v-1l1-1-1 1-1 1v1l-2 5-1-2-2 2-4-3-31-5-16-9v-11h-3l-2-2-4 2-4 2-4-1-2 9-2 2-3-5-2-13-2-1-8-3v-12l1-4v-1-1l-1-2h2l-2-1-1-1 1-10v-1-5-5-3-1-7l-2-3 2-2 1-2v-1l-1-24v-1-3l-1-12 3-3h-3l2-9v-1-1h-1l1-11-3-2 5-3h-4l1-5 1-4-2-2 2-3 1 1-1-1-2-3-3 1 6-12-2-3v-2l2 1v-4h-3l-2-2 3-6 2-1-2-2-1 2v-6l-1-5 3 2v-3l1-4-1-10h2l-2-1v-1l2-4-2-7h-1l1-3v-2-1-4-6-3l-2 1 1-8v-1l-1-5 5 2-2-8h4l-2-9 1-10-3-3h3l-1-2-4-1 4-2 2 2v-4l3 2 1-5h-4l1-6h-4l3-2 1-2h-1l-2-4 1-2h3l-3-1v-1l1-3-1-7 3-4v3l3-2-3-1v-1l3-2 3-3 2 8 14-8 7-9 5-5 3-6 3 1 1 3 2-2 3-2 1 2v-4l6-4 4-3 3-4 7-4h1-1l8-9h2l-2-1 8-5v-3-1l-1-2 3 1 1 2 1 3h-1l-5 3 1 3 1-2 4-2 3-2v-1-2l6-2 1 2v-2h6l-2-3 4 1 6-6 7-8 4 1 2 3v-3l10-7 8-6 7-6 5-2 1 2v-2h-1l1-3v-1l7-4 2-3 2 1v-3h1l2 1v-4l1-2 1 3 3-6 6 1 1-10 5 3 4-6 3 4 3-2 1 4v1-1l6-3v-1l4-5 2 7v1l-2 5-6 1v3l-5-1 1 5-3-2v3l-4 1 3 1v1-1l4-2h1l4-1h1v-1-1l1-2 5 2 1-3 3 1 1-5 5 2 1-2 1 4 2-8 2-1-2 1h-1l-1-1 1 1-2 1-2-4-1 6-1-4 6-9 2 3v2h-1l1 3v-3l4-2 10-6h4l1-3 1 4h3l4-4 3 1h1l2 1 3-5 2-2 4 5 2-2-4-3h4 1l5-1v2l2 1-4 4 3-1-1 4-4-1 1 6-5-3-3 5 3 1 4 4h-6v4l5-2 26-7h1l2 3 2-2h5l2 2h1l5 5 10-4 3 6h3l1-5h1v-1l1-4h1v-1l6-3-3-4-2-4h1v-2l-1 2-3 1-5 1 4-4zm40-4h1v1h-1zm20 1l-1 5-1-6h1zm0-1h1v1h-1zm-262 1h1v1h-1zm10 0h1v1h-1zm126 0h1v1h-1zm4 2l-1-2h3l-1 2zm6-2h1v1h-1zm61 0h1v1h-1zm25 0h1v1h-1zm7 0h1v1h-1zm19 0h1v1h-1zm6 2l-1-2h1zm7-2h1v1h-1zm-274 1h1v1h-1zm211 0h1v1h-1zm25 0h1v1h-1zm3 0h1v1h-1zm2 0h1v1h-1zm32 0h1v1h-1zm8 0h1v1h-1zm-170 2h1v1h-1zm93 0h1v1h-1zm36 0h1v1h-1zm-142 6l5-5-1 5zm52-3h1v1h-1zm-59 1h1v1h-1zm38 0h1v1h-1zm77 0h1v1h-1zm-122 6l5-5 5 3 4-2v1l-1 3-6 2-2 1-2-2h-1-1zm18-3v-1l2 1zm10-1h1v1h-1zm98 1h1v1h-1zm9 0h1v1h-1zm73 0h1v1h-1zm7 0h1v1h-1zm-83 2l1-1h2zm-117 0h1v1h-1zm124 0h1v1h-1zm5 0h1v1h-1zm-145 1h1v1h-1zm142 0h1v1h-1zm-152 1v3l-3-1zm9 0h1v1h-1zm3 0v2l-1-2zm62 0h1v1h-1zm136 0h1v1h-1zm-184 1h1v1h-1zm126 0h1v1h-1zm-79 1l4 1-5 2zm80 2v-2h1v3zm-56-1h1v1h-1zm37 0h1v1h-1zm-33 1h1v1h-1zm6 0h1v1h-1zm23 0h1v1h-1zm28 0h1v1h-1zm2 0h1v1h-1zm-33 1h1v1h-1zm1 1l2-1-2 4zm-124 0h1v1h-1zm68 0h1v1h-1zm38 0h1v1h-1zm118 0h1v1h-1zm-217 2l4 1h-4zm114-1h1v1h-1zm7 0h1v1h-1zm-1 1h1v1h-1zm23 0h1v1h-1zm-138 5l-3 2-1-3 3-3zm112-4h1v1h-1zm20 0h1v1h-1zm7 0h1v1h-1zm-7 2h1v1h-1zm-1 1h1v1h-1zm2 0h1v1h-1zm-302 1h1v1h-1zm5 0h1v1h-1zm-6 4v-3h1zm405-3h1v1h-1zm2 0h1v1h-1zm2 1v2l-1-2zm-410 2h1v1h-1zm299 2h1v1h-1zm-177 1h1v1h-1zm-122 1h1v1h-1zm123 2l2-1-1 2zm297-1v2l-1-2zm-298 1h1v1h-1zm-130 1h1v1h-1zm4 0h1v1h-1zm125 1h1v1h-1zm-132 1h1v1h-1zm34 4h-4l2-3zm92-3h1v1h-1zm317 0h1v1h-1zm-319 1h1v1h-1zm-96 2h1v1h-1zm96 0h1v1h-1zm-117 2h1v1h-1zm114 0h1v1h-1zm330 0h1v1h-1zm-446 1h1v1h-1zm22 0h1v1h-1zm5 0h1v1h-1zm90 0h1v1h-1zm-116 1h1v1h-1zm25 0h1v1h-1zm-2 1h1v1h-1zm281 1h1v1h-1zm-301 2h1v1h-1zm302 0h1v1h-1zm5 0h1v1h-1zm11 0h1v1h-1zm-313 1h1v1h-1zm296 0h1v1h-1zm-323 2h1v1h-1zm466 2h1v1h-1zm-344 1h1v1h-1zm-127 3h1v1h-1zm21 1h1v1h-1zm-21 4l2-2 3 5-6 1zm379-2h1v1h-1zm-380 1h1v1h-1zm378 1h1v1h-1zm13 0h1v1h-1zm-11 1h1v1h-1zm14 2l-2-2 3 2zm88-1h1v1h-1zm2 0h1v1h-1zm-373 1h1v1h-1zm379 3l-3 1v-4l1 1zm-491-2h1v1h-1zm491 1h1v1h-1zm3 0h1v1h-1zm-493 1h1v1h-1zm-16 1h1v1h-1zm-1 1h1v1h-1zm14 0h1v1h-1zm495 0h1v1h-1zm12 2h1v1h-1zm-513 1h1v1h-1zm429 0h1v1h-1zm-430 1h1v1h-1zm406 0h1v1h-1zm104 0h1v1h-1zm7 0h1v1h-1zm-518 1h1v1h-1zm437 1l2 1h-1zm4 0h1v1h-1zm-445 1h1v1h-1zm443 0h1v1h-1zm-446 3l3-2 1 2zm445-2h1v1h-1zm1 1l1-1 1 2zm-353 0h1v1h-1zm-94 1h1v1h-1zm93 2l2-2 1 3zm333-2h1v1h-1zm-428 1h1v1h-1zm531 0h1v1h-1zm-532 1h1v1h-1zm100 0h1v1h-1zm5 0h1v1h-1zm431 0h1v1h-1zm-115 1h1v1h-1zm114 0h1v1h-1zm-444 1h1v1h-1zm6 4l2-1v1zm351-2h1v1h-1zm2 2l2-1-1 2zm-354 0h1v1h-1zm353 0h1v1h-1zm-364 1h1v1h-1zm10 0h1v1h-1zm355 0h1v1h-1zm-464 1h1v1h-1zm566 1h1v1h-1zm3 4l-2-3 2 2zm-575-2h1v1h-1zm15 0h1v1h-1zm3 0h1v1h-1zm85 0h1v1h-1zm472 0h1v1h-1zm-576 1h1v1h-1zm15 1h1v1h-1zm545 0h1v1h-1zm11 1v-1l2 1zm5-1h1v1h-1zm4 0h1v1h-1zm-565 2l1-1 2 3-4 6h-1l-6 3-6-2v-4l3 2 3-3 3-2 2 2 1-4h1zm-1-1h1v1h-1zm-2 0h1v1h-1zm556 2v-2h1v2zm2-2h1v1h-1zm5 0h1v1h-1zm16 0h1v1h-1zm-29 1h1v1h-1zm-552 1h1v1h-1zm473 1h1v1h-1zm101 0h1v1h-1zm-578 1h1v1h-1zm14 0h1v1h-1zm566 0h1v1h-1zm-586 1h1v1h-1zm571 3l1-3 3 3-1 2zm14-3h1v1h-1zm8 0h1v1h-1zm6 0h1v1h-1zm-7 1h1v1h-1zm-9 1h1v1h-1zm-13 1h1v1h-1zm9 4l-4-4 5 2v2zm16-4h1v1h-1zm-581 1h1v1h-1zm566 0h1v1h-1zm-491 1h1v1h-1zm493 0h1v1h-1zm-579 1h1v1h-1zm578 0h1v1h-1zm-592 7l1-2h1l-2 3zm7-1h1v1h-1zm83 1h1v1h-1zm501 1h1v1h-1zm2 0h1v1h-1zm-590 7l1-5 4-1v3l-2 3h-1zm84-4l1-2v2zm505 1v-3h1l1 4zm15-3h1v1h-1zm-10 1h1v1h-1zm15 0h1v1h-1zm-603 1h1v1h-1zm77 0h1v1h-1zm-103 2v-1h2zm25-1h1v1h-1zm566 5l-2-4 2-1 6 4-1 2h-1zm24-5h1v1h-1zm-616 3l-1-2h2zm6 1l1-3 1 2-1 1zm93-3h1v1h-1zm-80 1h1v1h-1zm49 0h1v1h-1zm33 0h1v1h-1zm-86 3l5-2h1l-1 7-3-1 1-4-1 2zm8-2h1v1h-1zm-11 1h1v1h-1zm535 2h1v1h-1zm49 0h1v1h-1zm-48 1h1v1h-1zm50 0h1v1h-1zm-584 2v-1l3 1-2 2zm-1 0h1v1h-1zm592 0h1v1h-1zm-591 2h1v1h-1zm-6 3l-3 2 4 2-4-1-1 3-3-5 3 1-1-4zm76 0h1v1h-1zm480 0h1v1h-1zm-481 1h1v1h-1zm480 0h1v1h-1zm10 2h1v1h-1zm74 0h1v1h-1zm-72 2h1v1h-1zm-585 1h1v1h-1zm74 0h1v1h-1zm586 0h1v1h-1zm-654 2h1v1h-1zm-8 1h1v1h-1zm1 1h1v1h-1zm661 0h1v1h-1zm5 5h1v1h-1zm-81 1h1v1h-1zm-322 2h1v1h-1zm400 0h1v1h-1zm-398 1h1v1h-1zm-201 1h1v1h-1zm199 0h1v1h-1zm-196 3h1v1h-1zm198 0h1v1h-1zm390 0h1v1h-1zm-589 3h1v1h-1zm0 2h1v1h-1zm-1 2h1v1h-1zm591 2h1v1h-1zm-391 2h1v1h-1zm-200 7h1v1h-1zm-74 3h1v1h-1zm74 0h1v1h-1zm2 1h1v1h-1zm-1 1h1v1h-1zm-2 1h1v1h-1zm129 0h1v1h-1zm465 0h1v1h-1zm-667 2h1v1h-1zm75 0h1v1h-1zm131 0h1v1h-1zm462 3h1v1h-1zm-594 1h1v1h-1zm-75 1h1v1h-1zm73 0h1v1h-1zm1 3h1v1h-1zm133 1h1v1h-1zm461 1h1v1h-1zm-49 1h1v1h-1zm-619 3h1v1h-1zm73 1h1v1h-1zm1 1h1v1h-1zm538 0h1v1h-1zm8 1h1v1h-1zm0 2h1v1h-1zm-1 1h1v1h-1zm-1 2h1v1h-1zm-546 2h1v1h-1zm2 2h1v1h-1zm532 0h1v1h-1zm-401 3h1v1h-1zm408 0h1v1h-1zm-1 1h1v1h-1zm2 0h1v1h-1zm-545 4h1v1h-1zm134 2h1v1h-1zm-132 3h1v1h-1zm132 1h1v1h-1zm409 0h1v1h-1zm-612 1h1v1h-1zm202 1h1v1h-1zm2 0h1v1h-1zm-3 3v-1h3v4h-1l-1-2zm4-1h1v1h-1zm1 2v-1l2 1zm-1 0h1v1h-1zm1 1h1v1h-1zm403 0h1v1h-1zm-405 6v-5l2 2zm72-5h1v1h-1zm-276 2h1v1h-1zm196 1l4-1-3 3-1-1zm10-1h1v1h-1zm402 4h1v1h-1zm-537 1h1v1h-1zm1 3v-2h1zm204-2h1v1h-1zm333 0h1v1h-1zm-539 3l-1-2 3 1 1 2zm205-2h1v1h-1zm-206 2h1v1h-1zm129 1v-1h2zm411 3v-1l2 1zm-542 1h1v1h-1zm4 2h1v1h-1zm141 2h1v1h-1zm-141 3h1v1h-1zm1 2h1v1h-1zm-72 1h1v1h-1zm606 0h1v1h-1zm3 0h1v1h-1zm-537 4h1v1h-1zm131 1h1v1h-1zm401 0h1v1h-1zm-403 3h1v1h-1zm403 0h1v1h-1zm-603 1h1v1h-1zm604 0h1v1h-1zm62 4h1v1h-1zm-466 1h1v1h-1zm8 4h1v1h-1zm1 2h1v1h-1zm458 3l1-2v1zm-678-1h1v1h-1zm216 2h1v1h-1zm461 0h1v1h-1zm-598 2h1v1h-1zm139 0h1v1h-1zm-218 3h1v1h-1zm215 0h1v1h-1zm394 2h1v1h-1zm-2 1h1v1h-1zm1 1h1v1h-1zm2 0h1v1h-1zm-531 1h1v1h-1zm598 0h1v1h-1zm-1 4h1v1h-1zm-599 1h1v1h-1zm-1 1h1v1h-1zm4 0h1v1h-1zm-5 2h1v1h-1zm542 3l1-2v2zm-3-1h1v1h-1zm2 1h1v1h-1zm-9 2h1v1h-1zm14 1h1v1h-1zm-542 1h1v1h-1zm140 2h1v1h-1zm-141 1h1v1h-1zm139 5l3-3 1 4zm69 2h1v1h-1zm-1 1h1v1h-1zm-285 2h1v1h-1zm80 2h1v1h-1zm598 1h1v1h-1zm-598 2h1v1h-1zm138 1h1v1h-1zm-138 1h1v1h-1zm1 2h1v1h-1zm-81 3h1v1h-1zm215 0h1v1h-1zm73 0h1v1h-1zm389 0h1v1h-1zm-391 1h1v1h-1zm-206 1h1v1h-1zm540 0h1v1h-1zm56 0h1v1h-1zm-676 1h1v1h-1zm286 0h1v1h-1zm-1 2h1v1h-1zm-74 2h1v1h-1zm7 4l-1-3 2 1zm1-3h1v1h-1zm66 2h1v1h-1zm-285 1h1v1h-1zm80 0h1v1h-1zm137 0h1v1h-1zm-137 2h1v1h-1zm1 5h1v1h-1zm1 1h1v1h-1zm134 0h1v1h-1zm462 0h1v1h-1zm-461 2h1v1h-1zm4 0h1v1h-1zm457 0h1v1h-1zm1 2h1v1h-1zm-392 3h1v1h-1zm-1 2h1v1h-1zm-206 1h1v1h-1zm138 0h1v1h-1zm-2 5h1v1h-1zm1 4l2-2v3h-2zm4-2h1v1h-1zm456 2h1v1h-1zm-391 6h1v1h-1zm392 0h1v1h-1zm1 2h1v1h-1zm-598 1h1v1h-1zm596 3h1v1h-1zm-668 5h1v1h-1zm668 0h1v1h-1zm-391 1h1v1h-1zm-277 2h1v1h-1zm667 2h1v1h-1zm-667 4h1v1h-1zm278 0h1v1h-1zm-278 2h1v1h-1zm277 2h1v1h-1zm-276 4h1v1h-1zm72 3l1-3v1zm-74-2h1v1h-1zm278 1h1v1h-1zm-276 4v-2h3v3zm201 0h1v1h-1zm3 0h1v1h-1zm1 1h1v1h-1zm407 0h1v1h-1zm-405 1h1v1h-1zm-200 4h1v1h-1zm9 0h1v1h-1zm185 0h1v1h-1zm77 0h1v1h-1zm-268 15l6-14 2 10h-1l-5 5v6l-2 5v-3h-3v-3zm190-14h1v1h-1zm-129 2h1v1h-1zm-64 1h1v1h-1zm608 0h1v1h-1zm-612 2h1v1h-1zm68 0h1v1h-1zm126 2l1-1 2 3-3-1zm-196 0h1v1h-1zm613 0h1v1h-1zm-413 2h1v1h-1zm-183 1h1v1h-1zm-15 4h1v1h-1zm0 1l1 2-3-2zm4 0h1v1h-1zm201 0h1v1h-1zm-237 1h1v1h-1zm100 0h1v1h-1zm137 1h1v1h-1zm4 3h1v1h-1zm-236 1h1v1h-1zm36 0h1v1h-1zm199 0h1v1h-1zm448 0h1v1h-1zm-657 1h1v1h-1zm210 0h1v1h-1zm448 0h1v1h-1zm-654 1h1v1h-1zm8 0h1v1h-1zm-1 11l-2-7h12l-1 4-3-2 2 8-6 1zm57-7h1v1h-1zm203 0h1v1h-1zm-272 1h1v1h-1zm70 0h1v1h-1zm-1 2h1v1h-1zm-70 1h1v1h-1zm72 1h1v1h-1zm202 0h1v1h-1zm-3 1h1v1h-1zm-3 3h1v1h-1zm5 0h1v1h-1zm-271 1h1v1h-1zm273 2l-3 1 1-3zm383-2h1v1h-1zm-649 6l-1-5 4 1 7 1-3 7 10 5 4 3-1 8-5 4h-6l-6-6 2-4-3-6h2l-2-1-4-1 2-2v-1zm3-5h1v1h-1zm258 3h1v1h-1zm4 4h-2l2-1zm-299 1h1v1h-1zm33 0h1v1h-1zm2 4h1v1h-1zm16 1h1v1h-1zm-30 2h1v1h-1zm7 0h1v1h-1zm-1 1h1v1h-1zm640 2l4-1-5 20zm-1-1h1v1h-1zm-560 1h1v1h-1zm117 2h1v1h-1zm462 0l-1 3v-3zm-462 2h1v1h-1zm465 0h1v1h-1zm5 3l-1-3 2 1v1zm-668-2h1v1h-1zm95 0h1v1h-1zm2 0h1v1h-1zm567 0h1v1h-1zm-667 1h1v1h-1zm2 0h1v1h-1zm3 4l-1-4 4 2zm197-4h1v1h-1zm68 4v-3h1v3zm400-2h1v1h-1zm-108 1h1v1h-1zm107 0h1v1h-1zm-661 1h1v1h-1zm261 0h1v1h-1zm-260 1h1v1h-1zm264 0h1v1h-1zm383 1h1v1h-1zm2 2l2-2v3zm6-1l-2-1h2zm-572 0h1v1h-1zm180 0h1v1h-1zm385 0h1v1h-1zm-379 1h1v1h-1zm3 0h1v1h-1zm-13 1h1v1h-1zm389 1h1v1h-1zm-467 1l-1 2-2-2zm469 0h1v1h-1zm-5 2h1v1h-1zm4 0h1v1h-1zm-474 1h1v1h-1zm89 0h1v1h-1zm383 1h1v1h-1zm-471 2h1v1h-1zm82 1h1v1h-1zm396 0h1v1h-1zm-496 1h1v1h-1zm106 1h1v1h-1zm260 0h1v1h-1zm1 1h1v1h-1zm125 0h1v1h-1zm-18 1h1v1h-1zm-464 1h1v1h-1zm350 0h1v1h-1zm7 0h1v1h-1zm110 0h1v1h-1zm-482 2h1v1h-1zm496 0h1v1h-1zm-497 1h1v1h-1zm3 0h1v1h-1zm495 0h1v1h-1zm-13 5l1-3 1 3zm12-3h1v1h-1zm-493 1h1v1h-1zm492 1h1v1h-1zm8 0h1v1h-1zm-31 1h1v1h-1zm17 2h1v1h-1zm7 0h1v1h-1zm-10 2l1-1 4 2v1l-5 4h-1l-1-1 4-3zm8-1h1v1h-1zm-31 3h1v1h-1zm-114 1h1v1h-1zm109 2h1v1h-1zm-118 1h1v1h-1zm2 0h1v1h-1zm115 0h1v1h-1zm-1 1h1v1h-1zm5 0h1v1h-1zm-370 7h1v1h-1zm360 0h1v1h-1zm-120 2h1v1h-1zm120 0h1v1h-1zm-363 1h1v1h-1zm-2 1h1v1h-1zm240 0h1v1h-1zm1 1h1v1h-1zm-2 1h1v1h-1zm-241 1h1v1h-1zm227 0h1v1h-1zm-229 2l2-1v1zm-3 0h1v1h-1zm-1 1h1v1h-1zm357 0h1v1h-1zm-359 2h1v1h-1zm241 0h1v1h-1zm-2 1h1v1h-1zm120 0h1v1h-1zm-3 1h1v1h-1zm-498 6h1v1h-1zm18 3h1v1h-1zm106 0h1v1h-1zm232 1h1v1h-1zm-238 2h1v1h-1zm228 3h1v1h-1zm-242 5h-3l1-4h3zm3-4h1v1h-1zm372 1h1v1h-1zm-5 1h1v1h-1zm2 1h1v1h-1zm0 2h-2l2-1zm-379 1h1v1h-1zm367 0h1v1h-1zm2 0h1v1h-1zm-134 1h1v1h-1zm133 0h1v1h-1zm-135 1h1v1h-1zm136 0h1v1h-1zm-378 2h1v1h-1zm8 2h1v1h-1zm365 0h1v1h-1zm-366 1h1v1h-1zm230 0h1v1h-1zm-240 1h1v1h-1zm369 0h1v1h-1zm-132 2h1v1h-1zm130 0h1v1h-1zm-133 1h1v1h-1zm5 0h1v1h-1zm-7 1h1v1h-1zm-1 1h1v1h-1zm-5 2h1v1h-1zm0 2h1v1h-1zm134 2l2 1h-1zm-7 0h1v1h-1zm6 0h1v1h-1zm-3 1h1v1h-1zm-140 3h1v1h-1zm130 1h1v1h-1zm-149 9h1v1h-1zm130 2h1v1h-1zm-141 4h1v1h-1zm-17 1h1v1h-1zm-20 1h1v1h-1zm21 0h1v1h-1zm5 2l1-2h1zm143-2h1v1h-1zm-144 2h1v1h-1zm-15 1h1v1h-1zm13 0h1v1h-1zm-12 1h1v1h-1zm1 1l8 2-14 6-1-2 8-3zm147 2h1v1h-1zm-8 6h1v1h-1zm-7 4h1v1h-1zm-15 9h1v1h-1zm-172 5h1v1h-1zm5 0h1v1h-1zm155 0h1v1h-1zm-163 10l-1-4h4l-3-1 1-3 7-1 3 3-4 2 5 1 2 2-2 2-1 1-1 1-2-3-4 6-5-3 1-2zm155-6h1v1h-1zm-140 4h1v1h-1zm135 0h1v1h-1zm2 0h1v1h-1zm-153 2h1v1h-1zm15 0h1v1h-1zm-2 2v-1h2zm-1 0h1v1h-1zm133 0h1v1h-1zm-146 1h1v1h-1zm12 0h1v1h-1zm133 0h1v1h-1zm-137 4h1v1h-1zm31 9l-3 2-1-4 3-3 2 2-1 2-2 1zm-22-3h1v1h-1zm114 0h1v1h-1zm-112 1h1v1h-1zm1 1h1v1h-1zm19 0h1v1h-1zm-6 1h1v1h-1zm1 1h1v1h-1zm-4 1h1v1h-1zm91 0h1v1h-1zm-91 1v3l-4-1zm1 0h1v1h-1zm84 2h1v1h-1zm2 5h-2l2-1zm-94-1h1v1h-1zm82 1h1v1h-1zm6 1h1v1h-1zm2 0h1v1h-1zm-97 1h1v1h-1zm57 0h1v1h-1zm-6 2h1v1h-1zm-58 1h1v1h-1zm55 1h1v1h-1zm-69 5l-2-2 3 1zm-4-1h1v1h-1zm68 0h1v1h-1zm-72 1h1v1h-1zm5 0h1v1h-1zm65 0h1v1h-1zm-36 2h1v1h-1zm-2 1h1v1h-1z"/>
		<path id="Path 2" fill-rule="evenodd" class="s0" d="m325 24h1v1h-1zm-1 6l-3-3 4-2v3zm123-1l3-3 1 5h-1zm-101 10l-3-1 3-2zm1 0v2l-1-2zm150 9l2-1-1 2zm-39 3h1v1h-1zm-1 3l2-2h1l-2 5zm-83 14h1v1h-1zm-16 5v-1l2 2zm175 12h1v1h-1zm-55 1h1v1h-1zm58 2v-2l2 2zm-58 4l1-2v2zm90 4l1-2v2zm-208 5l6-2-6 9 1 4 1-6 2 4 2-1h1l-2 8-1-4-1 2-5-2-1-4-4-1-2-7 1-1h1l1 2v-2h1 1l2 2zm8 3v3l-1-3zm121 5v-3l2 3h-1zm-15-1h1v1h-1zm-129 7l6-1 2-5h4l-3 3 1 3 3-2-1 5-3-1-1 3-5-2-1 2-1-1-1-1zm-4 7l-1-5 5 1 1 1 1 1v1l-1 1-4 1zm-4 3l-3-1 4-1v-3l3 2v1zm275-2l-1-3 2 2zm10 3l4-1-3 2zm-323 11v2l-1-2zm195 4h1v1h-1zm57 14l-3 1v-3h1zm-283 3v3l-2-3zm397 6l3-1-3 2zm11 1l2 3-3 1-1-5zm-93 1h1v1h-1zm0 4l-2-3 3 1v1zm1-3h1v1h-1zm-34 3l-3-2h2zm35-2h1v1h-1zm-32 5l-3-3h3zm-453 20l-3-5 3 1 1-6 22-11-15 14zm141-20v2l-1-2zm-16 8l5-3v1l1 1-4 2zm5-3h1v1h-1zm1 1l1-1h2l-3 2zm-4 3l-1 2-1-3zm352 2l3-2v4h-1zm-360 0v-1l2 1zm-90 2h1v1h-1zm553 2h-2l2-2zm-589 8h4l-1-4 4 1v9l2-1 2 1-1 2v1l-10 7-1-2-1 3h-4l-2-1 1-2 2-1h-2l-3-2 3-4-1-2 1-2zm619-2l1-2h1v4zm-17 4l1-1h1l3 1-2 3zm-611 12l2-1v1zm1 2l-2 1 1-3zm-12 13l2-2 1 4h-3zm576-1h1v1h-1zm-502 13l-3 2v-3zm193 10v-1l2 2zm-199 5v-1l3 1zm199 5h1v1h-1zm-198 3v-2h1zm592 16v-1l2 1zm-671 14h1v1h-1zm202 27l-3 1 3-2zm0 3l1-2 1 2zm-5 3v-3h5 2 1v5l-2 1-2 2h-2l-1-3 3-3zm-124 7l1-2v4zm125-2h1v1h-1zm79 1h1v1h-1zm-203 22v-1l2 1zm531 1h-3l3-1zm-533 25l1-2 2 2-2 1zm0 10v-1h3v4l-2-1zm130 4l-6-1 4-1zm406 0h1v1h-1zm-331 15l1-1h3l-2 2 2 3-4-3zm-204 32h1v1h-1zm128 3l1-3 3 2-3 3zm-203 57l1-2h2v2l-1 1v4zm200 15h-2l2-1zm-196 7l2-1v1zm71 14v-1l2 1zm202 16v-1l2 1zm-263 6v-1l2 1zm648 7l1-2v2zm8 2l-2-3 4 2v2zm-26-1h1v1h-1zm28 2h3l-3 1zm-678 3l-2-1 2-1zm675 2l1-1h1v2zm-9 5v-3h2l2 1v-1l2 3v1l-2 1h-1l-1 1h-2v-1zm3 2h1v1h-1zm-390 14v-4h1zm375 6v2l-2-2zm-9 3l-2-2h4l1 2zm27 0h3l-1 2h-3zm-23 1h5l2 2-4 3h-1v-3l-1 2-4-2zm5 6l5-4h2l-1 4-2 8-2 3-2 1 1 4-3-1-1 3h-4l1-3-2-2 3-1-1-9 2 2 3-4h1zm-6 0l3-1-2 3zm5 0h1v1h-1zm-15 5l2 2-2 2-4-2-1 3-1-8 3 4zm-159 11h-2l2-1zm-268 26l-2 3 4-1v3l-6-1 2-4zm-10 3h1v1h-1zm346 18h1v1h-1zm-10 4h1v1h-1zm-201 18l1-2v2zm144 18l1-1h2zm-42 25h1v1h-1zm-111 13l1-2v2zm0 1h-2l2-1zm82 6v2l-1-2zm-9 6v2l-1-2zm-113 6l2 1h-2zm-12 4h-2l2-1zm0 0h1v1h-1zm33 3v2l-1-2z"/>
		<path id="Path 3" fill-rule="evenodd" class="s1" d="m497 48h1v1h-1zm-142 52h1v1h-1zm2 2h1v1h-1zm2 3h1v1h-1zm130 3h1v1h-1zm-126 2h1v1h-1zm-10 3h1v1h-1zm-2 2h1v1h-1zm-4 2h1v1h-1zm-2 1h1v1h-1zm1 1h1v1h-1zm0 2h1v1h-1zm-5 1h1v1h-1zm271 0h1v1h-1zm10 4h1v1h-1zm-39 43h1v1h-1zm-354 9h1v1h-1zm-131 16h1v1h-1zm-5 2h1v1h-1zm-3 1h1v1h-1zm0 6h1v1h-1zm12 0h1v1h-1zm-38 2h1v1h-1zm27 1h1v1h-1zm-2 4h1v1h-1zm447 5v-2l3 1zm-474 13l1-1v3zm679 3h1v1h-1zm-268 7l-1-3 3 1v3zm-423 15l-1-2 2 1zm0 0l1-1 1 2zm358 36h1v1h-1zm-273 88h1v1h-1zm345 59l-2-3h3v3zm-49 18l2-1h1l-1 3zm161 12l1-2v1zm0 0h1v1h-1zm-529 32h1v1h-1zm347 24l2-4 2 1-2 2zm167 16h1v1h-1zm-158 2v-1h2zm306 34h1v1h-1zm1 2h1v1h-1zm-2 1h1v1h-1zm-1 1h1v1h-1zm-23 22h1v1h-1zm14 7h1v1h-1zm-5 1h1v1h-1zm-1 1h1v1h-1zm0 10h1v1h-1zm-2 3h1v1h-1zm-20 16v-1l2 1zm-401 94h1v1h-1zm0 1v2l-1-2z"/>
		<path id="Path 4" fill-rule="evenodd" class="s0" d="m370 17h1v1h-1zm-35 1h1v1h-1zm-12 1h1v1h-1zm9 0h1v1h-1zm-8 1h1v1h-1zm2 0h1v1h-1zm-2 3h1v1h-1zm-2 1h1v1h-1zm112 0h1v1h-1zm17 1h1v1h-1zm1 4h1v1h-1zm-3 2h1v1h-1zm-125 1h1v1h-1zm32 0h1v1h-1zm98 4l2-4 1 3zm-107-2h1v1h-1zm-1 1h1v1h-1zm-22 2h1v1h-1zm-1 1h1v1h-1zm21 3h1v1h-1zm101 1h1v1h-1zm30 7h1v1h-1zm3 2h1v1h-1zm-158 1h1v1h-1zm171 1h1v1h-1zm-174 2h1v1h-1zm-2 1h1v1h-1zm-1 1h1v1h-1zm147 0h1v1h-1zm-150 1h1v1h-1zm2 0h1v1h-1zm-7 1h1v1h-1zm4 0h1v1h-1zm-5 1h1v1h-1zm-4 1h1v1h-1zm3 0h1v1h-1zm-4 2h1v1h-1zm168 0h1v1h-1zm3 0h1v1h-1zm-179 4h1v1h-1zm7 0h1v1h-1zm-15 5h1v1h-1zm73 3h1v1h-1zm2 0h1v1h-1zm-3 1h1v1h-1zm2 0h1v1h-1zm171 0h1v1h-1zm2 0h1v1h-1zm2 0h1v1h-1zm-254 3h1v1h-1zm259 2h1v1h-1zm-264 1h1v1h-1zm260 0h1v1h-1zm3 0h1v1h-1zm17 0h1v1h-1zm-7 1h1v1h-1zm2 0h1v1h-1zm-15 1h1v1h-1zm147 0h1v1h-1zm-146 1h1v1h-1zm7 1h1v1h-1zm139 0h1v1h-1zm-2 1h1v1h-1zm-267 1h1v1h-1zm65 0h1v1h-1zm-60 1h1v1h-1zm57 0h1v1h-1zm-70 1h1v1h-1zm80 0h1v1h-1zm-5 2h1v1h-1zm82 1h1v1h-1zm-163 1h1v1h-1zm17 0h1v1h-1zm-14 1h1v1h-1zm-205 1h1v1h-1zm167 1h1v1h-1zm122 0h1v1h-1zm-75 1h1v1h-1zm-57 1h1v1h-1zm2 0h1v1h-1zm130 2h1v1h-1zm-113 1h1v1h-1zm-6 1h1v1h-1zm111 0h1v1h-1zm-38 1h1v1h-1zm37 0h1v1h-1zm19 0h1v1h-1zm78 0h1v1h-1zm-166 1h1v1h-1zm2 0h1v1h-1zm69 0h1v1h-1zm-144 1h1v1h-1zm13 0h1v1h-1zm2 0h1v1h-1zm137 0h1v1h-1zm-122 1h1v1h-1zm5 0h1v1h-1zm81 0h1v1h-1zm-98 1h1v1h-1zm13 0h1v1h-1zm231 0h1v1h-1zm-191 1h1v1h-1zm48 0h1v1h-1zm38 0h1v1h-1zm81 0h1v1h-1zm-385 1h1v1h-1zm142 0h1v1h-1zm12 0h1v1h-1zm8 0h1v1h-1zm-14 1h1v1h-1zm3 0h1v1h-1zm2 0h1v1h-1zm73 0h1v1h-1zm8 0h1v1h-1zm-232 1h1v1h-1zm148 0h1v1h-1zm262 0h1v1h-1zm-413 1h1v1h-1zm2 0h1v1h-1zm7 0h1v1h-1zm140 0h1v1h-1zm-151 1h1v1h-1zm13 0h1v1h-1zm147 0h1v1h-1zm118 0h1v1h-1zm7 0h1v1h-1zm129 0h1v1h-1zm2 0h1v1h-1zm-275 1h1v1h-1zm136 0h1v1h-1zm6 0h1v1h-1zm-137 1h1v1h-1zm8 0h1v1h-1zm122 0h1v1h-1zm-135 1h1v1h-1zm-6 1h1v1h-1zm162 1h1v1h-1zm132 0h1v1h-1zm-434 1h1v1h-1zm32 1h1v1h-1zm125 0h1v1h-1zm11 0h1v1h-1zm259 0h1v1h-1zm14 0h1v1h-1zm-306 1h1v1h-1zm32 0h1v1h-1zm3 0h1v1h-1zm267 0h1v1h-1zm11 0h1v1h-1zm-317 1h1v1h-1zm31 0h1v1h-1zm-139 2h1v1h-1zm135 0h1v1h-1zm2 0h1v1h-1zm-27 1h1v1h-1zm22 0h1v1h-1zm2 0h1v1h-1zm-152 1h1v1h-1zm154 0h1v1h-1zm-153 1h1v1h-1zm448 0h1v1h-1zm-6 1h1v1h-1zm9 2h1v1h-1zm-337 2h1v1h-1zm0 3h1v1h-1zm197 6h1v1h-1zm-7 1h1v1h-1zm11 1h1v1h-1zm5 0h1v1h-1zm-216 1h1v1h-1zm-1 1h1v1h-1zm212 0h1v1h-1zm2 1h1v1h-1zm132 0h1v1h-1zm-349 1h1v1h-1zm350 0h1v1h-1zm-103 1h1v1h-1zm-10 1h1v1h-1zm-244 1h1v1h-1zm367 0h1v1h-1zm-113 1h1v1h-1zm111 0h1v1h-1zm2 1h1v1h-1zm-486 1h1v1h-1zm492 0h1v1h-1zm-100 1h1v1h-1zm93 0h1v1h-1zm-502 1h1v1h-1zm412 0h1v1h-1zm118 3h1v1h-1zm-411 1h1v1h-1zm3 0h1v1h-1zm399 0h1v1h-1zm7 0h1v1h-1zm-13 1h1v1h-1zm4 0h1v1h-1zm-400 1h1v1h-1zm2 0h1v1h-1zm3 0h1v1h-1zm396 0h1v1h-1zm2 1h1v1h-1zm-112 1h1v1h-1zm130 0h1v1h-1zm-427 1h1v1h-1zm295 0h1v1h-1zm114 0h1v1h-1zm23 6l-6-2 1-4zm-141-4h1v1h-1zm-419 1h1v1h-1zm-1 1h1v1h-1zm4 0h1v1h-1zm124 0h1v1h-1zm-131 2h1v1h-1zm425 0h1v1h-1zm139 0h1v1h-1zm-15 1h1v1h-1zm-91 1h1v1h-1zm-354 1h1v1h-1zm2 1h1v1h-1zm11 1h1v1h-1zm5 0h1v1h-1zm335 0h1v1h-1zm-346 1h1v1h-1zm351 1h1v1h-1zm-342 1h1v1h-1zm444 1h1v1h-1zm-446 1h1v1h-1zm-126 1h1v1h-1zm462 0h1v1h-1zm116 0h1v1h-1zm-471 1h1v1h-1zm2 1h1v1h-1zm354 0h1v1h-1zm116 0h1v1h-1zm14 0h1v1h-1zm-485 1h1v1h-1zm459 0h1v1h-1zm2 0h1v1h-1zm19 0h1v1h-1zm2 0h1v1h-1zm-597 1h1v1h-1zm470 0h1v1h-1zm2 0h1v1h-1zm121 0h1v1h-1zm-573 1h1v1h-1zm88 1h1v1h-1zm497 0h1v1h-1zm-604 3h1v1h-1zm605 0h1v1h-1zm-606 1h1v1h-1zm104 0h1v1h-1zm-101 1h1v1h-1zm8 0h1v1h-1zm92 0h1v1h-1zm-101 1h1v1h-1zm16 0h1v1h-1zm-41 7l-4 2 1-8zm504-6h1v1h-1zm127 0h1v1h-1zm-606 1h1v1h-1zm591 0h1v1h-1zm2 0h1v1h-1zm8 0h1v1h-1zm4 0h1v1h-1zm-375 1h1v1h-1zm244 0h1v1h-1zm129 0h1v1h-1zm-20 1h1v1h-1zm19 0h1v1h-1zm-607 1h1v1h-1zm604 0h1v1h-1zm2 0h1v1h-1zm2 0h1v1h-1zm-611 1h1v1h-1zm101 0h1v1h-1zm492 0h1v1h-1zm4 0h1v1h-1zm8 0h1v1h-1zm-603 1h1v1h-1zm97 0h1v1h-1zm351 0h1v1h-1zm160 0h1v1h-1zm-4 2h1v1h-1zm3 0h1v1h-1zm-647 1h1v1h-1zm133 0h1v1h-1zm355 0h1v1h-1zm-489 1h1v1h-1zm1 1l1-1 1 3-2-1zm535-1h1v1h-1zm105 0h1v1h-1zm-623 3h1v1h-1zm466 2l-6 1 2-3zm-479 0l3 2-3 1zm124 0h1v1h-1zm341 0h1v1h-1zm14 0h1v1h-1zm-439 1h1v1h-1zm428 2l1-2 3 2-1 1zm10-2h1v1h-1zm-481 3l-1-2h3l-2 3zm27-2h1v1h-1zm99 0h1v1h-1zm-129 1h1v1h-1zm19 0h1v1h-1zm5 0h1v1h-1zm5 0h1v1h-1zm448 1l1-1 2 1-2 3-5-1 1-1zm-4 2l1-3v2zm142-3h1v1h-1zm-592 1h1v1h-1zm596 0h1v1h-1zm-617 1h1v1h-1zm114 0h1v1h-1zm-116 1h1v1h-1zm13 1h1v1h-1zm448 8l10-3-1-4 6 2-2 2 2 2-2 1 5 1-6 5-1 6v1l1 13 4 6 3 1 3 1v-4l7-1v-12l14 6 4-8 4 1h1l10 3-3 11v1l1 9 2-3 3 1-1 4 4 3 5 13-2 21-8 12-1-7-2 1-9 7-7-1-2 10-13-1v16l-7-2-4-2-2-2-5-5-2-18-14-6 1-10-9-1h-4-4l-2 9-13 1v11l-11 1-5 6-2-8-6 5-3 20 7 12 1 11 7 2-3 3 10 2v1l6-18 3 2v-3l7 2 3-2v3h6l-2 9 29 7 1 24 10 4 2-3 5 1v-18l5 3v-8l5-6h1l2 2v-3l4 1 4 4-1 2h4l-3 21 17 23 3-1 3 9-2 5h3l-2 2v1 4l1 2h4l-3 5v1-1l4 1-2 2-4 3 2 1 2 4-8 6 2 2-1 2v1l-1 8 3 4v1h1l3 1-1 1-5 2 1 2-1 1 1-1 1 3h7l-4 4 2 1-2 5-1 2 2 2-2 1 2 3h-3l2 2-3 1-1-1 1 1 4 3-1 6h-3v-1-1 1 1l-4 2 2 1 1 1v1l-4 1-6 11h-1l-3-1v-1l2-1-2 1v1l-3 2-1-2-13 10 1 4-5 3-1 7-6 1 1 3-4-1-1-1v1h-3v3l-4-1-7 3 3-7-26 6-1 3-1-7-1 3-2-2-5 3-4-5-4 2-2-1v6l-12 2-1-6-3 3-3-3-5-2 1-2-5 1-1-3-2 7-23-8-2 7h-1l-2 1-5-8h1-1l-8-1 2-3-2-7 3-3-3-1 1-2 2-1h-2l3-4-5-1-2 1h-1l-3 7-6-4v-4l2-5 2 2 4-4-2-3-1-2 2-1 2-2-2-1-1-2v-1l1-3-3-1h-1v3l-6 2-2-1 2-7-7 5v-10l10-19v10l3-2 7-3h1l2-10 7-4-1-5v-3-1-1-2-1l1-2 2-5 2-2 2 1 2 2 1-3 2 14-3 10 3-1v10l3-2-1 5 9 5 3-6-3-1 2-4-2-3 3-1h2l3-12 2 3 3-1-1 5 2-1 2 1-3 5 4 1v1l5 4 3 14 3 4 5-1 4 3 2-12 3-1 1-6h12v8h5l-1 10h3l9-3 3-7h3l3-14 4-4-1-19-4 17-1-5-6-2 3-3-8-2 1-4 7-1v-3l-7-2v-3l-4 1v-11l-11-3-1-8 1-6-5-1-2 14v1 1l-4 2v-1l-5-2-1 2-3 3v-1l-1 1-1-2h-1v-4l2 1h1 1v-3h-3l2 3h-1l-2-1v-4l-3 2-1-3-5 2 1-2h1v-1h-1l-3-6-4 12h-3-1v-3l-5 1v-4l-2 4-1 2h-1l-4-1 1-10-10-4-2-5-2 5 2 3-6 2 2-3-2-2-4 3h-2l-1-2-2-2 1-3-5 2-1-3 4-4-2-3v-3l-11-17-2 17-3 1-1-3-8-18-1-3-2-61 3-10 2 11v-8l5-6v-5h3l4-10 3 4v-7l1-1h1l2-21 6-6 2 8 12-3 5-7-1-12 21-12 2 3 1-5 4 1v1h1l7-1 1 3 2 1v-3l-3-1 10 2-1-3 8-2 18 1 3-3v2l1-4 2 2v3h7l1-3zm15-6h1v1h-1zm-10 1h1v1h-1zm-355 1h1v1h-1zm464 0h1v1h-1zm-570 4l1-3 2 2-3 4 2 6-18 14-1 1-1 1v1l1 2 2 1-1-2-2-1v-1l1-1h1v-1l4 2-1 4-11 8-2 5-2-2-2 3h-6l-3-1v-4l18-12-2-2h3l-2-2 4-1-1-3 7-1 3-11 2 1 2-4 1 2v-3zm442-3h1v1h-1zm14 0h1v1h-1zm4 0h1v1h-1zm12 0h1v1h-1zm-467 2h1v1h-1zm583 1h1v1h-1zm79 0h1v1h-1zm-223 3h-4l2-2 2 1zm138-2h1v1h-1zm87 0h1v1h-1zm-674 1h1v1h-1zm107 0h1v1h-1zm336 1h1v1h-1zm-446 1h1v1h-1zm447 0h1v1h-1zm7 0h1v1h-1zm7 0h1v1h-1zm-463 1h1v1h-1zm582 0h1v1h-1zm102 0h1v1h-1zm0 2h-2l2-1zm1-1h1v1h-1zm-670 1h1v1h-1zm395 0h1v1h-1zm275 0v2l-1-2zm-6 1h1v1h-1zm-406 1h1v1h-1zm2 0h1v1h-1zm124 1h1v1h-1zm8 0h1v1h-1zm275 0h1v1h-1zm-592 1h1v1h-1zm188 1h1v1h-1zm199 1v-1l2 1zm-196 0h1v1h-1zm234 0h1v1h-1zm1 1h1v1h-1zm-432 1h1v1h-1zm433 0h1v1h-1zm169 1h1v1h-1zm-600 1h1v1h-1zm7 0h1v1h-1zm435 1h1v1h-1zm-543 7h1v1h-1zm493 1h1v1h-1zm-393 2h1v1h-1zm1 1h1v1h-1zm11 0h1v1h-1zm384 0h1v1h-1zm44 1h1v1h-1zm-241 1h1v1h-1zm-198 1h1v1h-1zm-80 1h1v1h-1zm89 0h1v1h-1zm-9 3h1v1h-1zm4 0h1v1h-1zm10 0h1v1h-1zm-114 1h1v1h-1zm103 0h1v1h-1zm10 0h1v1h-1zm276 0h1v1h-1zm-275 1h1v1h-1zm-11 1h1v1h-1zm443 1h1v1h-1zm-158 1h1v1h-1zm-168 1h1v1h-1zm-233 1h1v1h-1zm32 0h1v1h-1zm86 0h1v1h-1zm4 0h1v1h-1zm-123 1h1v1h-1zm5 0h1v1h-1zm-2 1h1v1h-1zm704 1h1v1h-1zm-1 1h1v1h-1zm-673 6h1v1h-1zm673 0h1v1h-1zm-594 3h1v1h-1zm594 0h1v1h-1zm-469 2h1v1h-1zm-2 1h1v1h-1zm144 4h1v1h-1zm269 0h1v1h-1zm-270 1h1v1h-1zm272 1h1v1h-1zm-539 1h1v1h-1zm365 4h1v1h-1zm230 1h1v1h-1zm-467 1h1v1h-1zm408 2h1v1h-1zm-7 2h1v1h-1zm7 0h1v1h-1zm-1 1h1v1h-1zm1 4h1v1h-1zm-8 2h-2l2-1zm-605 0h1v1h-1zm600 0h1v1h-1zm5 0h1v1h-1zm-2 1h1v1h-1zm-83 1h1v1h-1zm-447 1h1v1h-1zm529 0h1v1h-1zm-527 1h1v1h-1zm202 0h1v1h-1zm-277 1h1v1h-1zm74 0h1v1h-1zm440 2h1v1h-1zm-312 2h1v1h-1zm303 0h1v1h-1zm104 2h1v1h-1zm-331 1h1v1h-1zm-85 3h1v1h-1zm3 0h1v1h-1zm81 0h1v1h-1zm-80 1h1v1h-1zm0 3h1v1h-1zm-4 1h1v1h-1zm8 0h1v1h-1zm77 0h1v1h-1zm329 0h1v1h-1zm0 2h1v1h-1zm-409 1h1v1h-1zm408 0h1v1h-1zm3 1h1v1h-1zm0 2h1v1h-1zm-535 3h1v1h-1zm595 2h1v1h-1zm-391 4h1v1h-1zm-202 1h1v1h-1zm125 0h1v1h-1zm404 1h1v1h-1zm-607 1h1v1h-1zm606 1h1v1h-1zm-614 6h1v1h-1zm211 1h1v1h-1zm-126 7h1v1h-1zm2 0h1v1h-1zm127 1h1v1h-1zm396 1h1v1h-1zm-526 1h1v1h-1zm596 1h1v1h-1zm-595 1h1v1h-1zm132 1h1v1h-1zm292 0h1v1h-1zm171 0h1v1h-1zm-596 1h1v1h-1zm595 0h1v1h-1zm-250 1h1v1h-1zm-347 1h1v1h-1zm597 0h1v1h-1zm-595 1h1v1h-1zm436 1h1v1h-1zm159 0h1v1h-1zm-156 1h1v1h-1zm157 0h1v1h-1zm-597 1h1v1h-1zm132 1h1v1h-1zm464 0h1v1h-1zm-72 3h1v1h-1zm-523 2h1v1h-1zm523 5h1v1h-1zm1 2h1v1h-1zm-396 3h1v1h-1zm402 4h1v1h-1zm66 1h1v1h-1zm-469 2h1v1h-1zm470 3h1v1h-1zm-100 1h1v1h-1zm-290 1h1v1h-1zm388 0h1v1h-1zm-334 1h1v1h-1zm233 0h1v1h-1zm45 0h1v1h-1zm-540 1h1v1h-1zm598 1h1v1h-1zm-597 3h1v1h-1zm264 0h1v1h-1zm14 0h1v1h-1zm-277 1h1v1h-1zm538 1h1v1h-1zm-335 2h1v1h-1zm-204 1h1v1h-1zm595 2h1v1h-1zm-467 1h1v1h-1zm77 0h1v1h-1zm-1 1h1v1h-1zm-76 1h1v1h-1zm150 1h1v1h-1zm3 0h1v1h-1zm254 0h1v1h-1zm-252 2h1v1h-1zm-2 1h1v1h-1zm-365 1h1v1h-1zm207 0h1v1h-1zm159 0h1v1h-1zm2 0h1v1h-1zm3 0h1v1h-1zm-166 4l1-2v2zm-121-1h1v1h-1zm120 1h1v1h-1zm8 1h1v1h-1zm233 0h1v1h-1zm-29 1h1v1h-1zm129 0h1v1h-1zm-334 1h1v1h-1zm-211 1h1v1h-1zm84 2h1v1h-1zm458 1v-1l2 1zm-252 0h1v1h-1zm101 0h1v1h-1zm-178 1h1v1h-1zm2 0h1v1h-1zm181 0h1v1h-1zm9 0h1v1h-1zm35 0h1v1h-1zm-229 1h1v1h-1zm335 0h1v1h-1zm-462 1h1v1h-1zm356 0h1v1h-1zm102 0h1v1h-1zm-458 2h1v1h-1zm339 0h1v1h-1zm12 0h1v1h-1zm-225 1h1v1h-1zm224 0h1v1h-1zm-349 1h1v1h-1zm341 0h1v1h-1zm4 0h1v1h-1zm-1 1h1v1h-1zm-344 1h1v1h-1zm126 0h1v1h-1zm78 3h1v1h-1zm392 1h1v1h-1zm-467 1h1v1h-1zm179 0h1v1h-1zm2 0h1v1h-1zm289 0h1v1h-1zm-286 1h1v1h-1zm-184 1h1v1h-1zm180 0h1v1h-1zm6 0h1v1h-1zm61 1h1v1h-1zm83 0h1v1h-1zm-168 2h4l-2 1zm4-1h1v1h-1zm-167 1h1v1h-1zm77 0h1v1h-1zm-74 1h1v1h-1zm467 1h1v1h-1zm-470 1h1v1h-1zm2 0h1v1h-1zm2 2h1v1h-1zm6 1h1v1h-1zm320 0h1v1h-1zm-329 1h1v1h-1zm-1 1h1v1h-1zm331 0h1v1h-1zm-327 1h1v1h-1zm154 1l-2 1 2-2zm310-1h1v1h-1zm-598 2h1v1h-1zm457 0h1v1h-1zm-170 1h1v1h-1zm33 0h1v1h-1zm136 2l1-1 1 2zm142-1h1v1h-1zm-598 1h1v1h-1zm392 1h1v1h-1zm66 0h1v1h-1zm-133 4h1v1h-1zm132 0h1v1h-1zm-130 1h1v1h-1zm271 0h1v1h-1zm-461 1h1v1h-1zm147 1h1v1h-1zm315 0h1v1h-1zm-465 1h1v1h-1zm324 3h1v1h-1zm-130 1h1v1h-1zm133 2l1-1 1 2-2 1zm136 1h1v1h-1zm-130 2h1v1h-1zm-163 1h1v1h-1zm158 0h1v1h-1zm-183 3l1-2v2zm-72 0h1v1h-1zm64 2h1v1h-1zm-270 1h1v1h-1zm348 0h1v1h-1zm114 1h1v1h-1zm2 0h1v1h-1zm-458 1h1v1h-1zm201 0h1v1h-1zm-82 1h1v1h-1zm2 1h1v1h-1zm-204 1h1v1h-1zm205 0h1v1h-1zm-1 1h1v1h-1zm-128 2h1v1h-1zm344 1h1v1h-1zm118 2h1v1h-1zm-334 1h1v1h-1zm79 0h1v1h-1zm335 0h1v1h-1zm-542 3h1v1h-1zm-94 1h1v1h-1zm219 3h1v1h-1zm147 0h1v1h-1zm-344 1h1v1h-1zm-30 1h1v1h-1zm7 0h1v1h-1zm39 1h1v1h-1zm261 0h1v1h-1zm-205 1h1v1h-1zm274 0h1v1h-1zm-379 1h1v1h-1zm643 0h1v1h-1zm-612 1h1v1h-1zm3 0h1v1h-1zm335 0h1v1h-1zm9 5v-4h3l-2 4zm-346-3h1v1h-1zm-33 1h1v1h-1zm371 0h1v1h-1zm324 0h1v1h-1zm-589 1h1v1h-1zm456 1l2-1-1 2zm-184 0h1v1h-1zm-373 2h1v1h-1zm36 1h1v1h-1zm2 0h1v1h-1zm516 0h1v1h-1zm2 1h1v1h-1zm133 0h1v1h-1zm-315 1h1v1h-1zm316 0h1v1h-1zm-322 4h1v1h-1zm-268 1h1v1h-1zm203 0h1v1h-1zm386 0h1v1h-1zm-660 1h1v1h-1zm340 0h1v1h-1zm-2 1h1v1h-1zm320 0h1v1h-1zm-585 1h1v1h-1zm277 0h1v1h-1zm-351 1h1v1h-1zm515 2l4-2-2 5-3-2zm5-2h1v1h-1zm-446 1h1v1h-1zm202 0h1v1h-1zm238 0h1v1h-1zm-239 1h1v1h-1zm2 0h1v1h-1zm77 0h1v1h-1zm160 1h-2l2-1zm-159 0h1v1h-1zm-370 1h1v1h-1zm88 1h1v1h-1zm439 0h1v1h-1zm152 1h1v1h-1zm-151 1h1v1h-1zm-502 3h1v1h-1zm504 1h1v1h-1zm-505 1h1v1h-1zm504 0h1v1h-1zm-512 1h1v1h-1zm513 0h1v1h-1zm70 0h1v1h-1zm-575 2h1v1h-1zm187 0h1v1h-1zm157 0h1v1h-1zm315 1h1v1h-1zm3 0h1v1h-1zm-676 1h1v1h-1zm200 0h1v1h-1zm79 0h1v1h-1zm395 0h1v1h-1zm-2 1h1v1h-1zm-667 2h1v1h-1zm274 0h1v1h-1zm20 1l2-1-1 3zm373-1h1v1h-1zm-375 4l2-3 1 2-2 3zm-18-2h1v1h-1zm394 0h1v1h-1zm-311 1h1v1h-1zm-64 3l-2 1 1-3zm66-2h1v1h-1zm211 1l2-1-1 2zm95-1h1v1h-1zm-472 1h1v1h-1zm298 0h1v1h-1zm78 0h1v1h-1zm-212 1h1v1h-1zm44 0h1v1h-1zm82 0h1v1h-1zm87 0h1v1h-1zm-472 1h1v1h-1zm169 0h1v1h-1zm160 0h1v1h-1zm4 0h1v1h-1zm50 0h1v1h-1zm188 0h1v1h-1zm2 0h1v1h-1zm-302 1h1v1h-1zm30 0h1v1h-1zm29 0h1v1h-1zm-161 1h1v1h-1zm136 0h1v1h-1zm-416 1h1v1h-1zm285 0h1v1h-1zm15 0h1v1h-1zm150 0h1v1h-1zm-250 1h1v1h-1zm80 0h1v1h-1zm6 0h1v1h-1zm94 0h1v1h-1zm35 0h1v1h-1zm37 0h1v1h-1zm29 0h1v1h-1zm200 0h1v1h-1zm-387 2h1v1h-1zm123 0h1v1h-1zm264 0h1v1h-1zm2 0h1v1h-1zm-255 1h1v1h-1zm244 0h1v1h-1zm-373 1h1v1h-1zm-117 1h1v1h-1zm3 0h1v1h-1zm14 0h1v1h-1zm-15 1h1v1h-1zm14 0h1v1h-1zm-17 1h1v1h-1zm21 0h1v1h-1zm2 0h1v1h-1zm-12 1h1v1h-1zm493 0h1v1h-1zm-503 1h1v1h-1zm494 0h1v1h-1zm-674 3h1v1h-1zm179 0h1v1h-1zm493 0h1v1h-1zm8 0h1v1h-1zm4 0h1v1h-1zm-5 2h1v1h-1zm-498 1h1v1h-1zm364 0h1v1h-1zm-371 1h1v1h-1zm111 0h1v1h-1zm258 0h1v1h-1zm135 0h1v1h-1zm-502 1h1v1h-1zm11 0h1v1h-1zm353 0h1v1h-1zm-365 1h1v1h-1zm-1 1h1v1h-1zm-8 2h1v1h-1zm-138 3h1v1h-1zm648 0h1v1h-1zm-396 1h1v1h-1zm-6 1h1v1h-1zm-260 1h1v1h-1zm510 0h1v1h-1zm-498 1h1v1h-1zm618 2h1v1h-1zm-618 3h1v1h-1zm651 0h1v1h-1zm-27 1h1v1h-1zm6 0h1v1h-1zm22 0h1v1h-1zm-158 1h1v1h-1zm120 0h1v1h-1zm39 0h1v1h-1zm-1 1h1v1h-1zm-161 1h1v1h-1zm123 0h1v1h-1zm-126 1h1v1h-1zm119 0h1v1h-1zm-614 1h1v1h-1zm628 0h1v1h-1zm-382 1h1v1h-1zm245 0h1v1h-1zm124 0h1v1h-1zm15 0h1v1h-1zm5 0h1v1h-1zm-633 1h1v1h-1zm617 0h1v1h-1zm-11 5h1v1h-1zm40 0h1v1h-1zm-168 1h1v1h-1zm125 0h1v1h-1zm1 1h1v1h-1zm5 0h1v1h-1zm-134 1h1v1h-1zm-1 1h1v1h-1zm147 0h1v1h-1zm-4 1l4 1-7 5zm-17 1h1v1h-1zm10 0h1v1h-1zm4 0h1v1h-1zm23 0h1v1h-1zm-174 1h1v1h-1zm134 0h1v1h-1zm18 0h1v1h-1zm-150 1h1v1h-1zm-10 1l2 2-3 1zm5 0h1v1h-1zm-8 1h1v1h-1zm142 0h1v1h-1zm34 0h1v1h-1zm-6 1h1v1h-1zm-27 1h1v1h-1zm18 0h1v1h-1zm-160 1h1v1h-1zm174 0h1v1h-1zm-397 1h1v1h-1zm219 0h1v1h-1zm143 0h1v1h-1zm36 0l2 2-2 1zm-178 1h1v1h-1zm162 9l4-8 4-1 3 4-6 3 1 5-1-2-7 2 2-2h2zm14-9h1v1h-1zm-177 1h1v1h-1zm-2 1h1v1h-1zm1 1h1v1h-1zm-7 1h1v1h-1zm187 1h1v1h-1zm-192 2h1v1h-1zm191 0l3 2-3 2zm-548 1h1v1h-1zm4 1h1v1h-1zm134 0h1v1h-1zm394 0h1v1h-1zm-175 1h1v1h-1zm-2 1h1v1h-1zm181 1h1v1h-1zm-4 2l2-1v5l-2-1v-1zm-1 3l1-3v2zm-406-2h1v1h-1zm398 1h1v1h-1zm8 1h1v1h-1zm-411 1h1v1h-1zm225 0h1v1h-1zm178 0h1v1h-1zm-407 1h1v1h-1zm378 0h1v1h-1zm26 2l3-2v5zm26-2h1v1h-1zm-54 1h1v1h-1zm41 0h1v1h-1zm-420 1h1v1h-1zm418 5l-4-2 1-3 5 3v3zm-191-4h1v1h-1zm148 0h1v1h-1zm-380 1h1v1h-1zm228 1h1v1h-1zm208 0l2 2-2 3zm-526 1h1v1h-1zm466 0h1v1h-1zm-387 1h1v1h-1zm236 0h1v1h-1zm140 0h1v1h-1zm41 0h1v1h-1zm16 0h1v1h-1zm-438 1h1v1h-1zm423 0h1v1h-1zm-4 1h1v1h-1zm-405 1h1v1h-1zm222 0h1v1h-1zm186 0l2 2-2 3h-6zm27 0h1v1h-1zm-212 1h1v1h-1zm-4 1h1v1h-1zm216 0h1v1h-1zm-25 1h1v1h-1zm-430 2h1v1h-1zm373 3h1v1h-1zm72 1h1v1h-1zm-220 1h1v1h-1zm141 0h1v1h-1zm2 2h1v1h-1zm-1 1h1v1h-1zm79 2l-6 11-3-2 7-11 2 1zm0-1h1v1h-1zm-229 1h1v1h-1zm147 0h1v1h-1zm-5 1h1v1h-1zm-145 2h1v1h-1zm138 1h1v1h-1zm2 0h1v1h-1zm-148 3h1v1h-1zm145 0h1v1h-1zm-5 1h1v1h-1zm-5 1h1v1h-1zm95 5h1v1h-1zm-251 1h1v1h-1zm149 1h1v1h-1zm-161 1h1v1h-1zm6 3h1v1h-1zm93 33h1v1h-1zm1 1h1v1h-1zm-227 6l3 2 4 2-1 3-2-1-2-2v3h-4l3-2-4-1 2-3 1 2v-2zm-1 0h1v1h-1zm6 2h1v1h-1zm55 0h1v1h-1zm11 1h1v1h-1zm-1 1h1v1h-1zm-64 3h1v1h-1zm9 11l3-5 5 6-3 3-2-3-6 1zm181-3h1v1h-1zm-7 1h1v1h-1zm-9 4h1v1h-1zm1 1h1v1h-1zm-2 2h1v1h-1zm-97 4h1v1h-1zm93 0h1v1h-1zm-4 3h1v1h-1zm-40 1h1v1h-1zm28 1h1v1h-1zm-30 1h1v1h-1zm-59 1h1v1h-1zm64 0h1v1h-1zm26 1h1v1h-1zm-5 1h1v1h-1zm2 0h1v1h-1zm-104 2h1v1h-1zm99 0l4 2h-5zm-102 2h1v1h-1zm-4 1h1v1h-1zm37 2h1v1h-1z"/>
		<path id="Path 5" fill-rule="evenodd" class="s1" d="m65 213h1v1h-1zm474 0h1v1h-1zm-4 2h1v1h-1zm0 6h1v1h-1zm-12 6h1v1h-1zm10 0h1v1h-1zm-24 5h1v1h-1zm-46 3h1v1h-1zm19 2l2-2 1 4zm4-2h1v1h-1zm-22 1h1v1h-1zm69 1h1v1h-1zm-59 7l6-4 4 3-3 2h-3l-1-1h-1zm100-3h1v1h-1zm-100 4h-2l2-1zm2-1h1v1h-1zm2 1l1 2-2-2zm-428 3h1v1h-1zm-1 1h1v1h-1zm2 0h1v1h-1zm-3 1h1v1h-1zm533 5h1v1h-1zm-543 2h1v1h-1zm500 0h1v1h-1zm-497 2h1v1h-1zm-1 2h1v1h-1zm380 10h1v1h-1zm165 35h1v1h-1zm0 2h1v1h-1zm-46 26h1v1h-1zm2 2h1v1h-1zm-74 27h1v1h-1zm95 5h1v1h-1zm0 2h1v1h-1zm-81 1h1v1h-1zm78 2h1v1h-1zm-169 8h1v1h-1zm1 3h1v1h-1zm2 4h1v1h-1zm1 3h1v1h-1zm145 8h1v1h-1zm2 0h1v1h-1zm-125 6h1v1h-1zm67 14h1v1h-1zm14 0h1v1h-1zm-22 1h1v1h-1zm1 6h1v1h-1zm-7 2h1v1h-1zm4 0h1v1h-1zm3 0h1v1h-1zm-6 1h1v1h-1zm12 0h1v1h-1zm-28 1h1v1h-1zm15 0h1v1h-1zm16 2h1v1h-1zm-3 1h1v1h-1zm2 0h1v1h-1zm110 0h1v1h-1zm-145 1h1v1h-1zm9 0h1v1h-1zm25 1h1v1h-1zm9 0h1v1h-1zm-13 1h1v1h-1zm2 0h1v1h-1zm8 1h1v1h-1zm-11 1h1v1h-1zm2 1h1v1h-1zm-1 1h1v1h-1zm116 0h1v1h-1zm1 5h1v1h-1zm1 1h1v1h-1zm-172 14h1v1h-1zm-1 2h1v1h-1zm0 3h1v1h-1zm0 2h1v1h-1zm0 2h1v1h-1zm108 0h1v1h-1zm-1 4h1v1h-1zm-73 4h1v1h-1zm1 2h1v1h-1zm134 0h1v1h-1zm-132 1h1v1h-1zm2 0h1v1h-1zm128 0h1v1h-1zm3 0h1v1h-1zm-144 1h1v1h-1zm142 0h1v1h-1zm5 0h1v1h-1zm-135 1h1v1h-1zm130 4h1v1h-1zm-156 1h1v1h-1zm155 0h1v1h-1zm-176 2h1v1h-1zm176 0l5 1-4 4zm-102 3h1v1h-1zm-85 2h1v1h-1zm189 3v-1l2 2zm3-1h1v1h-1zm-4 1h1v1h-1zm-121 2h1v1h-1zm120 0h1v1h-1zm-119 2h1v1h-1zm123 0h1v1h-1zm-86 3h1v1h-1zm-3 1h1v1h-1zm2 1l6 2-8 1zm85 0h1v1h-1zm-78 1h1v1h-1zm-34 1h1v1h-1zm2 0h1v1h-1zm100 0h1v1h-1zm2 0h1v1h-1zm-103 1h1v1h-1zm22 0h1v1h-1zm89 0h1v1h-1zm-185 1h1v1h-1zm97 0h1v1h-1zm2 0h1v1h-1zm2 1h1v1h-1zm84 1h1v1h-1zm-86 1h1v1h-1zm87 0h1v1h-1zm-183 2h1v1h-1zm183 1h1v1h-1zm-1 1h1v1h-1zm1 1h1v1h-1zm-2 4h1v1h-1zm-179 2h1v1h-1zm-1 4h1v1h-1zm8 3h1v1h-1zm161 1h1v1h-1zm-167 2h1v1h-1zm161 0h1v1h-1zm3 0h1v1h-1zm-170 4h1v1h-1zm17 13l-4 1 4-2zm0-1h1v1h-1zm1 6h1v1h-1zm1 1h1v1h-1zm6 3h1v1h-1zm113 0h1v1h-1zm1 1h1v1h-1zm87 0h1v1h-1zm-158 1h1v1h-1zm-43 1h1v1h-1zm38 0h1v1h-1zm2 0h1v1h-1zm66 0h1v1h-1zm-61 4h1v1h-1zm212 66h1v1h-1zm-6 11h1v1h-1zm0 27h1v1h-1zm-397 63h1v1h-1zm15 15h1v1h-1zm-2 1h1v1h-1z"/>
		<path id="Path 6" class="s0" d="m473 237h1v1h-1zm-423 15h1v1h-1zm460 43h1v1h-1zm35 44h1v1h-1zm47 126h1v1h-1zm-181 55h1v1h-1zm6 14h1v1h-1zm7 16h1v1h-1zm52-307h1v1h-1zm1 1h1v1h-1z"/>
	</g>
</svg>