<svg version="1.2" xmlns="http://www.w3.org/2000/svg" viewBox="0 0 800 800" width="800" height="800">
	<title>astro</title>
	<style>
		.s0 { opacity: 1;fill: #ff5d01 } 
	</style>
	<path id="Path 0" fill-rule="evenodd" class="s0" d="m319 5l7-5h6l1 2h1l1 6 6 1 2 3 5-2 1 2-1 1 1-1 2 2-2 2h2v-2l5 2 1 1 3 3 4-1v4h8l3 3 1 3 3-1 1 2 6 2h2v1 1l1 2 3 3-1-5 3 1h1l2 2 2 4 2-2h1 3l-1-3h5l3 1 4 2-1 4 7-1v-4l3 2 1 2 2 1 3-4 3 1-3 3 2 2 2 4 1-3 5-2 2 2 3 2 3 1v-2l3 4h7l-1 1h1 1l2 1 2-4 2 4 2-4 1 4 1-4 2 1 2-3 2 4 1 1v-1l3-1-2-6 3 2v1l-2 1h2l4 3-2-3 1-1 3 1 4 3 1-3 3-4 4 3h1l15 2 4 1v3l3 6 3-2 4 4 1-3 4 2 5 1h3l1 4 5 7-4 3v3l3-3 3 5h-3l1 4h-1 1l2-1 2 4 2-2v3l-8 3 3 1-2 4 3 2 1-3 3 2 2 11 2 1-2 3 4 2-1 4 2 3 3 8v1l2 3-6 12 3-1 3 10 1 2-1 2 5 7h-1l1 1 1 3-2 1h2l1 1 1 4h-1l1 1v5l-3-3-3 5 4 1-1 2 3 1 2-6v-5l4 3h1l3 5v2l-2 3 2 1-2 1h2l-2 2 5 4-4 2 4 1-3 1 2 2 1-2 2 7-4 2-1 6 3 4 3-1 3 4-2 3 4 1-2 3h3l-2 3 3-1-5 3 4 1-2 3 2-2 3 3-4 3 4 2v4 1l-1 5 1 5-2 3 3 3-4 3 6 34-3-1v3l1 2-2 3 2-1 3 15 1 5 2 4v5l6 6-1 5 5 1-1 2h-1 1l2 4v3 1l3 9 3 7-4 12h5l1 3h1l2-3 3 4 1 2-1 2 2-1 2 1-2 2-2 2 6 5 2 5-2 2v1l4 8-3 3 10 5-4 3v4l2-2 2 3-1 8h3l1 4-4 1 2 2v1h1l1 2 1 1-1-1-1-2-1-1 4-2 1 5 4 1-1 1 1 9 6-2 1 3h-1l-1 2 2-2 2 3-3 6 4 2 4 2-3 4 5 4-5 2v12l-2 4 2 1 1-3 3 2-1-6 1 1v-1l3-3-1 5h4l4 23v9l-5 3v-1l-2 1h2l-3 2-3 2 1-3-4 1 1 2v3l1 3v1l-4 2 3 3-2 4h3l-1 5h1l-3 14-11 13-2 1h2l-2 3h-1l-1 2-2 2-5 2v1l-2 4-2-2v-1h-1l-3 2v-1l-1 1h1v3l-4-1 3 3-4-1-8 10-2 4-3 1-7 5-1 1-2 1-10 12-1-4h-3l2 7-5-3 2 5-4-1-1 1h-7l4 4-4 2v2l-5-4 1-1-1 1h-5l-1 4-7 2-9 10-1 1-4 3v1l1 3-5 1 1 3-3-1v-1h-1l-2 4h-1v1l-3 5-6 4h-1l-3 1-5 5-4 6 1 2-4 1h-1v1l-3-1-3 7-2-2-3 4h-1-1l-1 3 2-2h1v2 1l-3 1-1-4-3 3-1 1h-2l-1-2-1 2-4-5-8 5-1-7-5 6-14 7-12 2-34 16-12 3-5-7v7l3 2-7-4-1 2 3 1v5h3l10 9 4 10 4-5 1 5h1l1 2v1l-1 1 1-1 1 3 4 4-4 3-2-1 1 4 2 3-3-1-1 3-3-2-2 3-1-3-6-5-2 4-6-2v-4l-6-2 1-3-2-1-2 1-3-5-3-5v-1h-1v-3l-2 2-4-2h-1l-2-4h-1v-4l-3 1-3 2 2 3h-1-3v-3-1l-3-4-1-3-3 2v-3h-3l2-5-4-1-1 3-4-2-1-2v-5l4-1-7-4h-1l-4-5v2l-5-5-4-5-6-3-1-1 2-3-3 1-4-6-2-1v-1l-4-1v-3l-1-2-6-2h-4l-1-1v-2l1-1h1-1l-1 1-4-2-3-1 3-2v-1l1-2-2 2-3-1v-1l-2-1-2-4-6 1-1-4-2-1-1-1-3-3 2-1-5-3 1-2-3-2-6-1v-3-1h-1l-5-6-4-2 2-3-4-3 1-2-6-1v-3l-2-2-3-2-3 2h-1l-6-2 1-5-4 1 3-2-2-2-6-6-2-3-3-3-3 4 13 15-18-9 8 10-3 1 1-2h-5l-8-9-6-1-1-4-3 1v-3l-6-3-6 2-3-4-4 2-2-4-3-4v-4h-3l-2-2h-1-3l2-6-4 1-3-19 2-5-3-2 2-3-1-2h-1v1l-2 1-1-3-1 3-2-2-2 1-2 3-2 1h-1v1l3 5-4 1-1 5-2-1v3l-3-2v-1l2-3v-1l3-5-2-4 1-1-1 1-1-4 1-1 3 1-1-6h-5-5l-2-1 1-2v-1-1 1 1l-2 1-2 2h5 5l2 5v1l-4-1-1 3-3 1 1 3-2-4-2-1h-1l-4 1h-1-1 1 1l5 9-2 1-2-1-2 1-6 9-3-6-3 4-2-3 4-2-4-1 4-3-2-1 2-4-3-2 2 1 2-7 1-7 3-3 4 1-3-9 5-1h1-1l1-7 4-2-4-3 1-2 2-1v3l4-1-3-5v-1l4 1-1-4h3l1 2-1-2v-4h1l1-2-1-2 5-6v-5h-3l-5 1 1-2 8-1 2-5 1-1h-1v-2l-6 2 2-10 6-8-2-1v-1-7l7 1-1-2v-7l-3 5-1-6 4-1-1-4 3 1v1l3-3-2-3h-1l-1 3-3-1 4-5-2-5 3-2 1 2 2-2-6-3 3-13 3-1-3-4 2-4 1 1 2 4-1-4h-1l-1-1 1-5 2-11 1-3-2 1v-3l1-2v-1l5-25-1-4h1l-1-2v-1l2-1h1l-1-1 2-2-2-3v-1l-2-3h3l1 2h1l2 1-2-2 1-4-3 3-1-3 1-1 1-1h-1v-6l4 2 1-11h4l-2-8 3-1-4-6v-2l3-1 1 2v-2l1-2v-1h-1l-1-2h4l-2-3 2-1-2 1-3-1 1-3 5 1 3-3-2-6h1l3 2v-4l-3 1h-1-1-3-5l-1 4-1-5-3 5v5h-1l-3-1 1 2v1l1 1-2 1-2-4-2 5 2-1v3l-6 3 3 1-2 2-2-1h-1l-2 2h-1l6-11-2-5h-4l-1-3 3-4 12 1 2-8-8 2-1-5 6-4 1-3h4l-2-2-1-1-1-3 3-1v-1l-3-2v4l-1-5 1-1 3-5v-1l-1-3 3 1 1-3 1-1 2-6 2 6v1 1h1l9-4 3-4v-2l4 1 3-12v-1l4-8 4 2 1-7-2-1 1-1h-1v-3l-4 1-2-1v-1l3-2h1v-2l-1 2-2-1v-1l6-4v-3l2 1 1 2v-2l2-1h2l-2-1 1-6h1l-1-1 2-5 3-6 2 2 1-5h3l-2-4 7-5-3-9h3v-4l3 1 3-2 2 2 2-2-2-3 3-1v-1h4v1l1-1 2-2 1 4 1 2v-2-1-1l2-15 5-1-2-11 3 2v-3-1l5-5h3l-2-2 3-6v-1l2-2-2-5 3-1 1-6 2 1 3 2-1-2 4-1h2l-2-1-2-1 2-2 6-8-2-1 5-5 4-6 2-5 3-1 1-7-2 1-2-1-2-2 2-4 2 1v-5l3-1 1 6v1l3 1 3-2-3-2 1-4v-1l2-2 2 2 7-14 3 1-2 4 5-1 8-18 9 5 2-2-12-8zm4-5v2l-1-2zm-4 5l-9-5h10zm14-2h1v-1h-1zm-8 2h1v-1h-1zm15 5h1v-1h-1zm0 3h1v-1h-1zm8 0h1v-1h-1zm-7 1h1v-1h-1zm10 3h1v-1h-1zm28 14h1v-1h-1zm-75 3h1v-1h-1zm83 0h1v-1h-1zm7 2h1v-1h-1zm-6 1h1v-1h-1zm7 3h1v-1h-1zm6 0h1v-1h-1zm-6 2h1v-1h-1zm-102 1h1v-1h-1zm4 0h1v-1h-1zm124 1h1v-1h-1zm6 0h1v-1h-1zm15 3h1v-1h-1zm-5 1h1v-1h-1zm62 0h1v-1h-1zm-211 1h1v-1h-1zm205 1h1v-1h-1zm-22 1h1v-1h-1zm15 0h1v-1h-1zm6 0h1v-1h-1zm-200 1h1v-1h-1zm154 0h1v-1h-1zm12 0h1v-1h-1zm-15 1h1v-1h-1zm14 0h1v-1h-1zm2 0h1v-1h-1zm18 0h1v-1h-1zm30 0h1v-1h-1zm6 0h1v-1h-1zm-68 1h1v-1h-1zm73 0h1v-1h-1zm-5 1h1v-1h-1zm-227 6h1v-1h-1zm-9 13h1v-1h-1zm266 1h1v-1h-1zm0 6h1v-1h-1zm2 1h1v-1h-1zm-273 2h1v-1h-1zm274 0h1v-1h-1zm1 1h1v-1h-1zm-279 3h1v-1h-1zm281 0h1v-1h-1zm-4 3h1v-1h-1zm-280 4h1v-1h-1zm284 4h1v-1h-1zm0 3h1v-1h-1zm1 3h1v-1h-1zm-294 1h1v-1h-1zm294 1h1v-1h-1zm5 2h1v-1h-1zm-186 4h1v-1h-1zm3 0h1v-1h-1zm-4 1h1v-1h-1zm4 3l-1-2-3 7-3-2 3 4h-5l-4-4-4 7-21 3 2-6-3 1-1 1-1 2-1-2-3 3-9 14-2 4h2l-2 9h-3l-2 10 2 2-3 2-1 2 2 2-5 4v7l-5 2 3 1v2h1v2l-1-2-2 1v3l1 1h1l-2 2 1-2-1-1-2-1v6l3 1-3 1-1 1 1 4-4 1 3 2-4 3v2l2 1-3 2v6l-4 9 1 2 2-1-1 2-3 1 1 3-3-1v4l-2-1-2 1 6 5h-3l-2 9-2 2 2 2-2-1-4 6 4 4h-3l-2 5 1 5h-2v1h-1l-1 1-2 3 4 6-6-2 2 6v1l1 3h-3l-3 6-1 2-33 110 1 9h-3l-2 9v1l-2 7v1l-2 6h-1l1 3-3 2v8 1l-1 2 1 2 2 2 1-3 1 4 1-2h4l-2 3-8-2-4-1 1 4-2 2v4l4-1 5 1 1-5 1 2 1 2-1 2 1 1h-1v2l3 3v-6h3l1 2 4-2v-4l8-1 3-5 4 2 6-1v-3l5 1v-3h3l1-1v1l7 1 2-4h1l12-2 2 4h3l4-8 1 6h3v-1h-2v-3l2 2 3-7 6-1-1-2h-2l2-1h1l1-6-3-1h-1l-1-3-1-4 4-1 2-2 4-2 1-7 3-2-2-3h5l-2-2 2-2v-5l3 3 2-6v-1l-1-5 3 1 5-1-1-3v-1l-1-2 8-13v-1l1-1v-2l2-4v-6l2 4v-4l3-1v-10l5-1-2-2 10-12v-7-1l1-1 7-17-3-5 2-3v-1-1-1l2-1-2-5h3l-3-3h-1v-1l4-2v-5l-3 1 1-3v-1h1l-1 1 2 2 5-4-3-5v-1l-2-3h-1l1-2v2l7-6-4-4v-1l1-1v-8h3l1 8 3-1-2-3 2-2h3l-2-4 2 1 1-6 3 1 5 13 5 1-1-2 2-1-1-2h2l-2-6-1-6h6l2-1-2-2v-3-1l-1-3-4-2 2-5-3-1 1-3-3-2h5l-1 2 1 4h2l3 6-3 1 1 3h1v1l-1 3h3l1 4-3 1 2 3 3 3v1l-1 1 1 5 2-2v5l-1 2 4-2v3h-4l3 2-3 2h4v12l3 1v1l2 6 1 1 1 1h-1l1 8 4 1-2 2 2 1 3 5h-3v1h4l-2 4h2v2l2 3-1 3v1l5 1-3 6h5l-3 2 4 3 1-4v4h-1l2 6h1v3h3l-3-10 6-7-1-2 3 1-2 1 3 1 2 6 1 3h1l4 3-5 2 1 4 7 1-3 4v4h3l-2 4 4 1-2 4 3 2 2 4h1l1 2h4v5 1l2 2v6l5 6-3 2 5 4 3 1-3 3 2 1 3 3 1 6-1 3 19 43 40 13 4 10-1 2 5 1v7 1l4 3v1l2 4-2 1 4 1 7-3v-1l-2-3 5-4-2-7v-2-1l1-2-4-1 7 1-1-5h4v-3l4 4-2-3 2-3 1-3-4 1-1-3-2 1 2-2-1-5 2 1 1-2-1-2-1-2-1 2-2-2-2-1h2v1h3v-1l3-3-4-2 2-3v-1l-3-1 1-3 2-2-2-1-6-6h-1v-1l-1-1h1l-2-7v-1l-3-9v1-1l-2-19-3-1 3 14-3 3h4l-4 5-2-2-1-1-2-1 3-2-4-5h-1-1v-2l-2 1v-4l-2-1v-1l2 2h1l3 1 2 2h-3v2h1l3-1v-5l-3-3 2-6-4 2-1 4 2 1-2-1h-1l1-5-3-1-2 1 2-1 2-3-2 1 2-3-1-2 2-5-2 2-3-2-5-1-2-9-2-2h3v-4l-2 3-1-4h-2l2-1 1-2 1-3-4-3 1-4-1-3-2-3 1-4-2 1 1-4-1-6h-2v-2h1l1-5-2 1-1 1 1-1 1-6-5-1h-1l1-8h-2l1-5-2-3 1-2h1l1-2-4-2 3-3h-3v-4h-1l2-2-2-4v-3-1l-1-2-1 1v-1-1l-2-3 3-2 2-2-3-3 2-3-3-2 1-6h-4l1-2 3-4h-5l4-4-3-3-1 3v1-1l1-3 1-2-4-2 2-5h-4l-1-1-3-1v-4l-1-2 4-7-7-1 1-6-2-5 4-1-2-1 2-2-3-2 1-3 1-2h-3l-2-10 6 2 3 2 1-1v-8h-3l-6 4-1-8h3l2 1-2 2v1l3-1 1-1 1-1v1l3-3h-3l2-1-2-2-2-5h-1-1l-7-3-1 2-2-2-3-4 1-4-8-1h-1v-1l-1-2-2-1-11-4-4 2 2-4 6-1-7-4h-4-1-10l1-3-2 1-3-6-37 1 2 3-6-2-7 4-1 1v-1l-11 1v-7l2-1-2-4-6 4 2-4-1-8h-5l-1 3-5-2zm-37 2h1v-1h-1zm223 0h1v-1h-1zm-311 1h1v-1h-1zm89 0h1v-1h-1zm23 0h1v-1h-1zm-24 1h1v-1h-1zm28 0h1v-1h-1zm195 0h1v-1h-1zm-175 1h1v-1h-1zm5 0h1v-1h-1zm172 0h1v-1h-1zm-230 1h1v-1h-1zm6 0h1v-1h-1zm53 0h1v-1h-1zm-57 2h1v-1h-1zm0 1v-1l-2 1zm55 2h1v-1h-1zm174 0h1v-1h-1zm-235 1h1v-1h-1zm237 1h1v-1h-1zm-164 3l1-2-2 2zm-79 0h1v-1h-1zm240 0h1v-1h-1zm1 1h1v-1h-1zm-100 1h1v-1h-1zm-141 1h1v-1h-1zm-1 1h1v-1h-1zm156 1h1v-1h-1zm-157 1h1v-1h-1zm158-1l-1 2 4 2zm85 1h1v-1h-1zm-319 1h1v-1h-1zm2 0h1v-1h-1zm-3 1h1v-1h-1zm77 1l-3 1h3zm161 1h1v-1h-1zm80 0h1v-1h-1zm-79 1h1v-1h-1zm-1 2h1v-1h-1zm-165 1h1v-1h-1zm-84 2h1v-1h-1zm3 1h1v-1h-1zm6 0h1v-1h-1zm2 0h1v-1h-1zm242 0h1v-1h-1zm-249 4h1v-1h-1zm80 0h1v-1h-1zm-87 2h1v-1h-1zm4 0h1v-1h-1zm-7 3h1v-1h-1zm270 0h1v-1h-1zm2 0h1v-1h-1zm-185 1h1v-1h-1zm194 0h1v-1h-1zm-1 2h1v-1h-1zm65 3h1v-1h-1zm-61 2h1v-1h-1zm3 3h1v-1h-1zm-202 1l1-1-1 2zm-1 1h1v-1h-1zm199 3l-6 4-1-8h3l2 1-2 2v1l3-1zm0-1h1v-1h-1zm-1 1h1v-1h-1zm66 0h1v-1h-1zm-70 1h1v-1h-1zm-197 1h1v-1h-1zm274 3h1v-1h-1zm-275 2h1v-1h-1zm277 1h1v-1h-1zm-80 1h1v-1h-1zm9 0h1v-1h-1zm57 0h1v-1h-1zm9 0h1v-1h-1zm3 0h1v-1h-1zm-70 1h1v-1h-1zm68 1h1v-1h-1zm-7 1h1v-1h-1zm4 3h3v-3h-3zm-366 0h1v-1h-1zm297 0h1v-1h-1zm-302 1h1v-1h-1zm4 0h1v-1h-1zm-3 1h1v-1h-1zm97 0h1v-1h-1zm275 0h1v-1h-1zm-72 1h1v-1h-1zm-301 2h1v-1h-1zm2 2h1v-1h-1zm-8 4h1v-1h-1zm102 0h1v-1h-1zm-1 1h1v-1h-1zm285 0h1v-1h-1zm-388 2h1v-1h-1zm2 0h1v-1h-1zm-6 2h1v-1h-1zm6 1h1v-1h-1zm98 0h1v-1h-1zm209 0h1v-1h-1zm80 0h1v-1h-1zm-390 1h1v-1h-1zm100 4h1v-1h-1zm-97 1h1v-1h-1zm316 0h1v-1h-1zm-315 2h1v-1h-1zm96 0h1v-1h-1zm-86 2h1v-1h-1zm300 2h1v-1h-1zm-216 2h1v-1h-1zm215 1h1v-1h-1zm80 0h1v-1h-1zm-391 1h1v-1h-1zm97 0h1v-1h-1zm215 0h1v-1h-1zm-107 1l-3-2h5l-1 2zm110 4h2v-3l-2 2zm-221-1h1v-1h-1zm220 0h1v-1h-1zm-318 1h1v-1h-1zm-3 1h1v-1h-1zm3 0l-1 3 2-1zm98 2h1v-1h-1zm-97 1h1v-1h-1zm96 0h1v-1h-1zm2 2l2-1-1 2zm-99 2h1v-1h-1zm214 6v-3h1zm-121-1h1v-1h-1zm-103 2h1v-1h-1zm2 2h1v-1h-1zm409 0h1v-1h-1zm-187 1h1v-1h-1zm-227 1h1v-1h-1zm340 1h1v-1h-1zm-351 2h1v-1h-1zm430 0h1v-1h-1zm-429 1h1v-1h-1zm114 0h1v-1h-1zm118 0h1v-1h-1zm-221 1h1v-1h-1zm-15 1h1v-1h-1zm9 0h1v-1h-1zm4 0h1v-1h-1zm104 0h1v-1h-1zm-102 1h1v-1h-1zm232 0v-1l-1 2zm-251 1h1v-1h-1zm218 0h1v-1h-1zm-206 1h1v-1h-1zm212 2h1v-1h-1zm25 0h1v-1h-1zm114 3v-4l-2 1zm-349-2h1v-1h-1zm1 2l2-1 1-1h-3zm104-2h1v-1h-1zm122 0h1v-1h-1zm-229 1h1v-1h-1zm6 0h1v-1h-1zm-1 0l1 2v-2zm-3 2h1v-1h-1zm-13 1h1v-1h-1zm11 0h1v-1h-1zm203 1l3 1-2-3-1 1zm147-1h1v-1h-1zm-143 1h1v-1h-1zm-219 1h1v-1h-1zm15 0h1v-1h-1zm101 1h1v-1h-1zm-104 2h1v-1h-1zm208 0h1v-1h-1zm-210 1h1v-1h-1zm349 0h1v-1h-1zm-361 1h1v-1h-1zm12 1h1v-1h-1zm349 1h1v-1h-1zm-350 4l3-1-3-3zm106-1h1v-1h-1zm246 0h1v-1h-1zm-365 1h1v-1h-1zm-1 2h1v-1h-1zm15-1h-3l-1 4 2-1zm102 1h1v-1h-1zm102 0h1v-1h-1zm147 0h1v-1h-1zm9 0h1v-1h-1zm-256 1h1v-1h-1zm0 1v-1l-1 2zm-106 1h1v-1h-1zm-15 1h1v-1h-1zm11 0h1v-1h-1zm1 1l-4 3 2 2zm254 0l-2 1h2zm103 1h1v-1h-1zm-355 3h1v-1h-1zm4 0h1v-1h-1zm2 0h1v-1h-1zm-7 1h1v-1h-1zm7 1h1v-1h-1zm247 2h1v-1h-1zm1 1h1v-1h-1zm110 0h1v-1h-1zm-263 2h1v-1h-1zm3 0h-2l2 1zm97 1h1v-1h-1zm-192 1h1v-1h-1zm348 0h1v-1h-1zm-376 1h1v-1h-1zm120 0h1v-1h-1zm-109 1h1v-1h-1zm364 0h1v-1h-1zm-373 1h1v-1h-1zm6 1h1v-1h-1zm111 0h1v-1h-1zm258 0h1v-1h-1zm-351 1h1v-1h-1zm92 0h1v-1h-1zm333 0h1v-1h-1zm-66 1h1v-1h-1zm-268 2h1v-1h-1zm160-1l-1 2 3-1zm108 1h1v-1h-1zm-164 1h1v-1h-1zm157 0h1v-1h-1zm71 0h1v-1h-1zm-333 1h1v-1h-1zm107 0h1v-1h-1zm-2 1h1v-1h-1zm1 1h1v-1h-1zm56 1h1v-1h-1zm-280 1h1v-1h-1zm224 1h1v-1h-1zm56 0h1v-1h-1zm101 0h1v-1h-1zm-157 2h1v-1h-1zm57 0h1v-1h-1zm-55 3h1v-1h-1zm-2 6h1v-1h-1zm58 1h1v-1h-1zm3 1h1v-1h-1zm99 2v-2h1l1 1v1zm2 0h1v-1h-1zm70 3h1v-1h-1zm-437 1h1v-1h-1zm266 0h1v-1h-1zm17 0h1v-1h-1zm-83 3l-2-1v1zm-200 1h1v-1h-1zm197 0h1v-1h-1zm89 0h1v-1h-1zm2 1h1v-1h-1zm81 0h1v-1h-1zm68 0h1v-1h-1zm-150 1h1v-1h-1zm83 0h1v-1h-1zm-172 1h1v-1h-1zm90 4h1v-1h-1zm-11 1h1v-1h-1zm164 0h1v-1h-1zm-446 1h1v-1h-1zm444 0h1v-1h-1zm-442 1h1v-1h-1zm290 0h1v-1h-1zm153 2h1v-1h-1zm-68 3h1v-1h-1zm-377 2h1v-1h-1zm297 0h1v-1h-1zm-299 1h1v-1h-1zm198 0h1v-1h-1zm256 0h1v-1h-1zm-155 1h1v-1h-1zm156 0h1v-1h-1zm-261 4h1v-1h-1zm-194 1h1v-1h-1zm379 0h1v-1h-1zm-378 1h1v-1h-1zm300 0h1v-1h-1zm156 1h1v-1h-1zm-457 1h1v-1h-1zm-1 2h1v-1h-1zm305 1h1v-1h-1zm77 1h1v-1h-1zm-382 2h1v-1h-1zm192 0h1v-1h-1zm195 2h1v-1h-1zm-75 1h-1l-2 2h3zm75 1h1v-1h-1zm2 0h1v-1h-1zm-201 1h1v-1h-1zm124 1h1v-1h-1zm78 0h1v-1h-1zm7 0h1v-1h-1zm-210 1h1v-1h-1zm199 0h1v-1h-1zm-72 1h1v-1h-1zm83 2h1v-1h-1zm-81 2h1v-1h-1zm82 0h1v-1h-1zm56 0h1v-1h-1zm-270 2l2 1-1-3-1 1zm132 3h1v-1h-1zm137 0h1v-1h-1zm-138 1h1v-1h-1zm143 0h1v-1h-1zm-141 1h1v-1h-1zm78 0h1v-1h-1zm-77 1h1v-1h-1zm81 0h1v-1h-1zm-6 6l1-5 1 1-1 4zm63-4h1v-1h-1zm-277 2h1v-1h-1zm-184 1h1v-1h-1zm472 0h1v-1h-1zm-148 1h1v-1h-1zm-325 2h1v-1h-1zm184 0h1v-1h-1zm228 1h1v-1h-1zm-229 1h1v-1h-1zm231 0h1v-1h-1zm64 0h1v-1h-1zm-77 3l-2 1v-4h1l3 1 2 2h-3zm-222 2h1v-1h-1zm0 4l-2-1v1zm305 0h1v-1h-1zm-69 1h1v-1h-1zm-8 1h1v-1h-1zm76 0h1v-1h-1zm-76 3l1-2-2 1zm-408 0h1v-1h-1zm178 0h1v-1h-1zm160 2h1v-1h-1zm147 0h1v-1h-1zm-312 2h1v-1h-1zm-174 1h1v-1h-1zm175 2h1v-1h-1zm313 1h1v-1h-1zm-316 1h1v-1h-1zm250 0h1v-1h-1zm-3 1h1v-1h-1zm3 1h1v-1h-1zm-253 6h1v-1h-1zm324-1l-1 3 2 2zm-323 2h1v-1h-1zm251 0h1v-1h-1zm-422 1h1v-1h-1zm423 0h1v-1h-1zm-421 4h1v-1h-1zm77 1h1v-1h-1zm-81 2h1v-1h-1zm25 0h1v-1h-1zm141 1l-1-2h-4l1 2zm267-1h1v-1h-1zm-272 2l-1-4 4-1 1 2h-4l1 2zm1 3h1v-1h-1zm-161 1h1v-1h-1zm78 0h1v-1h-1zm354 0h1v-1h-1zm-267 1h1v-1h-1zm2 1h1v-1h-1zm265 0h1v-1h-1zm-430 2h1v-1h-1zm19 0h1v-1h-1zm55-1l-2 2 2 1zm-77 2h1v-1h-1zm4 0h1v-1h-1zm496 0h1v-1h-1zm-497 1h1v-1h-1zm432 0h1v-1h-1zm-436 1h1v-1h-1zm2 0h1v-1h-1zm163 0h1v-1h-1zm-90 2h1v-1h-1zm428 1h1v-1h-1zm-428 2h1v-1h-1zm430 1h1v-1h-1zm-3 1h1v-1h-1zm4 0h1v-1h-1zm5 0h1v-1h-1zm-76 1h1v-1h-1zm69 0h1v-1h-1zm-502 1h1v-1h-1zm432 1h1v-1h-1zm-277 1h1v-1h-1zm-156 1h1v-1h-1zm432 2l5-1v-2l-5 2zm-358-1h1v-1h-1zm56 0h1v-1h-1zm11-1l-1 4 5-2zm11 1h1v-1h-1zm4 0h1v-1h-1zm352 0h1v-1h-1zm-434 2v-2l-1 2zm79-1h1v-1h-1zm356 1h1v-1h-1zm-389 1h1v-1h-1zm314 0h1v-1h-1zm-298 1h1v-1h-1zm380 0h1v-1h-1zm-385 1h1v-1h-1zm12 0h1v-1h-1zm6 0h1v-1h-1zm-33 1h1v-1h-1zm14 0h1v-1h-1zm3 0h1v-1h-1zm12 0h1v-1h-1zm370 1h1v-1h-1zm-386 1h1v-1h-1zm10 0h1v-1h-1zm2 0h1v-1h-1zm-147 3h1v-1h-1zm22 0h1v-1h-1zm52 0h1v-1h-1zm-50 1h1v-1h-1zm61 1h1v-1h-1zm353 1h1v-1h-1zm-364 2h1v-1h-1zm6 1h1v-1h-1zm5 0h1v-1h-1zm-3 1h1v-1h-1zm364 0h1v-1h-1zm-448 1h1v-1h-1zm95 0h1v-1h-1zm354 0h1v-1h-1zm-447 1h1v-1h-1zm18 0h1v-1h-1zm67 0h1v-1h-1zm-86 1h1v-1h-1zm20 0h1v-1h-1zm423 0h1v-1h-1zm85 0h1v-1h-1zm-533 2h1v-1h-1zm92 0h1v-1h-1zm-72 1h1v-1h-1zm4 0h1v-1h-1zm511 0h1v-1h-1zm-534 1h1v-1h-1zm21 0l3 1-1-2zm69 0h1v-1h-1zm2 0h1v-1h-1zm-88 1h1v-1h-1zm16 2l-2 2 3 1zm152 13h-3l-2 5 2 2v1l-4 3v1l4 6v11l1 4 2 7v1l-2 6 3 2-2 2 3 7v1l2 1-2 2 2 2-2 3 4-2-2 2 2 1h-4l3 3h1 1l1 1-1-1h-1l1 6h1v1h4l2-1 2 2 2 5 1-3 3 1 1 1 1-2-1-2h-3v-6l5-2-5-1 3-1-1-7 3-3 4 7 2 10 6 2 2-2-3-1 4-1 5-3 3 2 1-2 2-7h6l2-1 2 3 1 3 3-2 1 4 6 15 1 2v1 3l-2 1v1l3 2h-4l2 6-3 3 3 1-2 3v1l2 1v1l-3 1v2h3l2 5-2 3 4 1-2 4 4 1-1 4 3 1 1-2v-1h1 1l2-1-1 3 1 7 1 3h4v4h-1l-2 2 6 2v3l3-3v4l2-1 12 5v-6l-2-3-1-1h1l1-4h-4l3-26 5-9 16-13 3-13 3 1-3-3 8-1 2-3 1-2-2 7-2 2 2 4-2 2 5-5 4 1 3 2 1-5-1-2h1l1-2 4 3 1-4v2l-1-2h1v-4l2 1h1l2-4-2-1 2-2 2-1-1-3 5-4 2 1 4-10 1-2v-4l4-1 1-2v-1h2l1-1-2-6-1-5 7 1-3-5-1-1h1v-2h-3l3-1-2-8-3-2 1-3-1-2-1 1v3l-2-3h2l1-1 2-2v4l4-2-2-2 2-3-5 1-1 1h-5l2-3-6-3v4l-4 2v1h-2l-5 2-1 1h-1-1l-2 1-3-1v4l-6 2h-1l-1 2-3-2v3h-3l-9 4h-3-2v1l-6 2-2-2-12 1-4 3-4-4-9 3-1-3h-5v2l-6-2-3-1-7 1-12-3 1-3-7 1v-1l-2-1-7-2h-3-1l-2-2-7-2-1 5h-5v-3h-7l-1-3v-3-1l-1-3-2-4 3 1-8-10 1 10-8-2zm-151-10h1v-1h-1zm416 0h1v-1h-1zm-433 1h1v-1h-1zm416 0h1v-1h-1zm3 1h1v-1h-1zm14 0h1v-1h-1zm-422 1h1v-1h-1zm2 3l2-1h3l-1-3-5 1zm405-3h1v-1h-1zm14 0h1v-1h-1zm-266 1h1v-1h-1zm265 1h1v-1h-1zm-265 1h1v-1h-1zm-152 3l-1-3-2 2zm155-2h1v-1h-1zm-159 1h1v-1h-1zm170 0h1v-1h-1zm157 0h1v-1h-1zm14 3l-1-4-1 4zm182-3h1v-1h-1zm-544 1h1v-1h-1zm3 0h1v-1h-1zm187 0h1v-1h-1zm2 0h1v-1h-1zm245 0l-2-1v1zm-427 1h1v-1h-1zm347 0h1v-1h-1zm77 0h1v-1h-1zm-419 1h1v-1h-1zm2 0h1v-1h-1zm10 0h1v-1h-1zm321 0h1v-1h-1zm8 0h1v-1h-1zm189 0h1v-1h-1zm-536 1h1v-1h-1zm338 0h1v-1h-1zm13 1v-2l-3 2 2 1zm2-1h1v-1h-1zm186 0h1v-1h-1zm-535 1h1v-1h-1zm2 0h1v-1h-1zm4 0h1v-1h-1zm2 0h1v-1h-1zm322 0h1v-1h-1zm203 0h1v-1h-1zm-532 1h1v-1h-1zm178 0h1v-1h-1zm347 0h1v-1h-1zm8 0h1v-1h-1zm-534 1h1v-1h-1zm5 0h1v-1h-1zm172 0h1v-1h-1zm3 0h1v-1h-1zm146 2v-3l-1 3zm7-2v-1l-2 1zm-338 2h1v-1h-1zm189 1h-3l-2-2v4h6zm245-1h1v-1h-1zm-267 1h1v-1h-1zm22 0h1v-1h-1zm133 0h1v-1h-1zm5 0h1v-1h-1zm2 0h1v-1h-1zm-328 1h1v-1h-1zm535 0h1v-1h-1zm-183 0h-1l3 2zm-352 6l3 1 1-6-3 1zm0-4h1v-1h-1zm6 0h1v-1h-1zm183 0h1v-1h-1zm13 0h1v-1h-1zm3 0h1v-1h-1zm-200 1h1v-1h-1zm2 0h1v-1h-1zm155 0h1v-1h-1zm-168 1h1v-1h-1zm210 0h1v-1h-1zm112 0h1v-1h-1zm-319 1h1v-1h-1zm318 0h1v-1h-1zm-322 1h1v-1h-1zm2 0h1v-1h-1zm222 1h1v-1h-1zm92 0h1v-1h-1zm-315 1h1v-1h-1zm7 2h4l-2-3zm306-2h1v-1h-1zm124 2l2 4 1-4-2-3-1 2zm-436 0h3l-1-2zm435 0h1v-1h-1zm-199 1h1v-1h-1zm4 0h1v-1h-1zm64 1v-2l-3 2zm-135 0h1v-1h-1zm77 0h1v-1h-1zm13 0h1v-1h-1zm39 0h1v-1h-1zm64 0h1v-1h-1zm-353 1h1v-1h-1zm231 0h1v-1h-1zm22 0h1v-1h-1zm8 0h1v-1h-1zm13 0h1v-1h-1zm8 0h1v-1h-1zm74 0h1v-1h-1zm-365 1h1v-1h-1zm287 0h1v-1h-1zm75 0l-2-1v1zm-356 2l-5-2v4zm356 0h1v-1h-1zm-355 1h1v-1h-1zm353 0h1v-1h-1zm3 0h1v-1h-1zm-362 2v-1h-3l2 2zm-1 1v1l-1 3h3l1-3h1l1-3-4 1zm-6 0h1v-1h-1zm175 1h1v-1h-1zm-166 1h1v-1h-1zm-12 2h1v-1h-1zm181 1h1v-1h-1zm-172 1h1v-1h-1zm173 4h1v-1h-1zm-186 1h1v-1h-1zm-1 1h1v-1h-1zm189 0v-1l-2 1zm183 1l-2 1 3 1 1-1h1l1-2h-3zm176-1h1v-1h-1zm-531 1h1v-1h-1zm4 0h1v-1h-1zm165 0h1v-1h-1zm-171 3h1v-3l-2 2zm532-2h1v-1h-1zm-361 1h1v-1h-1zm187 1l2-2h-1l-1 1zm178-1h1v-1h-1zm-536 1l-1-1 1 2zm1 1h1v-1h-1zm353 0h1v-1h-1zm-354 1h1v-1h-1zm4 0h1v-1h-1zm2 0h1v-1h-1zm347 0h1v-1h-1zm-345 1h1v-1h-1zm-15 3h1v-1h-1zm8 0h1v-1h-1zm3 0h1v-1h-1zm-12 1h1v-1h-1zm1 1h1v-1h-1zm8 0h1v-1h-1zm348 0h1v-1h-1zm-352 1h1v-1h-1zm353 0h1v-1h-1zm-343 2h1v-1h-1zm1 1h1v-1h-1zm-26 1h1v-1h-1zm554 1h1v-1h-1zm-361 1h1v-1h-1zm-187 1h1v-1h-1zm6 0h1v-1h-1zm20 0h1v-1h-1zm-32 1h1v-1h-1zm8 1h1v-1h-1zm4 0h1v-1h-1zm19 0h1v-1h-1zm6 0h1v-1h-1zm156 0h1v-1h-1zm21 0h1v-1h-1zm-213 1h1v-1h-1zm9 0h1v-1h-1zm26 0h1v-1h-1zm-36 1h1v-1h-1zm2 0h1v-1h-1zm214 0h1v-1h-1zm-196 1h1v-1h-1zm4 0h1v-1h-1zm337 0h1v-1h-1zm-369 1h1v-1h-1zm30 0h1v-1h-1zm229 0h1v-1h-1zm-227 1h1v-1h-1zm-1 1h1v-1h-1zm220 0h1v-1h-1zm1 1h2l-2-1zm10-1l3-2 1 4h-2v-3zm102 2l3-2-2-1-2 1zm-113 0h1v-1h-1zm-1 5l3-3-2-2h-2l-1 2zm14-5l1 2 1-2zm99 1l-2-1 2-2 1 2zm-351 1h1v-1h-1zm19 1h1v-1h-1zm189 0h1v-1h-1zm-215 2h1v-1h-1zm22 0h1v-1h-1zm227 2l-3-2 1 3zm105-1h1v-1h-1zm2 0h1v-1h-1zm-359 1h1v-1h-1zm205 0h1v-1h-1zm24 0h1v-1h-1zm-19 1h1v-1h-1zm11 0h1v-1h-1zm-198 1h1v-1h-1zm186 0h1v-1h-1zm14 0h1v-1h-1zm11 0h1v-1h-1zm16 0h1v-1h-1zm-28 1h1v-1h-1zm-175 1h1v-1h-1zm173 0l-2 2 2-1zm132 1l-2-1v2zm-132 1h1v-1h-1zm114 0h1v-1h-1zm-118 6l1-1-1-5-1 3zm120-4h1v-1h-1zm16 0h1v-1h-1zm-138 1h1v-1h-1zm57 1l-1-2-2 3h3zm64-1h1v-1h-1zm18 0h1v-1h-1zm-305 2h1v-1h-1zm168 1l2 2h1l3-1-1-3-4 1zm120-1h1v-1h-1zm207 0h1v-1h-1zm-195 1h1v-1h-1zm-300 1h1v-1h-1zm491 1h1v-1h-1zm-320 2v-2h-1v3zm49 0h1v-1h-1zm-49 5l3-3-3-2-1 1zm316-4h1v-1h-1zm-2 1h1v-1h-1zm-2 1h1v-1h-1zm-3 1h1v-1h-1zm4 0h1v-1h-1zm-480 1h1v-1h-1zm4 0h1v-1h-1zm471 0h1v-1h-1zm-1 1h1v-1h-1zm-310 1h1v-1h-1zm3 0h1v-1h-1zm0 2h1v-1h-1zm303 0h1v-1h-1zm-299 1h1v-1h-1zm-165 1h1v-1h-1zm39 2h1v-1h-1zm-1 1h1v-1h-1zm3 0h1v-1h-1zm169 2v-1l-2 1zm-196 1h1v-1h-1zm194 1v-2l-1 2zm-193 0h1v-1h-1zm27 0l3 3 3-3zm6 0h1v-1h-1zm158 1h1v-1h-1zm2-1v-2h2l2 1v1l-3 1zm-185 3h1v-1h-1zm184 3h1v-1h-1zm1 2h1v-1h-1zm-150 3h1v-1h-1zm153 1h1v-1h-1zm233 0h1v-1h-1zm-384 1h1v-1h-1zm4 4h1v-1h-1zm370 2h1v-1h-1zm-366 1h1v-1h-1zm146 0h1v-1h-1zm8 0h1v-1h-1zm1 1l-1-1h-1v2zm0-2l2-1-1 3-1-1zm-7 3h1v-1h-1zm-141 1h1v-1h-1zm145 0h1v-1h-1zm1 1h1v-1h-1zm4 4l-3-1 1 2zm-3 2h1v-1h-1zm200 0h1v-1h-1zm-201 1h1v-1h-1zm186 2l3-2-2-1zm-182-1h1v-1h-1zm25 0h1v-1h-1zm-24 2h1v-1h-1zm179 0h1v-1h-1zm5 0h1v-1h-1zm-182 1h1v-1h-1zm186 1h1v-1h-1zm-166 2h1v-1h-1zm-16 5h1v-1h-1zm21 0h1v-1h-1zm-3 1h1v-1h-1zm-157 1h1v-1h-1zm144 0h1v-1h-1zm14 0h1v-1h-1zm-157 1h1v-1h-1zm142 0h1v-1h-1zm-140 1h1v-1h-1zm291 4h1v-1h-1zm-284 2h1v-1h-1zm279 2h1v-1h-1zm-275 3h1v-1h-1zm271 1h1v-1h-1zm-2 1h1v-1h-1zm1 1h1v-1h-1zm-268 1l-2 3 1-4zm2 2h1v-1h-1zm261 0h1v-1h-1zm-251 3h1v-1h-1zm245 2h1v-1h-1zm-244 2h1v-1h-1zm4 3h1v-1h-1zm237 0h1v-1h-1zm-4 1h1v-1h-1zm-230 1h1v-1h-1zm225 1h1v-1h-1zm-223 1h1v-1h-1zm-1 1h1v-1h-1zm2 0h1v-1h-1zm222 1h1v-1h-1zm-224 2h1v-1h-1zm219 0h1v-1h-1zm-207 5h1v-1h-1zm204 0h1v-1h-1zm-4 2h1v-1h-1zm4 0h1v-1h-1zm-200 2h1v-1h-1zm2 1h1v-1h-1zm181 2h1v-1h-1zm-6 1l-1 3 5-2zm4 1h1v-1h-1zm7 2h1v-1h-1zm-11 2h1v-1h-1zm4 0h1v-1h-1zm-174 1h1v-1h-1zm182 1h1v-1h-1zm-7 1h1v-1h-1zm-164 6h1v-1h-1zm2 2h1v-1h-1zm4 0h1v-1h-1zm-2 1h1v-1h-1zm5 3h1v-1h-1zm0 2h1v-1h-1zm49 2h1v-1h-1zm-1 3l1-2-3-1zm-41 4h1v-1h-1zm44 0h1v-1h-1zm3 0h1v-1h-1zm-1 1h1v-1h-1zm1 1h1v-1h-1zm-39 4h1v-1h-1zm0 2h1v-1h-1zm15 7h1v-1h-1zm-8 2h1v-1h-1zm40 0h1v-1h-1zm-1 1h1v-1h-1zm2 1h1v-1h-1zm-30 3h1v-1h-1zm7 0h1v-1h-1zm37 11h1v-1h-1zm-1 1h1v-1h-1zm-27 1h1v-1h-1zm2 1h1v-1h-1zm27 0h1v-1h-1zm-24 3h1v-1h-1zm21 2h1v-1h-1zm0 2h1v-1h-1zm-16 1h1v-1h-1zm2 0h1v-1h-1zm16 2h1v-1h-1zm-2 1h1v-1h-1zm-5 1h1v-1h-1zm-78-788v-2h3l-2 2zm24 14l2 1h-2zm76 29l2-3 1 4zm48 1l3 1-1 1h-2v-1zm2 2h1v-1h-1zm16-1l1-2v2zm-9 0l3-1-1 2zm-14 4l1-2v2zm-191 4l-1 2-3-2 2-1zm-30 50h1v1h-1zm-3 7h1v1h-1zm-22 37h-2l2-1zm341 17v-1l2 1zm1 4v-1l1 2zm0 1h1v-1h-1zm2 4l2-1v2h-2zm10 11v-2l2 2zm-385 13v-4l2 2-1 2zm2-2h1v1h-1zm-13 14l2-1 2 1-3 2zm408 26v-1l2 2zm3 13v-1l2 1zm-438 5h-2l2-1zm13 34h1v1h-1zm-16 10l2-1h1l-2 3-1-1zm0 2h1v-1h-1zm11 9l1-3 1 1-1 2zm431-1v-2h2l1 2zm-441 36l-4-2h5v1zm0 0h1v-1h-1zm466 46l1-3v3zm-472 8l-2 3 1-5zm-16 77v4l-1-4zm-4 21v-1l3 3zm-4 15l-1-6h3v2l-1 4zm-4 3l4-3h1l1 2-4 1v3zm4-2h1v-1h-1zm-6 16l1-3v3zm552 13v-3l2 1zm-4 6v-1l2 1zm-563 15v2l-1-2zm45 4h1v1h-1zm-10 4l2-3v4zm-41-2h1v1h-1zm38 3h1v1h-1zm-18 6l2-1 4 4-3 2-1-3h-2zm2 2h1v-1h-1zm11 0h-3l3-1zm506 21h1v1h-1zm-28 27v-1l2 2zm-378 12l1 2-2-2zm343 21l-7-3 1-4zm-317 0h1v1h-1zm283 15h1v1h-1zm-268 2h1v-1h-1zm265 3l1-1 1 2zm-248 8h1v1h-1zm5 9h-2l2-1zm217 8h1v1h-1zm-13 8h1v1h-1zm-181 3h-5l5-1zm0 0h1v1h-1zm171 3v-1h2l2 1 2 1h1v-1l2-1-1 6-3 1-1-1 1 1-6 3v-2l1-1h-1l1-5zm0 1h1v-1h-1zm7 0h1v-1h-1zm-5 1h1v-1h-1zm4 0h1v-1h-1zm-6 4h1v-1h-1zm4 0h1v-1h-1zm0-7h1v1h-1zm-5 8l-3-2 3 1zm-2 3l2-1v2h-1zm-2 1l2-1 1 1-1 2h-1l-3-1zm-4 1l-2-2 3 1zm0 0h1v-1h-1zm6-1h1v-1h-1zm-1 2h1v-1h-1zm-4-2h1v1h-1zm-142 2v2l-1-2zm146 0h1v1h-1zm-6 7l1-5-4-1 8 1v2l-3 2zm-1 4l-2 2v-7l3 2zm-100 24h-2l2-1zm-33-759h1v1h-1zm2 1h1v1h-1zm1 1h1v1h-1zm5 4h1v1h-1zm5 3h1v1h-1zm5 3h1v1h-1zm9 4h1v1h-1zm-86 1h1v1h-1zm92 0h1v1h-1zm-78 1h1v1h-1zm3 0h1v1h-1zm-15 1h1v1h-1zm91 0h1v1h-1zm-92 1h1v1h-1zm95 0h1v1h-1zm-1 1h1v1h-1zm-97 1h1v1h-1zm22 0h1v1h-1zm76 0h1v1h-1zm3 0h1v1h-1zm3 0h1v1h-1zm15 1h1v1h-1zm-118 1h1v1h-1zm100 0h1v1h-1zm6 1h1v1h-1zm13 0h1v1h-1zm15 0h1v1h-1zm-19 1h1v1h-1zm18 0h1v1h-1zm-24 1h1v1h-1zm62 0h1v1h-1zm-44 1h1v1h-1zm-14 1h1v1h-1zm25 0h1v1h-1zm1 1h1v1h-1zm2 1h1v1h-1zm5 0h1v1h-1zm36 0h1v1h-1zm-6 1h1v1h-1zm-172 1h1v1h-1zm178 1h1v1h-1zm1 1h1v1h-1zm-23 2h1v1h-1zm40 0h1v1h-1zm19 0h1v1h-1zm-36 1h1v1h-1zm16 0h1v1h-1zm2 0h1v1h-1zm-36 1h1v1h-1zm61 0h1v1h-1zm-55 3h1v1h-1zm68 4h1v1h-1zm7 4h1v1h-1zm9 5h1v1h-1zm-269 2h1v1h-1zm271 0h1v1h-1zm-267 1h1v1h-1zm-11 7h1v1h-1zm3 3h-2l2-1zm0 0h1v1h-1zm280 3h1v1h-1zm-283 10h1v1h-1zm-14 16h1v1h-1zm-1 1h1v1h-1zm-1 1h1v1h-1zm-2 3h1v1h-1zm2 0h1v1h-1zm0 2h1v1h-1zm309 0h1v1h-1zm1 3h1v1h-1zm-315 3h1v1h-1zm316 0h1v1h-1zm4 3h1v1h-1zm-234 3h1v1h-1zm0 1l-1 2-1-2zm-90 1h1v1h-1zm326 0h1v1h-1zm-4 2h1v1h-1zm1 1h1v1h-1zm-324 1h1v1h-1zm150 2h1v1h-1zm7 0h1v1h-1zm-159 3h1v1h-1zm-4 8h1v1h-1zm-1 3h1v1h-1zm332 0h1v1h-1zm-328 2h1v1h-1zm329 0h1v1h-1zm0 2h1v1h-1zm-1 2h1v1h-1zm10 13h1v1h-1zm1 2h1v1h-1zm1 1h1v1h-1zm-269 2h1v-1h-1zm193 3h1v-1h-1zm0 0h1v-1h-1zm0 2h1v-1h-1zm73-4h1v1h-1zm1 1h1v1h-1zm2 1h1v1h-1zm-371 4h1v1h-1zm374 0h1v1h-1zm-6 2h1v1h-1zm-371 5h1v1h-1zm-1 1h1v1h-1zm-1 4h1v1h-1zm103 0v2l-1-2zm279 0h1v1h-1zm-384 1h1v1h-1zm386 1h1v1h-1zm-387 1h1v1h-1zm-2 1h1v1h-1zm105 3l1-2h1zm286-2h1v1h-1zm-391 2h1v1h-1zm102 4h1v1h-1zm289 2h1v1h-1zm-398 2h1v1h-1zm400 1h1v1h-1zm2 1h1v1h-1zm-3 1h1v1h-1zm-402 2h1v1h-1zm399 1h1v1h-1zm-393 1h1v1h-1zm395 0h1v1h-1zm2 0h1v1h-1zm-402 1h1v1h-1zm3 0h1v1h-1zm4 0h1v1h-1zm395 0v2h-4l2-2h1zm-2 1h1v-1h-1zm4 1l2 1-1 2zm-2 1h1v1h-1zm0 2h1v1h-1zm3 1h1v1h-1zm-192 5h1v-1h-1zm0 0h1v-1h-1zm-219 1l1-2v2zm221 3l-3-1 1-3h1zm-226 2l2-5h3 1 1l-5 4 1 3h-2zm5-4h1v-1h-1zm3 0h1v1h-1zm325 1h1v1h-1zm-322 1h1v1h-1zm217 7l-4-2 2-5h2l3 6zm-230 0l-2-3 4-2 1 2-3 4zm0 0h1v-1h-1zm5-3h1v1h-1zm111 3h1v-1h-1zm0 0h1v-1h-1zm-120-1h1v1h-1zm12 0h1v1h-1zm-9 2h1v1h-1zm-2 7l-4-2 2-4zm4-6h1v1h-1zm-11 1h1v1h-1zm241 0h1v1h-1zm0 2h1v-1h-1zm0 0h1v-1h-1zm-228 2h1v1h-1zm-6 1h1v1h-1zm7 0h1v1h-1zm-4 1h1v1h-1zm-11 3h1v1h-1zm436 0h1v1h-1zm-437 1h1v1h-1zm8 0h1v1h-1zm-2 1h1v1h-1zm429 6h1v1h-1zm-441 1h1v1h-1zm442 0h1v1h-1zm-1 1h1v1h-1zm-441 2h1v1h-1zm445 0h1v1h-1zm-446 1h1v1h-1zm-2 1h1v1h-1zm-1 2h1v1h-1zm7 1h1v1h-1zm-7 2h1v1h-1zm447 1h1v1h-1zm-442 2h1v1h-1zm443 0h1v1h-1zm-442 1h1v1h-1zm213 4l1-2v2zm148-2h1v1h-1zm-245 7h1v1h-1zm-127 3h1v1h-1zm-1 2h1v1h-1zm224 0h1v1h-1zm-214 1h1v1h-1zm216 2l-3 1 1-3zm-220-1h1v1h-1zm18 3h1v1h-1zm5 0h1v1h-1zm-3 1h1v1h-1zm-12 3h1v1h-1zm4 0h1v1h-1zm0 4l-1-2 3 1zm-26-1h1v1h-1zm4 0h1v1h-1zm22 2v-1l3 2-5 2zm0 1h1v-1h-1zm-21-1h1v1h-1zm2 1h1v1h-1zm455 5h1v1h-1zm-446 1h1v1h-1zm7 0h1v1h-1zm440 1h1v1h-1zm-440 4l-3 3 1-6 2 1v1zm-1-1h1v-1h-1zm-9-1h1v1h-1zm3 0h1v1h-1zm7 0h1v1h-1zm3 0h1v1h-1zm-18 2h1v1h-1zm15 0h1v1h-1zm3 0h1v1h-1zm-15 1h1v1h-1zm-7 1h1v1h-1zm2 0h1v1h-1zm4 0h1v1h-1zm-7 1h1v1h-1zm8 0h1v1h-1zm8 1h1v1h-1zm8 2h1v1h-1zm0 6h1v1h-1zm437 1h1v1h-1zm-437 1h1v1h-1zm366 1h1v-1h-1zm-367 0h1v1h-1zm285 2l-1-2 3 1zm-286-1h1v1h-1zm277 9l1-4v4zm165-3h1v1h-1zm1 4h1v1h-1zm2 2h1v1h-1zm-451 2h1v1h-1zm-1 6h1v1h-1zm-2 3h1v1h-1zm6 0h1v1h-1zm-3 2h1v1h-1zm-1 2h1v1h-1zm-1 1h1v1h-1zm-5 1h1v1h-1zm387 2l1-2v2zm-382-1h1v1h-1zm461 0h1v1h-1zm-459 1h1v1h-1zm380 1h-2l2-1zm-382 0h1v1h-1zm-2 1h1v1h-1zm463 0h1v1h-1zm-468 3h1v1h-1zm470 0h1v1h-1zm-469 4h1v1h-1zm470 2h1v1h-1zm-466 1h1v1h-1zm316 3v-2l1 2zm81 12l-2 1 2-3zm-398 0h1v1h-1zm475 3h1v1h-1zm-76 2h1v-1h-1zm-400 2h1v1h-1zm480 3h1v1h-1zm-83 2v-1l2 2zm4 4h1v-1h-1zm0 0h1v-1h-1zm0 2v-2h1v2zm13 10h1v1h-1zm71 0h1v1h-1zm9 14h1v1h-1zm-76 2h1v1h-1zm1 1h1v1h-1zm75 3h1v1h-1zm-338 7h1v-1h-1zm0 0h1v-1h-1zm339-5h1v1h-1zm3 5h1v1h-1zm1 4h1v1h-1zm-1 1h1v1h-1zm-339 6h-2l2-1zm265 3l-2-1h2zm3 0l-1 2-2-2zm77 0h1v1h-1zm-509 1h1v1h-1zm-9 2h1v1h-1zm520 0h1v1h-1zm-1 1h1v1h-1zm-354 4h-2v-3l2 2zm-82 4v-2h1zm358-1l-2 1 2-2zm-440 0h1v1h-1zm3 1h1v1h-1zm80 2l2 2 1-3 1 4 1-2h4l-2 3-8-2zm446-1h1v1h-1zm-524 1h1v1h-1zm-8 5h1v1h-1zm1 1h1v1h-1zm1 1h1v1h-1zm534 0h1v1h-1zm-535 1h1v1h-1zm1 1h1v1h-1zm533 0h1v1h-1zm1 1h1v1h-1zm1 17h1v1h-1zm-541 1h1v1h-1zm6 0h1v1h-1zm534 0h1v1h-1zm-1 1h1v1h-1zm4 0h1v1h-1zm-3 3h1v1h-1zm-541 6h1v1h-1zm0 3h1v1h-1zm-4 1h1v1h-1zm361 2l2-2v4h-1zm-21 0h1v1h-1zm20 1v3l-2-3zm-363 3h1v1h-1zm5 2h1v1h-1zm-6 2h1v1h-1zm-2 4h1v1h-1zm372 4h-3l3-1zm-374 0h1v1h-1zm291 1h1v1h-1zm-290 1h1v1h-1zm4 0h1v1h-1zm368 0h1v1h-1zm-375 1h1v1h-1zm-1 2h1v1h-1zm3 0h1v1h-1zm-1 3h1v1h-1zm-2 2h1v1h-1zm2 0h1v1h-1zm559 2h1v1h-1zm-7 1h1v1h-1zm1 1h1v1h-1zm-556 1h1v1h-1zm559 0h1v1h-1zm-185 5v-1h2zm-378 0h1v1h-1zm-1 1h1v1h-1zm24 1h1v1h-1zm-23 1h1v1h-1zm372 6l1-2v2zm-375 1h1v1h-1zm17 1h1v1h-1zm9 3h1v1h-1zm536 0h1v1h-1zm-564 1h1v1h-1zm2 0h1v1h-1zm26 1h1v1h-1zm1 1h1v1h-1zm-13 3h1v1h-1zm-19 1h1v1h-1zm47 1h1v1h-1zm222 6v-3l-2 1zm99 1h1v-1h-1zm0 0h1v-1h-1zm-366-1h1v1h-1zm39 3h1v1h-1zm-41 1h1v1h-1zm42 0h1v1h-1zm5 0h1v1h-1zm-29 1h1v1h-1zm-18 1h1v1h-1zm28 0h1v1h-1zm1 2h1v1h-1zm6 1h1v1h-1zm-2 2h1v1h-1zm324 2l-1-2h1zm-323-1h1v1h-1zm319 4h-2v-3zm-346-2h1v1h-1zm547 0h1v1h-1zm-548 2h1v1h-1zm546 2h1v1h-1zm-547 1h1v1h-1zm545 1h1v1h-1zm-7 5h1v1h-1zm-484 3h1v1h-1zm2 2h1v1h-1zm-1 1h1v1h-1zm478 1h1v1h-1zm-7 3h1v1h-1zm1 3l-5 1 4-3zm0-1h1v1h-1zm-465 1h1v1h-1zm206 4h1v-1h-1zm0 0h1v-1h-1zm252-3h1v1h-1zm8 2h1v1h-1zm-11 1h1v1h-1zm-440 3h1v1h-1zm3 1h1v1h-1zm435 0h1v1h-1zm-3 1h1v1h-1zm3 1h1v1h-1zm-6 2h1v1h-1zm-394 2h1v1h-1zm389 1h1v1h-1zm-2 1h1v1h-1zm-384 1h1v1h-1zm391 0h1v1h-1zm-226 7h1v-1h-1zm0 0h1v-1h-1zm-2-2h1v1h-1zm-162 1h1v1h-1zm161 2l1-2v2zm2-2h1v1h-1zm-157 3h1v1h-1zm2 0h1v1h-1zm9 2h1v1h-1zm354 3h1v1h-1zm-7 1h1v1h-1zm-342 1h1v1h-1zm341 0h1v1h-1zm-3 5h1v1h-1zm-172 2h1v1h-1zm169 0h1v1h-1zm-8 1h1v1h-1zm7 0h1v1h-1zm-8 1h1v1h-1zm6 0h1v1h-1zm-12 5h1v1h-1zm9 1h1v1h-1zm-327 1h1v1h-1zm7 0h1v1h-1zm317 0h1v1h-1zm-315 1h1v1h-1zm304 0h1v1h-1zm-311 1h1v1h-1zm314 0h1v1h-1zm-309 1h1v1h-1zm1 1h1v1h-1zm8 0h1v1h-1zm289 0h1v1h-1zm-1 1h1v1h-1zm-286 3h1v1h-1zm282 0h1v1h-1zm1 4h1v1h-1zm-277 8h1v1h-1zm2 0h1v1h-1zm3 2h1v1h-1zm262 0h1v1h-1zm-260 1h1v1h-1zm2 0h1v1h-1zm254 1h1v1h-1zm0 2h1v1h-1zm-7 2h1v1h-1zm-6 5h1v1h-1zm-227 3h1v1h-1zm4 3h1v1h-1zm2 0h1v1h-1zm-1 1h1v1h-1zm0 2h1v1h-1zm2 0h1v1h-1zm1 1h1v1h-1zm210 0h1v1h-1zm-203 1h1v1h-1zm-2 1h1v1h-1zm203 0h1v1h-1zm-215 1h1v1h-1zm214 0h1v1h-1zm-199 1h1v1h-1zm177 2h1v1h-1zm19 1h1v1h-1zm-6 2h1v1h-1zm1 1h1v1h-1zm-1 2h1v1h-1zm-189 1h1v1h-1zm5 0h1v1h-1zm177 0h1v1h-1zm-180 1h1v1h-1zm2 0h1v1h-1zm-7 1h1v1h-1zm172 0h1v1h-1zm3 0h1v1h-1zm4 0h1v1h-1zm7 0h1v1h-1zm-185 1h1v1h-1zm11 0h1v1h-1zm164 1h1v1h-1zm-161 1h1v1h-1zm2 0h1v1h-1zm157 3h1v1h-1zm-156 1h1v1h-1zm151 1h1v1h-1zm-144 2h1v1h-1zm154 1h1v1h-1zm-153 1h1v1h-1zm145 0h1v1h-1zm4 2h1v1h-1zm-9 2h1v1h-1zm1 1h1v1h-1zm8 0h1v1h-1zm-13 2h1v1h-1zm1 1h1v1h-1zm7 0h1v1h-1zm1 2h1v1h-1zm-139 1h1v1h-1zm131 0h1v1h-1zm6 1h1v1h-1zm-136 1h1v1h-1zm126 0h1v1h-1zm0 2h3v3zm4 1h1v1h-1zm3 0h1v1h-1zm-83 1h1v1h-1zm6 0h1v1h-1zm77 1h1v1h-1zm-80 1h1v1h-1zm5 1h1v1h-1zm-35 5h1v1h-1zm-6 1h1v1h-1zm8 2h1v1h-1zm-5 2h1v1h-1zm6 2h1v1h-1zm3 0h1v1h-1zm3 4l-1 3-3-2zm0 0h1v1h-1zm4 0h1v1h-1zm1 3h1v1h-1zm37 1h1v1h-1zm-32 6h1v1h-1zm-1 1h1v1h-1zm38 2h1v1h-1zm-34 3h1v1h-1zm29 0h1v1h-1zm3 4h1v1h-1zm-28 1h1v1h-1zm2 2h1v1h-1zm22 7h1v1h-1zm-46-681h1v1h-1zm8 1h1v1h-1zm0 2h1v1h-1zm0 7h1v1h-1zm41 6h1v1h-1zm-24 1h1v1h-1zm64 1h1v1h-1zm4 0h1v1h-1zm-54 2h1v1h-1zm1 1h1v1h-1zm-91 4h1v1h-1zm149 2h1v1h-1zm2 1h1v1h-1zm-154 1h1v1h-1zm163 1h1v1h-1zm1 2h1v1h-1zm1 1h1v1h-1zm2 4h1v1h-1zm5 1h1v1h-1zm-4 1h1v1h-1zm14 6h1v1h-1zm4 0h1v1h-1zm-5 1h1v1h-1zm0 2h-2l2-1zm1 0v-1h5l-3 2h-1zm1 2l-2 1v-3h1l1 1zm-1-1h1v-1h-1zm1 1l1-1 1 2zm3-1h1v1h-1zm-4 5l-1 2-2-2zm3-1h1v1h-1zm2 1h1v1h-1zm3 0h1v1h-1zm-1 1h1v1h-1zm-1 1h1v1h-1zm-7 6h1v1h-1zm10 4h1v1h-1zm-204 6h1v1h-1zm1 2h1v1h-1zm-4 3h1v1h-1zm198 0h1v1h-1zm-1 1h1v1h-1zm3 0h1v1h-1zm-201 2h1v1h-1zm0 5h1v1h-1zm204 17h1v1h-1zm-100 8h1v1h-1zm-6 6h1v1h-1zm8 4h1v1h-1zm-5 1h1v1h-1zm112 2h1v1h-1zm1 1h1v1h-1zm-119 1h1v1h-1zm6 0h1v1h-1zm8 4h1v1h-1zm-19 1h1v1h-1zm125 0h1v1h-1zm-107 2h1v1h-1zm107 3h1v1h-1zm-104 1h1v1h-1zm-13 1h1v1h-1zm12 0h1v1h-1zm-127 1h1v1h-1zm99 0h1v1h-1zm17 1h1v1h-1zm118 0h1v1h-1zm-144 1h1v1h-1zm143 1h1v1h-1zm-339 1h1v1h-1zm221 0h1v1h-1zm-23 3h1v1h-1zm-1 1h1v1h-1zm39 0h1v1h-1zm-133 1h1v1h-1zm91 0h1v1h-1zm-93 7h1v1h-1zm240 0h1v1h-1zm0 2h1v1h-1zm-148 1h1v1h-1zm150 0h1v1h-1zm-147 3h1v1h-1zm-100 3h1v1h-1zm98 3h1v1h-1zm48 0h1v1h-1zm-145 3h1v1h-1zm148 0h1v1h-1zm99 2h1v1h-1zm-154 1h1v1h-1zm2 1h1v1h-1zm52 0h1v1h-1zm1 1h1v1h-1zm1 1h1v1h-1zm-152 2h1v1h-1zm96 0h1v1h-1zm157 0h1v1h-1zm-156 1h1v1h-1zm0 2h1v1h-1zm154 3h1v1h-1zm-92 3h1v1h-1zm-62 1h1v1h-1zm-100 1h1v1h-1zm255 0h1v1h-1zm-155 1h1v1h-1zm63 7h1v1h-1zm3 0h1v1h-1zm90 0h1v1h-1zm-89 4h1v1h-1zm-2 2h1v1h-1zm-68 1h1v1h-1zm164 0h1v1h-1zm-97 1h1v1h-1zm5 0h1v1h-1zm91 0h1v1h-1zm-90 2h1v1h-1zm91 0h1v1h-1zm-90 2v-1l2 1zm-75 0h1v1h-1zm74 0h1v1h-1zm7 1h1v1h-1zm84 0h1v1h-1zm-77 1h1v1h-1zm-92 4h1v1h-1zm83 0h1v1h-1zm-81 1h1v1h-1zm76 0h1v1h-1zm-77 1h1v1h-1zm80 2h1v1h-1zm15 1h1v1h-1zm-14 4h1v1h-1zm16 2h1v1h-1zm76 0h1v1h-1zm0 4h1v1h-1zm-183 6h1v1h-1zm110 1h1v1h-1zm-113 2h1v1h-1zm116 3h1v1h-1zm-117 4h1v1h-1zm188 1h1v1h-1zm-67 6h1v1h-1zm72 5h1v1h-1zm-199 2h1v1h-1zm133 0h1v1h-1zm-133 3h1v1h-1zm135 0h1v1h-1zm-136 1h1v1h-1zm204 0h1v1h-1zm4 0h1v1h-1zm-3 8h1v1h-1zm1 2h1v1h-1zm2 0h1v1h-1zm-3 1h1v1h-1zm-213 2h1v1h-1zm213 0h1v1h-1zm4 0h1v1h-1zm-2 1h1v1h-1zm6 0h1v1h-1zm-220 2h1v1h-1zm214 0h1v1h-1zm4 0h1v1h-1zm-68 1h1v1h-1zm2 5h1v1h-1zm68 0h1v1h-1zm0 2h1v1h-1zm-226 1h1v1h-1zm221 2l6-1-1 4-3-1h2l-2-1zm-60-1h1v1h-1zm59 1h1v1h-1zm-225 1h1v1h-1zm227 0h1v1h-1zm8 2h1v1h-1zm-2 1h1v1h-1zm9 0h1v1h-1zm-2 1h1v1h-1zm-3 2h1v1h-1zm-1 1h1v1h-1zm4 0h1v1h-1zm-329 2h1v1h-1zm320 1h1v1h-1zm7 2h1v1h-1zm7 0h1v1h-1zm-13 2h1v1h-1zm-238 1h1v1h-1zm241 2h-3l1-2zm0 0h1v1h-1zm-1 1h1v1h-1zm-2 1h1v1h-1zm14 0h1v1h-1zm1 3h1v1h-1zm-341 4h1v1h-1zm346 0h1v1h-1zm-3 1h1v1h-1zm5 1h1v1h-1zm0 3h1v1h-1zm-350 3h1v1h-1zm82 0h1v1h-1zm266 0h1v1h-1zm-266 5h1v1h-1zm2 1h1v1h-1zm-86 1h1v1h-1zm82 0h1v1h-1zm269 0h1v1h-1zm-271 1h1v1h-1zm1 1h1v1h-1zm267 0h1v1h-1zm3 0h1v1h-1zm2 0h1v1h-1zm1 4h1v1h-1zm-285 1h1v1h-1zm1 1h1v1h-1zm-5 1h1v1h-1zm1 1h1v1h-1zm-14 2h1v1h-1zm-55 1h1v1h-1zm46 1h1v1h-1zm-45 1h1v1h-1zm44 0h1v1h-1zm-5 1h1v1h-1zm-33 1h1v1h-1zm-3 1h1v1h-1zm6 0h1v1h-1zm346 1h1v1h-1zm4 0h1v1h-1zm-6 3h1v1h-1zm-358 1h1v1h-1zm7 0h1v1h-1zm347 2h1v1h-1zm1 2h1v1h-1zm-345 1h1v1h-1zm323 1h1v1h-1zm-324 1h1v1h-1zm327 0h1v1h-1zm-326 1h1v1h-1zm324 1h1v1h-1zm15 0h1v1h-1zm3 4h1v1h-1zm-1 1h1v1h-1zm-2 3l2-2 1 3h-3zm0 1h1v-1h-1zm-1-1h1v1h-1zm-10 1h1v1h-1zm4 5h1v1h-1zm7 1h1v1h-1zm-413 2h1v1h-1zm416 0h1v1h-1zm-91 8h1v1h-1zm9 1h1v1h-1zm-170 1h1v1h-1zm157 0h1v1h-1zm16 1h1v1h-1zm-186 2h1v1h-1zm13 0h1v1h-1zm166 0h1v1h-1zm3 0h1v1h-1zm-165 1h1v1h-1zm144 0h1v1h-1zm-4 1h1v1h-1zm-161 2h1v1h-1zm23 2h1v1h-1zm18 0h1v1h-1zm-9 1h1v1h-1zm120 0h1v1h-1zm-101 1h1v1h-1zm-22 1h1v1h-1zm119 1h1v1h-1zm120 1h1v1h-1zm-126 1h1v1h-1zm2 0h1v1h-1zm-13 3h1v1h-1zm-56 1h1v1h-1zm14 0h1v1h-1zm101 1h1v1h-1zm-2 1h1v1h-1zm1 1h1v1h-1zm-357 2h1v1h-1zm358 0h1v1h-1zm-355 1h1v1h-1zm-3 1h1v1h-1zm174 1h1v1h-1zm182 3h1v1h-1zm-181 6h1v1h-1zm177 1h1v1h-1zm3 0h1v1h-1zm3 0h1v1h-1zm2 1h1v1h-1zm-9 1h1v1h-1zm8 0h1v1h-1zm-359 1h1v1h-1zm350 0h1v1h-1zm-2 1h1v1h-1zm-171 12h1v1h-1zm19 0h1v1h-1zm148 0h1v1h-1zm-111 5h1v1h-1zm4 0h1v1h-1zm-12 1h1v1h-1zm-44 7h1v1h-1zm1 1h1v1h-1zm25 0h1v1h-1zm-24 1h1v1h-1zm3 2h1v1h-1zm3 3l-1-3h3zm128-2h1v1h-1zm3 0h1v1h-1zm-138 1h1v1h-1zm1 1h1v1h-1zm133 0h1v1h-1zm-125 1h1v1h-1zm140 0h1v1h-1zm-3 1h1v1h-1zm5 0v2l-1-2zm-8 2h1v1h-1zm-128 1h1v1h-1zm119 1h1v1h-1zm9 2h1v1h-1zm-77 3h1v1h-1zm-55 1h1v1h-1zm2 2h1v1h-1zm53 1h1v1h-1zm-2 1h1v1h-1zm-51 1h1v1h-1zm55 3h1v1h-1zm-2 4h1v1h-1zm-3 8h1v1h-1zm2 1h1v1h-1zm-167 2h1v1h-1zm167 0h1v1h-1zm3 1h1v1h-1zm-3 1h1v1h-1zm2 3h1v1h-1zm0 3h1v1h-1zm2 0h1v1h-1zm4 10h1v1h-1zm2 0h1v1h-1zm5 11h1v1h-1zm17 5h1v1h-1zm2 0h1v1h-1zm-16 1h1v1h-1zm16 1h1v1h-1zm-13 2h1v1h-1zm5 3h1v1h-1z"/>
</svg>