<svg version="1.2" xmlns="http://www.w3.org/2000/svg" viewBox="0 0 800 800" width="800" height="800">
	<title>image</title>
	<style>
		.s0 { opacity: 1;fill: #000101 } 
		.s1 { fill: #61dafa } 
	</style>
	<g id="Background">
		<path id="Path 0" fill-rule="evenodd" class="s0" d="m0 800v-800h800v800zm155-538l1-2v2zm397 19h1v1h-1zm-67 7v-2h1zm4 3l-2-2h5v1l-2 1zm4-1v-1h2l2 3-3-1zm-1 0h1v1h-1zm2 1l-3 5-3-2h3l-1-3h2 1zm-426 6l4-2-1 2zm681-1h1v1h-1zm-239 18l-1-2h2v1zm227 3v-1l2 1zm44 4v-2l1 2zm-259 2h-2l2-2zm217 0h1v1h-1zm29 5h1v1h-1zm-727 3h1v1h-1zm725 7l2-1-1 3-1-1zm-628 3h1v1h-1zm-1 1h1v1h-1zm2 0h1v1h-1zm-6 10h1v1h-1zm-2 4l1-1 2 2zm642 1h1v1h-1zm-671 32l9-6-3 9-2 5h-1l-3-2zm-21 31l3-2v1 2h-1zm-46 40h1v1h-1zm628 22l1-2v2zm-4 2h1v1h-1zm-577 8h1v1h-1zm5 3h1v1h-1zm431 12v-4l3 4h-1-1zm-23 1h1v1h-1zm0 5l-8 1 7-4zm18-2v2l-1-2zm-11 3l-1-2 1 1zm12 2l1-2 1 1zm-55 10l-3-1 2-2 1 2zm83 0v-2l3 2zm-139 7h1v1h-1zm-327 3v2l-1-2zm322 1h1v1h-1zm-311 2l5 2-2-2 3-1 2 1-6 4zm475 0h1v1h-1zm-92 2l-3-1h3zm-110 2l1-2v2zm201 3v-1l2 1zm-101 5l1-2v1zm-49 1h1v1h-1zm42 2l4-1v1zm238 10l1-3h1zm-1 0h1v1h-1zm-30 8v-1l2 1zm0 9h1v1h-1zm-119 5h1v1h-1zm0 1v2l-1-2zm121 6h1v1h-1zm-508 66h1v1h-1zm223 13l1-2v2zm6 7h1v1h-1zm15 9l1-1 1 3-3-1zm10 7l-8-1v-4l6 3zm243-1v-1h3l1 2-2 2zm-1 0h1v1h-1zm6 10l-2-2h1zm-496 2h1v1h-1zm467 2h1v1h-1zm19 7l-1-2 1 1zm8 3l2-1 2 2-2 5-3-2 2-2zm-162 17h-6l3-4 1 2zm122-1h1v1h-1zm0 1v3l-1-3zm-437 4h1v1h-1zm140 0h1v1h-1zm2 1v-1l2 1zm-6 0l-1 2-1-2zm-22 8h1v1h-1zm311 5l-3 1 1-2zm-429 4v-1l2 1zm20 7l1-2h1zm404 5l-3-1v-4l3-1 2 4-2 1zm-425 0l-4-2 9-3 1 1v3 1zm14 1l7-6 3 3-1 6h-1l-4 6-3-3zm-21 5l-2-4 3 2zm-3 2l3-2v4zm-13 3l-2-3 3 1zm0 0l1-2-1 3z"/>
		<path id="Path 1" fill-rule="evenodd" class="s1" d="m22 364l-1 3-6-1v-351h769v283l-3 4-1-2-5 2 2 2-6 6h-1l1 5-6 1-4 1-1 5-6 1 1 2-5 1v1l-3 1-1-3-4 6-2-2-3-2 2-3 1-1v-1l-1-1-2-2-3 3 3-5h2l-2-1 2-4 2 3 3-4-1-4 6-10 1-1 2-5 2-3 3-5-3-3-10-4-2 7 2 3-4-3-9 11h-3l-2 4-4 5-6-3 2-6-3-3-5 1 4-4-4 1-6-5-3 5-22-3-17 8-11 14-2 21 8 17 23 17 7-8 5 4h3v-3l5 1v4l2 1-1 1h1l-5 7 2 8-2 3 5 4 1 2 3 3 6 14-2 20 6 14-1 5-3 5-9 12-7-18-3 5-38 28-4 10 4 3-4 8v1l-2 3-6-9v-3l-1-7-27-82-41-82 1-8-6-6-7-5-4-8-1-4-2 1v-3l-3-2 1-1h-1v1l-2 3-4-5 4-2-3 1-2-4v-1l3-3h-3l1-3-5 1v-3l-2-2 3-1-5 1 2-3-2-7h-6l5-3-6-3-11-19-34-40-15-6h-11l-15 6-10 10-5 10-1 16 9 19 9 8 12 19 8 4-1 3v3l2-1 3-4 4 5-3-1-1 7h4l-3 2h3l2 8 2 1 3-6h1v-1-4l3-1v2 1-1l1-2 4-1 7 3-2 1h-2-1-5l2 2h1l1 3h-3l3 2 3-5 3 1v1l-3 1 1 6h-3l2 4 2-3 1 1-1-1 3-1-1 6v1-1l5 7 2-3 4 2 1 2 5 6-1 2 8-1-2 2h2l-2 4-5 4 7 1-2-2 6 1-1-5 2 2 5-7 2-1v4l3 1v5h4l-1 3-1 1v1h1l1 2v1l-2 17 2 2 1-2-3 5 3 4 4 3 2-3-1 4v1l-2 8 1 3 3-1-1 4 1 8-3 5-3 18h3l-4 9 5-2-2 2h4v10l20 51 17 84v50l-4 20-9 21-14 13-9 2-32-2-19-7-30-17-35-26-15-15-9-4-16-1-18 8-12 20v17l11 19 7 5-4 1v-2l-1 2-1 3 3 2h-3l1 2h3 3v1l1-1 13 10 3 1v4l8 1-2-2-6-3-1-3v-1l4-1 1 5 8 3 1 3 21 14 17 1 5 5 8 2 4 2h1l3 1 4 1v3h4l-1-3 9 1 1 8-3 4h6 2l2-6 1 5 4-1v-3l4 2 4 1v6h1v5l2 1h2-2l-2-1 5-1v-4l2 4 6-2h1l5 3 1 4 2-1 1 2v1l2 3 2-3 1 4 3-1 2 5h-1 1l3 2 2-3v3h3l3 2h1l3 2 4 2 1-4v5l4 1 5 2 4 1 1 1 3 3 1 3 1-3 1 3 3-2 4 1 1 5 2-5-3-3 7 2 1 8h-397v-3l-1 3-13-2-20 2 2-3-4-2v-4l1-2-3-2 2 4-3 2-2 2-2 1 2 2h1 3l-1 2h-11l-3-3 1-3-3-1 2 3v1l-3-2v5l-26-2-9 2 3-2-5-3-5 5-3-1h-2l-84 1v-366h6l5 1-2-2 6-1 2 8-13 4-2 3 5 17 2 4 7-3-2 4v1l1 3h-1l5 4h1-1l6-2v-3h3 1l2-3 1 6 3-1 2 3-2 3h3l-2 2-2-1 2 1v1l1 5h-3l-13 6-2 2-1 4 10-2 9 13 13-5 4 2h1l12-4-6 4 3 1 3-1 1 1 4 2v1l-1 3 4 1-3 1 3 1-5-1-1 5-11 1-3 3 15 12 21-3v3l-3-1-7 5-1-2-11 2 3 3-14 4v5l2-2 1 2v-2l2-1 1 4 3 4 4-4h1l2 4 6-4h1l8 7 20-3 57 23 1 2-17 5-7 7 1 4-4 2v4l-2 2 3 5-3 2-1-2-1 4 11-2-2 5 2 4-8 7 2 7-2 3v1 1l-2 4 9 4-5 1v1l1 2-2 7-1 7 1 2v1 1 2h-1l1 1 2 1-2 8 2 5v1l2 9v16h3l-3 1 1 3v2l1 1-1 6 4-1-2 6 2 1-3 2 6 4-3 2v1-1l3 2-1 4 3 1 1-2 1-4 1 4 5 2v5l1 1 1 3-5 1-8 2-11 6-1 9 3 1-2 2-3-2-2 7h2l13-2 2-1-2-3 5-3 2 2-2 1 4-1 5-1-1 2-1 1-9 3 4 2h6v-1-3-1-1l9-2 5-4 7-1-4 6h-1l-1 2-7 6 1 6 3 3 4-6h1l1-6h1 1l3-2 6 2-1-7h4v3l5-3 5 2 1-2v-1l8-3v3h5l5-2v2l1-4 17-1h7 1l3-2h1 5 2 1 1v-1l1-3 3 2h1l8-2 1 1v-1l9-1 2-6 3 3 4-2-1-3 2 1 1 2 1-2h1 1l2-1 1 1h1 2l-2-1 1-3 8 1v-3h3l5-3v-1l4-1-3-3 7-3 6-3-1-3 4 2 14 4 4 1-1-3 4-1h1v-1h3l-1-6h3l-9-6-2-5 11-2 4-1 3 9 8 1 6 2 1-2 4-1 4 1 3-3-7-2-2-4h1l-1-1-1-1-6-5-11 2-3-4 3-3-8-1v-3l-10-8-3 1 1-2-6-3 7-2-5-7-21-9-15 2-18 11-16 5-13 2-28-2-12-10-9-15-4-13-4-42-11-17 47 11 74 10 125 2h1l6 1v-1l5 1h3l5-5h1 3l-1 1h1l17-3h2l9 1 2-3 11 2 4-5 2 5 2-3 5 2v-2l5-2 1 2v-2l1-1v-1l3-2v3l4-1-4-4 5 1v-3l3 1v-1l-1-6 4-1 5-17v-1-2h-1l1-6h2l-2-1h-1l-2-2 4-3 1-1h-1l-4-2-7 4h-3l-2-2 3-3-3-2 3-1v-1l-7-6h3l-3-2v-2l-4 2 2-2-2-6 1-3-3 1-2-5-3 1-4-2h-1l-6 1v-2h1l-3-4v4l-8-3h-1v1h-5l-3 4v2 1l1 2-2 2-5-3-1-3 1-1h1v-1l2-1 3-3-3 3-2 1h-1v1l-1 1-7 4 8-1-1 5-3-3-5 5h4l-1 3 7 4 1 1-1 2-1 4-2-1v-1l-1-5-7 4-1-4-3 1-1-2-7-3-2 2-2 2-5-3-2-1-3-1v3l-1-2-2 2 3 1 6 3v3l-1 1 1-1 7 2-7 1 2 5 3 1v4h4v4l-2-2-10 2h-1l-1 2-3 3v-1l-4 1-10-3h-1l-9-2v-3l-6-1v-3l-3 2-1-3h-1-1l-4-2-1-1-8-2-3-3h-1-1l-4-2h-4l2 6-1 1h1 1l1-1h3l-1 11 3-1h7l1 3-1 1v1l1 1 2 3-3 4-3-3-8 2-3-5-9-2h-1-7l-8-5-9 1 3-5h-5v-2l-1 2-3-3h-6l-1-3-2 2-3-4h-6l-3-5 1-1-1 1-9-1-3-2 1-4h-4l-79-13 2-1-2 1-25 2-13-1-4-8-3 2-3-4 10-3-46-18 6-3-1-2h5l-1-3-11 1-4-1-1 1h-2v-1 1l-3 1 1-5-7 1v-1l-1 1-1 1-2-1v-1 1h-4l2-4-15-4-11-11h4l-10-9 2-3h1l2-1 4-2-1-3h1l-1-6 6-3 5-2-1-3-11 2-5-3-2 4-1-2-3 2-3 2-2-8h-5l-4 5v-2-1l-3 2h-3l-1-4-5 1v-3l11-4-2-5 4-1-1-3h4l1 3 3 3 4-1 3-10 1-2 2-5v6l3 2h1l2-5 3-9-9 6v-3l-7 2 2-4-8-1v3h-5l-1-3h2l-1-3h3l15-7 9-5v2h-1 1v-2l6-4 14-8 3 1-2-2 1-2 1-1 1 2 2 1v-3-1l-2-5 2-4 1 1h1l1-1 2 3 2-2-1-3 6 2 3-4 7 1 22-11 32-10 13-12 5-15-5-25-14-13-13-3-16 1-27 9-1 2-2-5-3 3h-1l-7 3-1 4v1l-2 2-2-3-1 3v-4h-1v4l-2-2h-1l-1 7-3-1v-4l-2 2 1 6-5-2-4 3-2-3v4h-4-1l-2 3-4-1-1 2-2 3h-1l-2-1v2l-4-1-1 3-3-2-2 4h-1l-2-2h-1-2-3l-1 5-1 1-7 1 1-2-4 2v1l1 1h1 4l-4 5-3 4-1 1h-1-1 1l-2 6 5 3-4-1-2 2 2 2v4l-3-1-13 6-2 3-1-2-3 1v-1-1h-1v1l1 1-7 2 4 3-3 3v1 1l-1 4 1 4 5 1-2 1-10 2-7 4-2 6zm126-102h1v1h-1zm7 0h1v1h-1zm-10 4h1v1h-1zm-4 1h1v1h-1zm398 0h1v1h-1zm4 6h1v1h-1zm-73 1h1v1h-1zm74 0h1v1h-1zm-416 1h1v1h-1zm343 0h1v1h-1zm-348 4h1v1h-1zm364 0h1v1h-1zm58 0h1v1h-1zm-434 1h1v1h-1zm642 0h1v1h-1zm-263 5l-3-2 4-1zm-371-2h1v1h-1zm366 0h1v1h-1zm-372 1h1v1h-1zm7 0h1v1h-1zm-5 1h1v1h-1zm370 0h1v1h-1zm269 0h1v1h-1zm-10 1h1v1h-1zm-643 1h1v1h-1zm4 0h1v1h-1zm3 0h1v1h-1zm637 0h1v1h-1zm-646 1h1v1h-1zm396 1l2-1 2 4h-2zm242-1h1v1h-1zm-245 1h1v1h-1zm65 0h1v1h-1zm182 0h1v1h-1zm-654 1h1v1h-1zm405 1l2-1v1zm-406 0h1v1h-1zm397 0h1v1h-1zm-396 1h1v1h-1zm2 0h1v1h-1zm5 0h1v1h-1zm-11 2h1v1h-1zm4 0h1v1h-1zm-6 2v-1h2zm6-1l1 2h-3zm6 0h1v1h-1zm658 0h1v1h-1zm-671 1h1v1h-1zm12 0h1v1h-1zm4 0h1v1h-1zm654 0h1v1h-1zm-680 2v-1h3l-1 2h-1zm9-1h1v1h-1zm11 0h1v1h-1zm412 0h1v1h-1zm-426 1h1v1h-1zm7 0h1v1h-1zm4 0h1v1h-1zm417 0h1v1h-1zm224 0h1v1h-1zm-651 1h1v1h-1zm8 0h1v1h-1zm4 0h1v1h-1zm413 0h1v1h-1zm2 1h1v1h-1zm-427 3h1v1h-1zm427 0h1v1h-1zm275 0h1v1h-1zm-707 1h1v1h-1zm430 0h1v1h-1zm-428 1h1v1h-1zm707 0h1v1h-1zm2 0h1v1h-1zm-6 1h1v1h-1zm-33 1h1v1h-1zm-675 1h1v1h-1zm440 0h1v1h-1zm2 0h1v1h-1zm232 0h1v1h-1zm41 1l2-1v14l-2-1-1-2v-4l-3 3v-5zm-1-1h1v1h-1zm-715 1h1v1h-1zm4 0h1v1h-1zm3 0h1v1h-1zm436 2l-1-2h1zm0 0h3l-1 1h-2zm231-1h1v1h-1zm30 0h1v1h-1zm-704 1h1v1h-1zm446 0h1v1h-1zm-445 1h1v1h-1zm444 0h1v1h-1zm2 0h1v1h-1zm264 0h1v1h-1zm-254 1h1v1h-1zm-12 1h1v1h-1zm11 0h1v1h-1zm251 0h1v1h-1zm-259 1h1v1h-1zm260 2l2-2v4h-3zm-259-1h1v1h-1zm58 0h1v1h-1zm163 0h1v1h-1zm29 0l3 4h-3zm6 1h1v1h-1zm0 4l-2-1 3-1zm5-2h1v1h-1zm-245 1h1v1h-1zm-464 1h1v1h-1zm455 2v-2l2 1zm216-2h1v1h-1zm28 0h1v1h-1zm5 0h1v1h-1zm2 0h1v1h-1zm9 0v2l-1-2zm-43 1h1v1h-1zm-673 1h1v1h-1zm470 0h1v1h-1zm202 0h1v1h-1zm37 1l5 1 4-2v76l-8-28 2-3-4-9v-1-1h-1l-2-4-6-4 3-6v-1l-1-2 1-3-2 1-2-1 3-2-1-3 4-1-2-2 1-1 3 3 2-5 4 2-4-2v-2zm-2-1h1v1h-1zm2 0h1v1h-1zm-10 0l2 1-3 2zm-242 1h1v1h-1zm248 0h1v1h-1zm-231 1h1v1h-1zm210 1h1v1h-1zm17 0h1v1h-1zm1 1h1v1h-1zm-4 3l4-2v1zm-723 0h1v1h-1zm722 0h1v1h-1zm2 1h1v1h-1zm-716 1h1v1h-1zm-6 1h1v1h-1zm497 1v-1l2 1zm-493 0h1v1h-1zm492 0h1v1h-1zm5 0h1v1h-1zm-502 1h1v1h-1zm499 2h1v1h-1zm224 1h1v1h-1zm-627 3l2-2-1 2zm4-2h1v1h-1zm-106 2v-1l4 1-3 1zm4-1h1v1h-1zm97 1h1v1h-1zm2 0h1v1h-1zm-103 1h1v1h-1zm102 0h1v1h-1zm626 0h1v1h-1zm3 0h1v1h-1zm-641 3h1v1h-1zm6 3l-2-3 5 1zm409-2h1v1h-1zm-410 2h1v1h-1zm-9 2h1v1h-1zm11 1h1v1h-1zm3 0h1v1h-1zm-94 1h1v1h-1zm91 1h-2l2-1zm-10 0h1v1h-1zm578 0h1v1h-1zm-162 1h1v1h-1zm163 0h1v1h-1zm-571 1h1v1h-1zm569 0h1v1h-1zm2 2h1v1h-1zm70 0h1v1h-1zm-71 1h1v1h-1zm72 0h1v1h-1zm-748 4h1v1h-1zm7 0h1v1h-1zm515 0h1v1h-1zm155 0h1v1h-1zm-680 1h1v1h-1zm520 0h1v1h-1zm5 5h1v1h-1zm156 2l3 4h-5zm4 1h1v1h-1zm-7 6l2-2 4 3 1 3v2zm-1 0h1v1h-1zm7 1l4 1-3 2zm-7 2h1v1h-1zm2 1h1v1h-1zm6 2l3-2v2zm-625-1h1v1h-1zm628 1h1v1h-1zm-5 5h1v1h-1zm1 1h1v1h-1zm-160 19h1v1h-1zm1 7l1 4-3 1zm-458 2h1v1h-1zm2 1h1v1h-1zm-8 3h1v1h-1zm-6 1h1v1h-1zm8 1h1v1h-1zm30 0h1v1h-1zm-26 3h1v1h-1zm7 0h1v1h-1zm13 6h1v1h-1zm-5 7l3-1-2 1zm-8 1h1v1h-1zm-3 2h1v1h-1zm1 1h1v1h-1zm-2 1h1v1h-1zm12 5h1v1h-1zm-5 1h1v1h-1zm3 0h1v1h-1zm-56 2h1v1h-1zm-17 1h1v1h-1zm68 2l2-2 1 2 2 5zm-54 1l1-2v2zm4-2h1v1h-1zm49 1h1v1h-1zm-66 2h1v1h-1zm7 0h1v1h-1zm15 1h1v1h-1zm727 8l4-7 1 245-12-1v4l4 3 8-1v75l-164-1h-4v-1l1-1-1 1-1 1-5-4 2-3h1-1l-14-5-1-2v-1l2-1-2-4-3 1v4l3 1 1 2h-4l-1-6h-5l2-2-5-2 2-3-2-5-9-5 1-4 4 3-2-2 5-1-2 2 3 1-3 2h1 1l4-2 1 3 2-3 9 5-1 2 3-1-2-1v-1-1l2-4 5-1h4l2-10 1 3v-3l1-1v-1l3-3h1-1-1v-3l5-6-1-3 7-5-1-2v-1-1l1-1 2-1-3-5 4-1 2-7 1-4 3 1-2-3v-1l3-4v11l3-3 1 1 1 1 1 5v10l1 5 1 2-1 2v1l5 13-4 3 3 1-1 3v1-1l4-2 5-2-2-7-8-6 5-1v-1l-2-2h3l1 1 1 2-2 2 3 2 2-5-2-2 2-3h-3l1-9h1l-1-1-1-2h-1l1-3-5-4 1-1 2 3 2-2-1-2h4v-5l-3-1v-3l3 2-1-5-3-1-1 3-2-3 4-6v-1h-2l2-5 4-3-4-1-5-1 3-3-2-1 2-3-3-1 3-5-4-5 5-7h1v-1-1l-1-5 2-1-3-2 3-1-2-4 1-3v-3l-2-1 3-3 1-3 3-3-2-5 1-1 1-1 3 5v1h1l-1-1-1-11 1-1h1-1-1l-3-5 3-2-2-4 1-1-1-9h2l-2-1-4-3 3-1-1-4 3 3 4 10 5-1-4 3h4l3 4v-4-1l5-1-5-5 2-4h-4l2-5v-1l2-6-8-17 1-10 4 3 5 29 3 3 3 4 3 1v-4l1 3 3-2 1-1 2-3 2-11-5-12v-1-5h5l27-16 6 23 4 1 1 7h7l9 12 1-10-5-3 3-6v-1l-2-3-1-4 3-1-7-2-1-3 4-2-1-3 2 1-4-5 3-1-1-9 3 4 2-2 3-1-3-1 2-4 1-1v-1-4l3 2 1-2 3-2-6-10 2 1 6-9 7 14v1-1l3-1-1-2 4-7 1-4-3-1 2-3 4 2 2-3v-1l2-5zm-726-3h1v1h-1zm1 3h1v1h-1zm724 0h1v1h-1zm-725 2h1v1h-1zm86 2h1v1h-1zm4 0h1v1h-1zm-5 1h1v1h-1zm641 1h-2l2-1zm-730 0h1v1h-1zm723 0h1v1h-1zm-621 1h1v1h-1zm5 0h1v1h-1zm507 9l-1-5 7 1-5 2zm106-6h1v1h-1zm-733 2h1v1h-1zm605 3h1v1h-1zm22 1h1v1h-1zm-4 1h1v1h-1zm3 0h1v1h-1zm-21 1h1v1h-1zm19 1l-2 2 1-3zm0-1h1v1h-1zm-582 3h1v1h-1zm564 0h1v1h-1zm126 0h1v1h-1zm-113 1h1v1h-1zm-573 4l1-2v2zm560-2h1v1h-1zm-558 1h1v1h-1zm-1 1h1v1h-1zm5 1h1v1h-1zm-1 1h1v1h-1zm1 2v-1l2 2zm570-1h1v1h-1zm-571 1h1v1h-1zm564 0h1v1h-1zm-559 1h1v1h-1zm-1 1h1v1h-1zm2 0h1v1h-1zm-1 2h1v1h-1zm658 3l-1-3 2 1v1zm-558-1h1v1h-1zm317 2h1v1h-1zm142 1h1v1h-1zm-451 1h1v1h-1zm449 0h1v1h-1zm-131 1h1v1h-1zm134 0h1v1h-1zm-147 1h1v1h-1zm3 0h1v1h-1zm8 0h1v1h-1zm11 0v2l-1-2zm124 0h1v1h-1zm-150 3v-2l3 1-1 1zm18-2h1v1h-1zm136 10l-3-2 2-3-3-1 1-4 6 9 1 6-3 1zm-152-8l1-1 3 2zm9-1h1v1h-1zm2 0h1v1h-1zm10 0h1v1h-1zm7 0h1v1h-1zm118 0h1v1h-1zm-140 4l3-3 1 2v-2h1l1 3-1 2 2-1 2 4h-2-1l-1 1-6 1v-1l2-2 2-2zm-305-2h1v1h-1zm3 0h1v1h-1zm10 0h1v1h-1zm23 0h1v1h-1zm261 0h1v1h-1zm-292 1h1v1h-1zm293 0h1v1h-1zm5 0h1v1h-1zm1 1h1v1h-1zm7 0h1v1h-1zm-20 1h1v1h-1zm246 0h1v1h-1zm-1 1h1v1h-1zm-242 1h1v1h-1zm-391 1h1v1h-1zm387 1h1v1h-1zm20 1l1-1h1zm-407 0h1v1h-1zm388 0h1v1h-1zm22 0h1v1h-1zm2 0h1v1h-1zm129 0h1v1h-1zm-155 1h1v1h-1zm18 0h1v1h-1zm-15 1h1v1h-1zm1 1h1v1h-1zm5 0h1v1h-1zm-39 1h1v1h-1zm35 0h1v1h-1zm154 0h1v1h-1zm-563 1h1v1h-1zm8 0h1v1h-1zm362 0h1v1h-1zm2 0h1v1h-1zm35 2l2-2-1 3zm160-2h1v1h-1zm-194 1h1v1h-1zm193 0h1v1h-1zm-566 1h1v1h-1zm567 0h1v1h-1zm-183 1h1v1h-1zm7 0h1v1h-1zm176 1h1v1h-1zm1 1l2-1v3zm-183 0h1v1h-1zm24 0h1v1h-1zm-5 3l-4 1v-3l4 1zm163-1h1v1h-1zm-254 1h1v1h-1zm2 0h1v1h-1zm-317 6l-2-4 3-1 5 4-3 1 2 2zm316-5h1v1h-1zm92 0h1v1h-1zm-420 1h1v1h-1zm323 2l1-2v2zm4-2h1v1h-1zm4 0h1v1h-1zm252 0h1v1h-1zm-315 1h1v1h-1zm65 0v2l-1-2zm65 0h1v1h-1zm-76 1h1v1h-1zm7 0h1v1h-1zm285 0h1v1h-1zm-604 1h1v1h-1zm11 0h1v1h-1zm309 0h1v1h-1zm9 1l2-1 1 1-2 1zm-332 0h1v1h-1zm322 0h1v1h-1zm11 1v4h-4l-1-4 4-1zm146-1h1v1h-1zm98 0h1v1h-1zm-189 1h1v1h-1zm2 0h1v1h-1zm188 0h1v1h-1zm-258 1h1v1h-1zm20 0v2l-1-2zm235 0h1v1h-1zm-296 2l2 2-3-2zm187 0h1v1h-1zm109 1h1v1h-1zm-233 1h1v1h-1zm136 0h1v1h-1zm90 0h1v1h-1zm94 0h1v1h-1zm-341 1h1v1h-1zm255 0h1v1h-1zm-246 4l3-2 2 3-4 1-1-1zm247-2h1v1h-1zm1 1h3l-2 2zm-240 0h1v1h-1zm41 0h1v1h-1zm203 1h1v1h-1zm-253 1h1v1h-1zm31 0h1v1h-1zm219 0h1v1h-1zm2 0h1v1h-1zm-275 1v2l-1-2zm24 0h1v1h-1zm7 0h1v1h-1zm2 0h1v1h-1zm138 0h1v1h-1zm-131 1l1 3-3-1zm-32 1h1v1h-1zm20 0h1v1h-1zm144 0h1v1h-1zm-165 1h1v1h-1zm-4 1h1v1h-1zm34 4l-1-4 4 2zm235-2h1v1h-1zm2 0h1v1h-1zm-245 1h1v1h-1zm-3 2l1 2-3-1zm4-1h1v1h-1zm7 0h1v1h-1zm231 0h1v1h-1zm4 0h1v1h-1zm32 0h1v1h-1zm-287 1h1v1h-1zm4 0h1v1h-1zm7 0h1v1h-1zm239 0h1v1h-1zm17 0h1v1h-1zm18 3l2-3-1 3zm-20-2h1v1h-1zm10 0h1v1h-1zm-261 1h1v1h-1zm241 0h1v1h-1zm29 1h1v1h-1zm-269 1h1v1h-1zm241 0h1v1h-1zm6 0h1v1h-1zm-2 1h1v1h-1zm-5 6l-2-1h2zm-450 2h1v1h-1zm463 0h1v1h-1zm-1 2h1v1h-1zm-2 1h1v1h-1zm-120 1h1v1h-1zm110 2h1v1h-1zm-1 1h1v1h-1zm-120 4h1v1h-1zm2 0h1v1h-1zm114 0h1v1h-1zm-115 1h1v1h-1zm-8 1h1v1h-1zm-3 1h1v1h-1zm5 0h1v1h-1zm-379 2h1v1h-1zm349 0h1v1h-1zm3 1h1v1h-1zm-30 2h1v1h-1zm184 0h1v1h-1zm-502 1h1v1h-1zm322 0h1v1h-1zm-321 1h1v1h-1zm1 1h1v1h-1zm311 3l-3-2 4-1zm-15-2h1v1h-1zm6 0h1v1h-1zm6 1h1v1h-1zm187 4l1-4 3 2-1 1-1 1zm-502-3h1v1h-1zm508 3h1v1h-1zm-502 8h1v1h-1zm496 0h1v1h-1zm-8 1h1v1h-1zm7 1h1v1h-1zm-496 1h1v1h-1zm495 4h1v1h-1zm-6 2h1v1h-1zm6 0h1v1h-1zm-1 4h1v1h-1zm-499 3h1v1h-1zm0 4h1v1h-1zm27 3l3-3 1 3zm472-3h1v1h-1zm-473 2h1v1h-1zm469 1h1v1h-1zm-488 1h1v1h-1zm491 2h1v1h-1zm2 1h1v1h-1zm-497 2h1v1h-1zm4 3h1v1h-1zm488 1h1v1h-1zm-465 2h1v1h-1zm-29 1h1v1h-1zm-1 4h1v1h-1zm497 1h1v1h-1zm-497 1h1v1h-1zm495 0h1v1h-1zm-494 2h1v1h-1zm0 2h1v1h-1zm0 3h1v1h-1zm495 0h1v1h-1zm-493 1h1v1h-1zm167 3l6-2 2 3-14 7 1-6zm8 1h1v1h-1zm322 0h1v1h-1zm-5 2h1v1h-1zm2 1h1v1h-1zm-339 3h1v1h-1zm2 0h1v1h-1zm2 0h1v1h-1zm-8 2h1v1h-1zm70 0v2l-1-2zm273 0h1v1h-1zm-494 3v-1l2 1zm168-1h1v1h-1zm1 1h1v1h-1zm2 0h1v1h-1zm55 3h1v1h-1zm258 4h1v1h-1zm-2 1h1v1h-1zm1 2v-1l2 1zm3-1h1v1h-1zm-266 3h1v1h-1zm21 0h1v1h-1zm236 0h1v1h-1zm6 0h1v1h-1zm-243 1h1v1h-1zm236 0h1v1h-1zm8 3l1-2 4 3-3 1-1-1zm9 0h1v1h-1zm-238 1h1v1h-1zm2 0h1v1h-1zm237 1v-1l3 1zm-1 0h1v1h-1zm-1 1h1v1h-1zm-267 3h1v1h-1zm20 1h1v1h-1zm1 1h1v1h-1zm225 0h1v1h-1zm-204 1h1v1h-1zm1 1h1v1h-1zm2 0h1v1h-1zm226 4l1-3 2 2v1zm-222-2h1v1h-1zm-271 3v-2l1 2zm466-2h1v1h-1zm154 0h1v1h-1zm-345 1h1v1h-1zm2 0h1v1h-1zm-276 1h1v1h-1zm236 0h1v1h-1zm11 0h1v1h-1zm219 2l1-2v2zm-222-1h1v1h-1zm-10 1h1v1h-1zm6 0h1v1h-1zm225 0h1v1h-1zm-227 1h1v1h-1zm1 1h1v1h-1zm226 0h1v1h-1zm19 3h1v1h-1zm8 0h1v1h-1zm-7 1h1v1h-1zm8 0h1v1h-1zm-280 2h1v1h-1zm279 1h3l-2 1zm-187 0h1v1h-1zm7 0h1v1h-1zm172 0h1v1h-1zm-474 1h1v1h-1zm300 0h1v1h-1zm-97 1h1v1h-1zm94 0h1v1h-1zm4 2v-2l2 2zm179-2h1v1h-1zm-162 2h1v1h-1zm-154 1h1v1h-1zm9 0h1v1h-1zm22 0h1v1h-1zm116 0h1v1h-1zm-148 1h1v1h-1zm5 1h1v1h-1zm150 0h1v1h-1zm-318 2h1v1h-1zm148 0h1v1h-1zm-149 1h1v1h-1zm-3 1h1v1h-1zm337 0h1v1h-1zm110 0h1v1h-1zm-446 1h1v1h-1zm152 1h1v1h-1zm287 0h1v1h-1zm7 0h1v1h-1zm2 0h1v1h-1zm-405 1l4 3-4 1zm108 0h1v1h-1zm172 0h1v1h-1zm-176 1h1v1h-1zm-138 1h1v1h-1zm380 0h1v1h-1zm57 0h1v1h-1zm-1 1h1v1h-1zm-103 1h1v1h-1zm-333 4l2-2-1 2zm140-1h1v1h-1zm200 0h1v1h-1zm-339 1h1v1h-1zm136 0h1v1h-1zm4 0h1v1h-1zm-128 1h1v1h-1zm323 0h1v1h-1zm10 0h1v1h-1zm-337 1h1v1h-1zm380 0h1v1h-1zm12 0h1v1h-1zm1 1h1v1h-1zm-278 1h1v1h-1zm228 0h1v1h-1zm37 0h1v1h-1zm-270 1h1v1h-1zm235 0h1v1h-1zm36 3l-2-1 2-2h2l4 9-2-1v3l-3-2v-1l-4-1v-1zm34-3h1v1h-1zm6 0h1v1h-1zm-75 2h1v1h-1zm28 0h1v1h-1zm-269 1h1v1h-1zm268 0h1v1h-1zm3 0h1v1h-1zm-350 1h1v1h-1zm321 0h1v1h-1zm28 0h1v1h-1zm22 0h1v1h-1zm-375 5l5-4 1 2-4 2h-1zm12-4h1v1h-1zm62 0h1v1h-1zm256 0h1v1h-1zm-322 1h1v1h-1zm347 0h1v1h-1zm36 0h1v1h-1zm-383 1v2l-2-2zm10 0h1v1h-1zm32 0h1v1h-1zm10 0h1v1h-1zm9 0h1v1h-1zm-97 1h1v1h-1zm3 4l-1-3 8-1-1 7-3-5-2 2zm35-4h5l1 3zm7 0h1v1h-1zm342 0h1v1h-1zm-394 4l4-3-1 3 4 1-3 2-4-2h2zm5-3h1v1h-1zm23 2l7-2h1 1l1 3-6 2v-1-1zm46-2h1v1h-1zm9 0h1v1h-1zm8 0h1v1h-1zm-93 1h1v1h-1zm9 0h1v1h-1zm38 0h1v1h-1zm-7 1h1v1h-1zm25 0h1v1h-1zm-64 1h1v1h-1zm10 0h1v1h-1zm2 0h1v1h-1zm7 0h1v1h-1zm13 0h1v1h-1zm17 0h1v1h-1zm336 0h1v1h-1zm-400 1h1v1h-1zm2 1h1v1h-1zm416 0h1v1h-1zm3 0h1v1h-1zm-401 1h1v1h-1zm37 0h1v1h-1zm6 0h1v1h-1zm357 0h1v1h-1zm-398 1h1v1h-1zm401 0h1v1h-1zm2 0h1v1h-1zm-409 1h1v1h-1zm382 0h1v1h-1zm-362 3l2-2h4l-3 1v4zm366-2h1v1h-1zm5 0h1v1h-1zm2 2l1-2v2zm-8-1h1v1h-1zm10 0h1v1h-1zm-391 1h1v1h-1zm388 0h1v1h-1zm2 0h1v1h-1zm18 0h1v1h-1zm-388 2h1v1h-1zm372 1h1v1h-1zm2 0h1v1h-1zm-419 1h1v1h-1zm423 0h1v1h-1zm2 0h1v1h-1zm-1 3l4-1v3l-3-1zm17 0h1v1h-1zm-5 1h1v1h-1zm-6 1h1v1h-1zm-2 1h1v1h-1zm5 1h1v1h-1zm-425 4l2-2 3 2-1 2zm432-2h1v1h-1zm17 2h1v1h-1zm-449 2h1v1h-1zm440 2h1v1h-1zm15 0h1v1h-1zm4 0h1v1h-1z"/>
		<path id="Path 2" fill-rule="evenodd" class="s0" d="m621 29h1v1h-1zm-110 28l3-4 4 2-1-8 5 5-1 3 4 1 1-3 3 4 3-2 2 2-1 3-4-1 4 7-1 2 1-2h1l2-4-1-7 5 1-2 5 5 1-1-4v-3l2 2v-3l3 1v1l3 1h1l2 1-2-1-1-4 3-2v3l4-2 1 2v1 1l1-1 1-2 1-3 5 2v8h-1v1l1-1 4 3v-3l2-3 1 7-2 2 2-1-1 4-6 1 6 2-2 2 2 2-1 1 1-1 3-3-3-1v-3l7 3-1-5 5-3-3-3 2-3 2 3 1 1h1l6-1 1 4 6-3-2 5 3 3-4 1 5 2 2 3 4-1 1 1 2 2v1l1 2v1l-5 1 1-2-1-2 1 2h-3l1 2v1l4 2v2l-2 2 2-1v5l-2-1-2 1 2 4-3 3 4-1h1l2-1 1 1h1l2-2-2-3 6-2 3-3 1-3 3 2-1-4 7 2 2-4 2 2 3 2 1-2h1l2-2v4l-2 1v1 1l1 6-3 3v1l-6 4 7-1 2 2 2 4h-2l-1 3-1-1 1 1-1 4h3l2 2 4-4 4 5-2 4h-1l-2 1h2v3h-4v1l8 4-1 1h1l2 6-3 2 7 47-1 47-11 65-12 14-19 7-15-2-16-12-7-13-1-15 10-58-1-37 9-4 3-5 2-3-2-2v-1 1l-4-2-1-2-4-2-4 5-7-2 5-3-3-8 5-1 1-2-4-1h4l1-3-4-2-2 1v-3h-4l2-2h-3l-1-1 1 1 1 2v1l-2 2-2-6-2 3h1v2l-2 1-3-4 2-5h3l-2-4h3v-3l2 3-2 5 4 1 3-3 1-7-6-4 5-2v-5l1-1h-1-1l-4 2-3-5v3l-5-1-2-4-1-4-1 4-2 2 2 1v1l-6 2h-1l-2-6 4 1-1-2 4-2v-1l-1-2 4-1-3-3 5-1-3-2-1-7-3 6-2 1h-1-3v4l5-2-2 3 3 2-10-1 1-3-2 2v1l-1 2v1h-2v3l-1 8h-4l-2-2 1 3v2h-1-5l1 3-3 2-6-5v-1h4l-4-1h-1l-1 1v1l1 1-1 3 4 1-7 3-1-1h-1l-2-1-4 1 1-6v-1-1l-3-1 1-5 1-1h1v-2l-1 2-1 1-2-3v-1-4h-3v-1 1 1 1 3 1l-2 2 2 1v1l-1 5 3-1v2l-1 2-5 1 2 2h-3v3l-5-1-1 12-5-4 2-1-2-2-5 3v-1l-2 1h2l-3 6-3-1-7 6v-7l-7 3-3 4h-2l1-2-2 2-3 5-1 8-4-1-5 7-22 16-29 32-2-1-1-1v1h1l2 5-5 1v1l1 1-4 4h-1-2l-1 4 5 3-1 3-10-3-2-7-8 2 3 1 2-1 3 8 2-3 1 6v1h1l2 2 2 6-2-2-2 3-3-1-3-2-1-1v-4l-4-2v-1l1-2v-1l-2-1-7-5-2 4 3 3-4 2h-1v1l-3 3h-1l-5-5v3l-4-1v3h6l-3 2 4 4 7-1-4 2v3h3l-2 2h-3v-1l1-3-5 1v-3l-2 2v1 1l-3-2v3 1-1l4 1v3l-2 1 2 1 1 5 4 1-3 7-17 23-2-5-2 2-1-3-3 6 2 3-2 4-2 5-3-2-1-2-2-3-5 1 2 2v1l-1 1-2 1-3-8-5 1h-1 1v4l-2 1h2v1l2 1 2 1-3 2h-1l-2 3 2 1v3l-6 2v-1-1h-1l-2-4 1-2v-1 1l-1 2-5 4-4-3v4h-7l3 4-4 1 1 7-3-2 3 5-2-1 1 3 1 3v-3l4 9h-1l-2 4 2 4-1 2-2-2v3l-2-1v6 1l-6 3 2 4-1 2h2l-2 4 2 3-2 1h-1l-2 6 3 2h1l3 1-1 3-3 3v-3l-4-4 1 7h3v4l-3 3 2 1-2 3 5-2-1 3-2 7h-4v1l4-1-2 11h-1-1-1l-1-2v-2h1l1 1-1-1v-1l-1 1v2 3l-13 32-15 13-9 3-18-1-16-9-2-4 2-3-2-1 2-2-1-3h-5v3h-3l-2-2-4 2v-3l-2-2 7 2 2-3v-21l21-52 47-88 34-49-1-5v-4-2l5-2 7 3 4-5 3 3 1-3h1v3l2-1 2-1 3 1v-3h1-1l-2 1-1-1-2-1 1-2h1l-1-1-1-3h1l1 1 1 1-1-1-1-1v-3l2 2h1l4 4v-3l-2-2 2-5-3-2-2 2 2-4-2-3h4l5 2h1 1 1-1v-2l-1 2h-1l-1-5-5-1-3-5 1-3 5-2-2 2 5 1 1 5 13 2-2 2h5l-3-6-2-1-2 1v-4l3-2 1 2v-3l2-5 4 1-6-6 41-42 27-23 47-32 8-2 1-10 3 1v5l5-2 1 2 1-3v6l3 1-2 4 4-1 4-1h-3l4-2-1-3 1-3 1 2 2 3 1 2v-2l2-2-3-3 5 1-1-6 4-3 3 1 2-3 3 6 1-2 4-3 2 3 1-3h-3l4-4 2 2v1l-2 4h6v-5l3 1 1-4zm25-10h1v1h-1zm2 2h1v1h-1zm15 0h1v1h-1zm7 0h1v1h-1zm-307 3l47 3 58 23 14 18 2 18-4 12-11 12-16 7-16-1-36-17-32-2-12 4-9 8-9 15-7 50-7 16-8 8-13 5h-17l-12-5-8-7-6-11v-38l7-32 13-30 12-18 21-19 24-13zm226 0h1v1h-1zm44 0h1v1h-1zm19 0h1v1h-1zm7 0h1v1h-1zm10 0h1v1h-1zm10 0h1v1h-1zm16 0h1v1h-1zm-90 1h1v1h-1zm51 0h1v1h-1zm40 0h1v1h-1zm-105 1h1v1h-1zm52 0h1v1h-1zm14 0h1v1h-1zm11 0h1v1h-1zm-78 1h1v1h-1zm25 0h1v1h-1zm77 2l2-2v2zm3 0l2-2 1 2-2 5h-1l-1-1 1-3zm5-2h1v1h-1zm3 0h1v1h-1zm-94 1h1v1h-1zm5 2l1-2 1 1v1zm2-1v-1l2 1zm-9 2l3-2 1 4h-3zm5-2h1v1h-1zm79 0h1v1h-1zm3 0h1v1h-1zm-88 1h1v1h-1zm7 0h1v1h-1zm6 0h1v1h-1zm32 0h1v1h-1zm33 0h1v1h-1zm24 0h1v1h-1zm-29 1h1v1h-1zm7 0h1v1h-1zm-68 1h1v1h-1zm67 0h1v1h-1zm17 0h1v1h-1zm-103 1h1v1h-1zm110 0h1v1h-1zm-102 3h1v1h-1zm76 0h1v1h-1zm2 4h1v1h-1zm-95 1h1v1h-1zm-2 1h1v1h-1zm-6 1h1v1h-1zm1 1h1v1h-1zm6 0h1v1h-1zm134 0h1v1h-1zm-133 1h1v1h-1zm128 0h1v1h-1zm2 0h1v1h-1zm5 0h1v1h-1zm50 0h1v1h-1zm-189 1h1v1h-1zm5 2v-2l1 2zm126-2h1v1h-1zm4 0h1v1h-1zm3 0h1v1h-1zm2 0h1v1h-1zm-142 1h1v1h-1zm134 0h1v1h-1zm-137 2l2-1v4zm139 1h1v1h-1zm2 2h1v1h-1zm-1 1h1v1h-1zm30 0h1v1h-1zm-11 1h1v1h-1zm-25 1h1v1h-1zm22 0h1v1h-1zm-18 3l4-2-2 5h-2v-1zm31-2h1v1h-1zm-10 1h1v1h-1zm-8 1h1v1h-1zm-11 3h1v1h-1zm30 1v-1l3 1zm4 1h1v1h-1zm-36 5h1v1h-1zm2 2h1v1h-1zm1 1h1v1h-1zm-50 5l-2-4 3 2zm77-4h1v1h-1zm1 2h1v1h-1zm4 4h1v1h-1zm-83 4l-1-2h1zm-13 0h1v1h-1zm2 0h1v1h-1zm11 0h1v1h-1zm-3 1h1v1h-1zm-50 3l2-1v1zm38-2h1v1h-1zm109 0h1v1h-1zm-148 2h1v1h-1zm148 0h1v1h-1zm-1 1h1v1h-1zm-1 1h1v1h-1zm-99 1h1v1h-1zm10 0h1v1h-1zm-57 2l2-1 1 2zm46-1h1v1h-1zm14 0h1v1h-1zm86 0h1v1h-1zm2 0h1v1h-1zm-75 1h1v1h-1zm74 0h1v1h-1zm-95 3h-3l-1 4 2-6h1zm10 2h-3l1-4zm0-4h1v1h-1zm-44 2h1v1h-1zm20 0h1v1h-1zm14 0h1v1h-1zm12 0h1v1h-1zm7 0h1v1h-1zm-54 1h1v1h-1zm126 0h1v1h-1zm-125 1h1v1h-1zm13 0h1v1h-1zm2 0h1v1h-1zm-30 2l3-1-1 2zm26-1h1v1h-1zm3 0h1v1h-1zm21 0h1v1h-1zm14 0h1v1h-1zm1 1h1v1h-1zm-63 1h1v1h-1zm23 0h1v1h-1zm-29 1h1v1h-1zm24 1h1v1h-1zm41 0h1v1h-1zm3 1h1v1h-1zm-62 1h1v1h-1zm7 0h1v1h-1zm1 1h1v1h-1zm6 0h1v1h-1zm43 0h1v1h-1zm85 0h1v1h-1zm-133 1h1v1h-1zm2 0h1v1h-1zm-22 1h1v1h-1zm17 2l-3 1v-3l4 1zm0 0l1-1 4 2-1 3zm60-1h1v1h-1zm-77 1h1v1h-1zm66 1h1v1h-1zm11 0h1v1h-1zm-52 1h1v1h-1zm-36 2h1v1h-1zm-1 1h1v1h-1zm-3 2h1v1h-1zm87 1h1v1h-1zm-107 3h1v1h-1zm105 1l2-1v3zm-111 3h1v1h-1zm121 1h1v1h-1zm-119 6h1v1h-1zm-2 1h1v1h-1zm40 1h1v1h-1zm7 0h1v1h-1zm88 9l-1-3 1 2zm0 0h1v1h-1zm-4 1h1v1h-1zm-7 3h1v1h-1zm-251 9h1v1h-1zm-1 1h1v1h-1zm-1 2h1v1h-1zm2 0h1v1h-1zm-22 1h1v1h-1zm0 3h1v1h-1zm13 0h1v1h-1zm2 4h1v1h-1zm-20 1h1v1h-1zm25 0h1v1h-1zm-22 2l-2 6-4-4 1-3 2 2 1-2zm0-1h1v1h-1zm24 0h1v1h-1zm-22 1h1v1h-1zm23 0h1v1h-1zm-29 7h1v1h-1zm-4 2h1v1h-1zm1 2h1v1h-1zm10 2h1v1h-1zm-6 4h1v1h-1zm5 0h1v1h-1zm-4 1h1v1h-1zm1 4h1v1h-1zm-1 3h1v1h-1zm-7 1h1v1h-1zm4 0h1v1h-1zm2 0h1v1h-1zm4 1l-2-1h2zm0 0h1v1h-1zm81 0h1v1h-1zm1 2v-1l2 1zm-107 4h-2l2-2zm102 0h1v1h-1zm-26 12l4-4 1 2-1 2 2 1-2 2-4-2zm25-1h1v1h-1zm-28 2v-1h3v1zm21-1h1v1h-1zm-22 1h1v1h-1zm11 0h1v1h-1zm12 0h1v1h-1zm-15 2h1v1h-1zm3 0h1v1h-1zm14 0h1v1h-1zm-29 1h1v1h-1zm10 0h1v1h-1zm6 0h1v1h-1zm-20 2h1v1h-1zm10 1h1v1h-1zm13 0h1v1h-1zm-14 1h1v1h-1zm4 0h1v1h-1zm9 2v-2h1 1 1zm-11 2l1-2 2 2-1 2h-1zm10-2h1v1h-1zm5 1l2-1v3zm-1 0h1v1h-1zm8 0h1v1h-1zm-24 5l-1-4h3l1 2zm-11-3h1v1h-1zm-1 1h1v1h-1zm-189 1h1v1h-1zm190 0h1v1h-1zm193 0h1v1h-1zm-182 3l-3-2h3zm2-2h1v1h-1zm179 0h1v1h-1zm-180 1h1v1h-1zm-211 1h1v1h-1zm199 1l2-1h1l2 1-1 2h-4zm11-1h1v1h-1zm-221 2h1v1h-1zm2 0h1v1h-1zm219 0h1v1h-1zm-217 1h1v1h-1zm212 0v3l-2-3zm189 0h1v1h-1zm-181 4h-5l-1-3h2 1zm-1-3h1v1h-1zm-228 1h1v1h-1zm232 0h1v1h-1zm-233 1h1v1h-1zm5 0h1v1h-1zm218 0h1v1h-1zm13 0h1v1h-1zm174 0h1v1h-1zm-180 1h1v1h-1zm-230 1h1v1h-1zm2 0h1v1h-1zm7 0h1v1h-1zm222 0h1v1h-1zm-235 1h1v1h-1zm232 0h1v1h-1zm1 1h1v1h-1zm-236 1h1v1h-1zm424 0h1v1h-1zm-430 1h1v1h-1zm1 2h1v1h-1zm2 1h1v1h-1zm424 0h1v1h-1zm201 1h1v1h-1zm10 3l-1-3 4 1-1 4zm4-2h1v1h-1zm-9 1h1v1h-1zm4 1h1v1h-1zm-650 4l2-3 1 3zm6-3h1v1h-1zm359 0h1v1h-1zm-370 1h1v1h-1zm367 0h1v1h-1zm86 0h1v1h-1zm-451 1h1v1h-1zm-3 5l-1-4 3 1zm641-4h1v1h-1zm17 0h1v1h-1zm-661 1h1v1h-1zm459 0h1v1h-1zm-463 1h1v1h-1zm11 0h1v1h-1zm366 0h1v1h-1zm87 1h1v1h-1zm-455 1h1v1h-1zm383 2h1v1h-1zm8 0h1v1h-1zm-412 1h1v1h-1zm2 0h1v1h-1zm3 0h1v1h-1zm400 0h1v1h-1zm-408 2h1v1h-1zm405 0h1v1h-1zm6 0h1v1h-1zm-7 1h1v1h-1zm246 1h1v1h-1zm-652 1h1v1h-1zm3 1h1v1h-1zm-11 2h1v1h-1zm262 0h1v1h-1zm156 0h1v1h-1zm6 0h1v1h-1zm-423 1h1v1h-1zm1 1h1v1h-1zm258 0h1v1h-1zm161 0h1v1h-1zm-424 2h1v1h-1zm432 0h1v1h-1zm278 0h1v1h-1zm-277 1h1v1h-1zm72 0h1v1h-1zm-265 1h1v1h-1zm-2 3h1v1h-1zm16 2h-2l2-2zm179-2h1v1h-1zm-185 2l1-1 1 2zm186-1h1v1h-1zm-434 1h1v1h-1zm2 0h1v1h-1zm252 0h1v1h-1zm-259 1h1v1h-1zm2 0h1v1h-1zm2 0h1v1h-1zm707 0h1v1h-1zm-710 1h1v1h-1zm451 1h1v1h-1zm-453 1h1v1h-1zm244 0h1v1h-1zm465 0h1v1h-1zm-710 2h1v1h-1zm-5 1h1v1h-1zm250 0h1v1h-1zm-239 1h1v1h-1zm678 0h1v1h-1zm19 0h1v1h-1zm-701 1h1v1h-1zm247 0h1v1h-1zm468 0h1v1h-1zm-471 1h1v1h-1zm-8 1h1v1h-1zm-243 1h1v1h-1zm250 0h1v1h-1zm-20 1h1v1h-1zm13 0h1v1h-1zm7 1l-2 1 2-2zm437-1h1v1h-1zm-459 3l2-2-1 2zm460-2h1v1h-1zm-456 1h1v1h-1zm-3 1h1v1h-1zm4 0h1v1h-1zm228 0h1v1h-1zm-462 2h1v1h-1zm468 0h1v1h-1zm230 0h1v1h-1zm-234 1h1v1h-1zm-233 1h1v1h-1zm491 4l1-4 4 3zm-732-3h1v1h-1zm6 0h1v1h-1zm-7 1h1v1h-1zm2 0h1v1h-1zm3 0h1v1h-1zm236 0h1v1h-1zm255 0h1v1h-1zm242 0h1v1h-1zm-266 1h1v1h-1zm2 1h1v1h-1zm258 0h1v1h-1zm-254 1h1v1h-1zm21 0h1v1h-1zm-16 1h1v1h-1zm15 0h1v1h-1zm234 8l-3-2 2-6zm2-8h1v1h-1zm-497 1h1v1h-1zm240 0h1v1h-1zm22 0h1v1h-1zm-77 1h1v1h-1zm78 1h1v1h-1zm-182 123l-7-6 3-10-4-3-10-25-1-21 4-16 9-17 11-11 16-9 18-4-2 9 3 3 3-3 8 2 5-3 1-8 14 4 13 8 4-8h3l4 1 1 2v-2l2 1 8 1-1 2-2-2-1 2 2 2-3 1 1 4-1 1h-1v1l1-1 1-1 2-1v3l-4 11 8 12 4 17-3 28-20 29-24 12 1-9-2 2-4-2-2 3-1-2h-9l-6 11-20-4-9-6h-3l-3 8-6-6zm104-121h1v1h-1zm-427 1h1v1h-1zm1 1h1v1h-1zm114 0h1v1h-1zm6 0h1v1h-1zm293 0h1v1h-1zm-305 1h1v1h-1zm136 0h1v1h-1zm173 0h1v1h-1zm315 0h1v1h-1zm4 0h1v1h-1zm-634 1h1v1h-1zm10 1h1v1h-1zm-114 2h1v1h-1zm115 0h1v1h-1zm133 0v3l-1-3zm125 0h1v1h-1zm56 1h1v1h-1zm311 3l-2-3 2 1zm-366-2h1v1h-1zm55 1h1v1h-1zm-425 2h1v1h-1zm99 0h1v1h-1zm634 1h1v1h-1zm-637 2h1v1h-1zm146 1h1v1h-1zm185 0h1v1h-1zm309 1h1v1h-1zm-753 1h1v1h-1zm256 0h1v1h-1zm186 1h1v1h-1zm311 0h1v1h-1zm-497 1h1v1h-1zm422 2h1v1h-1zm-424 1h1v1h-1zm426 0h1v1h-1zm-1 1h1v1h-1zm-583 1h1v1h-1zm159 0h1v1h-1zm-2 2l2 3-2 1zm2 0h1v1h-1zm502 1h1v1h-1zm-232 1h1v1h-1zm-437 1h1v1h-1zm162 0h1v1h-1zm-161 1h1v1h-1zm-3 1h1v1h-1zm165 0h1v1h-1zm-167 1h1v1h-1zm-3 1h1v1h-1zm172 0h1v1h-1zm3 0h1v1h-1zm-181 3h1v1h-1zm447 2h1v1h-1zm-273 2h1v1h-1zm274 0h1v1h-1zm-268 1h1v1h-1zm-191 2h1v1h-1zm15 0h1v1h-1zm171 2l4-2-1 3zm276-2h1v1h-1zm-445 2h1v1h-1zm168 3l1-3v3zm431-3h1v1h-1zm1 2h1v1h-1zm-427 3h1v1h-1zm-167 2h1v1h-1zm-8 2h1v1h-1zm174 5l1-5v5zm3-5h1v1h-1zm-5 1h1v1h-1zm-173 1h1v1h-1zm172 0h1v1h-1zm274 0h1v1h-1zm-441 1h1v1h-1zm2 0h1v1h-1zm163 6l5-4-1 3-1 1zm1-4h1v1h-1zm5 0h1v1h-1zm2 1h1v1h-1zm-1 1h1v1h-1zm-179 1h1v1h-1zm176 0h1v1h-1zm-1 1h1v1h-1zm2 0h1v1h-1zm-186 1h1v1h-1zm-2 1h1v1h-1zm11 0h1v1h-1zm174 2h1v1h-1zm-185 2h1v1h-1zm189 2h1v1h-1zm-171 1h1v1h-1zm170 0h1v1h-1zm-173 5h1v1h-1zm-81 1h1v1h-1zm64 0h1v1h-1zm15 0h1v1h-1zm-69 2h1v1h-1zm-3 4h1v1h-1zm238 1h1v1h-1zm2 0h1v1h-1zm-3 1h1v1h-1zm-153 7h1v1h-1zm-7 6h1v1h-1zm610 1h1v1h-1zm0 2h1v1h-1zm-3 5h1v1h-1zm-599 4h1v1h-1zm-84 2h1v1h-1zm155 3v-2l4 6-3 3-1-6zm-84-1h1v1h-1zm-71 1h1v1h-1zm15 0h1v1h-1zm139 0h1v1h-1zm-141 1h1v1h-1zm-1 2h1v1h-1zm318 1h1v1h-1zm-324 1h1v1h-1zm12 0h1v1h-1zm-14 1h1v1h-1zm15 0h1v1h-1zm80 0h1v1h-1zm4 0h1v1h-1zm-96 2h1v1h-1zm13 0h1v1h-1zm85 0h1v1h-1zm3 0h1v1h-1zm1 1h1v1h-1zm285 0h1v1h-1zm359 0h1v1h-1zm-641 1h1v1h-1zm-90 1h1v1h-1zm88 0h1v1h-1zm-2 1h1v1h-1zm4 0h1v1h-1zm-91 1h1v1h-1zm86 0h1v1h-1zm4 0h1v1h-1zm-1 1h1v1h-1zm641 1h1v1h-1zm-631 1h1v1h-1zm3 0h1v1h-1zm-117 4h1v1h-1zm294 1h1v1h-1zm-295 2h1v1h-1zm-3 3h1v1h-1zm743 3h1v1h-1zm-3 5h1v1h-1zm-4 1h1v1h-1zm-700 1h1v1h-1zm4 0h1v1h-1zm5 0h1v1h-1zm692 0h1v1h-1zm-694 1h1v1h-1zm5 0h1v1h-1zm-7 2h1v1h-1zm-2 1h1v1h-1zm581 0h1v1h-1zm-446 5h1v1h-1zm313 0h1v1h-1zm234 0h1v1h-1zm-542 1h1v1h-1zm541 0h1v1h-1zm-241 1h1v1h-1zm-429 1h1v1h-1zm428 0h1v1h-1zm-437 2h1v1h-1zm185 0h1v1h-1zm267 0h1v1h-1zm-319 1h1v1h-1zm40 2l3-2v3zm250-2h1v1h-1zm27 0h1v1h-1zm5 0h1v1h-1zm227 0h1v1h-1zm-219 1h1v1h-1zm-468 1h1v1h-1zm139 0h1v1h-1zm289 0h1v1h-1zm2 0h1v1h-1zm2 0h1v1h-1zm5 1h1v1h-1zm247 2h1v1h-1zm-3 2h1v1h-1zm-94 1h1v1h-1zm-140 1h1v1h-1zm234 1h1v1h-1zm-290 1h1v1h-1zm58 0h1v1h-1zm140 0h1v1h-1zm-141 1h1v1h-1zm-58 1h1v1h-1zm86 1h1v1h-1zm-222 1h1v1h-1zm141 0h1v1h-1zm-134 2h1v1h-1zm-244 1h1v1h-1zm463 0h1v1h-1zm-214 1h1v1h-1zm3 1h1v1h-1zm42 0h1v1h-1zm2 0h1v1h-1zm11 4l4-4v6h-5zm6-4h1v1h-1zm100 0h1v1h-1zm-159 1h1v1h-1zm3 0h1v1h-1zm40 0h1v1h-1zm8 0h1v1h-1zm-52 1h1v1h-1zm60 0h1v1h-1zm99 0h1v1h-1zm-97 1h1v1h-1zm65 0h1v1h-1zm86 1h1v1h-1zm-145 1h1v1h-1zm60 0h1v1h-1zm29 0h1v1h-1zm66 0h1v1h-1zm-171 1h1v1h-1zm67 0h1v1h-1zm8 0h1v1h-1zm86 0h1v1h-1zm-478 1h1v1h-1zm386 0h1v1h-1zm-43 1h1v1h-1zm332 0h1v1h-1zm2 0h1v1h-1zm-659 1h1v1h-1zm260 0h1v1h-1zm110 0h1v1h-1zm4 0h1v1h-1zm-67 1h1v1h-1zm294 0h1v1h-1zm-295 1h1v1h-1zm2 0h1v1h-1zm19 0h1v1h-1zm147 0h1v1h-1zm185 0h1v1h-1zm-391 1h1v1h-1zm57 0h1v1h-1zm43 0h1v1h-1zm-61 1h1v1h-1zm16 0h1v1h-1zm9 0h1v1h-1zm2 0h1v1h-1zm125 0h1v1h-1zm2 0h1v1h-1zm-87 1h1v1h-1zm-385 1h1v1h-1zm-1 1h1v1h-1zm485 0h1v1h-1zm-96 1h1v1h-1zm94 0h1v1h-1zm-191 1h1v1h-1zm100 0h1v1h-1zm-98 1h1v1h-1zm29 2h1v1h-1zm61 0h1v1h-1zm-79 1h1v1h-1zm29 1h1v1h-1zm31 0h1v1h-1zm-55 1h1v1h-1zm23 0h1v1h-1zm2 0h1v1h-1zm338 0h1v1h-1zm-299 1h1v1h-1zm6 0h1v1h-1zm104 2h1v1h-1zm-151 1h1v1h-1zm340 10v5l-3-10 4 5zm-77-4h1v1h-1zm78 4h1v1h-1zm-69 2h1v1h-1zm79 0h1v1h-1zm-85 5h1v1h-1zm9 5h1v1h-1zm-132 1h1v1h-1zm122 0h1v1h-1zm-7 1h1v1h-1zm-115 1h1v1h-1zm3 0h1v1h-1zm128 2h1v1h-1zm-134 1h1v1h-1zm122 1h1v1h-1zm-130 1h1v1h-1zm2 1h1v1h-1zm126 0h1v1h-1zm3 0h1v1h-1zm-126 1h1v1h-1zm115 0h1v1h-1zm-137 4h1v1h-1zm138 1h1v1h-1zm-152 1h1v1h-1zm-34 1h1v1h-1zm3 0h1v1h-1zm-1 1h1v1h-1zm-22 3h1v1h-1zm202 2h1v1h-1zm-1 1h1v1h-1zm21 0h1v1h-1zm-1 2h1v1h-1zm-519 2h1v1h-1zm504 0h1v1h-1zm-1 1h1v1h-1zm-1 5h1v1h-1zm5 2h1v1h-1zm-513 6h1v1h-1zm513 0h1v1h-1zm-512 1h1v1h-1zm502 1h1v1h-1zm-503 1h1v1h-1zm0 2h1v1h-1zm0 2h1v1h-1zm2 11h1v1h-1zm500 0h1v1h-1zm-1 1h1v1h-1zm2 5h1v1h-1zm-4 2h1v1h-1zm4 5h1v1h-1zm-2 1h1v1h-1zm1 1h1v1h-1zm1 2h1v1h-1zm-504 1h1v1h-1zm2 1h1v1h-1zm-1 2h1v1h-1zm502 0h1v1h-1zm-504 2h1v1h-1zm1 2h1v1h-1zm504 0h1v1h-1zm-332 1h1v1h-1zm41 9h1v1h-1zm290 0h1v1h-1zm-499 2h1v1h-1zm498 3h1v1h-1zm-278 2h1v1h-1zm3 0h1v1h-1zm3 1h1v1h-1zm4 1h1v1h-1zm1 2h1v1h-1zm-7 2h1v1h-1zm255 2h1v1h-1zm-233 2h1v1h-1zm-17 2h1v1h-1zm256 0h1v1h-1zm-235 1h1v1h-1zm236 0h1v1h-1zm13 2h1v1h-1zm-21 2h1v1h-1zm-231 2h1v1h-1zm3 0h1v1h-1zm237 0h1v1h-1zm-239 1h1v1h-1zm255 0h1v1h-1zm-279 1h1v1h-1zm25 0h1v1h-1zm227 1h1v1h-1zm23 0h1v1h-1zm-24 1h1v1h-1zm2 0h1v1h-1zm2 0h1v1h-1zm-5 1h1v1h-1zm4 0h1v1h-1zm-1 1h1v1h-1zm23 0h1v1h-1zm-19 1h1v1h-1zm20 0h1v1h-1zm-27 2h1v1h-1zm13 1h1v1h-1zm-14 1h1v1h-1zm-2 1h1v1h-1zm3 7h1v1h-1zm14 0h1v1h-1zm9 0h1v1h-1zm-190 1h1v1h-1zm196 0h1v1h-1zm-307 1h1v1h-1zm23 0h1v1h-1zm277 0h1v1h-1zm-278 1h1v1h-1zm94 0h1v1h-1zm158 0h1v1h-1zm26 2h1v1h-1zm-178 4h1v1h-1zm7 0h1v1h-1zm-318 1h1v1h-1zm316 0h1v1h-1zm138 0h1v1h-1zm-453 1h1v1h-1zm316 3l-1-2 2 1zm138-2h1v1h-1zm-138 2l1-1 1 3zm139-1h1v1h-1zm41 0h1v1h-1zm-324 1h1v1h-1zm279 2h1v1h-1zm-284 1h1v1h-1zm314 0h1v1h-1zm-471 1h1v1h-1zm478 1h1v1h-1zm-35 2h1v1h-1zm30 0h1v1h-1zm-139 1h1v1h-1zm140 0h1v1h-1zm-334 1h1v1h-1zm4 0h1v1h-1zm180 0h1v1h-1zm25 1h1v1h-1zm-21 1h1v1h-1zm-1 1h1v1h-1zm-334 1h1v1h-1zm-2 1h1v1h-1zm490 0h1v1h-1zm-6 1h1v1h-1zm-82 1h1v1h-1zm81 0h1v1h-1zm-119 1h1v1h-1zm-237 1h1v1h-1zm289 0h1v1h-1zm2 0h1v1h-1zm-301 1h1v1h-1zm239 0h1v1h-1zm11 0h1v1h-1zm32 0h1v1h-1zm26 0h1v1h-1zm10 0h1v1h-1zm-446 1h1v1h-1zm124 0h1v1h-1zm326 0h1v1h-1zm42 0h1v1h-1zm-498 1h1v1h-1zm61 0h1v1h-1zm59 0h1v1h-1zm9 0h1v1h-1zm291 0h1v1h-1zm37 0h1v1h-1zm-461 1h1v1h-1zm3 0h1v1h-1zm3 0h1v1h-1zm58 0h1v1h-1zm394 0h1v1h-1zm5 2v3l-3-1 1-4h1zm39-2h1v1h-1zm-506 1h1v1h-1zm3 0h1v1h-1zm121 0h1v1h-1zm270 0h1v1h-1zm68 1h1v1h-1zm-397 1h1v1h-1zm36 0h1v1h-1zm2 0h1v1h-1zm368 0l1 2h-3zm-70 1h1v1h-1zm1 1h1v1h-1zm-396 6l-2-4 5-1 1 4-3 1zm75-5h1v1h-1zm13 0h1v1h-1zm4 0h1v1h-1zm371 0h1v1h-1zm-467 1h1v1h-1zm88 0h1v1h-1zm-43 1h1v1h-1zm6 0h1v1h-1zm398 0h1v1h-1zm-470 1h1v1h-1zm69 0h1v1h-1zm32 0h1v1h-1zm331 0h1v1h-1zm-376 1h1v1h-1zm-62 5l2-1-1 3 3 1 3-2-1-5 4 1-2 5 3 5-2 6-3-3 1-1h-1l-3-3 2-1-6-2-2-5zm3-4h1v1h-1zm28 0h1v1h-1zm32 0h1v1h-1zm33 0h1v1h-1zm-63 1h1v1h-1zm62 0h1v1h-1zm8 0l1 4-4-2zm3 3v-3h5v3zm19-3l4 1-2 2-4-1zm-93 1h1v1h-1zm66 0h1v1h-1zm537 1l5 2 1 7-4 5-3-1 1-12zm-553 0h1v1h-1zm14 0h1v1h-1zm538 0h1v1h-1zm-649 1h1v1h-1zm78 0h1v1h-1zm28 0h1v1h-1zm14 0h1v1h-1zm16 0h1v1h-1zm327 0h1v1h-1zm-462 2h1v1h-1zm66 0h1v1h-1zm14 0h1v1h-1zm26 0h1v1h-1zm364 0h1v1h-1zm-467 3l-2-2 2 1zm0-2h1v1h-1zm79 0h1v1h-1zm393 0h1v1h-1zm-429 3l-2 2-1-4 8 1-4 1zm5-2h1v1h-1zm14 0h1v1h-1zm4 0l5 1v3l-6 1zm11 0h1v1h-1zm-77 3v-2l3 3zm50-2h1v1h-1zm3 0h1v1h-1zm11 0h1v1h-1zm27 0h1v1h-1zm-82 1h1v1h-1zm34 0h1v1h-1zm10 0l-2 3-1-3h1zm3 0h1v1h-1zm-57 1h1v1h-1zm47 0h1v1h-1zm462 0h1v1h-1zm-473 1h1v1h-1zm19 0h1v1h-1zm24 0h1v1h-1zm2 0h1v1h-1zm429 0l4 2-5 1zm-501 1h1v1h-1zm8 0h1v1h-1zm20 0h1v1h-1zm5 0h1v1h-1zm-38 1h1v1h-1zm34 1h1v1h-1zm55 0l3 3-3 1zm4 0h1v1h-1zm2 0h1v1h-1zm-63 1h1v1h-1zm4 0h1v1h-1zm37 0h1v1h-1zm437 0h1v1h-1zm-497 1h1v1h-1zm21 0h1v1h-1zm61 0h1v1h-1zm414 0h1v1h-1zm-515 1h1v1h-1zm42 0h1v1h-1zm17 0h1v1h-1zm455 0h1v1h-1z"/>
		<path id="Path 3" fill-rule="evenodd" class="s1" d="m558 55h1v1h-1zm-53 1h1v1h-1zm77 2v-1h2l1 1-1 3zm-17 2h1v1h-1zm-61 5l-2-3h3zm67 1l2-2v1zm1 6l-6-2 6-1zm0 4l-2-2 2-2 3 1zm-91 0l-2-3h1l1 1zm126-1h1v1h-1zm-125 1v2l-1-2zm-9 4l-4 1 2-4zm132 3l-1-2h3l-1 2zm4 6l-2 1 2-2zm-49 11l3-6 1 7-1 1zm48 0l-4 1 3-3zm-50 1l2-1 2 4 3 3-4 1h-1l-3-2 2-3-5 2v-4h3zm53-2h1v1h-1zm-48 3l1-1 3 2-5 1zm-14 4l2-2-1 3zm12 4v-2l1 2zm-54 0v-1h3v4l-2 1h-1v-3zm57 4l1-4 1 4zm-56 1v-1h2l2 3-1 5-2 1-3 1 1-5 3 1-1-2h-2l-2-1 2-2zm5 1l1-2v2zm-6 3v-1h2zm33 3l-1-3 2 2zm41-3h1v1h-1zm-72 4l2-1 3 1v1l-1 1-3 1-1-1zm17 0v-1l4 1zm-1 0h1v1h-1zm125 1h-2l2-1zm-126 0h1v1h-1zm15 0h1v1h-1zm-53 16h-2l2-1zm92 5l-1-2h3zm-118 6l2-2-1 2zm125 4h1v1h-1zm-264 48l1-2v2zm-13 19v-1l2 1zm-2 1l1-1h1l2 1v1l-2 1-2 1zm5 0l2-1v3l-3-1zm80 1h1v1h-1zm-23 7l8-2 2 7-2 3-3-8-2 1zm-10 10l4-2-3-3 2-4 7 5-1 2h-1l-1-2-4 4zm9-2l1-2 2 1v1l-1 2h-1l-1 1-2-1 1-2zm-10 2h1v1h-1zm11 0h1v1h-1zm11 1h1v1h-1zm-33 11l2-2v3h-1zm-3 3v-3l3 2 1 1v1zm5-2l5-1-1 3v1h3l3 2v1 1 1l-1 1h-2l-1-1h-1-2l1-2-2-1h-1l-2 1v-3l1-1v-1zm-2 0h1v1h-1zm1 1h1v1h-1zm0 7l-2-1 2-1zm146 28h1v1h-1zm-1 1h1v1h-1zm-192 16l2-1v1zm18 1v-2l1 2zm192 5h1v1h-1zm-234 24l-1-3 2 1v1zm1 0v3l-1-3zm489 2h1v1h-1zm-312 4v2l-1-2zm4 12h1v1h-1zm-183 19v-1h2v1zm-5 6l2-1-1 1zm-3 15l-1-7 4 4v3zm-163-1h1v1h-1zm163 12l2-3h3v1zm-2 8h4l-4 1zm-182 4h1v1h-1zm180 8v-3l1 2zm1-1h1v1h-1zm-154 4h1v1h-1zm42 43h1v1h-1zm367 34h1v1h-1zm-84 43h1v1h-1zm25 1h1v1h-1zm195 169h1v1h-1zm-59 48h1v1h-1zm154 0h1v1h-1zm-578 1h1v1h-1zm5 0h1v1h-1zm10 7h1v1h-1zm-66 2h1v1h-1zm-23 6h1v1h-1z"/>
		<path id="Path 4" fill-rule="evenodd" class="s0" d="m551 99h1v1h-1zm7 2h1v1h-1zm5 0h1v1h-1zm-14 5h1v1h-1zm-42 4h1v1h-1zm1 5h1v1h-1zm32 6h1v1h-1zm-27 3h1v1h-1zm-4 1h1v1h-1zm85 23h1v1h-1zm2 3l-1-2h1zm-289 73h1v1h-1zm67 6h1v1h-1zm-5 8h1v1h-1zm-3 1h1v1h-1zm2 1h1v1h-1zm-1 1h1v1h-1zm-21 12h1v1h-1zm2 2h1v1h-1zm3 1h1v1h-1zm-2 2h1v1h-1zm3 1h1v1h-1zm5 1h1v1h-1zm-4 1h1v1h-1zm1 1h1v1h-1zm3 0h1v1h-1zm-81 74h1v1h-1zm-5 43h1v1h-1zm-8 46h1v1h-1z"/>
		<path id="Path 5" fill-rule="evenodd" class="s1" d="m563 53h1v1h-1zm-6 1h1v1h-1zm-4 1h1v1h-1zm4 1h1v1h-1zm-8 1h1v1h-1zm11 0h1v1h-1zm25 0h1v1h-1zm-32 1h1v1h-1zm-26 1h1v1h-1zm31 0h1v1h-1zm6 0h1v1h-1zm-57 1h1v1h-1zm17 0h1v1h-1zm12 1h1v1h-1zm28 0h1v1h-1zm20 0h1v1h-1zm-68 1h1v1h-1zm6 0h1v1h-1zm17 0h1v1h-1zm46 0h1v1h-1zm1 3l3-2-1 5 4 2-4 4-4-1v-3l2 1-1-5h1zm-82 0l3 1-1 6-1-5h-3v-3zm17-1h1v1h-1zm70 0h1v1h-1zm-71 1h1v1h-1zm65 0h1v1h-1zm-64 1h1v1h-1zm13 0h1v1h-1zm33 0h1v1h-1zm-70 1h1v1h-1zm11 1h1v1h-1zm75 1h1v1h-1zm9 0h1v1h-1zm-59 1h1v1h-1zm47 0h1v1h-1zm-46 1h1v1h-1zm-27 1h1v1h-1zm-21 1h1v1h-1zm20 0h1v1h-1zm70 0h1v1h-1zm2 0h1v1h-1zm2 0h1v1h-1zm-12 2h1v1h-1zm8 0h1v1h-1zm-5 1h1v1h-1zm-40 1h1v1h-1zm39 0h1v1h-1zm-93 1h1v1h-1zm7 0h1v1h-1zm3 0h1v1h-1zm118 0h1v1h-1zm4 0h1v1h-1zm-76 1h1v1h-1zm56 0h1v1h-1zm-2 1h1v1h-1zm1 1h1v1h-1zm22 0h1v1h-1zm-138 1h1v1h-1zm15 0h1v1h-1zm-13 1h1v1h-1zm115 0h1v1h-1zm15 0h1v1h-1zm-18 2h1v1h-1zm54 0h1v1h-1zm-70 1h1v1h-1zm18 0h1v1h-1zm-5 1l3 3-3 2zm4 0h1v1h-1zm53 0h1v1h-1zm-59 1h1v1h-1zm51 0h1v1h-1zm-45 1h1v1h-1zm14 0h1v1h-1zm39 0h1v1h-1zm-37 1h1v1h-1zm19 0h1v1h-1zm-68 1h1v1h-1zm12 0h1v1h-1zm-11 1h1v1h-1zm52 0h1v1h-1zm-167 1h1v1h-1zm3 0h1v1h-1zm107 0h1v1h-1zm69 0h1v1h-1zm-180 1h1v1h-1zm-3 1h1v1h-1zm194 3l-3 1 3-2zm0-2h1v1h-1zm-65 1h1v1h-1zm-14 1h1v1h-1zm71 0h1v1h-1zm8 0h1v1h-1zm8 0h1v1h-1zm-88 1h1v1h-1zm1 1l1-1 1 2zm-2 0h1v1h-1zm7 0h1v1h-1zm53 0h1v1h-1zm3 0h1v1h-1zm3 1h1v1h-1zm2 0h1v1h-1zm-65 1h1v1h-1zm70 0h1v1h-1zm-5 1h1v1h-1zm-108 1h1v1h-1zm0 2h-2l2-1zm104-1h1v1h-1zm28 0h1v1h-1zm-132 1h1v1h-1zm39 0h1v1h-1zm64 0h1v1h-1zm-105 1h1v1h-1zm131 0h1v1h-1zm-132 1h1v1h-1zm41 0h1v1h-1zm29 0h1v1h-1zm10 0l2 3-3 1zm55 0h1v1h-1zm-96 1h1v1h-1zm-39 1h1v1h-1zm56 0h1v1h-1zm77 0h1v1h-1zm-57 1h1v1h-1zm58 0h1v1h-1zm-97 1h1v1h-1zm30 0h1v1h-1zm8 0h1v1h-1zm-71 1h1v1h-1zm4 0h1v1h-1zm61 0h1v1h-1zm7 2v-2l2 3zm56-2h1v1h-1zm-132 1h1v1h-1zm79 0h1v1h-1zm-13 1h1v1h-1zm9 0h1v1h-1zm-69 1h1v1h-1zm4 0h1v1h-1zm41 0h1v1h-1zm13 0h1v1h-1zm10 0h1v1h-1zm-17 1h1v1h-1zm-46 1h1v1h-1zm2 0h1v1h-1zm8 0h1v1h-1zm32 0h1v1h-1zm21 0h1v1h-1zm-66 1h1v1h-1zm43 0h1v1h-1zm82 0h1v1h-1zm-123 1h1v1h-1zm3 0h1v1h-1zm4 0h1v1h-1zm14 0h1v1h-1zm-12 1h1v1h-1zm122 0h1v1h-1zm-133 1h1v1h-1zm2 0h1v1h-1zm8 0h1v1h-1zm126 0h1v1h-1zm-127 1h1v1h-1zm-9 1h1v1h-1zm-12 1h1v1h-1zm15 5l-1-5 4 1zm67-3h1v1h-1zm-1 1h1v1h-1zm-2 1h1v1h-1zm-62 1h1v1h-1zm1 1h1v1h-1zm133 1h1v1h-1zm-70 1h1v1h-1zm6 0h1v1h-1zm-71 2h1v1h-1zm72 0h1v1h-1zm6 1h1v1h-1zm-110 2h1v1h-1zm95 0h1v1h-1zm12 1h1v1h-1zm-20 1h1v1h-1zm22 2l-1-2 2 1zm5-2h1v1h-1zm52 0h1v1h-1zm-171 1h1v1h-1zm94 0h1v1h-1zm21 0h1v1h-1zm-114 1h1v1h-1zm94 0h1v1h-1zm20 2l-1-2h1zm-117 0h1v1h-1zm92 1h1v1h-1zm21 4v-4h3v3h-1-1zm-9-3h1v1h-1zm9 3l1-1h1l1 1 1 2-4 1 2-1zm3-1h1v1h-1zm1 3v-2l2 1zm-8 0h1v1h-1zm1 1h3l-3 1zm-133 4h1v1h-1zm-5 6h1v1h-1zm134 0h1v1h-1zm13 6h1v1h-1zm1 1h1v1h-1zm3 0h1v1h-1zm-258 1h1v1h-1zm-1 2h1v1h-1zm253 8h1v1h-1zm-278 11h1v1h-1zm13 0h1v1h-1zm3 1h1v1h-1zm3 1h1v1h-1zm-31 4h1v1h-1zm32 1h1v1h-1zm3 0h1v1h-1zm-12 1h1v1h-1zm11 0h1v1h-1zm-12 1h1v1h-1zm2 0h1v1h-1zm11 1h1v1h-1zm-18 1h1v1h-1zm-3 1h1v1h-1zm2 0h1v1h-1zm-7 3h1v1h-1zm71 4h1v1h-1zm2 0h1v1h-1zm-72 1h1v1h-1zm71 0h1v1h-1zm2 0h1v1h-1zm1 1h1v1h-1zm-72 1h1v1h-1zm66 0h1v1h-1zm-73 1h1v1h-1zm5 0h1v1h-1zm-7 1h1v1h-1zm83 0h1v1h-1zm-82 1h1v1h-1zm77 0h1v1h-1zm6 0h1v1h-1zm-82 1h1v1h-1zm75 0h1v1h-1zm6 0h1v1h-1zm-83 1h1v1h-1zm4 0h1v1h-1zm5 0h1v1h-1zm2 0h1v1h-1zm58 0h1v1h-1zm4 0h1v1h-1zm2 0h1v1h-1zm4 5l-1-5h3v2zm-78-4h1v1h-1zm9 0h1v1h-1zm58 0h1v1h-1zm-57 1h1v1h-1zm62 4l-2-1 2-3zm8-4h1v1h-1zm-77 1h1v1h-1zm-3 1h1v1h-1zm4 0h1v1h-1zm8 0h1v1h-1zm61 1h1v1h-1zm7 0h1v1h-1zm-76 1h1v1h-1zm9 0h1v1h-1zm59 0h1v1h-1zm2 0l3 1-2 2zm-73 2h1v1h-1zm72 0h1v1h-1zm-73 1h1v1h-1zm74 1h1v1h-1zm3 0h1v1h-1zm-34 1h1v1h-1zm13 0h1v1h-1zm-11 2h1v1h-1zm12 0h1v1h-1zm-33 1h1v1h-1zm20 0h1v1h-1zm17 0h1v1h-1zm-86 1h1v1h-1zm73 0h1v1h-1zm25 0h1v1h-1zm-30 5l-1-2 4-2 1 5zm-1-4h1v1h-1zm-15 1h1v1h-1zm5 0h1v1h-1zm42 0h1v1h-1zm-48 1h1v1h-1zm2 0h1v1h-1zm47 0h1v1h-1zm-35 1h1v1h-1zm2 1h1v1h-1zm18 0h1v1h-1zm5 1h1v1h-1zm-21 1h1v1h-1zm2 0h1v1h-1zm-15 1h1v1h-1zm20 0h1v1h-1zm17 2h1v1h-1zm-25 1h1v1h-1zm-7 2h1v1h-1zm29 0h1v1h-1zm6 1h1v1h-1zm-8 1h1v1h-1zm-1 1h1v1h-1zm-28 2h1v1h-1zm1 2h1v1h-1zm-9 1h1v1h-1zm3 0h1v1h-1zm1 1h1v1h-1zm2 1h1v1h-1zm10 0h1v1h-1zm-3 3h1v1h-1zm8 4h1v1h-1zm-27 29h1v1h-1zm-10 4h1v1h-1zm2 0h1v1h-1zm-18 3h1v1h-1zm17 1h1v1h-1zm2 0h1v1h-1zm-22 1h1v1h-1zm-1 1h1v1h-1zm9 0h1v1h-1zm14 2h1v1h-1zm-11 3h1v1h-1zm-11 1h1v1h-1zm-17 1h1v1h-1zm19 0h1v1h-1zm-10 2h1v1h-1zm5 0h1v1h-1zm4 0h1v1h-1zm-8 1h1v1h-1zm3 0h1v1h-1zm1 1h1v1h-1zm-16 2h1v1h-1zm-4 2h1v1h-1zm-1 1h1v1h-1zm18 0h1v1h-1zm1 1h1v1h-1zm-23 10h1v1h-1zm502 1h1v1h-1zm-328 13h1v1h-1zm2 1h1v1h-1zm2 0h1v1h-1zm-175 1h1v1h-1zm181 9h1v1h-1zm2 0h1v1h-1zm-187 2h1v1h-1zm187 2h1v1h-1zm-185 4h1v1h-1zm-8 1h1v1h-1zm6 0h1v1h-1zm-3 1h1v1h-1zm-1 5h1v1h-1zm1 3h1v1h-1zm1 16h1v1h-1zm0 4h1v1h-1zm-3 5h1v1h-1zm-1 1h1v1h-1zm6 4h1v1h-1zm-8 4h1v1h-1zm3 5h1v1h-1zm-3 2h1v1h-1zm0 2h1v1h-1zm-1 5h1v1h-1zm1 1h1v1h-1zm1 1h1v1h-1zm0 2h1v1h-1zm-77 24h1v1h-1zm1 1h1v1h-1zm-12 1h1v1h-1zm8 0h1v1h-1zm225 5h1v1h-1zm-227 1h1v1h-1zm9 0h1v1h-1zm223 0h1v1h-1zm-57 3h1v1h-1zm32 72h1v1h-1zm359 33h1v1h-1zm-269 166h1v1h-1zm125 23h1v1h-1zm1 2h1v1h-1zm-460 8h1v1h-1zm-32 5h1v1h-1zm6 5h1v1h-1zm27 0h1v1h-1zm7 1h1v1h-1zm-32 2h1v1h-1z"/>
		<path id="Path 6" class="s0" d="m586 65h1v1h-1zm-1 1h1v1h-1zm10 75h1v1h-1zm-2 6h1v1h-1zm-1 1h1v1h-1z"/>
		<path id="Path 7" class="s1" d="m584 73h1v1h-1z"/>
	</g>
</svg>