<svg version="1.2" xmlns="http://www.w3.org/2000/svg" viewBox="0 0 800 800" width="800" height="800">
	<title>image</title>
	<style>
		.s0 { fill: #2687cf } 
		.s1 { fill: #000000 } 
	</style>
	<g id="Background">
		<path id="Path 0" class="s0" d="m0 800v-800h800v800z"/>
		<path id="Path 1" fill-rule="evenodd" class="s1" d="m232 783l-216 1v-768h335l-84 12-25 11h-1l-11-2-4 6h-6l-3-1-2 4v-2l-13 2 1 8-3 5-18 9h-1l-6 3-9 4h-1l-6 2h-1-4-3l-2-2-3 3-2 2-10 2h-2l-1 1-3-1-1 4-5-1-1 3-1-3-3 2-2 2h-1l-3 3-7-1-7 6-6 3-1-2-25 15-5 7-3-2v3l-11 10 78-35-12 20v32l-28 13-1 5h-5l2 11-2 2 1 2-3 1 1 9 34-18 1 8 16-9h4v4 18l-1 4-19 10v40l-25 11-1 3v1 1 1l1 21 25-12 1 12 36-22 3 1v15 3 8l-40 22v108l35-27v6l4 4-1 1 1 6v1 1l-1 3 1 4-5 6-34 25v138l-11 5h-1l-3 1 2 5-2 2v1l1 3v1 3l5 7 9-2v8l-8 5h-1-3l2 3-2 3-8-7-7 4h-1l-2 1v6l-2 1h2l1 4 1 2 3 2-1 3 11-3 3-13 3 4-1 3 3 1 1 7 6-1v14l1 8-15 7h-1l-4 2 2 5-2 1 12-2 5-3v3l3-2 2 2v-1-1l2-3 7 3-1 2 2 3v1 1l-1 3 2-1h4l-2 3 4-2 3 4-10 8 2 4-5 3-1 4-2 3v1 4l-4-4-2 4 4 10 3-1v-8l2 6 10 2 1-3h5l1 3-1 2h6l4-4 7-1 1 2v-2l5-3-5 10 3 5 2-3 7 2 6-4-1 4-1 1v1l24 8-24 15-2 5 3 1 14-2 5 2 17-8 6-1-1 3 6 1-1 2-2 3 5 1-1-3 4-1v-1l5-6h2l4-2v1l4 4-1 2v1-1l1-2 4 6 7 1 9-3 1-6 7-1 3-3 13-3-2-4 4-1v3h1 1v-3h3l1-3 3 1-2 4 3 1 11 2h1l9 3 6-1 1 3-32 13-2 4 15 2 25-15 12 3 2-3 9-1 1 3h1l1-2 7 3 1-4 6-1 1 3-4 1 1 3-4 1v3h-5l-16 10 2 2h-102l1-11-10 3 1 5-2-2zm138-725h63l63 7 35-20 17-13-64-12-43-4h137l-21 13 26 6h2l10-1 26-15-1-3h164v768h-199l2-4 4 1 9-7 5-3 1-5 10-5 1-1v-1l2-4h1l2-3 3-3 5-12h3l-3-1 2-3 5-9 50-44v-16l48-39v-1-20l39-36-1-3 6-4-1-2v-1l3-1-1-4-4 2-5 1 2 2-5 2v4l-2-2-1 4-3-1v4l-3 1v1l-8 1-1 3h-1l-4-1 3 3-4 1 1 2h-10l-2 5-3-2h2l-2-1v1l-2 1v3l-6 2h-1v1h1l-1 3-4 1-3-3-36 33-1 2-3 2 1-3h-4l2 3h-4v-4l19-11v-19l23-23v-5-12l-2-14-14 16-30 24-5 1 1-13v-16l27-20v-16l-21 11-1-18 1-9 32-18v-2-4-1-1l-1-2 4 1 3-3 6-4h1 1 2l-2-6-5 2-1-2h-1v1 1l-2 1h-1l-3 1v-8h1l1-3v-1l-2-7-2 3-1 2-2 5 3 2-1 3-6 1 3-3-5-2 4-3-1-3 2-2-2 1h-1-2l-1-1-1-1h-1-2l-2-5h6v-7l5-4-3 1-1-1-1-4h-1-5v-3h3v1-1l2-2 1 2 6-11h-6l6-3-3-10 5-1v-11l-1-2-7 3 3-6v-2l-2-8-14-1-2-2-1 4v-4l-5 2-2-1 2-2h-3l1-3h3v-3l2 1v-5l3-1-2-3 4 3 1-3 1-2 5 2-1-2 5 1 3-1 2-1 3-3h-4v-3l-1-1-2-2 12-7 3-7h1l-1-1v-2l2-2-4-1h-1l-3-4 4 1 2-5v-6l1-4h-3l-12 9v-8l-4 2h-1 1l-7 3-1 5-8 1h-1l-1-8h-2v-3h4l-2-4 1-1 4-1v-3l3 2-2-4 6-4 9 1-1-3 4 1 2-3 1 2 2-3 8-1-2-2v-1l1-7-15 2 2-3v-3l4-3 2-1h1l5-6v-1l-1-6-17 6h-1-3l2 2-5-2-1-1-1-1-1-2 15-3v-9l11-3 2-6h7l3-3 3-4 12-4v-3h1-1l-14 4 1-4 5-1h4v-3l4-4h3l-3-1-1-1h-1l-4 1-3-6v-1l-1 1v-3l-3 2v-2l-1 2-6 2v-3-1l2-1-3-1 1 2v1l-2 3h-6l1-1v-1 1l-1 1-2-1-2 1-1 2-2 1h-3l-6 7-3-1-6 7-1-3-3 3-2-2-5 6h-4v-1-1h-1l-7-1 2-4-4 2 1 2-1 4-2-3-5 1-2 2v-4l23-11v-6l1-4 17-9 2-2 2 1 1-4 2 2 4-6 3-1 4-1 3-6 6 2v-3l7-4-1-4 3 4 2-3 1-2-2-1 1-1 1-1h-1l-1-1 2-3-7-4 3-2h1l1 2-1-2 3-4h-4l1 2-10 2h-1l-7 6h-1l-9 2-4 2-9 6 1-3h-4l2-2 1-1v-1h-1-2v-2l-1 2-1 2-2 3-3-1 3-7-3-1v-4h3l-2-3 2-1v-1-1l2-4h1l5-1 4-2-2-2 5-3h1l1 1h1l6-10-1-3 3-1-5-11-4 1-3-4h1-1-1l-2 2-2 1-5-7-3 1 1-3-5-3 7-5-7-9-10 7-3 2v-4l3-1-2-7v-3l1-1-1 1 4-8h-1-1l-3-2-1-2-3 2-2-1v-1l2-1h1l3-4h1-1v-2l1-1h3v-3l2-3h1-1l-7-1 2 7-1 1-5-1h-1l-5-4-9 8-6-4 2-7-10-3v-3l-3 3-2-4-8 4-25-9-50 30 26 7 24 11 19 17 5-5 3 18h-3l1 4-3 3-2 6-13 12-34 16-40 11-62 7 5-5v-1l7-5 1-8v-3h3l-2-5-6-4-8 3h-1l-4-1-35 32-64-2-2-2 19-10v-4l-3-1v1h-3l1-3-3 3-3-2-1 3-7-1 1 2-6 2-2 4-2-2h-1l-1 3-8 1h-1l-2 2-4 3-3-2-2 4-6-2-5 1-3-3-24 13-11-2-8-2h-1l-3 1v-3l29-13-36-10-24-11 30-19-3-4-6-1 1-3-5-1-6-7-31 20-6-6-24 14h-9l-3-3v-1-2-1l3-1-1-9 3-2h1l3-1 1-6 6-2h1v-1l14-9 7-1 33-20 2 1-8 4 2 2-3 2-1 1 1-1h9l3-2 5 2 1-4 2 2h1l2-3 4 2v-4l11-1h1l25-3 28-17h5l4 1 19-7 1-9 5 2 2-2 3 1 2-3h2v-1l3-2 7-2 6-5 5-2v3l5-1 3 6 4-2v2zm44-35h-9l-1-7 14 1v2h-1 1 1l-3 4zm4-6l11-1-8 5-2-2zm10 2l5-3 7 1-19 8zm-45-3l7 1-11 6 2-1-2-4zm235 0h1v1h-1zm-191 2h1v1h-1zm-9 8h1v1h-1zm-2 1h1v1h-1zm-34 9h1v1h-1zm4 1h1v1h-1zm-148 2h1v1h-1zm2 0h1v1h-1zm2 0h1v1h-1zm125 0h1v1h-1zm23 1h1v1h-1zm-25 2h1v1h-1zm-4 2h1v1h-1zm-149 2h1v1h-1zm2 0h1v1h-1zm142 1h1v1h-1zm290 14h1v1h-1zm-322 4h1v1h-1zm324 2h1v1h-1zm-467 1h1v1h-1zm464 0h1v1h-1zm0 2h1v1h-1zm3 1h1v1h-1zm7 2h1v1h-1zm-490 2h1v1h-1zm-14 2h1v1h-1zm2 0h1v1h-1zm5 0h1v1h-1zm-12 1h1v1h-1zm11 0h1v1h-1zm-13 2h1v1h-1zm-12 3v-1h2zm104-1h1v1h-1zm-105 1h1v1h-1zm103 0h1v1h-1zm-100 1h1v1h-1zm128 0h1v1h-1zm-147 5h1v1h-1zm123 0h1v1h-1zm6 1h1v1h-1zm-13 1h1v1h-1zm2 1h1v1h-1zm-109 3h1v1h-1zm527 2h1v1h-1zm-475 17h1v1h-1zm492 0h1v1h-1zm13 0h1v1h-1zm3 0h1v1h-1zm-5 2h1v1h-1zm1 1h1v1h-1zm-623 3h1v1h-1zm181 2h1v1h-1zm368 0h1v1h-1zm-441 1h1v1h-1zm-5 6h1v1h-1zm524 2h1v1h-1zm-3 4h1v1h-1zm-522 1h1v1h-1zm523 0h1v1h-1zm2 1l2 1h-1zm-525 2h1v1h-1zm517 1h1v1h-1zm-5 2h1v1h-1zm5 0h1v1h-1zm-514 1h1v1h-1zm505 0h1v1h-1zm8 0h1v1h-1zm-7 7l-2-1h2zm-218 1h1v1h-1zm8 0h1v1h-1zm207 0h1v1h-1zm49 2h1v1h-1zm-9 1h1v1h-1zm-243 2h1v1h-1zm201 1h1v1h-1zm-1 1h1v1h-1zm35 2h1v1h-1zm-26 3h1v1h-1zm3 0h1v1h-1zm42 0h1v1h-1zm-355 1h1v1h-1zm313 1l-2-1h2zm10-1h1v1h-1zm33 0h1v1h-1zm-47 1h1v1h-1zm46 0h1v1h-1zm-256 2h1v1h-1zm215 3l-4 2 1-5zm40-3h1v1h-1zm-373 2h1v1h-1zm362 3h1v1h-1zm-249 1h1v1h-1zm-130 1h1v1h-1zm335 0h1v1h-1zm1 1h1v1h-1zm40 0h1v1h-1zm-378 1h1v1h-1zm-22 3h1v1h-1zm149 0h1v1h-1zm-371 1h1v1h-1zm223 0h1v1h-1zm380 0h1v1h-1zm-371 1h1v1h-1zm367 4h1v1h-1zm8 0h1v1h-1zm-430 1h1v1h-1zm424 0h1v1h-1zm3 0h1v1h-1zm-419 2h1v1h-1zm418 3h1v1h-1zm-3 2h1v1h-1zm-547 1h1v1h-1zm580 11h1v1h-1zm1 1h1v1h-1zm3 0h1v1h-1zm-55 1h1v1h-1zm33 0h1v1h-1zm13 1h1v1h-1zm2 0h1v1h-1zm8 0h1v1h-1zm-24 1h1v1h-1zm-5 1h1v1h-1zm3 0h1v1h-1zm16 0h1v1h-1zm-17 1h1v1h-1zm28 0h1v1h-1zm6 0h1v1h-1zm-7 1h1v1h-1zm3 0v3l-1-3zm3 0h1v1h-1zm2 0h1v1h-1zm-4 1h1v1h-1zm-28 1h1v1h-1zm-15 4h1v1h-1zm40 1h1v1h-1zm6 3h1v1h-1zm-86 1h1v1h-1zm35 0h1v1h-1zm-24 1h1v1h-1zm26 0h1v1h-1zm-24 1h1v1h-1zm6 0h1v1h-1zm50 0h1v1h-1zm-70 2h1v1h-1zm20 0h1v1h-1zm0 2h1v1h-1zm53 2h1v1h-1zm-38 28l2-1 1 1 1 1-4 3 2-2zm10 1h1v1h-1zm18 0h1v1h-1zm-30 1h1v1h-1zm-584 1h1v1h-1zm0 2h1v1h-1zm573 0h1v1h-1zm36 2h1v1h-1zm-7 4h1v1h-1zm-536 10h1v1h-1zm0 2h1v1h-1zm548 0h1v1h-1zm-27 10h1v1h-1zm-2 2h1v1h-1zm-5 6h1v1h-1zm-1 1h1v1h-1zm-393 16l3 4h-4zm395 0h1v1h-1zm3 1h1v1h-1zm25 3h1v1h-1zm-428 1h1v1h-1zm-3 4l3-3 2 2-2 4-23 20 35-1 27 4v37l-36-9-10 1-10 7v7l5 6 37 18 19 21 3 14-2 17-10 16-4-2-2 5h-4l1 5h-3v-1 1 2h-1-1v1l-3 2h-1l-3-1-2 3 1 3-5 4-1 6-1 5-2 1 3 5-2 2-1-3-2 4v1l1 2v-2l3 1h1l1 2-7 1-4-1 1 3v1-1l2-1 2 2-2 2 1 2-5 1 1-3-3 1 2 2v1l-1 1v1-1l1-1 3 2v1l1 10-7 1-7-11v-1h-1v-2 2l1 1-3 2 2 2-5 1 2 6v1l-3 2-1-7v-1l-1-10-2 1 1-3-3-1 3-1-1-3-1-7-2 1 1-9h1l1 1 2 2-1-3v-1-1h-1l-3-2 2-5h1l2 1-1-2h-1-1l1-3 1-2-3 1v3l-2-2 1-2h-3l1 2-3-1-4 1 4 1-3 2 2 10v3l-5-2-1 2h-1l-2-1h-3v-5l-3-1h-1l-4-1-2-1-1-2h-1l-4-9 2-1h1-1l-5-7 1-3h-4l4-3-3 1-1-3h-3l1-6 2-4h5l1-18 26 11 11 1-1 2h2l5-1h4l10-6v-11l-8-7-34-16-10-10-8-17 3-27 33-24 5-6-2-2 3-5 6-3 8-7 1-2v-1zm435-3h1v1h-1zm-437 1h1v1h-1zm-1 1h1v1h-1zm440 0h1v1h-1zm-443 3h1v1h-1zm443 0h1v1h-1zm-434 1h1v1h-1zm-13 2h1v1h-1zm-2 1h1v1h-1zm-1 1h1v1h-1zm258 15v-6l5-2v-4h8l1 2 6 2 2-2 2 3-2 15-2 3 2 8v3l-1 3h3v-3h4l-1 3 4-2 1 1 1 1h1l3 1v4h-1l1 1v8l3-7-2 88 5-1 1 4 2-3 3 1h22l8 4 2-2h2l5 2 3-3 2 2-1-3 4 1v1l8 1v3l4 2 2 3h-5l-1 4 2-1 13-2v5l-8 3v3h3l1 5h-4v-3l-3 5h-3l1-2-3-2-2 3v-3l-2 5-2-3-4 1-1-2-5 2-1 2h-1-1l-1 1-3-2-40 2h-2l-2-1h-5l2 2-2 3v1l-2 3h-3-1l-3 2-4-4-3 4-3-2-3 3-7-6-5 2-4-2h2v-1l-2 1-3-3v-1l-1 1h-5v-3l5 1 4-5 1 1-1-1-3-2 2-2 3 3-1-5h1l2-1-3 1-2-3 3-4h5v-3l5-3 1-1v-1l-1-1v-3l-12 3 2-45-2-3 3-6-3-3 3-2-3-1 2-9 4-3-2-20h1-1l1-6-2-11 3-6-2-7-3 3v-6l6-1-1 3h1zm13-13h1v1h-1zm-10 1h1v1h-1zm174 7h1v1h-1zm2 2h1v1h-1zm1 1h1v1h-1zm-363 160l1-5 6-5v-6h3l-2-5 6-8-10-20-4-21 1-26 7-22 11-17 20-15 19-7 26-2 22 4 24 14 15 21 6 15 2 37-4 18-15 25-23 18 9 8 4 8-3 1v-3l-3-1v-1l-1 1h-2l1 2 1-2h1l3 1-2 2 2 3 6 1 1 5 3-1-2 4 2 2h-1l1 2v-2h2l3 1 7 4-1 5 3 4 8 5-3 3 1 4v1l1 5h-4l-1 3-2-5-1 4-5-3-3 2-2-2 4-4-2-3h-9v-5l-2 1v1l-2 4v-2l-1 2-2 1h2v4l-2 5h-3l-2-5-4 4-1 1-2 1-4-1 2-3-3 1-1-1-1-19-1-2 1-4-15-15h-4l-1-5-3 7h-1l-2-1v-1h-1l-2-4-2 3-4-4 2 3-2 3-5-2-1 19-1 1-2 1-1 3h-1l-1-1h-1l-1 1v1l-3 5-2-2-2-1v6l-6 2-2-2h-1v-4l5 1-3-2v-1-5h1l1 1-1-1-1-3 12-2-11 1 1-2 2-7 3-4-4-7-2-1v-8l-1-14-4-2-2 10-3-3-3 2-14 21-3-5-3 3-4-3v-5l1-3-7 2zm207-158h1v1h-1zm155 0h1v1h-1zm-10 4h1v1h-1zm2 0h1v1h-1zm-149 3h1v1h-1zm-27 6h1v1h-1zm163 1h1v1h-1zm-136 4h1v1h-1zm0 3h1v1h-1zm132 0h1v1h-1zm-123 1h1v1h-1zm1 1h1v1h-1zm119 0h1v1h-1zm2 0h1v1h-1zm2 0h1v1h-1zm-122 1h1v1h-1zm121 0h1v1h-1zm4 0h1v1h-1zm7 0h1v1h-1zm-12 1h1v1h-1zm2 1h1v1h-1zm7 0h1v1h-1zm-167 1h1v1h-1zm184 0h1v1h-1zm-142 3l2-2v3h-2zm143 2h1v1h-1zm2 3l-1-2h1zm-12 5h1v1h-1zm3 0h1v1h-1zm2 0h1v1h-1zm-5 3h-2l2-2zm4-2h1v1h-1zm-4 2h1v1h-1zm-2 1h1v1h-1zm-3 2h1v1h-1zm-9 1h1v1h-1zm1 3l2-3 1 3zm6-3h1v1h-1zm-2 1h1v1h-1zm-5 2h1v1h-1zm24 2l-1 3-3-1zm-538 4h1v1h-1zm539 0h1v1h-1zm-540 1h1v1h-1zm1 7h1v1h-1zm1 1h1v1h-1zm535 1h1v1h-1zm2 2h1v1h-1zm-187 4h1v1h-1zm-1 1h1v1h-1zm0 3h1v1h-1zm186 3h1v1h-1zm1 4h1v1h-1zm1 1h1v1h-1zm-6 15h1v1h-1zm3 0h1v1h-1zm1 1h1v1h-1zm11 0h1v1h-1zm-15 1h1v1h-1zm1 1l3-1v1l-3 1zm4-1h1v1h-1zm3 0h1v1h-1zm-14 4l1-3 2 2zm10-3h1v1h-1zm10 0h1v1h-1zm1 1h1v1h-1zm-1 1h1v1h-1zm4 0h1v1h-1zm-25 1h1v1h-1zm24 0h1v1h-1zm-1 2h1v1h-1zm-11 1h1v1h-1zm1 4h1v1h-1zm17 0h1v1h-1zm-3 3h1v1h-1zm6 0h1v1h-1zm3 0h1v1h-1zm-16 1h1v1h-1zm3 0h1v1h-1zm11 1h1v1h-1zm2 0h1v1h-1zm-115 3h1v1h-1zm-7 3l2-2v2zm3-2h1v1h-1zm3 0h1v1h-1zm4 0h1v1h-1zm5 0h1v1h-1zm-91 8l-2-2 2-1 1 1v1zm184-2h1v1h-1zm-81 1h1v1h-1zm1 1h1v1h-1zm10 3h1v1h-1zm-432 1h1v1h-1zm418 1h1v1h-1zm-112 1h1v1h-1zm-305 5h1v1h-1zm-1 1h1v1h-1zm427 0h1v1h-1zm-126 2h1v1h-1zm-301 1h1v1h-1zm98 1h1v1h-1zm203 1h1v1h-1zm127 0h1v1h-1zm-333 2h1v1h-1zm-3 1h1v1h-1zm2 0h1v1h-1zm0 1v2l-1-2zm312 0h1v1h-1zm-5 1h1v1h-1zm-313 1h1v1h-1zm309 0h1v1h-1zm2 1v-1h2v1zm-3 0h1v1h-1zm2 0h1v1h-1zm3 0h1v1h-1zm68 0h1v1h-1zm-311 1h1v1h-1zm144 1h1v1h-1zm-173 2h1v1h-1zm164 0h1v1h-1zm51 0h1v1h-1zm-216 1h1v1h-1zm-86 1v2l-1-2zm272 1h1v1h-1zm33 0h1v1h-1zm-9 1h1v1h-1zm3 0h1v1h-1zm4 0h1v1h-1zm-301 1h1v1h-1zm2 0h1v1h-1zm35 0h1v1h-1zm258 0h1v1h-1zm-298 1h1v1h-1zm279 0h1v1h-1zm4 0h1v1h-1zm3 0h1v1h-1zm-314 1h1v1h-1zm68 0h1v1h-1zm50 0h1v1h-1zm-90 1h1v1h-1zm-27 1h1v1h-1zm2 1h1v1h-1zm62 0h1v1h-1zm-57 1h1v1h-1zm20 0h1v1h-1zm1 2l-2 1 1-2zm0-1h1v1h-1zm126 0h1v1h-1zm-122 1h1v1h-1zm85 0h1v1h-1zm-94 1h1v1h-1zm6 0h1v1h-1zm2 0h1v1h-1zm83 0h1v1h-1zm40 0h1v1h-1zm30 0h1v1h-1zm-152 1h1v1h-1zm91 0h1v1h-1zm32 0h1v1h-1zm300 0h1v1h-1zm-431 1h1v1h-1zm166 0h1v1h-1zm6 1h1v1h-1zm-179 1v2l-1-2zm110 0h1v1h-1zm60 0h1v1h-1zm2 0h1v1h-1zm4 2v-2h1v4zm5-2h1v1h-1zm-180 1h1v1h-1zm173 0h1v1h-1zm-181 1h1v1h-1zm182 0h1v1h-1zm1 2h1v1h-1zm-129 1h1v1h-1zm185 0h1v1h-1zm-190 1h1v1h-1zm5 1h1v1h-1zm88 1h1v1h-1zm-87 2h1v1h-1zm87 0h1v1h-1zm2 0h1v1h-1zm-92 1h1v1h-1zm1 1h1v1h-1zm92 0h1v1h-1zm112 8l3-2-2-1 2-5 5 5-4 2 1 3zm-203-6h1v1h-1zm112 2h1v1h-1zm-117 1h1v1h-1zm117 0v2l-1-2zm39 0h1v1h-1zm-156 1v2l-1-2zm94 0h1v1h-1zm-123 1h1v1h-1zm236 0h1v1h-1zm-235 1h1v1h-1zm137 1l1-1h1l1 1-3 1zm4 0h1v1h-1zm-116 1h1v1h-1zm216 0h1v1h-1zm-119 2h1v1h-1zm-121 3h1v1h-1zm133 0h1v1h-1zm2 0h1v1h-1zm74 0h1v1h-1zm-207 2h1v1h-1zm118 1h1v1h-1zm9 0h1v1h-1zm81 0h1v1h-1zm-4 1h1v1h-1zm262 0h1v1h-1zm-470 1h1v1h-1zm212 0h1v1h-1zm25 0h1v1h-1zm-100 1h1v1h-1zm-128 1h1v1h-1zm203 0h1v1h-1zm26 0h1v1h-1zm-215 6l5-5v5h-1-1l-1 1h-1zm514-5h1v1h-1zm-535 1h1v1h-1zm8 0h1v1h-1zm198 0h1v1h-1zm-208 1h1v1h-1zm136 0h1v1h-1zm52 2h-2l2-1zm-158-1h1v1h-1zm208 0h1v1h-1zm-54 1h1v1h-1zm5 2l-1-2h1zm46-2h1v1h-1zm1 1l2-1 1 2zm184-1h1v1h-1zm-398 1h1v1h-1zm4 0h1v1h-1zm2 0h1v1h-1zm169 0h1v1h-1zm10 0h1v1h-1zm15 0h1v1h-1zm2 0h1v1h-1zm-220 1h1v1h-1zm19 0h1v1h-1zm3 0l1 2-2-2zm163 0h1v1h-1zm9 2l-2 1v-3h1zm-177-1h1v1h-1zm173 0h1v1h-1zm276 0h1v1h-1zm-277 1h1v1h-1zm331 0h1v1h-1zm-319 5l-3-1 6-3-2 3zm318-4h1v1h-1zm-326 1h1v1h-1zm223 0h1v1h-1zm-9 1h1v1h-1zm1 1l3-1 3 5v7l-5 4zm-206 1v-1l2 1zm313-1h1v1h-1zm-331 4l2-3-1 3zm17-3h1v1h-1zm206 2h1v1h-1zm-223 1h1v1h-1zm321 1h1v1h-1zm-4 4h1v1h-1zm-94 5h1v1h-1zm1 1h1v1h-1zm78 1h1v1h-1zm-78 1h1v1h-1zm70 2h1v1h-1zm5 0h1v1h-1zm-1 1h1v1h-1zm-5 3h1v1h-1zm-620 1v2l-1-2zm614 2l-1-2h3l-1 2zm0 0h1v1h-1zm3 1h1v1h-1zm-621 5h1v1h-1zm1 4h1v1h-1zm0 3h1v1h-1zm2 0h1v1h-1zm613 2h1v1h-1zm5 0h1v1h-1zm-4 5v-4l3 3zm8-3h1v1h-1zm-5 2h1v1h-1zm0 2h1v1h-1zm-8 7h1v1h-1zm25 0h1v1h-1zm-27 1h1v1h-1zm-1 1h1v1h-1zm-1 1h1v1h-1zm-602 1h1v1h-1zm564 2h1v1h-1zm-564 8h1v1h-1zm2 3h1v1h-1zm8 14h1v1h-1zm548 3l3-2 5 7-4 1 2 2-2 2 2-1-3 2h-1l-1 1-2-1-1 5-6 4-8 3-2-1 1 2-1 3h-1l-4 2-4 3v-1 1 1l2 1 3-2 2 3-8 7-6 6-1-9 4-2-1-2h-9v8l1 5 1 2h-4v3l2-1 1 1-5 3-1 1-1 1-9 5v3l-6 1-2 1h-1v1l1-1h1v2l5 4-4 1-1 4v1l-24 23 37-12-38 35h-44v-14-2-6l-20 11-12 11h-31l1-2 27-3 41-30 14-5h2l-2-1 25-18h6l2-6h3l2-2 6-7 11-5v-9l3-2v-1l5-4 6 1 4-7 4-5 1 2 5-9 4 1 6-4 4 2h1l3 1 1-3 1 2 1-6v-1-3l4-1zm7-2h1v1h-1zm-8 1h1v1h-1zm-4 1h1v1h-1zm-544 4h1v1h-1zm541 2h-2l2-1zm19 1h1v1h-1zm-5 1h1v1h-1zm-25 1h1v1h-1zm4 2h1v1h-1zm17 0h1v1h-1zm-1 1h1v1h-1zm-565 7h1v1h-1zm20 0h1v1h-1zm3 1h1v1h-1zm2 0h1v1h-1zm-29 1h1v1h-1zm13 0h1v1h-1zm18 1h1v1h-1zm-19 1h1v1h-1zm9 0h1v1h-1zm-10 1h1v1h-1zm517 0h1v1h-1zm21 3h1v1h-1zm-514 1h1v1h-1zm515 0h1v1h-1zm-518 1h1v1h-1zm1 2h1v1h-1zm513 0h1v1h-1zm4 0h1v1h-1zm-34 1h1v1h-1zm33 0h1v1h-1zm-6 1h1v1h-1zm15 0h1v1h-1zm-1 1h1v1h-1zm-44 1h1v1h-1zm19 4h1v1h-1zm-3 3h1v1h-1zm-22 4h1v1h-1zm29 1h1v1h-1zm-2 1h1v1h-1zm-2 1h1v1h-1zm-1 1h1v1h-1zm-32 1h1v1h-1zm28 0h1v1h-1zm1 1h1v1h-1zm1 1h1v1h-1zm-6 3h1v1h-1zm-1 1h1v1h-1zm0 1v2l-1-2zm-496 1h1v1h-1zm1 4h1v1h-1zm485 0h1v1h-1zm-486 1h1v1h-1zm34 4h1v1h-1zm3 0h1v1h-1zm448 0h1v1h-1zm-472 1h1v1h-1zm23 0h1v1h-1zm445 0h1v1h-1zm6 0h1v1h-1zm-464 1h1v1h-1zm2 0h1v1h-1zm3 0h1v1h-1zm-8 3h1v1h-1zm464 0h1v1h-1zm-428 2h1v1h-1zm456 0h1v1h-1zm-457 1h1v1h-1zm426 0h1v1h-1zm-439 3l-2-2h3zm439-1h1v1h-1zm-2 1h1v1h-1zm-425 2h1v1h-1zm-1 1h1v1h-1zm130 3h1v1h-1zm246 0h1v1h-1zm-255 1h1v1h-1zm5 0l2 1-4 2zm3 0h1v1h-1zm-11 2h1v1h-1zm334 2h1v1h-1zm-337 3h1v1h-1zm20 2h1v1h-1zm312 1h1v1h-1zm-347 1h1v1h-1zm-38 1h1v1h-1zm36 0h1v1h-1zm346 0h1v1h-1zm-291 1h1v1h-1zm-96 2h1v1h-1zm38 0h1v1h-1zm349 2l1-2v1zm-408 0h1v1h-1zm146 4v-3l2 1-1 2zm-133 0h1v1h-1zm307 0h1v1h-1zm-304 1h1v1h-1zm370 10h1v1h-1zm-362 7h1v1h-1zm2 0h1v1h-1z"/>
		<path id="Path 2" fill-rule="evenodd" class="s0" d="m418 19v-2l1 2zm-61 29v-1h2v1zm-12 2h1v1h-1zm7 0h1v1h-1zm301 11l-2-7 7 1-2 3v3zm-385 23h1v1h-1zm416 53h1v1h-1zm-13 26l1-2v2zm1 1v-1h2v1zm2 0h1v1h-1zm44 0h1v1h-1zm-1 1h1v1h-1zm-42 5l-3-3h4zm31 33l-1-2 3 1zm6 2l1-2v2zm14 8v-1l3 1zm-77 11l-1-2 4-2-2 4zm17 77h1v1h-1zm-158 50l1-3v3zm32 20h1v1h-1zm1 1h1v1h-1zm4 6h1v1h-1zm-38 19h1v1h-1zm185 52l2-1-2 2zm-5 0h1v1h-1zm19 12l1-1 1 2h-2zm-106 9l1-1 1 3zm-97 20l3-1-2 1zm-214 7h1v1h-1zm305 3h1v1h-1zm-92 6l2-1v1zm-265 1l-1-2h3l-1 2zm4 3h1v1h-1zm1 1l1-1 1 2zm201 1l-1 2-1-2zm-206 5h1v1h-1zm5 2h1v1h-1zm-1 1h1v1h-1zm1 1l1-1 1 3zm215 8v2l-1-2zm-187 1v2l-1-2zm-5 6l-1-3 4 1-1 1zm-4 4l3-1-1 3zm165 1v-1l1 2zm45 2h1v1h-1zm-219 2h1v1h-1zm196 9l1-2v2zm-2 1l2-1v1zm-17 7l3-1-2 3h-1zm-1 11h1v1h-1zm302 10v-1l2 1zm-9 6h1v1h-1zm-636 42l7-4 8 7-3 13-11 3 1-3-3-2-1-2-1-4v-1-6l2-1zm-3 8h-2l2-1zm585 28l-2 1 2-2zm-23 15l-1-2 2 1zm-523 32l1-4v3zm499-4h1v1h-1zm-500 21l-3 1-4-10 2-4 4 4 1 1zm477-5l2-1-1 1zm-1 0h1v1h-1zm-440 2v2l-1-2zm393 16v-1l2 1zm-332 26l2-3 2 1 1 3z"/>
		<path id="Path 3" class="s1" d="m422 20h1v1h-1zm233 37h1v1h-1zm-249 72h1v1h-1zm7 9l1-2v2zm60 7h1v1h-1zm201 76h1v1h-1zm-301 198v-1l2 1zm-1 0h1v1h-1zm0 6v-2h1zm-5 21v-1l2 3zm-2 16l1-1h2l-2 3zm36 10h1v1h-1zm-19 4h1v1h-1zm-115 58h1v1h-1zm159 7h1v1h-1zm-342 90h1v1h-1zm-2 7h1v1h-1zm562 43h1v1h-1zm-523 32h1v1h-1zm-6 7h1v1h-1zm483 5h1v1h-1zm-480 3h1v1h-1zm468 7h1v1h-1zm-450 8h1v1h-1zm85 27h1v1h-1z"/>
		<path id="Path 4" fill-rule="evenodd" class="s0" d="m622 17h1v1h-1zm-206 1h1v1h-1zm1 1h1v1h-1zm141 11h1v1h-1zm-339 12h1v1h-1zm451 0h1v1h-1zm-301 1h1v1h-1zm300 0h1v1h-1zm-460 1h1v1h-1zm455 6l2-5 1 4zm-52-4h1v1h-1zm-253 2h1v1h-1zm304 4l-2 2v-3zm-13 0h1v1h-1zm9 0h1v1h-1zm0 2h1v1h-1zm-1 1h1v1h-1zm0 2h1v1h-1zm-289 1h1v1h-1zm292 1h1v1h-1zm-15 1h1v1h-1zm6 1h1v1h-1zm1 2h1v1h-1zm-1 1h1v1h-1zm-336 1h1v1h-1zm336 6l3-5v5zm-471-4h1v1h-1zm467 1h1v1h-1zm-474 2h1v1h-1zm486 1h1v1h-1zm-5 1h1v1h-1zm-490 2h1v1h-1zm-7 2h1v1h-1zm496 3h1v1h-1zm-1 1h1v1h-1zm-528 2h1v1h-1zm6 0h1v1h-1zm522 1h1v1h-1zm-391 2h1v1h-1zm-146 1h1v1h-1zm144 0h1v1h-1zm-155 1h1v1h-1zm8 1h1v1h-1zm-12 1h1v1h-1zm-1 1h1v1h-1zm144 1h1v1h-1zm-21 2h1v1h-1zm14 0h1v1h-1zm417 0h1v1h-1zm-432 1h1v1h-1zm2 1h1v1h-1zm-128 1h1v1h-1zm-6 1h1v1h-1zm128 0h1v1h-1zm462 6h1v1h-1zm-482 1h1v1h-1zm482 1h1v1h-1zm-484 1l4 1-2 2zm485 0h1v1h-1zm-79 3h1v1h-1zm78 0h1v1h-1zm2 0h1v1h-1zm1 1h1v1h-1zm10 2h1v1h-1zm-516 2h1v1h-1zm-1 1h1v1h-1zm-7 5h1v1h-1zm524 1h1v1h-1zm-90 1h1v1h-1zm-438 2h1v1h-1zm253 4l1-3v3zm-6 0l5-2-2 2h3 1l4-2 2 4h-2l-5 8h-4v-2l-1 2v1l-33 21h-8l-8-8 1-8 9 1 11-4-2-1 2-2 2 2 2-4 6 2v-5l4 3 1-3 5-3h1l1-1zm-6 0h1v1h-1zm-1 1h1v1h-1zm-364 5h1v1h-1zm352 1h1v1h-1zm-233 1h1v1h-1zm309 1h1v1h-1zm-56 1h1v1h-1zm55 0h1v1h-1zm217 0h1v1h-1zm-525 1h1v1h-1zm520 3h1v1h-1zm-9 3h1v1h-1zm-211 2h1v1h-1zm210 0h1v1h-1zm-2 2h1v1h-1zm46 0h1v1h-1zm-264 1h1v1h-1zm15 1h1v1h-1zm203 0h1v1h-1zm37 2h1v1h-1zm13 1h1v1h-1zm-32 2h1v1h-1zm31 0h1v1h-1zm2 0h1v1h-1zm1 1h1v1h-1zm-3 1h1v1h-1zm-20 1h1v1h-1zm-337 3h1v1h-1zm314 0h1v1h-1zm1 1h1v1h-1zm42 0h1v1h-1zm4 0h1v1h-1zm-2 3h1v1h-1zm2 2h1v1h-1zm-387 1h1v1h-1zm2 0h1v1h-1zm382 0h1v1h-1zm-46 1h1v1h-1zm-596 2h1v1h-1zm249 1h1v1h-1zm131 0h1v1h-1zm-325 2h1v1h-1zm-54 1h1v1h-1zm0 2h1v1h-1zm231 0h1v1h-1zm394 0h1v1h-1zm-571 5h1v1h-1zm563 1h1v1h-1zm-438 1h1v1h-1zm19 4h1v1h-1zm-199 2h1v1h-1zm632 11h1v1h-1zm-2 1h1v1h-1zm-8 1h1v1h-1zm4 0h1v1h-1zm15 0h1v1h-1zm20 0h1v1h-1zm3 0h1v1h-1zm-44 1h1v1h-1zm3 0h1v1h-1zm17 0h1v1h-1zm-52 1h1v1h-1zm34 0h1v1h-1zm40 0h1v1h-1zm-12 3h1v1h-1zm-2 1h1v1h-1zm-61 1h1v1h-1zm62 0h1v1h-1zm-46 4h1v1h-1zm47 5h1v1h-1zm-69 4h1v1h-1zm-17 1h1v1h-1zm18 0h1v1h-1zm57 4h1v1h-1zm-13 9h1v1h-1zm-2 15h1v1h-1zm-26 5h1v1h-1zm1 1h1v1h-1zm7 0h1v1h-1zm19 1h1v1h-1zm-616 2h1v1h-1zm0 2h1v1h-1zm613 2h1v1h-1zm-3 1h1v1h-1zm-2 1h1v1h-1zm-4 6h1v1h-1zm14 4h1v1h-1zm-2 4h1v1h-1zm1 21h1v1h-1zm-34 4h1v1h-1zm15 0h1v1h-1zm-1 1h1v1h-1zm20 1h1v1h-1zm0 6h1v1h-1zm-35 1h1v1h-1zm35 1h1v1h-1zm2 0h1v1h-1zm-5 5h1v1h-1zm-435 4h1v1h-1zm-5 2h1v1h-1zm443 0h1v1h-1zm-444 3h1v1h-1zm264 7h1v1h-1zm181 6h1v1h-1zm-14 1h1v1h-1zm14 0v3h-6zm-8 3h1v1h-1zm-188 3h1v1h-1zm184 1h1v1h-1zm-6 2h1v1h-1zm-157 4h1v1h-1zm147 11h1v1h-1zm16 3h1v1h-1zm-149 1h1v1h-1zm-35 2h1v1h-1zm37 2h1v1h-1zm0 3h1v1h-1zm-37 1h1v1h-1zm-1 1h1v1h-1zm185 3h1v1h-1zm4 0h1v1h-1zm-322 33l6-19 10-11 23-1 12 8 8 23-2 26-7 14-18 8-2 6-1-1h-1-2v-1l-1 1h-3l1 11-4-2v-1l-1 1-1 5-2-2-3 3-1-1-1-2-1-6 1-1 2-2-4-2v-4l4-1-6-3 1-4-7 1-4 10-2-3-5 1 1-4-4-1 2-3 2 1h1 1l1 2 2-3h-2l-3-8 2-4h-2l2-3h2l2 2-2-3-1-1v-9l9-2v1-1-2h-3l2-2-2-2v-2l1-2h-1v-3l1-1h2zm323-31h1v1h-1zm3 3h1v1h-1zm-154 2h1v1h-1zm-395 12h1v1h-1zm547 0h1v1h-1zm-547 6h1v1h-1zm0 2h1v1h-1zm545 2h1v1h-1zm-546 2h1v1h-1zm223 2h1v1h-1zm-1 1h1v1h-1zm-3 5h1v1h-1zm317 0h1v1h-1zm-1 1h1v1h-1zm3 1h1v1h-1zm-316 1h1v1h-1zm321 1h1v1h-1zm-321 3h1v1h-1zm318 0h1v1h-1zm4 0h1v1h-1zm-328 15l1-2 1 1v1zm321 0h1v1h-1zm23 0h1v1h-1zm-349 1h1v1h-1zm327 0h1v1h-1zm7 0h1v1h-1zm-6 1h1v1h-1zm3 0h1v1h-1zm2 4h1v1h-1zm9 0h1v1h-1zm16 3h1v1h-1zm-361 1h1v1h-1zm3 5l1-5v5zm334-5h1v1h-1zm7 0h1v1h-1zm16 4l-2 1-1-4h5l4 1v6l-1-4-2 1zm2-4h1v1h-1zm-18 3h1v1h-1zm5 0h1v1h-1zm-1 1h1v1h-1zm20 0h1v1h-1zm-366 1h1v1h-1zm4 0h1v1h-1zm2 0h1v1h-1zm336 0h1v1h-1zm19 0h1v1h-1zm-17 1h1v1h-1zm17 1h1v1h-1zm-8 3h1v1h-1zm-333 3h1v1h-1zm179 0h1v1h-1zm147 1h1v1h-1zm-307 1h1v1h-1zm3 0h1v1h-1zm139 0h1v1h-1zm64 0h1v1h-1zm-204 1h1v1h-1zm2 0h1v1h-1zm-162 1h1v1h-1zm161 0h1v1h-1zm298 0h1v1h-1zm-453 1h1v1h-1zm2 0h1v1h-1zm266 0h1v1h-1zm-132 1h1v1h-1zm133 0h1v1h-1zm97 0h1v1h-1zm87 0h1v1h-1zm-318 1h1v1h-1zm133 0h1v1h-1zm-123 4h1v1h-1zm118 0h1v1h-1zm-130 1h1v1h-1zm-82 3h1v1h-1zm88 2l1 2h-5l-1-2 4-1zm-186 0h1v1h-1zm97 0h1v1h-1zm91 2h1v1h-1zm119 1h1v1h-1zm-127 1h1v1h-1zm125 0h1v1h-1zm-169 1h1v1h-1zm46 0h1v1h-1zm2 0h1v1h-1zm-49 1h1v1h-1zm46 0h1v1h-1zm4 0h1v1h-1zm235 0h1v1h-1zm-329 1h1v1h-1zm89 0h1v1h-1zm2 0h1v1h-1zm4 0h1v1h-1zm-96 1h1v1h-1zm321 0h1v1h-1zm11 0h1v1h-1zm-23 1h1v1h-1zm-310 1h1v1h-1zm214 0h1v1h-1zm113 0h1v1h-1zm-330 1h1v1h-1zm2 0h1v1h-1zm94 0h1v1h-1zm212 0h1v1h-1zm2 0h1v1h-1zm-12 1h1v1h-1zm-340 1h1v1h-1zm41 0h1v1h-1zm261 0h1v1h-1zm48 0h1v1h-1zm-1 1h1v1h-1zm-384 1h1v1h-1zm-1 1h1v1h-1zm123 0h1v1h-1zm168 0h1v1h-1zm-263 1h1v1h-1zm93 1h1v1h-1zm-98 1h1v1h-1zm4 0h1v1h-1zm272 0h1v1h-1zm33 0h1v1h-1zm-35 1h1v1h-1zm22 0h1v1h-1zm-316 2h1v1h-1zm324 0h1v1h-1zm-292 1h1v1h-1zm424 0h1v1h-1zm-396 1h1v1h-1zm174 0h1v1h-1zm-235 1h1v1h-1zm8 0h1v1h-1zm148 0h1v1h-1zm75 0h1v1h-1zm3 0h1v1h-1zm-231 1h1v1h-1zm8 0h1v1h-1zm-3 1h1v1h-1zm0 2h1v1h-1zm30 0h1v1h-1zm-26 2h1v1h-1zm21 0h1v1h-1zm125 0h1v1h-1zm6 3h-4l1-3zm38-3h1v1h-1zm-168 1h1v1h-1zm147 0h1v1h-1zm-161 1h1v1h-1zm182 0h1v1h-1zm-184 1h1v1h-1zm146 0h1v1h-1zm27 0h1v1h-1zm-177 1h1v1h-1zm151 0h1v1h-1zm27 0h1v1h-1zm49 0h1v1h-1zm-224 1h1v1h-1zm177 0h1v1h-1zm-32 3l4-2 2 2zm-126-1h1v1h-1zm19 4h1v1h-1zm191 0h1v1h-1zm-187 1h1v1h-1zm-26 2h1v1h-1zm30 0h1v1h-1zm-14 1h1v1h-1zm118 0h1v1h-1zm-119 1h1v1h-1zm-15 1h1v1h-1zm14 0h1v1h-1zm2 0h1v1h-1zm-10 1h1v1h-1zm2 0h1v1h-1zm-1 1h1v1h-1zm16 0h1v1h-1zm-22 1h1v1h-1zm13 0h1v1h-1zm4 0h1v1h-1zm4 0h1v1h-1zm-5 1h1v1h-1zm7 0h1v1h-1zm111 0h1v1h-1zm8 1h1v1h-1zm82 0h1v1h-1zm-207 1h1v1h-1zm108 0h1v1h-1zm6 0h1v1h-1zm-122 2h1v1h-1zm4 0h1v1h-1zm109 0h1v1h-1zm14 0h1v1h-1zm-117 1h1v1h-1zm116 0h1v1h-1zm2 0h1v1h-1zm-127 1h1v1h-1zm8 0h1v1h-1zm116 0h1v1h-1zm-115 1h1v1h-1zm3 0h1v1h-1zm164 0h1v1h-1zm-53 1h1v1h-1zm-117 1h1v1h-1zm105 0h1v1h-1zm9 0h1v1h-1zm100 0h1v1h-1zm-225 1h1v1h-1zm202 0h1v1h-1zm-190 1h1v1h-1zm-1 1h1v1h-1zm4 0h1v1h-1zm101 1h1v1h-1zm-119 1h1v1h-1zm117 0h1v1h-1zm95 0h1v1h-1zm318 0h1v1h-1zm-302 1h1v1h-1zm-4 1h1v1h-1zm306 0h1v1h-1zm-330 1h1v1h-1zm31 0h1v1h-1zm-228 2h1v1h-1zm216 1h1v1h-1zm197 0h1v1h-1zm106 0h1v1h-1zm11 0h1v1h-1zm2 0h1v1h-1zm-344 2h1v1h-1zm-8 1h1v1h-1zm15 0h1v1h-1zm-177 1h1v1h-1zm-3 1h1v1h-1zm2 0h1v1h-1zm171 0h1v1h-1zm9 7h1v1h-1zm313 0h1v1h-1zm-47 1h1v1h-1zm38 3h1v1h-1zm-22 9h1v1h-1zm-8 3h1v1h-1zm1 2h1v1h-1zm0 2h1v1h-1zm-620 3h1v1h-1zm615 2h1v1h-1zm-619 7h1v1h-1zm-1 2h1v1h-1zm2 2h1v1h-1zm638 18h1v1h-1zm-59 1h1v1h-1zm-573 2h1v1h-1zm-19 3h1v1h-1zm-2 13h1v1h-1zm1 2h1v1h-1zm581 15h1v1h-1zm-11 3h1v1h-1zm6 5h1v1h-1zm4 0h1v1h-1zm-1 1h1v1h-1zm-16 1h1v1h-1zm-549 6h1v1h-1zm553 2h1v1h-1zm-24 2h1v1h-1zm-511 1h1v1h-1zm4 1h1v1h-1zm3 0h1v1h-1zm503 0h1v1h-1zm-510 1h1v1h-1zm-4 1h1v1h-1zm512 0h1v1h-1zm19 0h1v1h-1zm-550 1h1v1h-1zm12 0h1v1h-1zm13 0h1v1h-1zm520 1h1v1h-1zm-544 1h1v1h-1zm31 0h1v1h-1zm502 0l4 1-3 3zm8 1h1v1h-1zm-1 1h1v1h-1zm-3 3h1v1h-1zm-23 1h1v1h-1zm-476 1h1v1h-1zm502 6l-2-1 2-4zm-504-3h1v1h-1zm490 3h1v1h-1zm-1 2h1v1h-1zm-3 12h1v1h-1zm-1 1h1v1h-1zm-496 2h1v1h-1zm469 0h1v1h-1zm-2 2h1v1h-1zm2 8l2-3 1 5zm-474-2h1v1h-1zm482 0h1v1h-1zm-9 2h1v1h-1zm7 0h1v1h-1zm2 0h1v1h-1zm-474 2h1v1h-1zm460 11l-1-9 6-2 2 3-2 2v1l1 1-1 7-1 4-6 1 3-3zm9-11h1v1h-1zm2 0h1v1h-1zm-477 2h1v1h-1zm5 0h1v1h-1zm468 0h1v1h-1zm3 0h1v1h-1zm-2 1h1v1h-1zm6 2l-3 2v-4zm-457-1l2 2-2 1zm15 8l-5-2 2-1-2-5h3zm433-7h1v1h-1zm1 1h1v1h-1zm-457 1h1v1h-1zm14 3h-3l3-1zm453-2h1v1h-1zm-466 1l2 3-4-1zm500 0h1v1h-1zm-487 1h1v1h-1zm28 0h1v1h-1zm-11 1h1v1h-1zm10 0h1v1h-1zm-35 3l1-2v2zm17-2h1v1h-1zm-29 1h1v1h-1zm2 1h1v1h-1zm2 0h1v1h-1zm9 1l-2 2 1-3zm0 0v-1l3 1zm154 5h1v1h-1zm288 1h1v1h-1zm-1 1h1v1h-1zm-293 1h1v1h-1zm2 0h1v1h-1zm8 0h1v1h-1zm281 0h1v1h-1zm46 0h1v1h-1zm-47 1h1v1h-1zm-289 1h1v1h-1zm21 0h1v1h-1zm267 0h1v1h-1zm45 1h1v1h-1zm-344 3h1v1h-1zm-40 1h1v1h-1zm294 0h1v1h-1zm88 0h1v1h-1zm-385 1h1v1h-1zm384 0h1v1h-1zm-87 1h1v1h-1zm44 0h1v1h-1zm-335 4h1v1h-1zm116 0h1v1h-1zm-129 1h1v1h-1zm14 0h1v1h-1zm-23 3h1v1h-1zm-44 1h1v1h-1zm20 0h1v1h-1zm32 0h1v1h-1zm11 0h1v1h-1zm2 0h1v1h-1zm-14 4h1v1h-1zm377 0h1v1h-1zm-376 1l2 1-2 5-3-1z"/>
		<path id="Path 5" fill-rule="evenodd" class="s1" d="m412 128h1v1h-1zm6 0h1v1h-1zm4 1h1v1h-1zm-17 1h1v1h-1zm-5 3h1v1h-1zm4 0h1v1h-1zm-2 1h1v1h-1zm10 4h1v1h-1zm-6 4h1v1h-1zm-27 2h1v1h-1zm-5 1h1v1h-1zm-4 1h1v1h-1zm3 276h1v1h-1zm2 11h1v1h-1zm-4 1h1v1h-1zm3 0h1v1h-1zm-2 1h1v1h-1zm3 2h1v1h-1zm-9 7h1v1h-1zm27 4l7 3h-7zm-28 5h1v1h-1zm1 2h1v1h-1zm10 2h1v1h-1zm-9 1h1v1h-1zm350 1h1v1h-1zm-349 1h1v1h-1zm-5 2h1v1h-1zm2 3h1v1h-1zm34 4h1v1h-1zm-5 1h1v1h-1zm4 0h1v1h-1zm3 0h1v1h-1zm-18 1h1v1h-1zm19 0h1v1h-1zm-18 1h1v1h-1zm8 6h1v1h-1zm-1 1h1v1h-1zm-7 6h1v1h-1zm197 247h1v1h-1zm4 2h1v1h-1zm-434 3h1v1h-1zm430 2h1v1h-1zm4 4h1v1h-1z"/>
	</g>
</svg>