<svg version="1.2" xmlns="http://www.w3.org/2000/svg" viewBox="0 0 800 800" width="800" height="800">
	<title>image</title>
	<style>
		.s0 { opacity: 1;fill: #000000 } 
		.s1 { fill: #3178c6 } 
		.s2 { fill: #ffffff } 
	</style>
	<g id="Background">
		<path id="Path 0" class="s0" d="m0 800v-800h800v800z"/>
		<path id="Path 1" fill-rule="evenodd" class="s1" d="m16 16h768v768h-768zm296 340h1v1h-1zm-17 4h1v1h-1zm22 10l1-8 1 1 6 2 5-3v3 1 1l-4 1h-1l-3 1v4l-1-2-4 2v-2zm160-5h1v1h-1zm-189 5h-3l2-2 1 1zm57 1l3-2h3l1 2-1 2-4-1-1 3-1-3zm8-2h1v1h-1zm-36 2l-3 1 3-2zm50 5v-2h1zm155-2v2l-1-2zm-12 1h1v1h-1zm-250 2v-1h2l1 1 2 1-1 3-5-1 1-2zm7 1l2-2v2zm239-2h1v1h-1zm3 1v2l-2-2zm-242 3l-1-2h1zm2 0l1-1v3h-4l1-2h1zm224-1h1v1h-1zm-3 1l1 2-3-2zm-104 30l-2-1 2-3 1 2zm-1 2l1-2h2v1l-1 1zm49 11v-2h1zm-63 53h1v1h-1zm-2 6l2-2-1 2zm195-1l2-1-1 3zm11 8h1v1h-1zm8 14l-2 1 2-2zm9 24h-2l2-2zm-161-1h1v1h-1zm1 14h1v1h-1zm11 18v-2l2 2zm6 3l2 1-1 1h-1z"/>
		<path id="Path 2" fill-rule="evenodd" class="s2" d="m303 337h1v1h-1zm-40 8h1v1h-1zm40 5v-4h3l3 4 2 2-5 3 2 3h1 3v-1l1-1 5 6-1 8-3 2 3-1v2l4-2 1 2v-4l3-1h1l4-1v-1-1-3l4 2 2-12-1 2h6l-2 3v1l-1 1h-1 1l1-1v3l5 4 1 1 1 2 2 1-3 2-1 1h1l1 3 1-3 4 1h2l1-1 2-1-1 7 2 1-1-4 3-3 2 4-2 2 4 4-2-5 5-1h1l1-2h1 3 1l8 1 6-5 3 2-3 4h3l5 2h1 3l1-4 1 2v1l3 1 3-4-2-2 8 3v1l2 1h4v5l-5 1 2 2-5 4v26h-13l-3-5-2 3-2-1v-1h-1-2v-1-1l-1-1-1-2-2 3 2 1-1 2h-1l-3-3-2 6-20-1-2 32-7 2 3 2-3 1 1 8-1 7 6-1 2 4 8-2 6 9h-1l1 1-2 5 1-2-2 2-3 1v3l-10-1-3 21h-9l1 2-1 16h8l-3 52h-31l-2-49-12 1v-3l-3-6 3-8-1-2h12l-1-17 12-4-3-4 2-2-3-1 1-4h3l-1-3-21-5v-1-8-1l-1-6 9-1-1-33-2-6-5-2 1-2h-4l-1 4-12 2-2 1-2-1-27 2-2-37-3-3 2-1 2 2v-4h3l1 2v1 1l-1 2-1 1v1-1l1-1 5 1 1-3h1l1 2-1 2h4v-3l-1-1v-2l-2 2h-1l1-8 2 1h3l-1-3h6l2-3h1 2l1 2h1l3 1-2 2h3 1 2l2 2 2-3 5 5v-2-1l-9-10-1-5 5 4 1 1v-1l-1-3 3-2 7-3v1-1zm-41-4h1v1h-1zm92 1h1v1h-1zm-1 1h1v1h-1zm-27 8l1-7 2 1 1 2v1l2 6-2 3-5 3-6-2v-1zm3-7h1v1h-1zm23 0h1v1h-1zm-50 1h1v1h-1zm11 5v-5h4zm5-5h1v1h-1zm21 0h1v1h-1zm14 0h1v1h-1zm2 0h1v1h-1zm-85 1h1v1h-1zm31 0h1v1h-1zm29 0h1v1h-1zm6 0h1v1h-1zm16 3l1-3 2 2zm-65-2h1v1h-1zm69 0h1v1h-1zm-55 1h1v1h-1zm57 0h1v1h-1zm-69 1h1v1h-1zm61 1l2-1 3 1v1l1 4-3 2v-6l-7 1 3-2zm-1-1h1v1h-1zm6 0h1v1h-1zm-86 1h1v1h-1zm43 0h1v1h-1zm-44 1h1v1h-1zm40 2l2-2-1 2zm3-2h1v1h-1zm-28 1h1v1h-1zm-1 1h1v1h-1zm1 5l-3-1 3-3 2 4zm12-4h1v1h-1zm52 0h1v1h-1zm5 0h1v1h-1zm-79 1h1v1h-1zm6 5l-1-5 2 5zm199 0l6-4 2 3 3-1-1 2-1 2v2l1 2-9 7 4 1v1h5l3 2-1-2h2 1l1-1h2l10-3 1 1 2 2v-2l1-1 1-1 5 2 5-3 1 2v-2l6 1v-4l5 2h1l7-2 1 2 1-3 7 6v3l-5 2 5 2-1 4 4-1 2 5 2 1 5 1v3l3 2 7 5 1-2 3 3-2 3-1 1 1-1 2 1-1 4h6l2 4-2 1v1 1l2 11-7 1-3 8-3-3-3 3-5-2-12 5-4-3-9 2-6-4 1-4h6l-7-15-36-5-20 16 5 11h-4l1 5h-3v3 1l3 7 5-3v4l7-4v3l7-1 2 4 2-4 3 3 17 3 5 4-7 5v1l-6 5-3-1-3 5-2-2-1 4-5 2h-1l-2-2v4l-1-2-2 2-6 4-2-1-1 4h-3l-1 1h1l-2 6-4 1-4-2 3-6-25-12-2-6 6-1 2-4-3-2-1 5-4-2h-1l-2-1 1-3-5 1-2-4v-1l-4-4-10-1 2-3 10-1-4-11-3-1 4-8v-1h-2l-3-1 4-8h3v1-1-1l1-2 1-1v-1l1-2 1-3 2 3 2-5 1-6 3-1 9-14 4 1 1-6 3 1-1-5 3 1 2-4-1-3 5 1 2-6 4-1-1-4h1zm3-4h1v1h-1zm-163 1h1v1h-1zm30 0h1v1h-1zm130 0h1v1h-1zm-209 1h1v1h-1zm75 2l1-2v3zm8-1l2-1v3zm3-1h1v1h-1zm1 1h1v1h-1zm121 0h1v1h-1zm-129 5l2-1-2-3h3v4zm125-4h1v1h-1zm3 0h1v1h-1zm12 0h1v1h-1zm-205 1h1v1h-1zm-25 4l7-3v5zm13-3h1v1h-1zm81 0h1v1h-1zm121 0h1v1h-1zm14 2v-2l2 2zm-200-1h1v1h-1zm2 0h1v1h-1zm64 0h1v1h-1zm-87 1h1v1h-1zm22 0h1v1h-1zm3 0h1v1h-1zm61 2l-1-2h2v1zm2-2h1v1h-1zm185 0h1v1h-1zm-282 1h1v1h-1zm95 1l1-1h1v2l-1 1h-2zm7 1l-2-2 4 1zm114-2h1v1h-1zm61 0h1v1h-1zm-280 1h1v1h-1zm2 0h1v1h-1zm2 0h1v1h-1zm41 0h1v1h-1zm-40 3v-2l2 1zm2-2h1v1h-1zm110 0h1v1h-1zm3 0h1v1h-1zm159 0h1v1h-1zm-281 5l2-4v3zm11-1v-3h3zm104-3h1v1h-1zm2 0h1v1h-1zm3 0h1v1h-1zm149 0h1v1h-1zm-155 3l1-2v2zm100-2h1v1h-1zm44 0h1v1h-1zm-93 1h1v1h-1zm89 0h1v1h-1zm1 1l3-1v1l-1 1h-2zm-245 0h1v1h-1zm139 1v-1l2 1zm14-1h1v1h-1zm-20 1h1v1h-1zm156 0h1v1h-1zm-284 3v-2h2v1l-1 1zm216-2h1v1h-1zm3 0h1v1h-1zm7 0h1v1h-1zm-224 1h1v1h-1zm223 0h1v1h-1zm-34 9h1v1h-1zm98 0h1v1h-1zm6 4h1v1h-1zm3 5h1v1h-1zm6 1h1v1h-1zm-2 1h1v1h-1zm7 8h1v1h-1zm3 0l2 2-2 2zm-193 3l1-2 1 1v1zm-83 0h1v1h-1zm137 0h1v1h-1zm-50 1h1v1h-1zm-7 1h1v1h-1zm10 1h1v1h-1zm44 0h1v1h-1zm-152 3h1v1h-1zm298 0h1v1h-1zm-2 1h1v1h-1zm-147 4v-3l2 1v1l-1 1zm-158-2l5 1-2 2-4-1zm158 4h-2l2-2zm-4 0h1v1h-1zm-6 5h1v1h-1zm2 0h1v1h-1zm-2 3h1v1h-1zm2 1h1v1h-1zm6 2l-2-1h2zm97 9l1-3-4 1-1-7 7 4v4zm41-4h1v1h-1zm-46 1h1v1h-1zm12 1h1v1h-1zm-8 2h1v1h-1zm-54 5h1v1h-1zm-121 1h1v1h-1zm123 1h1v1h-1zm-182 19l1-15 6 4 1 8-4 5-4-1zm57-10h1v1h-1zm81 0h1v1h-1zm5 5h-2l2-1zm-134 4h1v1h-1zm-10 1h1v1h-1zm79 1h1v1h-1zm156 6l3-5 7 2 1-3 6 4 1-3h1l7-1 4 6 7 1 1 3-2 1 1 2 1-3 1 3 4 2 1-2 4 6h-1-2 2l1 1v1l4 4-2 2 5 3v2l-2 2 2-1h1l2 2v3l1 6 6 3v3l-3 1 2 4-2 2h2l4 4-1 1h1v5h3l-2 5h1l-2 5 2 3-2 2-2 2-1-3-2-3-4 3-3-4-6 5-20 19 7 1-4 7h-1l-7 2-1-2-2 1-2-2-8 2-3 1-1-2-5 2h-1-6l-24 3h-1l-4 1-3-3-3-1h-1l-16-5h-1l-2-1-11-6-4-5h-1l-2-2-2-1-1-4-1 4-4-2v-1h2l-2-2-9-2-1-4 2-4-3-5 1-1h-1v-2-1l-2-2 2-3-3-1 2-2v-2l1-1h-1l-1-9 2 2 5-3 2 9 5-1 3-1 5 3 2-4 3 2h1l3-2h10l9 19 32 4 29-13-8-24-30-8-8 1-1-1-4-2 1-3 2 2h1l-1-4 4 1 5-5 10-4-1-3 4 2v-3h4l-1-3 3 2h1v-1l1-3 4 2zm-77-6h1v1h-1zm67 0h1v1h-1zm-76 0h1v1h-1zm104 0h1v1h-1zm-107 1h1v1h-1zm6 0h1v1h-1zm81 3h1v1h-1zm-4 1h1v1h-1zm-150 1h1v1h-1zm140 0h1v1h-1zm53 0h1v1h-1zm7 2h1v1h-1zm-57 1h1v1h-1zm6 0h1v1h-1zm52 1h1v1h-1zm2 0h1v1h-1zm-205 2v2l-1-2zm201 0h1v1h-1zm-250 2h1v1h-1zm176 0h1v1h-1zm-173 2h1v1h-1zm177 2h1v1h-1zm75 1h1v1h-1zm-96 4h1v1h-1zm3 0h1v1h-1zm10 3h1v1h-1zm-5 1h1v1h-1zm95 2h1v1h-1zm-90 1h1v1h-1zm-22 1h1v1h-1zm23 0h1v1h-1zm89 1h1v1h-1zm-117 1h1v1h-1zm122 8h1v1h-1zm-159 5h1v1h-1zm-1 2h1v1h-1zm0 2h1v1h-1zm33 1h1v1h-1zm-4 3l1-2v2zm-155 0h1v1h-1zm290 1l2-1v3h-2zm-289 0h1v1h-1zm127 1h1v1h-1zm164 1h1v1h-1zm2 4h1v1h-1zm1 4h1v1h-1zm-165 3h-2l2-1zm-3 2h1v1h-1zm2 0h1v1h-1zm166 1h1v1h-1zm-164 14h1v1h-1zm2 0h1v1h-1zm157 0h1v1h-1zm9 0h1v1h-1zm3 0h1v1h-1zm-161 3h-2l2-2zm155-2h1v1h-1zm-2 2h1v1h-1zm2 0h1v1h-1zm-156 1h1v1h-1zm7 4h1v1h-1zm4 3v-2h1zm-1 0h1v1h-1zm5 3h1v1h-1zm2 2h1v1h-1zm108 0h1v1h-1zm-1 1h1v1h-1zm-98 3h1v1h-1zm3 1h1v1h-1zm89 3h1v1h-1zm-14 1h1v1h-1zm15 0h1v1h-1zm-73 1h1v1h-1zm42 0h1v1h-1zm6 0h1v1h-1zm16 0h1v1h-1zm-8 1h1v1h-1zm-55 1h1v1h-1zm20 0h1v1h-1zm-10 1h1v1h-1zm5 1h1v1h-1zm3 0h1v1h-1zm-10 1h1v1h-1zm2 1h1v1h-1z"/>
		<path id="Path 3" class="s1" d="m306 350h1v1h-1zm2 0h1v1h-1zm-3 2h1v1h-1zm44 3h1v1h-1zm5 1h1v1h-1zm-46 2h1v1h-1zm4 0h1v1h-1zm15 0h1v1h-1zm9 0h1v1h-1zm2 0h1v1h-1zm-1 1h1v1h-1zm-31 2h1v1h-1zm32 0h1v1h-1zm-19 1h1v1h-1zm165 1h1v1h-1zm-205 2h1v1h-1zm51 0h1v1h-1zm3 0h1v1h-1zm11 0h1v1h-1zm132 1h1v1h-1zm-193 1h1v1h-1zm47 0h1v1h-1zm148 0h1v1h-1zm-178 1h1v1h-1zm25 0h1v1h-1zm18 0h1v1h-1zm2 0h1v1h-1zm-57 2h1v1h-1zm51 0h1v1h-1zm13 0h1v1h-1zm-84 1h1v1h-1zm32 0h1v1h-1zm44 0h1v1h-1zm-67 1h1v1h-1zm66 0h1v1h-1zm10 0h1v1h-1zm-84 1h1v1h-1zm9 0h1v1h-1zm38 0h1v1h-1zm217 0h1v1h-1zm6 0h1v1h-1zm-239 1h1v1h-1zm72 0h1v1h-1zm165 0h1v1h-1zm-222 1h1v1h-1zm28 2l2-2 4 2h-3l1 4zm-1-1h1v1h-1zm24 0h1v1h-1zm34 0h1v1h-1zm12 0h1v1h-1zm97 0h1v1h-1zm-252 1h1v1h-1zm2 0h1v1h-1zm90 0h1v1h-1zm155 0h1v1h-1zm41 0h1v1h-1zm-276 1h1v1h-1zm45 0h1v1h-1zm44 0h1v1h-1zm37 0h1v1h-1zm72 0h1v1h-1zm-199 1h1v1h-1zm120 0h1v1h-1zm-130 1h1v1h-1zm97 0h1v1h-1zm34 0h1v1h-1zm18 0h1v1h-1zm61 0h1v1h-1zm14 0h1v1h-1zm10 0h1v1h-1zm-235 1h1v1h-1zm4 0h1v1h-1zm95 2h-3l2-2 1 1zm0-2h1v1h-1zm116 0h1v1h-1zm-214 1h1v1h-1zm2 0h1v1h-1zm5 0h1v1h-1zm61 0h1v1h-1zm145 0h1v1h-1zm11 0h1v1h-1zm-132 1h1v1h-1zm8 3h-3l1-3 2 2zm106-3h1v1h-1zm4 1h1v1h-1zm-110 1h1v1h-1zm-5 2h1v1h-1zm198 1h1v1h-1zm-197 3h1v1h-1zm200 0h1v1h-1zm2 1h1v1h-1zm-104 6h1v1h-1zm120 5h1v1h-1zm-184 2h1v1h-1zm58 0h1v1h-1zm-57 2h1v1h-1zm56 0h1v1h-1zm128 0h1v1h-1zm-186 1h1v1h-1zm60 0h1v1h-1zm125 0h1v1h-1zm-184 1h1v1h-1zm2 1h1v1h-1zm57 0h1v1h-1zm125 0h1v1h-1zm-181 1h1v1h-1zm51 1h1v1h-1zm-155 2h1v1h-1zm292 0h1v1h-1zm-142 3h1v1h-1zm143 0h1v1h-1zm-144 2h1v1h-1zm144 0h1v1h-1zm-145 1h1v1h-1zm-1 4h1v1h-1zm140 7h1v1h-1zm-142 2h1v1h-1zm39 18l-2-5h3zm-122-4h1v1h-1zm116 3l-2-2 3 1zm8-2h1v1h-1zm-8 2l1-1 1 2zm6 1l1 5-2-3-2 2v-6zm-5 1h1v1h-1zm7 0h1v1h-1zm20 4h1v1h-1zm-12 1h1v1h-1zm-177 1h1v1h-1zm179 1h1v1h-1zm2 0h1v1h-1zm-181 1h1v1h-1zm135 2h1v1h-1zm-2 1h1v1h-1zm3 1h1v1h-1zm-136 4h1v1h-1zm-10 1h1v1h-1zm62 0h1v1h-1zm8 0h1v1h-1zm90 0h1v1h-1zm-9 1h1v1h-1zm72 0h1v1h-1zm-151 1h1v1h-1zm180 0h1v1h-1zm-178 2h1v1h-1zm144 0h1v1h-1zm21 0h1v1h-1zm-208 1h1v1h-1zm45 1h1v1h-1zm158 1h1v1h-1zm29 0h1v1h-1zm-233 2h1v1h-1zm198 1h1v1h-1zm-1 1h1v1h-1zm-23 1h1v1h-1zm-133 1h1v1h-1zm132 1h1v1h-1zm69 0h1v1h-1zm-56 4h1v1h-1zm-185 2h1v1h-1zm247 0h1v1h-1zm-69 1h1v1h-1zm2 0h1v1h-1zm68 1h1v1h-1zm2 0h1v1h-1zm-3 1h1v1h-1zm-93 1h1v1h-1zm-1 1h1v1h-1zm99 0h1v1h-1zm-84 3h1v1h-1zm4 2h1v1h-1zm-3 1h1v1h-1zm89 3h1v1h-1zm2 2h1v1h-1zm-241 3h1v1h-1zm-40 3h1v1h-1zm-1 6h1v1h-1zm287 2h1v1h-1zm-2 1h1v1h-1zm-245 4h1v1h-1zm114 0h1v1h-1zm-25 1h1v1h-1zm2 1h1v1h-1zm157 4h1v1h-1zm4 1h1v1h-1zm-162 1h1v1h-1zm161 0h1v1h-1zm-162 2h1v1h-1zm0 3h1v1h-1zm163 0h1v1h-1zm-162 2h1v1h-1zm164 3h1v1h-1zm-3 1h1v1h-1zm-159 2h1v1h-1zm0 4h1v1h-1zm160 2h1v1h-1zm-156 3h1v1h-1zm7 0h1v1h-1zm7 7h1v1h-1zm0 2h1v1h-1zm18 12h1v1h-1zm67 3h1v1h-1zm14 0h1v1h-1zm8 0h1v1h-1zm-20 1h1v1h-1zm-52 1h1v1h-1zm26 0h1v1h-1zm10 0h1v1h-1zm6 0h1v1h-1zm-38 1h1v1h-1zm9 1h1v1h-1zm-2 1h1v1h-1z"/>
		<path id="Path 4" class="s0" d="m463 571h1v1h-1z"/>
		<path id="Path 5" class="s2" d="m329 365h1v1h-1zm-4 2h1v1h-1zm-8 3h1v1h-1zm-55 1h1v1h-1zm83 0h1v1h-1zm-85 6h1v1h-1zm8 3h1v1h-1zm87 1h1v1h-1zm32 30h1v1h-1zm-104 4h1v1h-1zm167 147h1v1h-1zm-93-177h1v1h-1zm108 64h1v1h-1z"/>
	</g>
</svg>