<?xml version="1.0" encoding="UTF-8" standalone="no"?>
<svg
   version="1.2"
   viewBox="0 0 312 313"
   width="312"
   height="313"
   id="svg1"
   sodipodi:docname="comic-pattern-00.svg"
   inkscape:version="1.4.2 (f4327f4, 2025-05-13)"
   xmlns:inkscape="http://www.inkscape.org/namespaces/inkscape"
   xmlns:sodipodi="http://sodipodi.sourceforge.net/DTD/sodipodi-0.dtd"
   xmlns="http://www.w3.org/2000/svg"
   xmlns:svg="http://www.w3.org/2000/svg">
  <defs
     id="defs1" />
  <sodipodi:namedview
     id="namedview1"
     pagecolor="#ffffff"
     bordercolor="#000000"
     borderopacity="0.25"
     inkscape:showpageshadow="2"
     inkscape:pageopacity="0.0"
     inkscape:pagecheckerboard="0"
     inkscape:deskcolor="#d1d1d1"
     inkscape:zoom="3.0817308"
     inkscape:cx="293.82839"
     inkscape:cy="196.80499"
     inkscape:window-width="2560"
     inkscape:window-height="1369"
     inkscape:window-x="-8"
     inkscape:window-y="-8"
     inkscape:window-maximized="1"
     inkscape:current-layer="Background" />
  <title
     id="title1">image</title>
  <style
     id="style1">
		.s0 { fill: #f7f7f7 } 
		.s1 { fill: #4e4e4e } 
	</style>
  <g
     id="Background">
    <path
       id="Path 1"
       class="s1"
       d="m57 308l7 3h-10z" />
    <path
       id="Path 2"
       class="s1"
       d="m38 308l9 3h-12z" />
    <path
       id="Path 3"
       class="s1"
       d="m19 308h8l2 3h-12z" />
    <path
       id="Path 4"
       class="s1"
       d="m3 307h5l4 4h-11z" />
    <path
       id="Path 5"
       class="s1"
       d="m297 295l5 4-6 1z" />
    <path
       id="Path 6"
       class="s1"
       d="m279 295l5 1v4l-5 1z" />
    <path
       id="Path 7"
       class="s1"
       d="m262 294l4 1v5h-6z" />
    <path
       id="Path 8"
       class="s1"
       d="m243 294l6 2v4l-6 1z" />
    <path
       id="Path 9"
       class="s1"
       d="m225 294h5l2 5-3 3-5-1z" />
    <path
       id="Path 10"
       class="s1"
       d="m208 293l6 2v5l-8 1-1-5z" />
    <path
       id="Path 11"
       class="s1"
       d="m190 293l6 1 1 6-8 2-2-6z" />
    <path
       id="Path 12"
       class="s1"
       d="m171 293l8 2v6l-7 2-3-3z" />
    <path
       id="Path 13"
       class="s1"
       d="m155 292l7 3v5l-2 3-9-2v-6z" />
    <path
       id="Path 14"
       class="s1"
       d="m136 292l7 1 2 6-5 5-5-1-2-8z" />
    <path
       id="Path 15"
       class="s1"
       d="m120 291l6 2 1 8-3 3-9-3v-7z" />
    <path
       id="Path 16"
       class="s1"
       d="m100 291h6l4 4v5l-3 4h-8l-3-8z" />
    <path
       id="Path 17"
       class="s1"
       d="m82 291h7l4 8-5 6-7-1-3-9z" />
    <path
       id="Path 18"
       class="s1"
       d="m1 291l4 9-4 4z" />
    <path
       id="Path 19"
       class="s1"
       d="m65 290l10 4v7l-4 4-10-2-1-8z" />
    <path
       id="Path 20"
       class="s1"
       d="m46 290h7l5 5-4 10-7 1-5-5v-7z" />
    <path
       id="Path 21"
       class="s1"
       d="m28 290h8l4 4v7l-5 5-8-1-3-11z" />
    <path
       id="Path 22"
       class="s1"
       d="m10 290l11 2 1 10-5 4-8-1-3-10z" />
    <path
       id="Path 23"
       class="s1"
       d="m306 277l4 1v4h-5z" />
    <path
       id="Path 24"
       class="s1"
       d="m288 277l5 1v4l-5 1z" />
    <path
       id="Path 25"
       class="s1"
       d="m270 277l5 1v4l-5 1z" />
    <path
       id="Path 26"
       class="s1"
       d="m253 276l5 2v4l-7 1z" />
    <path
       id="Path 27"
       class="s1"
       d="m234 276h5l2 5-7 3z" />
    <path
       id="Path 28"
       class="s1"
       d="m216 276h5l2 6-7 2-2-3z" />
    <path
       id="Path 29"
       class="s1"
       d="m199 275h4l3 6-7 4-3-3z" />
    <path
       id="Path 30"
       class="s1"
       d="m180 275l8 2v6l-9 1z" />
    <path
       id="Path 31"
       class="s1"
       d="m164 274l6 2 1 6-5 4-6-3v-6z" />
    <path
       id="Path 32"
       class="s1"
       d="m145 274h5l4 7-4 5h-5l-3-3z" />
    <path
       id="Path 33"
       class="s1"
       d="m127 274l9 3v6l-3 3-8-1-2-6z" />
    <path
       id="Path 34"
       class="s1"
       d="m110 273l8 3 1 6-5 5-6-1-3-8z" />
    <path
       id="Path 35"
       class="s1"
       d="m91 273l10 3v8l-10 3-4-4v-6z" />
    <path
       id="Path 36"
       class="s1"
       d="m75 272l8 3 1 8-6 5-8-3-1-8z" />
    <path
       id="Path 37"
       class="s1"
       d="m56 272l8 1 3 5-3 9h-10l-3-3v-8z" />
    <path
       id="Path 38"
       class="s1"
       d="m37 272h8l4 5v6l-5 5h-7l-4-4v-8z" />
    <path
       id="Path 39"
       class="s1"
       d="m19 272h8l4 4v8l-4 4h-8l-4-5v-6z" />
    <path
       id="Path 40"
       class="s1"
       d="m2 272h7l5 9-5 7h-7z" />
    <path
       id="Path 41"
       class="s1"
       d="m297 259l5 1v4l-6 1z" />
    <path
       id="Path 42"
       class="s1"
       d="m278 259h5l2 4-6 3z" />
    <path
       id="Path 43"
       class="s1"
       d="m261 258l6 2v5l-8-1z" />
    <path
       id="Path 44"
       class="s1"
       d="m243 258h5l2 6-3 3-5-1z" />
    <path
       id="Path 45"
       class="s1"
       d="m227 257l5 3-2 7h-5l-2-7z" />
    <path
       id="Path 46"
       class="s1"
       d="m208 257l7 3v4l-2 3h-6l-2-8z" />
    <path
       id="Path 47"
       class="s1"
       d="m189 257h6l3 7-4 4-6-1-2-6z" />
    <path
       id="Path 48"
       class="s1"
       d="m173 256l7 3v6l-3 3-8-2-1-5z" />
    <path
       id="Path 49"
       class="s1"
       d="m153 256l8 1 2 7-5 5-5-1-3-3z" />
    <path
       id="Path 50"
       class="s1"
       d="m1 256l4 8-4 5z" />
    <path
       id="Path 51"
       class="s1"
       d="m137 255l6 1 3 7-5 6-7-1-2-9z" />
    <path
       id="Path 52"
       class="s1"
       d="m118 255h6l4 4-2 9-9 1-3-3v-7z" />
    <path
       id="Path 53"
       class="s1"
       d="m99 255h8l4 9-5 6-7-1-4-6z" />
    <path
       id="Path 54"
       class="s1"
       d="m83 254l10 4v8l-4 4h-7l-4-3-1-7z" />
    <path
       id="Path 55"
       class="s1"
       d="m64 254l10 2 2 9-4 5h-9l-4-10z" />
    <path
       id="Path 56"
       class="s1"
       d="m47 254l10 3 1 9-4 4-11-2-2-7z" />
    <path
       id="Path 57"
       class="s1"
       d="m29 254l10 3 1 9-4 4h-8l-4-4v-7z" />
    <path
       id="Path 58"
       class="s1"
       d="m11 254h6l5 4v8l-4 4-11-3-1-8z" />
    <path
       id="Path 59"
       class="s1"
       d="m306 241l5 2v3l-5 2z" />
    <path
       id="Path 60"
       class="s1"
       d="m288 241l5 1v5l-7-1z" />
    <path
       id="Path 61"
       class="s1"
       d="m271 240l5 2v5l-3 2-5-2z" />
    <path
       id="Path 62"
       class="s1"
       d="m252 240l7 3-3 6h-4l-2-3z" />
    <path
       id="Path 63"
       class="s1"
       d="m234 240l7 2v5l-7 2z" />
    <path
       id="Path 64"
       class="s1"
       d="m217 239l7 4-2 6h-7l-1-8z" />
    <path
       id="Path 65"
       class="s1"
       d="m198 239l8 2v7l-3 2-7-2-1-5z" />
    <path
       id="Path 66"
       class="s1"
       d="m180 239l8 1 1 7-9 3-3-4z" />
    <path
       id="Path 67"
       class="s1"
       d="m163 238h5l4 8-5 5-6-1-2-8z" />
    <path
       id="Path 68"
       class="s1"
       d="m144 238h7l3 3v7l-3 3h-7l-3-3v-7z" />
    <path
       id="Path 69"
       class="s1"
       d="m128 237l8 3 1 7-6 5-8-4v-7z" />
    <path
       id="Path 70"
       class="s1"
       d="m109 237l8 1 3 8-5 6-8-1-3-8z" />
    <path
       id="Path 71"
       class="s1"
       d="m93 236l9 5-2 10-10 1-4-10z" />
    <path
       id="Path 72"
       class="s1"
       d="m74 236l10 4 1 7-6 6-7-1-4-10z" />
    <path
       id="Path 73"
       class="s1"
       d="m56 236l7 1 4 5-4 10h-9l-4-9z" />
    <path
       id="Path 74"
       class="s1"
       d="m39 236l9 3 1 9-6 5-9-3-1-9z" />
    <path
       id="Path 75"
       class="s1"
       d="m21 236l9 3 1 9-7 5-8-4-1-8z" />
    <path
       id="Path 76"
       class="s1"
       d="m4 236l8 3 1 9-4 4h-8v-15z" />
    <path
       id="Path 77"
       class="s1"
       d="m296 223h5l2 5-6 3z" />
    <path
       id="Path 78"
       class="s1"
       d="m279 222l6 2v5l-2 2-6-2z" />
    <path
       id="Path 79"
       class="s1"
       d="m261 222l6 1 1 6-8 2-2-6z" />
    <path
       id="Path 80"
       class="s1"
       d="m242 222l8 2v6l-7 2-3-3z" />
    <path
       id="Path 81"
       class="s1"
       d="m225 221l8 3v5l-3 3-7-1-1-7z" />
    <path
       id="Path 82"
       class="s1"
       d="m207 221h6l3 4-3 7-5 1-4-4z" />
    <path
       id="Path 83"
       class="s1"
       d="m1 221l3 2v8l-3 2z" />
    <path
       id="Path 84"
       class="s1"
       d="m190 220l8 3v7l-3 3-9-3v-7z" />
    <path
       id="Path 85"
       class="s1"
       d="m171 220l8 1 2 8-3 4-9-1-2-7z" />
    <path
       id="Path 86"
       class="s1"
       d="m155 219l8 4 1 5-5 6-7-1-3-8z" />
    <path
       id="Path 87"
       class="s1"
       d="m136 219l10 4v7l-4 4h-7l-3-3-1-7z" />
    <path
       id="Path 88"
       class="s1"
       d="m117 219h8l4 10-6 6-8-2-2-10z" />
    <path
       id="Path 89"
       class="s1"
       d="m46 219h8l4 5-2 9-9 2-5-5v-7z" />
    <path
       id="Path 90"
       class="s1"
       d="m28 219h8l4 5v6l-6 5-8-2-2-9z" />
    <path
       id="Path 91"
       class="s1"
       d="m11 219h7l4 4v7l-6 5-6-1-4-10z" />
    <path
       id="Path 92"
       class="s1"
       d="m101 218l9 3 1 10-5 4-10-3-1-9z" />
    <path
       id="Path 93"
       class="s1"
       d="m84 218l9 4 1 7-6 6-9-2-2-9z" />
    <path
       id="Path 94"
       class="s1"
       d="m66 218l9 4 1 7-6 6-10-4v-9z" />
    <path
       id="Path 95"
       class="s1"
       d="m289 204l5 2v5l-8 1-1-4z" />
    <path
       id="Path 96"
       class="s1"
       d="m270 204l7 3v4l-8 2-2-6z" />
    <path
       id="Path 97"
       class="s1"
       d="m251 204l8 2v6l-7 2-3-3z" />
    <path
       id="Path 98"
       class="s1"
       d="m235 203l7 3v5l-2 3-9-2v-6z" />
    <path
       id="Path 99"
       class="s1"
       d="m216 203l7 1 2 6-4 5-6-1-2-8z" />
    <path
       id="Path 100"
       class="s1"
       d="m197 203h7l3 3-3 9h-6l-3-3z" />
    <path
       id="Path 101"
       class="s1"
       d="m181 202l8 3 1 6-5 5-6-1-3-8z" />
    <path
       id="Path 102"
       class="s1"
       d="m162 202h7l4 6-3 7-8 1-4-5z" />
    <path
       id="Path 103"
       class="s1"
       d="m145 201l9 3 1 8-6 5-8-3-1-8z" />
    <path
       id="Path 104"
       class="s1"
       d="m126 201l9 1 3 9-5 6-8-1-3-11z" />
    <path
       id="Path 105"
       class="s1"
       d="m108 201h8l4 4-1 9-10 3-5-5v-7z" />
    <path
       id="Path 106"
       class="s1"
       d="m90 201l10 1 3 8-5 7-9-1-3-10z" />
    <path
       id="Path 107"
       class="s1"
       d="m73 201l9 1 3 5-5 10h-7l-5-6 1-7z" />
    <path
       id="Path 108"
       class="s1"
       d="m55 201l9 1 3 9-5 6-8-1-3-3v-8z" />
    <path
       id="Path 109"
       class="s1"
       d="m38 201l10 3 1 8-5 5-8-1-3-10z" />
    <path
       id="Path 110"
       class="s1"
       d="m20 201h6l5 5-3 10-8 1-5-6 1-7z" />
    <path
       id="Path 111"
       class="s1"
       d="m2 201h6l5 4v7l-5 5-7-1z" />
    <path
       id="Path 112"
       class="s1"
       d="m297 186l6 2v6l-8 1-1-6z" />
    <path
       id="Path 113"
       class="s1"
       d="m279 186l6 1 1 6-2 3h-6l-2-8z" />
    <path
       id="Path 114"
       class="s1"
       d="m260 186h6l3 7-8 4-3-3z" />
    <path
       id="Path 115"
       class="s1"
       d="m243 185l8 3v6l-3 3-8-2-1-5z" />
    <path
       id="Path 116"
       class="s1"
       d="m224 185h7l3 8-3 4h-7l-3-4z" />
    <path
       id="Path 117"
       class="s1"
       d="m1 185l3 3v7l-3 2z" />
    <path
       id="Path 118"
       class="s1"
       d="m208 184l6 1 3 7-3 5-7 1-4-4v-6z" />
    <path
       id="Path 119"
       class="s1"
       d="m189 184l9 2 1 8-4 4-8-1-2-9z" />
    <path
       id="Path 120"
       class="s1"
       d="m173 183l8 4 1 7-6 5-9-4v-8z" />
    <path
       id="Path 121"
       class="s1"
       d="m154 183l10 4v8l-4 4-10-2-2-7z" />
    <path
       id="Path 122"
       class="s1"
       d="m135 183l9 1 3 10-4 5-10-1-3-9z" />
    <path
       id="Path 123"
       class="s1"
       d="m117 183l9 1 3 10-4 5h-8l-4-4v-8z" />
    <path
       id="Path 124"
       class="s1"
       d="m100 183l10 3 1 9-4 4-11-3-1-8z" />
    <path
       id="Path 125"
       class="s1"
       d="m82 183h6l5 4v8l-4 4-11-3-1-7z" />
    <path
       id="Path 126"
       class="s1"
       d="m65 183l7 1 4 9-5 6h-7l-4-4v-8z" />
    <path
       id="Path 127"
       class="s1"
       d="m47 183l9 2 2 8-5 6-8-1-3-3v-7z" />
    <path
       id="Path 128"
       class="s1"
       d="m30 183l8 2 2 4-3 9h-10l-3-9z" />
    <path
       id="Path 129"
       class="s1"
       d="m12 183l10 5-3 10-8 1-5-9z" />
    <path
       id="Path 130"
       class="s1"
       d="m288 168l7 3v4l-2 3h-6l-2-8z" />
    <path
       id="Path 131"
       class="s1"
       d="m269 168h6l3 6-4 5-6-1-2-6z" />
    <path
       id="Path 132"
       class="s1"
       d="m253 167l6 2 1 7-3 3-8-2-1-5z" />
    <path
       id="Path 133"
       class="s1"
       d="m234 167l8 2 1 7-5 4-5-1-3-8z" />
    <path
       id="Path 134"
       class="s1"
       d="m215 167h7l3 3v7l-3 3-8-1-2-9z" />
    <path
       id="Path 135"
       class="s1"
       d="m198 166l10 4v6l-3 4h-8l-3-3v-7z" />
    <path
       id="Path 136"
       class="s1"
       d="m180 166h7l4 9-5 6-8-1-3-8z" />
    <path
       id="Path 137"
       class="s1"
       d="m19 166h8l4 10-5 5-8-1-3-9z" />
    <path
       id="Path 138"
       class="s1"
       d="m2 166h7l4 10-5 5-7-1z" />
    <path
       id="Path 139"
       class="s1"
       d="m163 165l9 3 1 9-4 4-11-3-1-7z" />
    <path
       id="Path 140"
       class="s1"
       d="m145 165l10 4 1 7-4 5h-9l-4-10z" />
    <path
       id="Path 141"
       class="s1"
       d="m127 165l10 3 1 9-6 5-9-3-2-7z" />
    <path
       id="Path 142"
       class="s1"
       d="m110 165l9 3 1 9-7 5-9-5 1-9z" />
    <path
       id="Path 143"
       class="s1"
       d="m92 165l9 3 1 9-4 4h-8l-3-3-1-7z" />
    <path
       id="Path 144"
       class="s1"
       d="m74 165l10 4v8l-4 4-11-3v-9z" />
    <path
       id="Path 145"
       class="s1"
       d="m57 165l9 4 1 6-5 6h-7l-4-4v-7z" />
    <path
       id="Path 146"
       class="s1"
       d="m40 165l8 4 1 7-5 5h-7l-3-3-1-8z" />
    <path
       id="Path 147"
       class="s1"
       d="m296 150l7 1 1 7-8 3-3-3z" />
    <path
       id="Path 148"
       class="s1"
       d="m278 150h6l3 7-3 4-8-1-1-7z" />
    <path
       id="Path 149"
       class="s1"
       d="m1 150l3 8-3 3z" />
    <path
       id="Path 150"
       class="s1"
       d="m261 149l8 3v7l-4 3-8-3v-7z" />
    <path
       id="Path 151"
       class="s1"
       d="m242 149h7l3 4-3 9h-7l-3-3v-7z" />
    <path
       id="Path 152"
       class="s1"
       d="m226 148l8 3 1 6-5 6-7-1-3-8z" />
    <path
       id="Path 153"
       class="s1"
       d="m207 148h6l4 4-1 9-9 2-5-5 1-7z" />
    <path
       id="Path 154"
       class="s1"
       d="m188 148h8l4 10-4 5h-8l-4-5z" />
    <path
       id="Path 155"
       class="s1"
       d="m81 148l10 1 2 10-6 5-6-1-4-6z" />
    <path
       id="Path 156"
       class="s1"
       d="m64 148l10 2 1 9-4 4-9-1-2-10z" />
    <path
       id="Path 157"
       class="s1"
       d="m46 148l9 1 3 5-3 8-9 1-4-5z" />
    <path
       id="Path 158"
       class="s1"
       d="m29 148l8 1 3 8-5 6-8-1-3-8z" />
    <path
       id="Path 159"
       class="s1"
       d="m11 148l8 1 3 9-5 5-9-2-1-9z" />
    <path
       id="Path 160"
       class="s1"
       d="m172 147l7 1 3 4v8l-10 4-6-5v-7z" />
    <path
       id="Path 161"
       class="s1"
       d="m154 147l10 4 1 7-6 6-7-1-4-10z" />
    <path
       id="Path 162"
       class="s1"
       d="m137 147l9 4 1 7-6 6-10-4v-8z" />
    <path
       id="Path 163"
       class="s1"
       d="m120 147l9 5v7l-6 5-9-3-1-9z" />
    <path
       id="Path 164"
       class="s1"
       d="m102 147l9 5v7l-6 5-9-4-1-7z" />
    <path
       id="Path 165"
       class="s1"
       d="m287 132h6l3 7-5 5-5-1-2-8z" />
    <path
       id="Path 166"
       class="s1"
       d="m271 131l7 3v7l-3 3-9-3v-7z" />
    <path
       id="Path 167"
       class="s1"
       d="m251 131l9 2 1 8-5 4-6-1-3-8z" />
    <path
       id="Path 168"
       class="s1"
       d="m233 131h7l4 9-5 5-7-1-3-8z" />
    <path
       id="Path 169"
       class="s1"
       d="m216 130l10 4v7l-4 4h-7l-4-4v-6z" />
    <path
       id="Path 170"
       class="s1"
       d="m197 130h7l5 5-2 9-11 1-3-10z" />
    <path
       id="Path 171"
       class="s1"
       d="m144 130l9 1 3 9-6 6-7-1-4-9z" />
    <path
       id="Path 172"
       class="s1"
       d="m126 130l9 1 3 9-6 6-7-1-3-3v-8z" />
    <path
       id="Path 173"
       class="s1"
       d="m108 130h8l4 5-1 8-9 3-6-5v-6z" />
    <path
       id="Path 174"
       class="s1"
       d="m91 130h7l4 4v7l-6 5-6-1-4-9z" />
    <path
       id="Path 175"
       class="s1"
       d="m73 130h7l4 4v8l-3 3h-9l-3-3v-8z" />
    <path
       id="Path 176"
       class="s1"
       d="m56 130h6l4 4v8l-9 4-6-5v-6z" />
    <path
       id="Path 177"
       class="s1"
       d="m38 130l7 1 4 8-4 6h-8l-4-9z" />
    <path
       id="Path 178"
       class="s1"
       d="m21 130l9 4 1 6-4 5-9-1-2-10z" />
    <path
       id="Path 179"
       class="s1"
       d="m4 130l7 2 2 8-4 5-8-1v-13z" />
    <path
       id="Path 180"
       class="s1"
       d="m182 129l9 5v8l-3 3h-10l-3-11z" />
    <path
       id="Path 181"
       class="s1"
       d="m164 129l8 3 2 7-6 7-8-1-3-10z" />
    <path
       id="Path 182"
       class="s1"
       d="m1 115l3 7-3 3z" />
    <path
       id="Path 183"
       class="s1"
       d="m295 114h7l3 3-3 9h-7l-3-4z" />
    <path
       id="Path 184"
       class="s1"
       d="m279 113l8 3 1 6-5 5-6-1-3-8z" />
    <path
       id="Path 185"
       class="s1"
       d="m260 113l9 2 1 8-4 4-8-1-2-9z" />
    <path
       id="Path 186"
       class="s1"
       d="m28 113h8l3 3v8l-3 3h-8l-3-3v-8z" />
    <path
       id="Path 187"
       class="s1"
       d="m11 113l10 3v8l-10 3-4-4v-6z" />
    <path
       id="Path 188"
       class="s1"
       d="m243 112l9 3 1 8-6 5-9-4v-8z" />
    <path
       id="Path 189"
       class="s1"
       d="m225 112h6l5 9-6 7-7-1-3-3v-8z" />
    <path
       id="Path 190"
       class="s1"
       d="m206 112l9 1 3 10-5 5h-7l-5-7z" />
    <path
       id="Path 191"
       class="s1"
       d="m188 112h8l4 4v8l-4 4h-8l-4-4v-8z" />
    <path
       id="Path 192"
       class="s1"
       d="m171 112h7l4 4v8l-4 4-11-3-1-8z" />
    <path
       id="Path 193"
       class="s1"
       d="m153 112h7l5 10-5 6-9-1-3-9z" />
    <path
       id="Path 194"
       class="s1"
       d="m136 112l8 1 3 9-5 6-8-1-3-3v-8z" />
    <path
       id="Path 195"
       class="s1"
       d="m118 112h6l5 5-3 10-8 1-4-3-1-7z" />
    <path
       id="Path 196"
       class="s1"
       d="m101 112l9 3 1 8-5 5-9-2-2-8z" />
    <path
       id="Path 197"
       class="s1"
       d="m83 112l7 1 3 4-1 8-9 3-5-4v-5z" />
    <path
       id="Path 198"
       class="s1"
       d="m66 112l8 3 1 8-6 5-8-3-1-8z" />
    <path
       id="Path 199"
       class="s1"
       d="m49 112l8 4v8l-6 4-8-4v-8z" />
    <path
       id="Path 200"
       class="s1"
       d="m288 95l8 3 1 6-4 5-8-1-2-9z" />
    <path
       id="Path 201"
       class="s1"
       d="m269 95l9 2 1 8-3 4h-8l-3-10z" />
    <path
       id="Path 202"
       class="s1"
       d="m250 95h8l4 10-5 5-7-1-3-3v-8z" />
    <path
       id="Path 203"
       class="s1"
       d="m73 95h7l4 4-1 8-9 3-5-4v-7z" />
    <path
       id="Path 204"
       class="s1"
       d="m55 95l10 2 1 9-5 4-7-1-3-9z" />
    <path
       id="Path 205"
       class="s1"
       d="m38 95l9 2 1 9-6 4-8-4v-8z" />
    <path
       id="Path 206"
       class="s1"
       d="m21 95l8 2 1 8-3 4-10-2-1-8z" />
    <path
       id="Path 207"
       class="s1"
       d="m3 95l8 2 1 9-3 3-8-1z" />
    <path
       id="Path 208"
       class="s1"
       d="m234 94l7 1 4 8-5 7-9-1-3-8z" />
    <path
       id="Path 209"
       class="s1"
       d="m216 94l9 2 2 9-7 6-7-2-3-8z" />
    <path
       id="Path 210"
       class="s1"
       d="m198 94l10 3 1 9-4 4-11-2-1-10z" />
    <path
       id="Path 211"
       class="s1"
       d="m180 94l10 3 1 9-4 4h-8l-3-3-1-8z" />
    <path
       id="Path 212"
       class="s1"
       d="m163 94l10 4v8l-4 4-11-3-1-7z" />
    <path
       id="Path 213"
       class="s1"
       d="m145 94l7 1 4 9-5 6-9-1-3-8z" />
    <path
       id="Path 214"
       class="s1"
       d="m128 94l9 4 1 7-5 5h-7l-4-4 1-9z" />
    <path
       id="Path 215"
       class="s1"
       d="m110 94l9 4 1 7-5 5-10-3-1-7z" />
    <path
       id="Path 216"
       class="s1"
       d="m93 94l9 5-3 10h-10l-3-8z" />
    <path
       id="Path 217"
       class="s1"
       d="m11 78h7l3 9-3 4h-7l-4-5z" />
    <path
       id="Path 218"
       class="s1"
       d="m297 77l8 3 1 7-6 5-7-2-2-7z" />
    <path
       id="Path 219"
       class="s1"
       d="m278 77l8 1 3 8-5 6-8-1-3-9z" />
    <path
       id="Path 220"
       class="s1"
       d="m135 77h8l4 9-5 6h-7l-4-4v-7z" />
    <path
       id="Path 221"
       class="s1"
       d="m117 77l9 1 3 8-5 6h-7l-4-5z" />
    <path
       id="Path 222"
       class="s1"
       d="m100 77l8 1 3 8-5 6-8-1-3-8z" />
    <path
       id="Path 223"
       class="s1"
       d="m82 77l8 1 3 9-5 5-7-1-3-3v-7z" />
    <path
       id="Path 224"
       class="s1"
       d="m65 77l9 3 1 7-5 5-7-1-3-9z" />
    <path
       id="Path 225"
       class="s1"
       d="m48 77l8 3 1 7-5 5-9-4v-7z" />
    <path
       id="Path 226"
       class="s1"
       d="m31 77l7 3 1 7-3 4-10-2-1-7z" />
    <path
       id="Path 227"
       class="s1"
       d="m262 76l8 3 1 9-4 4h-8l-3-3-1-7z" />
    <path
       id="Path 228"
       class="s1"
       d="m243 76l7 1 4 9-4 6h-9l-4-10z" />
    <path
       id="Path 229"
       class="s1"
       d="m225 76l10 4 1 7-6 6-7-1-4-9z" />
    <path
       id="Path 230"
       class="s1"
       d="m208 76l9 4 1 7-6 6-9-3-1-9z" />
    <path
       id="Path 231"
       class="s1"
       d="m190 76l9 3 1 9-7 5-9-5 1-9z" />
    <path
       id="Path 232"
       class="s1"
       d="m173 76l8 3 1 9-4 4h-8l-3-3-1-7z" />
    <path
       id="Path 233"
       class="s1"
       d="m155 76l8 3 1 9-4 4-10-2-1-10z" />
    <path
       id="Path 234"
       class="s1"
       d="m37 60l9 1 2 8-5 5-6-1-3-3v-7z" />
    <path
       id="Path 235"
       class="s1"
       d="m20 60h6l4 4-3 9h-8l-3-8z" />
    <path
       id="Path 236"
       class="s1"
       d="m2 60l9 2 1 8-3 3h-7z" />
    <path
       id="Path 237"
       class="s1"
       d="m287 59h6l4 4v7l-4 4h-7l-3-3-1-7z" />
    <path
       id="Path 238"
       class="s1"
       d="m268 59h8l4 5v6l-6 5-8-2-2-9z" />
    <path
       id="Path 239"
       class="s1"
       d="m197 59h8l4 5-2 9-9 2-5-5v-7z" />
    <path
       id="Path 240"
       class="s1"
       d="m179 59h8l4 4v7l-6 5-6-1-4-5z" />
    <path
       id="Path 241"
       class="s1"
       d="m162 59h7l4 4-3 11h-9l-4-9z" />
    <path
       id="Path 242"
       class="s1"
       d="m144 59l10 2 1 10-6 4-8-3-1-9z" />
    <path
       id="Path 243"
       class="s1"
       d="m127 59l8 1 3 8-4 6h-8l-4-4v-6z" />
    <path
       id="Path 244"
       class="s1"
       d="m109 59l8 1 3 8-4 6-9-1-3-8z" />
    <path
       id="Path 245"
       class="s1"
       d="m92 59l9 3 1 7-4 5-9-1-2-10z" />
    <path
       id="Path 246"
       class="s1"
       d="m74 59l9 3 1 7-5 5h-6l-4-10z" />
    <path
       id="Path 247"
       class="s1"
       d="m57 59l8 3 1 7-5 5-9-3v-8z" />
    <path
       id="Path 248"
       class="s1"
       d="m252 58l8 2 3 6-4 8h-10l-3-10z" />
    <path
       id="Path 249"
       class="s1"
       d="m235 58l9 4 1 7-6 6-10-4-1-7z" />
    <path
       id="Path 250"
       class="s1"
       d="m218 58l8 4 1 7-6 6-10-4 1-10z" />
    <path
       id="Path 251"
       class="s1"
       d="m99 42h8l4 8-4 6-9-1-2-10z" />
    <path
       id="Path 252"
       class="s1"
       d="m82 42h7l4 8-3 5-8 1-4-5v-5z" />
    <path
       id="Path 253"
       class="s1"
       d="m64 42h7l4 8-5 6-7-1-3-7z" />
    <path
       id="Path 254"
       class="s1"
       d="m47 42l7 1 3 8-5 5-6-1-3-9z" />
    <path
       id="Path 255"
       class="s1"
       d="m29 42h6l4 9-5 5-6-1-3-8z" />
    <path
       id="Path 256"
       class="s1"
       d="m13 42l7 3 1 6-3 4h-7l-3-3 1-8z" />
    <path
       id="Path 257"
       class="s1"
       d="m295 41l9 1 3 5-4 9-7 1-5-4v-8z" />
    <path
       id="Path 258"
       class="s1"
       d="m277 41h8l4 5v6l-5 5-8-1-3-3v-8z" />
    <path
       id="Path 259"
       class="s1"
       d="m259 41h8l4 4v8l-5 4-8-1-3-10z" />
    <path
       id="Path 260"
       class="s1"
       d="m242 41l9 1 3 6-5 9-9-1-3-10z" />
    <path
       id="Path 261"
       class="s1"
       d="m224 41l9 1 3 9-5 6-8-1-4-9z" />
    <path
       id="Path 262"
       class="s1"
       d="m206 41l9 1 3 9-5 6-8-1-3-11z" />
    <path
       id="Path 263"
       class="s1"
       d="m189 41l10 3 1 8-5 5-8-1-3-10z" />
    <path
       id="Path 264"
       class="s1"
       d="m171 41l10 3 1 8-6 5-6-1-4-9z" />
    <path
       id="Path 265"
       class="s1"
       d="m154 41l10 4v7l-6 5-9-4v-8z" />
    <path
       id="Path 266"
       class="s1"
       d="m137 41l9 4v7l-6 5-7-2-2-9z" />
    <path
       id="Path 267"
       class="s1"
       d="m119 41l9 4v8l-3 3h-8l-3-3-1-6z" />
    <path
       id="Path 268"
       class="s1"
       d="m20 25h7l3 5-3 7-6 1-4-3v-7z" />
    <path
       id="Path 269"
       class="s1"
       d="m2 25l8 1 2 7-3 4h-7z" />
    <path
       id="Path 270"
       class="s1"
       d="m126 24l10 2 1 9-6 4-7-2-2-8z" />
    <path
       id="Path 271"
       class="s1"
       d="m109 24l10 3v8l-6 4-8-4v-8z" />
    <path
       id="Path 272"
       class="s1"
       d="m91 24l10 3v8l-3 3-10-2-1-8z" />
    <path
       id="Path 273"
       class="s1"
       d="m74 24l7 1 3 7-4 6h-7l-4-9z" />
    <path
       id="Path 274"
       class="s1"
       d="m57 24l6 1 3 7-5 6-7-1-2-9z" />
    <path
       id="Path 275"
       class="s1"
       d="m39 24l8 3 1 6-4 5h-6l-4-4v-5z" />
    <path
       id="Path 276"
       class="s1"
       d="m286 23l9 1 3 10-4 5-10-1-3-8z" />
    <path
       id="Path 277"
       class="s1"
       d="m269 23l10 3 1 9-4 4h-8l-4-4v-7z" />
    <path
       id="Path 278"
       class="s1"
       d="m251 23h6l5 4v8l-4 4-11-3-1-8z" />
    <path
       id="Path 279"
       class="s1"
       d="m233 23l8 1 4 9-5 6-9-1-3-9z" />
    <path
       id="Path 280"
       class="s1"
       d="m216 23l7 1 4 9-5 6h-7l-4-4v-8z" />
    <path
       id="Path 281"
       class="s1"
       d="m198 23l9 2 2 9-5 5-8-1-3-10z" />
    <path
       id="Path 282"
       class="s1"
       d="m181 23l9 3 1 8-5 5-10-3-1-7z" />
    <path
       id="Path 283"
       class="s1"
       d="m164 23l8 3 1 8-5 5-10-4v-8z" />
    <path
       id="Path 284"
       class="s1"
       d="m147 23l8 5-3 10h-9l-3-10z" />
    <path
       id="Path 285"
       class="s1"
       d="m64 7h7l3 3v7l-3 3-8-1-2-9z" />
    <path
       id="Path 286"
       class="s1"
       d="m47 7l9 3v7l-4 3-8-3-1-6z" />
    <path
       id="Path 287"
       class="s1"
       d="m29 7l9 3v7l-4 3-8-3v-7z" />
    <path
       id="Path 288"
       class="s1"
       d="m12 7l8 3-2 9h-7l-3-8z" />
    <path
       id="Path 289"
       class="s1"
       d="m188 6h8l4 10-5 5-8-1-3-9z" />
    <path
       id="Path 290"
       class="s1"
       d="m171 6h7l4 10-5 5h-6l-4-4v-7z" />
    <path
       id="Path 291"
       class="s1"
       d="m153 6h7l4 4v6l-5 5-7-1-3-10z" />
    <path
       id="Path 292"
       class="s1"
       d="m136 6h6l4 4v6l-5 5-8-2-2-8z" />
    <path
       id="Path 293"
       class="s1"
       d="m119 6l9 4v6l-6 5-8-4v-7z" />
    <path
       id="Path 294"
       class="s1"
       d="m101 6l9 4v6l-3 4-10-2-1-7z" />
    <path
       id="Path 295"
       class="s1"
       d="m84 6l8 4v6l-4 4-9-3v-7z" />
    <path
       id="Path 296"
       class="s1"
       d="m296 5l9 2 2 9-7 6-7-2-3-8z" />
    <path
       id="Path 297"
       class="s1"
       d="m278 5l10 3 1 8-7 6-7-2-2-10z" />
    <path
       id="Path 298"
       class="s1"
       d="m261 5l9 3 1 9-4 4h-8l-3-3-1-8z" />
    <path
       id="Path 299"
       class="s1"
       d="m243 5l9 3 1 9-4 4-11-3-1-7z" />
    <path
       id="Path 300"
       class="s1"
       d="m225 5l7 1 4 9-5 6-9-1-2-11z" />
    <path
       id="Path 301"
       class="s1"
       d="m208 5l9 4 1 6-5 6h-7l-4-4v-7z" />
    <path
       id="Path 302"
       class="s1"
       d="m9 0l-2 2-5-2z" />
    <path
       id="Path 303"
       class="s1"
       d="m27 0l-2 2-6-2z" />
    <path
       id="Path 304"
       class="s1"
       d="m45 0l-1 2-7-2z" />
    <path
       id="Path 305"
       class="s1"
       d="m63 0l-1 2-8-2z" />
    <path
       id="Path 306"
       class="s1"
       d="m81 0l-1 2-8-2z" />
    <path
       id="Path 307"
       class="s1"
       d="m99 0l-3 3-7-3z" />
    <path
       id="Path 308"
       class="s1"
       d="m117 0l-3 3-7-3z" />
    <path
       id="Path 309"
       class="s1"
       d="m135 0l-3 3-8-3z" />
    <path
       id="Path 310"
       class="s1"
       d="m153 0l-2 3-9-3z" />
    <path
       id="Path 311"
       class="s1"
       d="m171 0l-2 3h-7l-2-3z" />
    <path
       id="Path 312"
       class="s1"
       d="m189 0l-2 3h-7l-3-3z" />
    <path
       id="Path 313"
       class="s1"
       d="m207 0l-2 3h-8l-2-3z" />
    <path
       id="Path 314"
       class="s1"
       d="m225 0l-5 4-8-4z" />
    <path
       id="Path 315"
       class="s1"
       d="m243 0l-5 4-8-4z" />
    <path
       id="Path 316"
       class="s1"
       d="m261 0l-5 4-8-4z" />
    <path
       id="Path 317"
       class="s1"
       d="m279 0l-5 4-9-4z" />
    <path
       id="Path 318"
       class="s1"
       d="m296 0l-4 4h-5l-4-4z" />
    <path
       id="Path 319"
       class="s1"
       d="m312 3l-7 1-4-4h11z" />
    <path
       id="Path 320"
       class="s1"
       d="m312 20l-4-4v-5l4-4z" />
    <path
       id="Path 321"
       class="s1"
       d="m312 38l-8 1-4-4v-8l3-3h9z" />
    <path
       id="Path 322"
       class="s1"
       d="m312 55l-3-3 3-9z" />
    <path
       id="Path 323"
       class="s1"
       d="m312 73l-7 1-5-6 4-8 8 1z" />
    <path
       id="Path 324"
       class="s1"
       d="m312 89l-2-1 2-8z" />
    <path
       id="Path 325"
       class="s1"
       d="m312 107l-6 2-5-5 2-7h9z" />
    <path
       id="Path 326"
       class="s1"
       d="m312 142l-8 1-2-3 2-7 8 1z" />
    <path
       id="Path 327"
       class="s1"
       d="m312 176l-2 2-7-2 2-7 7 2z" />
    <path
       id="Path 328"
       class="s1"
       d="m312 210l-2 3-7-3 2-5 7 3z" />
  </g>
</svg>
